<svg width="56" height="56" viewBox="0 0 56 56" fill="none" xmlns="http://www.w3.org/2000/svg">
<path d="M56 6.70045V49.3053C56 51.0851 55.3021 52.7021 54.1738 53.9061L54.0517 54.0282L53.8075 54.2609C53.5981 54.4528 53.3771 54.6273 53.1503 54.7901C53.0689 54.8425 52.9932 54.8948 52.9118 54.9472C52.7781 55.0344 52.6385 55.1159 52.4931 55.1915C52.4 55.2438 52.307 55.2962 52.2081 55.3427C52.1093 55.3892 52.0104 55.4358 51.9115 55.4765C51.1089 55.8138 50.2308 55.9999 49.3061 55.9999H6.69976C3.00094 55.9999 0 53.0045 0 49.3053V6.70045C0 2.99543 3.00094 0 6.69976 0H49.3002C52.9991 0 56 2.99543 56 6.70045Z" fill="#F1F3F4"/>
<path d="M55.9999 33.3395V49.3054C55.9999 51.0852 55.3021 52.7021 54.1738 53.9061L54.0517 54.0283L53.8074 54.2609C53.598 54.4529 53.377 54.6274 53.1502 54.7902C53.0688 54.8426 52.9932 54.8949 52.9118 54.9473C52.778 55.0345 52.6384 55.1159 52.493 55.1915C52.4 55.2439 52.3069 55.2962 52.2081 55.3428C52.1092 55.3893 52.0103 55.4358 51.9115 55.4766C51.1089 55.8139 50.2307 56 49.306 56H33.3301L16.6679 39.3361C13.7659 36.4338 11.9746 32.4263 11.9746 28C11.9746 23.5738 13.7659 19.5663 16.6679 16.664C19.5642 13.7674 23.5712 11.9702 27.997 11.9702C32.3763 11.9702 36.331 13.7209 39.2215 16.5593L55.9999 33.3395Z" fill="#E6E8E8"/>
<path d="M33.7267 34.223C33.7267 37.1143 33.3859 39.5299 32.3984 39.5299C31.4144 39.5299 31.244 37.6256 31.244 34.6988V16.4057C34.5084 18.3094 35.087 21.4032 35.087 23.4104C35.087 25.417 33.6593 27.9675 33.1161 29.6688C32.5694 31.3672 33.7267 31.3352 33.7267 34.223ZM28.4402 24.6196C28.1087 26.6071 26.1633 26.913 25.8737 27.5947C25.5846 28.2734 26.2145 30.415 26.5198 33.3738C26.8257 36.3326 26.6233 39.5299 24.7512 39.5299C22.8797 39.5299 22.6773 36.3326 22.9827 33.3738C23.288 30.415 23.9184 28.2734 23.6294 27.5947C23.3398 26.913 21.3938 26.6071 21.0629 24.6196C20.7285 22.6287 21.4421 17.0682 21.4421 17.0682C21.4421 17.0682 21.748 16.7431 22.8605 16.5471V22.8671C22.8605 23.2237 23.1531 23.5133 23.5102 23.5133C23.8672 23.5133 24.1563 23.2237 24.1563 22.8671V16.4185C24.343 16.4086 24.5395 16.4057 24.7512 16.4057C24.9635 16.4057 25.1601 16.4086 25.3462 16.4185V22.8671C25.3462 23.2237 25.6358 23.5133 25.9929 23.5133C26.3494 23.5133 26.6425 23.2237 26.6425 22.8671V16.5471C27.7551 16.7431 28.0604 17.0682 28.0604 17.0682C28.0604 17.0682 28.7746 22.6287 28.4402 24.6196ZM27.9993 11.9708C19.1466 11.9708 11.9717 19.1458 11.9717 27.9995C11.9717 36.8537 19.1466 44.0288 27.9993 44.0288C36.8527 44.0288 44.027 36.8537 44.027 27.9995C44.027 19.1458 36.8527 11.9708 27.9993 11.9708Z" fill="#BF2721"/>
</svg>
