<svg width="56" height="56" viewBox="0 0 56 56" fill="none" xmlns="http://www.w3.org/2000/svg">
<path d="M15.1584 16.8971C11.8989 20.1569 11.8989 25.444 15.1584 28.7037L16.1971 29.7424V29.7459L27.9989 41.549L42.4472 56H6.69935C3.00017 56 0 53.0014 0 49.302V6.69976C0 3.00035 3.00017 0 6.69935 0H49.299C52.9976 0 55.996 3.00035 55.996 6.69976V32.0489L40.9195 16.9733L40.8451 16.8971H40.8434C39.2156 15.267 37.079 14.451 34.943 14.451C32.8088 14.451 30.671 15.267 29.041 16.8971L28.0024 17.9376L26.9626 16.8971C25.3325 15.267 23.1982 14.451 21.0605 14.451C18.9228 14.451 16.7885 15.267 15.1584 16.8971Z" fill="#F1F3F4"/>
<path d="M55.996 32.0489V49.302C55.996 51.0822 55.3011 52.6989 54.1694 53.9005L54.0508 54.0232L53.9286 54.1436L53.8042 54.2605H53.8024C53.5931 54.4477 53.3744 54.624 53.1441 54.7868C53.068 54.8426 52.9906 54.8944 52.9104 54.9444C52.7754 55.0316 52.6341 55.1154 52.4916 55.191C52.3969 55.2433 52.3021 55.2934 52.2038 55.3393H52.2026C52.1061 55.3858 52.0078 55.4306 51.9078 55.4731C51.1064 55.8121 50.226 56 49.3001 56H42.4473L27.9989 41.5484L16.1965 29.7459V29.7424L15.1585 28.7037C11.8983 25.4439 11.8983 20.1568 15.1585 16.8971C16.7885 15.2669 18.9228 14.451 21.0605 14.451C23.1983 14.451 25.3325 15.2669 26.9626 16.8971L28.0024 17.937L29.041 16.8971C30.6711 15.2669 32.8088 14.451 34.9431 14.451C37.0791 14.451 39.2156 15.2669 40.8434 16.8971H40.8451L40.9196 16.9733L55.996 32.0489Z" fill="#EFEFF0"/>
<path d="M43.2689 23.4003C43.2485 23.701 43.2096 23.9993 43.1561 24.2959C43.1241 24.4791 43.0834 24.6611 43.0374 24.8426L43.0188 24.9229C42.9944 25.0078 42.9723 25.0915 42.9461 25.177C42.9072 25.3067 42.8665 25.4346 42.8217 25.5626C42.7775 25.6905 42.731 25.8167 42.6792 25.9429C42.6402 26.0372 42.6013 26.1296 42.5588 26.2227C42.4751 26.4099 42.3844 26.5937 42.2861 26.7734C42.2378 26.8642 42.1861 26.9531 42.1343 27.0421C42.0988 27.1014 42.0639 27.1608 42.0267 27.2201C41.9174 27.3946 41.8005 27.5673 41.6761 27.7377C41.6132 27.8209 41.5499 27.9063 41.4836 27.9878C41.3539 28.1529 41.2143 28.3146 41.0678 28.4722C40.9957 28.5496 40.9212 28.6275 40.8456 28.7037L39.807 29.7424L27.9994 41.549L16.197 29.7459V29.7424L15.159 28.7037C11.8988 25.4439 11.8988 20.1568 15.159 16.8971C16.7884 15.2669 18.9227 14.451 21.061 14.451C23.1988 14.451 25.333 15.2669 26.9625 16.8971L28.0029 17.937L29.0415 16.8971C30.671 15.2669 32.8093 14.451 34.9436 14.451C37.0796 14.451 39.2156 15.2669 40.8439 16.8971H40.8456L40.9195 16.9733C41.0451 17.1012 41.1643 17.2338 41.2794 17.3688L41.294 17.3845L41.3591 17.463C41.4149 17.5293 41.4684 17.5944 41.5202 17.6607C41.5743 17.7282 41.626 17.7945 41.6761 17.8631C41.7371 17.9486 41.7988 18.0335 41.8558 18.1207C41.9151 18.2062 41.9709 18.2935 42.0267 18.3807C42.0639 18.44 42.0988 18.4993 42.1343 18.5587C42.1861 18.6476 42.2378 18.7366 42.2861 18.8274C42.3844 19.0071 42.4751 19.1908 42.5588 19.3781C42.6013 19.4712 42.6402 19.5636 42.6792 19.6578C42.731 19.784 42.7775 19.9102 42.8217 20.0382C42.8665 20.1661 42.9072 20.2941 42.9461 20.422C42.9706 20.5017 42.9927 20.5837 43.013 20.6634L43.0386 20.7617C43.0857 20.9414 43.1241 21.1211 43.1561 21.3031C43.1927 21.5014 43.2206 21.6998 43.241 21.8998C43.252 21.9981 43.2613 22.0987 43.2689 22.1987C43.2968 22.5995 43.2968 23.0013 43.2689 23.4003Z" fill="#BF2721"/>
<path d="M56.0001 32.0524V49.3014C56.0001 51.0816 55.3052 52.6984 54.17 53.9005L54.0514 54.0226L53.9287 54.143L53.8048 54.2605H53.8031C53.5954 54.4495 53.3762 54.6252 53.1448 54.7868C53.0686 54.8427 52.9906 54.8944 52.911 54.9444C52.7761 55.0317 52.6347 55.1148 52.4917 55.191C52.3975 55.2428 52.3027 55.2928 52.2044 55.3393H52.2027C52.1061 55.3859 52.0078 55.4301 51.9078 55.4731C51.107 55.8122 50.226 55.9994 49.3008 55.9994H42.4473L27.9995 41.5484L39.8071 29.7418L40.844 28.7037C40.9196 28.6275 40.9958 28.5496 41.0679 28.4717C41.2127 28.3141 41.3517 28.1524 41.4837 27.9878C41.55 27.9064 41.6134 27.8209 41.6762 27.7377C41.8006 27.5667 41.9175 27.3946 42.0269 27.2201C42.0641 27.1608 42.099 27.1015 42.1344 27.0421C42.1862 26.9526 42.238 26.8642 42.2862 26.7729C42.3845 26.5914 42.4752 26.4094 42.559 26.2227C42.6014 26.1297 42.6404 26.0372 42.6793 25.9424C42.7311 25.8162 42.7776 25.69 42.8218 25.562C42.8666 25.4341 42.9073 25.3061 42.9463 25.1764C42.9724 25.091 42.9945 25.0078 43.019 24.9223L43.037 24.8426C43.0835 24.6612 43.1225 24.4791 43.1562 24.2959C43.2097 23.9988 43.2469 23.6987 43.269 23.4003C43.2969 23.0014 43.2969 22.5989 43.269 22.1982C43.2615 22.0982 43.2522 21.9981 43.2411 21.8998C43.2208 21.6998 43.1911 21.5009 43.1562 21.3026C43.1225 21.1229 43.0835 20.9414 43.0387 20.7611L43.0131 20.6634C42.9928 20.5832 42.9707 20.5017 42.9463 20.4221C42.9073 20.2941 42.8666 20.1662 42.8218 20.0382C42.7776 19.9103 42.7311 19.7841 42.6793 19.6579C42.6404 19.5631 42.6014 19.4706 42.559 19.3781C42.4752 19.1909 42.3845 19.0088 42.2862 18.8274C42.238 18.7367 42.1862 18.6471 42.1344 18.5581C42.099 18.4988 42.0641 18.4395 42.0269 18.3801C41.971 18.2929 41.9152 18.2057 41.8559 18.1208C41.7989 18.0335 41.7372 17.9486 41.6762 17.8631C41.6262 17.7945 41.5744 17.7276 41.5203 17.6607C41.4436 17.5619 41.3622 17.4647 41.2796 17.3682C41.1801 17.2519 41.076 17.1379 40.9679 17.0268L40.844 16.8965L40.9196 16.9727L55.9966 32.0489L56.0001 32.0524Z" fill="#E6E8E8"/>
</svg>
