<svg width="56" height="56" viewBox="0 0 56 56" fill="none" xmlns="http://www.w3.org/2000/svg">
<path d="M56 6.70011V49.3028C56 50.5242 55.6743 51.6758 55.0986 52.6645C54.8892 53.0193 54.6507 53.3624 54.3832 53.6765L54.1738 53.9033L54.0517 54.0255L53.8075 54.2581C53.5981 54.45 53.3771 54.6245 53.1445 54.7874C53.0689 54.8397 52.9932 54.8921 52.9118 54.9444C52.7781 55.0316 52.6385 55.1131 52.4931 55.1887C52.4 55.241 52.307 55.2934 52.2081 55.3399H52.2023C52.1093 55.3864 52.0104 55.4329 51.9115 55.4737C51.1089 55.811 50.2308 55.9971 49.3002 55.9971H6.69976C3.00094 55.9971 0 53.0018 0 49.3028V6.70011C0 2.99528 3.00094 0 6.69976 0H49.3002C52.9991 0 56 2.99528 56 6.70011Z" fill="#F1F3F4"/>
<path d="M55.0986 52.6646C54.8951 53.0193 54.6508 53.3624 54.3833 53.6765C54.6508 53.3624 54.8893 53.0193 55.0986 52.6646Z" fill="#F1F3F4"/>
<path d="M55.9999 31.0665V49.3057C55.9999 50.5271 55.6742 51.6787 55.0984 52.6674C54.889 53.0222 54.6506 53.3653 54.3831 53.6794L54.1737 53.9062L54.0516 54.0284L53.8073 54.261C53.5979 54.4529 53.3769 54.6274 53.1443 54.7903C53.0687 54.8426 52.9931 54.895 52.9117 54.9473C52.7779 55.0345 52.6383 55.116 52.4929 55.1916C52.3999 55.2439 52.3068 55.2963 52.208 55.3428H52.2022C52.1091 55.3893 52.0102 55.4358 51.9114 55.4766C51.1088 55.8139 50.2306 56 49.3001 56H31.056L18.872 43.8095L12.1897 37.1269L14.0914 31.7295V31.7237L9.74707 28.0014L14.0914 24.2792V24.2733L12.1897 18.876L17.8194 17.8175L18.872 12.1934L24.269 14.0952H24.2749L28.0028 9.74481L31.7248 14.0952H31.7307L37.1277 12.1934L55.9999 31.0665Z" fill="#E6E8E8"/>
<path d="M24.239 24.4961C24.239 23.3277 23.2863 22.3791 22.122 22.3791C20.9536 22.3791 20.0051 23.3277 20.0051 24.4961C20.0051 25.6605 20.9536 26.6097 22.122 26.6097C23.2863 26.6097 24.239 25.6605 24.239 24.4961ZM33.8716 29.3857C32.7032 29.3857 31.7547 30.3349 31.7547 31.5027C31.7547 32.6677 32.7032 33.6169 33.8716 33.6169C35.0365 33.6169 35.9851 32.6677 35.9851 31.5027C35.9851 30.3349 35.0365 29.3857 33.8716 29.3857ZM18.001 24.4961C18.001 22.2214 19.8475 20.3754 22.122 20.3754C24.3925 20.3754 26.2425 22.2214 26.2425 24.4961C26.2425 26.7673 24.3925 28.6168 22.122 28.6168C19.8475 28.6168 18.001 26.7673 18.001 24.4961ZM23.4219 38.0231C23.2683 38.0231 23.1142 37.9865 22.9676 37.9132C22.4774 37.6643 22.2791 37.06 22.5286 36.5685L27.9965 25.778L31.194 19.467L31.6704 18.5218C31.9228 18.0275 32.5241 17.8297 33.0184 18.0827C33.1132 18.1298 33.1976 18.1927 33.2709 18.2619C33.5715 18.5585 33.6628 19.0273 33.4616 19.4268L27.9965 30.2139L24.3157 37.4735C24.1401 37.8213 23.7882 38.0231 23.4219 38.0231ZM33.8716 35.624C31.5971 35.624 29.7512 33.7739 29.7512 31.5027C29.7512 29.2286 31.5971 27.382 33.8716 27.382C36.1427 27.382 37.9921 29.2286 37.9921 31.5027C37.9921 33.7739 36.1427 35.624 33.8716 35.624ZM40.4754 26.4265V26.423C40.3324 25.265 40.0323 24.1588 39.5926 23.1224C39.3914 22.6356 39.157 22.1668 38.893 21.712C38.6295 21.2542 38.3364 20.8145 38.0177 20.3975C37.3256 19.4815 36.5091 18.6684 35.5966 17.9728H35.5931C35.1755 17.6576 34.7434 17.3644 34.2892 17.1045C33.8385 16.8404 33.3697 16.6101 32.8864 16.4048C31.8466 15.9657 30.7329 15.6615 29.568 15.5184C29.055 15.4527 28.5316 15.4196 28.0006 15.4196C27.4696 15.4196 26.9416 15.4527 26.4292 15.5184C25.2643 15.6615 24.1546 15.9657 23.1107 16.4048C22.6274 16.6101 22.1622 16.8404 21.7114 17.1045C21.2537 17.3644 20.8216 17.6576 20.4041 17.9687L20.4006 17.9728C19.4887 18.6684 18.6715 19.4815 17.9795 20.3975C17.6608 20.8145 17.3711 21.2542 17.1077 21.7085C16.8442 22.1592 16.6133 22.628 16.408 23.1113C15.9684 24.1518 15.6648 25.265 15.5217 26.43C15.4554 26.9429 15.4229 27.4664 15.4229 27.998C15.4229 28.529 15.4554 29.0565 15.5217 29.5689C15.6648 30.7338 15.9684 31.8435 16.408 32.8875C16.6133 33.3714 16.8442 33.8367 17.1077 34.2869C17.3711 34.7446 17.6608 35.1808 17.9795 35.5978V35.6019C18.6715 36.5139 19.4846 37.3269 20.3971 38.019H20.4006C20.8181 38.3378 21.2537 38.6274 21.7114 38.8909C22.1622 39.1549 22.6274 39.3858 23.1107 39.5905C24.1546 40.0302 25.2643 40.3338 26.4292 40.4769C26.9416 40.5426 27.4696 40.5758 28.0006 40.5758C28.5316 40.5758 29.055 40.5426 29.568 40.4769C30.7329 40.3338 31.8466 40.0302 32.8864 39.5905C33.3697 39.3858 33.8385 39.1549 34.2892 38.8909C34.7434 38.6274 35.1831 38.3378 35.6006 38.019C36.5126 37.3269 37.3256 36.5139 38.0177 35.6019V35.5978C38.3364 35.1808 38.6295 34.7446 38.8895 34.2869C39.1535 33.8326 39.3914 33.3639 39.5926 32.8765C40.0288 31.8401 40.3324 30.7338 40.4754 29.5764V29.573C40.5411 29.0565 40.5743 28.5325 40.5743 27.998C40.5743 27.4629 40.5411 26.9429 40.4754 26.4265ZM22.122 22.3791C20.9536 22.3791 20.0051 23.3277 20.0051 24.4961C20.0051 25.6605 20.9536 26.6097 22.122 26.6097C23.2863 26.6097 24.239 25.6605 24.239 24.4961C24.239 23.3277 23.2863 22.3791 22.122 22.3791ZM22.122 22.3791C20.9536 22.3791 20.0051 23.3277 20.0051 24.4961C20.0051 25.6605 20.9536 26.6097 22.122 26.6097C23.2863 26.6097 24.239 25.6605 24.239 24.4961C24.239 23.3277 23.2863 22.3791 22.122 22.3791Z" fill="#BF2721"/>
<path d="M28.0002 9.74255V15.1861H23.3359L28.0002 9.74255Z" fill="#BF2721"/>
<path d="M28 9.74255V15.1861H32.6648L28 9.74255Z" fill="#BF2721"/>
<path d="M27.9999 9.74255V16.4063H22.2905L27.9999 9.74255Z" fill="#BF2721"/>
<path d="M28 9.74255V16.4063H33.7093L28 9.74255Z" fill="#BF2721"/>
<path d="M18.872 12.1882L22.2038 17.9586L17.2593 20.8135L18.872 12.1882Z" fill="#BF2721"/>
<path d="M18.8721 12.1881L22.2039 17.9585L27.1479 15.1041L18.8721 12.1881Z" fill="#BF2721"/>
<path d="M12.1904 18.8703L17.9608 22.2022L15.1065 27.1461L12.1904 18.8703Z" fill="#BF2721"/>
<path d="M12.1904 18.8702L17.9608 22.202L20.8158 17.2574L12.1904 18.8702Z" fill="#BF2721"/>
<path d="M9.74414 27.9985H16.4078V33.7079L9.74414 27.9985Z" fill="#BF2721"/>
<path d="M9.74414 27.9982H16.4078V22.2889L9.74414 27.9982Z" fill="#BF2721"/>
<path d="M9.74414 27.9985H15.1877V32.6634L9.74414 27.9985Z" fill="#BF2721"/>
<path d="M9.74414 27.9983H15.1877V23.334L9.74414 27.9983Z" fill="#BF2721"/>
<path d="M9.74414 27.9985H16.4078V33.7079L9.74414 27.9985Z" fill="#BF2721"/>
<path d="M9.74414 27.9982H16.4078V22.2889L9.74414 27.9982Z" fill="#BF2721"/>
<path d="M12.1904 37.1267L17.9608 33.7949L20.8158 38.7394L12.1904 37.1267Z" fill="#BF2721"/>
<path d="M12.1904 37.1264L17.9608 33.7946L15.1065 28.8506L12.1904 37.1264Z" fill="#BF2721"/>
<path d="M18.8721 43.8087L22.2039 38.0383L27.1479 40.8926L18.8721 43.8087Z" fill="#BF2721"/>
<path d="M18.872 43.8085L22.2038 38.0381L17.2593 35.1832L18.872 43.8085Z" fill="#BF2721"/>
<path d="M28 46.2543V39.5906H33.7093L28 46.2543Z" fill="#BF2721"/>
<path d="M27.9999 46.2543V39.5906H22.2905L27.9999 46.2543Z" fill="#BF2721"/>
<path d="M28 46.2543V40.8108H32.6648L28 46.2543Z" fill="#BF2721"/>
<path d="M28.0002 46.2543V40.8108H23.3359L28.0002 46.2543Z" fill="#BF2721"/>
<path d="M28 46.2543V39.5906H33.7093L28 46.2543Z" fill="#BF2721"/>
<path d="M27.9999 46.2543V39.5906H22.2905L27.9999 46.2543Z" fill="#BF2721"/>
<path d="M37.1273 43.8085L33.7954 38.0381L38.74 35.1832L37.1273 43.8085Z" fill="#BF2721"/>
<path d="M37.127 43.8087L33.7951 38.0383L28.8506 40.8926L37.127 43.8087Z" fill="#BF2721"/>
<path d="M43.8095 37.1264L38.0391 33.7946L40.8934 28.8506L43.8095 37.1264Z" fill="#BF2721"/>
<path d="M43.8094 37.1267L38.039 33.7949L35.1841 38.7394L43.8094 37.1267Z" fill="#BF2721"/>
<path d="M46.255 27.9982H39.5913V22.2889L46.255 27.9982Z" fill="#BF2721"/>
<path d="M46.255 27.9985H39.5913V33.7079L46.255 27.9985Z" fill="#BF2721"/>
<path d="M46.2551 27.9983H40.8115V23.334L46.2551 27.9983Z" fill="#BF2721"/>
<path d="M46.2551 27.9985H40.8115V32.6634L46.2551 27.9985Z" fill="#BF2721"/>
<path d="M46.255 27.9982H39.5913V22.2889L46.255 27.9982Z" fill="#BF2721"/>
<path d="M46.255 27.9985H39.5913V33.7079L46.255 27.9985Z" fill="#BF2721"/>
<path d="M43.8094 18.8702L38.039 22.202L35.1841 17.2574L43.8094 18.8702Z" fill="#BF2721"/>
<path d="M43.8095 18.8703L38.0391 22.2022L40.8934 27.1461L43.8095 18.8703Z" fill="#BF2721"/>
<path d="M37.127 12.1881L33.7951 17.9585L28.8506 15.1041L37.127 12.1881Z" fill="#BF2721"/>
<path d="M37.1273 12.1882L33.7954 17.9586L38.74 20.8135L37.1273 12.1882Z" fill="#BF2721"/>
<path d="M27.9999 9.74255V16.4063H22.2905L27.9999 9.74255Z" fill="#BF2721"/>
<path d="M28 9.74255V16.4063H33.7093L28 9.74255Z" fill="#BF2721"/>
</svg>
