<svg width="57" height="56" viewBox="0 0 57 56" fill="none" xmlns="http://www.w3.org/2000/svg">
<path d="M56.9244 31.7541V49.3002C56.9244 49.9283 56.8372 50.5274 56.6802 51.1031C56.5813 51.4521 56.4592 51.7836 56.3138 52.1034C56.2731 52.2023 56.2266 52.2954 56.1743 52.3884C56.0812 52.5687 55.9765 52.749 55.8661 52.9235C55.6393 53.2724 55.3834 53.6039 55.0984 53.9005L54.9821 54.0226L54.86 54.1448L54.7321 54.2611C54.5227 54.4472 54.3076 54.6217 54.075 54.7845C53.9994 54.8427 53.918 54.895 53.8424 54.9415C53.7086 55.0288 53.5632 55.116 53.4237 55.1916C53.3248 55.2439 53.2318 55.2905 53.1329 55.337C53.0341 55.3835 52.941 55.4301 52.8363 55.4708C52.0397 55.8139 51.1558 56 50.2311 56H34.8093L21.8008 42.9843C22.8475 44.0312 24.5455 44.0312 25.5923 42.9843L39.7348 28.8346C39.9383 28.6368 40.0953 28.4275 40.2116 28.1716C40.3454 27.9331 40.4558 27.6714 40.4907 27.3923C41.9911 27.8808 43.4739 28.1192 44.7765 28.0669C46.6839 27.9855 48.0098 27.2992 48.4982 26.0895C49.0042 24.8973 48.5564 23.4666 47.2422 22.0767L56.9244 31.7541Z" fill="#E6E8E8"/>
<path d="M46.777 25.3742C46.5793 25.8394 45.7942 26.1418 44.6951 26.1826C43.474 26.2343 41.9911 25.9732 40.5199 25.4265C40.3221 25.362 40.107 25.2811 39.9093 25.1881C38.2403 24.5018 36.9552 23.6411 36.1061 22.8152C36.0247 22.9199 35.9433 23.0304 35.8503 23.1235C35.4665 23.5073 34.978 23.7341 34.4604 23.7981C34.0359 23.8504 33.5882 23.7981 33.1986 23.6004C32.9252 23.5073 32.6694 23.3328 32.46 23.1235C31.6226 22.286 31.5296 20.9716 32.2042 20.0586V20.0295C32.2856 19.9248 32.367 19.8201 32.46 19.7271C32.774 19.4072 33.1753 19.1978 33.5882 19.1048C34.3558 18.8896 35.228 19.1048 35.8503 19.7271L35.9201 19.8201C36.1178 20.0469 36.2922 20.297 36.3853 20.5762C36.583 21.0414 36.6062 21.5416 36.4783 22.0179C37.1761 22.7513 38.4089 23.6643 40.2291 24.4204C40.3221 24.4611 40.4152 24.5018 40.5199 24.5251V20.204C40.9153 20.3377 41.3398 20.4947 41.7817 20.6692C43.3286 21.3206 44.7475 22.2046 45.6895 23.1467L45.8756 23.3328C46.6025 24.1412 46.9631 24.9258 46.777 25.3742ZM56.9244 6.69976C56.9244 3.00093 53.9296 0 50.2312 0H7.62925C3.9308 0 0.930176 3.00093 0.930176 6.69976V49.3002C0.930176 52.999 3.9308 56 7.62925 56H34.8094L21.8008 42.9843C22.8476 44.0311 24.5456 44.0311 25.5923 42.9843L39.7348 28.8345C39.9383 28.6368 40.0953 28.4274 40.2117 28.1715C40.3454 27.9331 40.4559 27.6714 40.4908 27.3922C41.9911 27.8808 43.474 28.1192 44.7766 28.0669C46.6839 27.9854 48.0098 27.2992 48.4983 26.0889C49.0042 24.8973 48.5564 23.4666 47.2422 22.0766L56.9244 31.7541V6.69976Z" fill="#F1F3F4"/>
<path d="M46.7772 25.3735C46.5795 25.8388 45.7945 26.1412 44.6954 26.1819C43.4742 26.2336 41.9913 25.9725 40.5201 25.4259C40.3224 25.3613 40.1072 25.2805 39.9095 25.1875C38.2405 24.5013 36.9554 23.6406 36.1064 22.8149C36.025 22.9195 35.9436 23.03 35.8505 23.1231C35.4667 23.5069 34.9782 23.7337 34.4607 23.7976C34.0362 23.85 33.5884 23.7976 33.1988 23.5999C32.9255 23.5069 32.6696 23.3324 32.4603 23.1231C31.6229 22.2857 31.5298 20.9715 32.2044 20.0585V20.0294C32.2858 19.9247 32.3672 19.8201 32.4603 19.727C32.7743 19.4072 33.1755 19.1978 33.5884 19.1048C34.356 18.8896 35.2283 19.1048 35.8505 19.727L35.9203 19.8201C36.118 20.0469 36.2925 20.2969 36.3855 20.576C36.5832 21.0412 36.6065 21.5414 36.4786 22.0176C37.1764 22.7509 38.4092 23.6639 40.2293 24.4199C40.3224 24.4606 40.4154 24.5013 40.5201 24.5245V20.2039C40.9155 20.3376 41.34 20.4946 41.782 20.6691C43.3288 21.3204 44.7477 22.2043 45.6898 23.1463L45.8759 23.3324C46.6028 24.1407 46.9633 24.9252 46.7772 25.3735Z" fill="#E6E8E8"/>
<path d="M56.9302 32.0507V49.3003C56.9302 49.9284 56.843 50.528 56.6802 51.1032C56.8372 50.528 56.9244 49.9284 56.9244 49.3003V32.0449L56.9302 32.0507Z" fill="#F1F3F4"/>
<path d="M40.4793 17.3775C40.27 16.1097 39.1651 15.1384 37.8392 15.1384H28.721C28.029 15.1384 27.3428 15.4292 26.8369 15.9352L12.6944 30.0849C11.6419 31.1318 11.6302 32.8125 12.677 33.8594L21.801 42.9843C22.8477 44.0311 24.5457 44.0311 25.5925 42.9843L39.735 28.8345C39.9385 28.6368 40.0955 28.4274 40.2118 28.1716C40.3456 27.9331 40.4561 27.6714 40.4909 27.3922C40.0548 27.2468 39.6187 27.1015 39.1942 26.9153C37.31 26.1419 35.7748 25.1357 34.6874 24.0482C34.606 23.9726 34.5246 23.8912 34.4606 23.7981C34.0361 23.8504 33.5883 23.7981 33.1987 23.6004C32.9254 23.5073 32.6695 23.3328 32.4602 23.1235C31.6228 22.286 31.5298 20.9716 32.2043 20.0586V20.0295C32.2857 19.9248 32.3671 19.8201 32.4602 19.7271C32.7742 19.4072 33.1755 19.1978 33.5883 19.1048C34.3559 18.8896 35.2282 19.1048 35.8504 19.7271L35.9202 19.8201C36.1179 20.0469 36.2924 20.297 36.3854 20.5762C36.5831 21.0414 36.6064 21.5416 36.4785 22.0179C37.1763 22.7513 38.4091 23.6643 40.2293 24.4204C40.3223 24.4611 40.4153 24.5018 40.52 24.5251V17.8195C40.52 17.6561 40.5084 17.5107 40.4793 17.3775Z" fill="#BF2721"/>
<path d="M48.4982 26.0888C48.0097 27.2983 46.6839 27.9845 44.7765 28.0659C43.4739 28.1183 41.991 27.8798 40.4907 27.3914C40.5082 27.246 40.5198 27.1006 40.5198 26.9378V25.4258C41.991 25.9725 43.4739 26.2341 44.6951 26.1818C45.7942 26.1411 46.5792 25.8387 46.7769 25.3741C46.963 24.9257 46.6025 24.1407 45.8756 23.3324L45.6895 23.1463C44.7474 22.2042 43.3285 21.3203 41.7817 20.669C41.3397 20.4946 40.9152 20.3376 40.5198 20.2038V18.2674C41.1537 18.4302 41.8166 18.6686 42.4795 18.9303C44.4276 19.7386 46.114 20.8435 47.2421 22.0769C48.5564 23.4661 49.0041 24.8967 48.4982 26.0888Z" fill="#BF2721"/>
<path d="M40.5199 25.4263V26.9382C40.5199 27.101 40.5082 27.2464 40.4908 27.3918C40.0546 27.2464 39.6185 27.101 39.194 26.9149C37.3099 26.1415 35.7747 25.1355 34.6872 24.0481C34.6058 23.9725 34.5244 23.8911 34.4604 23.798C34.978 23.734 35.4665 23.5073 35.8503 23.1235C35.9433 23.0304 36.0247 22.9199 36.1061 22.8152C36.9552 23.641 38.2403 24.5016 39.9093 25.1878C40.107 25.2809 40.3221 25.3623 40.5199 25.4263Z" fill="#BF2721"/>
</svg>
