<svg width="56" height="56" viewBox="0 0 56 56" fill="none" xmlns="http://www.w3.org/2000/svg">
<path d="M56 6.69951V49.3016C56 53.0012 52.9995 55.9994 49.2999 55.9994H6.69837C2.99877 55.9994 0 53.0012 0 49.3016V6.69951C0 2.99991 2.99877 0 6.69837 0H49.2999C52.9995 0 56 2.99991 56 6.69951Z" fill="#F1F3F4"/>
<path d="M55.9985 26.7564V49.3016C55.9985 51.3528 55.0771 53.1887 53.6248 54.416C52.4584 55.4045 50.9491 56 49.299 56H28.7543L14.2738 41.5189L14.2698 41.5172C14.1941 41.4654 14.1274 41.3987 14.0773 41.3223L14.0733 41.3189C13.9975 41.2038 13.953 41.0665 13.953 40.9178V28.292L12.5269 26.8658C12.4397 26.8031 12.3616 26.7251 12.299 26.6379C12.1559 26.4504 12.0728 26.2168 12.0728 25.9627L13.8305 20.878L14.2978 19.5281V17.7647C14.2978 17.2974 14.6778 16.9174 15.145 16.9174H16.1262L14.4681 15.2593C14.3604 15.1368 14.2978 14.9779 14.2978 14.8018V12.7471C14.2978 12.3591 14.6129 12.044 15.0026 12.044H40.9967C41.1841 12.044 41.3568 12.1204 41.4827 12.2406L55.9985 26.7564Z" fill="#E6E8E8"/>
<path d="M39.8383 27.7934C38.8264 27.7934 38.0064 26.9735 38.0064 25.9627L37.876 25.3605L37.8572 25.279L36.8549 20.6637L36.6076 19.527H39.7585L40.0867 20.6335L41.4701 25.2938L41.5847 25.6784L41.669 25.9627C41.669 26.9735 40.8491 27.7934 39.8383 27.7934ZM33.9182 27.7934C32.9074 27.7934 32.0875 26.9735 32.0875 25.9627L32.034 25.3605L32.0266 25.279L31.6214 20.7116L31.516 19.527H34.6664L34.8612 20.682L35.6356 25.279L35.6492 25.3605L35.7501 25.9627C35.7501 26.9735 34.9302 27.7934 33.9182 27.7934ZM27.9993 27.7934C26.9874 27.7934 26.1675 26.9735 26.1675 25.9627L26.1914 25.3605L26.1948 25.279L26.3749 20.7612L26.4239 19.527H29.5748L29.6232 20.731L29.8033 25.279L29.8067 25.3605L29.8306 25.9627C29.8306 26.9735 29.0107 27.7934 27.9993 27.7934ZM28.2512 38.3122H17.9649V30.7814H28.2512V38.3122ZM16.1604 27.7934C15.1484 27.7934 14.3285 26.9735 14.3285 25.9627L14.4123 25.6807L14.5268 25.2944L15.8441 20.858L16.2396 19.527H19.3905L19.1079 20.8278L18.1404 25.279L18.1221 25.3605L17.9917 25.9627C17.9917 26.9735 17.1712 27.7934 16.1604 27.7934ZM20.3494 25.3605L20.3631 25.279L21.1158 20.8102L21.3312 19.527H24.4821L24.371 20.7788L23.9721 25.279L23.9653 25.3605L23.9111 25.9627C23.9111 26.9735 23.0912 27.7934 22.0799 27.7934C21.0685 27.7934 20.2486 26.9735 20.2486 25.9627L20.3494 25.3605ZM42.0764 20.6153L41.7003 19.527V17.7647C41.7003 17.2963 41.3203 16.9174 40.8531 16.9174H15.1462C14.6778 16.9174 14.2989 17.2963 14.2989 17.7647V19.527L13.8311 20.8774L12.0728 25.9627C12.0728 26.5855 12.577 27.0909 13.2009 27.0909C13.4898 27.0909 13.7542 26.9815 13.953 26.8014C14.1223 26.651 14.2453 26.4493 14.2989 26.2208V40.9361C14.2989 41.3252 14.6134 41.6397 15.0026 41.6397H31.7092V30.782H38.0332V41.6397H40.9967C41.3847 41.6397 41.7003 41.3252 41.7003 40.9361V26.2254C41.7539 26.4527 41.8764 26.6527 42.0456 26.8026C42.2445 26.9815 42.5083 27.0909 42.7972 27.0909C43.4211 27.0909 43.9265 26.5855 43.9265 25.9627L42.0764 20.6153Z" fill="#BF2721"/>
<path d="M41.7003 12.7477V14.8012C41.7003 15.1904 41.3846 15.5049 40.9966 15.5049H15.0025C14.6133 15.5049 14.2988 15.1904 14.2988 14.8012V12.7477C14.2988 12.3597 14.6133 12.0452 15.0025 12.0452H40.9966C41.3846 12.0452 41.7003 12.3597 41.7003 12.7477Z" fill="#BF2721"/>
<path d="M15.0021 41.6398H14.675C14.2756 41.6398 13.9531 41.3173 13.9531 40.919V26.8015C14.1224 26.651 14.2449 26.4493 14.2984 26.2209V40.9361C14.2984 41.3252 14.6129 41.6398 15.0021 41.6398Z" fill="#BF2721"/>
<path d="M42.0456 26.8031V40.919C42.0456 41.3172 41.7219 41.6403 41.3236 41.6403H40.9966C41.3846 41.6403 41.7003 41.3258 41.7003 40.9366V26.226C41.7538 26.4533 41.8763 26.6533 42.0456 26.8031Z" fill="#BF2721"/>
</svg>
