<svg width="79" height="72" viewBox="0 0 79 72" fill="none" xmlns="http://www.w3.org/2000/svg">
<path d="M18.1062 36.2435C14.8234 36.2435 11.8032 35.4643 9.04562 33.906C6.28804 32.2828 4.08855 30.1077 2.44713 27.3807C0.871375 24.6536 0.0834961 21.6669 0.0834961 18.4204C0.0834961 15.174 0.871375 12.1872 2.44713 9.46022C4.08855 6.66827 6.28804 4.49314 9.04562 2.93484C11.8032 1.31161 14.8234 0.5 18.1062 0.5C21.3891 0.5 24.4093 1.31161 27.1668 2.93484C29.9901 4.49314 32.1896 6.66827 33.7653 9.46022C35.4067 12.1872 36.2274 15.174 36.2274 18.4204C36.2274 21.6669 35.4067 24.6536 33.7653 27.3807C32.1896 30.1077 29.9901 32.2828 27.1668 33.906C24.4093 35.4643 21.3891 36.2435 18.1062 36.2435ZM53.2653 1.9609H63.0153L24.9017 70.0391H15.1517L53.2653 1.9609ZM18.1062 29.0363C21.1264 29.0363 23.6214 28.0299 25.5911 26.0171C27.6264 24.0043 28.6441 21.537 28.6441 18.6152C28.6441 15.6285 27.6264 13.1287 25.5911 11.1159C23.6214 9.10311 21.1264 8.09671 18.1062 8.09671C15.086 8.09671 12.5582 9.10311 10.5229 11.1159C8.55319 13.1287 7.56834 15.6285 7.56834 18.6152C7.56834 21.537 8.55319 24.0043 10.5229 26.0171C12.5582 28.0299 15.086 29.0363 18.1062 29.0363ZM59.9623 71.5C56.6795 71.5 53.6593 70.7208 50.9017 69.1625C48.1441 67.5393 45.9446 65.3642 44.3032 62.6372C42.7274 59.9101 41.9396 56.9234 41.9396 53.677C41.9396 50.4305 42.7274 47.4438 44.3032 44.7167C45.9446 41.9248 48.1441 39.7497 50.9017 38.1914C53.6593 36.5681 56.6795 35.7565 59.9623 35.7565C63.2451 35.7565 66.2653 36.5681 69.0229 38.1914C71.8461 39.7497 74.0456 41.9248 75.6214 44.7167C77.2628 47.4438 78.0835 50.4305 78.0835 53.677C78.0835 56.9234 77.2628 59.9101 75.6214 62.6372C74.0456 65.3642 71.8461 67.5393 69.0229 69.1625C66.2653 70.7208 63.2451 71.5 59.9623 71.5ZM59.8638 64.2929C62.884 64.2929 65.4118 63.2865 67.4471 61.2737C69.4825 59.2609 70.5002 56.7935 70.5002 53.8717C70.5002 50.885 69.4825 48.3852 67.4471 46.3724C65.4118 44.3596 62.884 43.3532 59.8638 43.3532C56.9093 43.3532 54.4143 44.3596 52.379 46.3724C50.3436 48.3852 49.3259 50.885 49.3259 53.8717C49.3259 56.7935 50.3436 59.2609 52.379 61.2737C54.4143 63.2865 56.9093 64.2929 59.8638 64.2929Z" fill="#6FA446"/>
</svg>
