<svg width="26" height="25" viewBox="0 0 26 25" fill="none" xmlns="http://www.w3.org/2000/svg">
<path d="M13.1385 1.12393C13.1491 1.09205 13.1631 1.07919 13.1735 1.07209C13.1871 1.06289 13.2079 1.05542 13.2334 1.05542C13.2589 1.05542 13.2797 1.06289 13.2933 1.07209C13.3037 1.07919 13.3177 1.09205 13.3283 1.12393L15.901 8.87848C16.0503 9.32841 16.471 9.6321 16.9451 9.6321H25.2435C25.2778 9.6321 25.2944 9.64157 25.3043 9.64923C25.3172 9.6593 25.3309 9.67697 25.3388 9.70167C25.3467 9.72638 25.3458 9.7487 25.3411 9.76441C25.3375 9.77636 25.3295 9.79369 25.3015 9.81358L18.6096 14.5752C18.216 14.8552 18.0512 15.3593 18.2033 15.8178L20.7644 23.5374C20.7751 23.5696 20.7715 23.5883 20.7673 23.6002C20.7619 23.6156 20.7496 23.6341 20.729 23.6494C20.7083 23.6646 20.687 23.671 20.6707 23.6716C20.6581 23.6721 20.6391 23.67 20.6115 23.6504L13.8711 18.8543C13.4894 18.5827 12.9774 18.5827 12.5957 18.8543L5.85525 23.6504C5.82765 23.67 5.80872 23.6721 5.79614 23.6716C5.77975 23.6709 5.75849 23.6646 5.73784 23.6494C5.7172 23.6341 5.7049 23.6156 5.69947 23.6002C5.69531 23.5883 5.69169 23.5696 5.70236 23.5374L8.2635 15.8178C8.41562 15.3593 8.25079 14.8552 7.85719 14.5752L1.16528 9.81358C1.13732 9.79369 1.12929 9.77636 1.12571 9.76441C1.121 9.7487 1.1201 9.72637 1.12799 9.70167C1.13589 9.67697 1.14956 9.6593 1.16251 9.64923C1.17235 9.64157 1.18895 9.6321 1.22325 9.6321H9.52172C9.99576 9.6321 10.4165 9.32841 10.5658 8.87848L13.1385 1.12393Z" fill="#C02425" stroke="#C02425"/>
</svg>
