<svg width="10" height="10" viewBox="0 0 10 10" fill="none" xmlns="http://www.w3.org/2000/svg">
<path d="M4.31455 1.13898C4.62548 0.62232 5.37452 0.622321 5.68545 1.13898L6.63562 2.71784C6.74732 2.90345 6.92952 3.03582 7.14056 3.0847L8.93577 3.50047C9.52322 3.63653 9.75468 4.3489 9.35939 4.80427L8.15143 6.19583C8.00942 6.35942 7.93983 6.57361 7.95856 6.78943L8.11788 8.62525C8.17002 9.22599 7.56404 9.66626 7.00881 9.43104L5.31207 8.71221C5.1126 8.62771 4.88739 8.62771 4.68793 8.71221L2.99119 9.43104C2.43596 9.66626 1.82998 9.22599 1.88212 8.62525L2.04144 6.78943C2.06017 6.57361 1.99058 6.35942 1.84857 6.19583L0.640606 4.80427C0.245319 4.3489 0.476785 3.63653 1.06424 3.50047L2.85944 3.0847C3.07048 3.03582 3.25268 2.90345 3.36438 2.71784L4.31455 1.13898Z" fill="#FFA665"/>
</svg>
