<svg width="49" height="49" viewBox="0 0 49 49" fill="none" xmlns="http://www.w3.org/2000/svg">
<path d="M34.5 30.5H38.5V34.5H34.5V30.5ZM34.5 22.5H38.5V26.5H34.5V22.5ZM34.5 14.5H38.5V18.5H34.5V14.5ZM27.98 14.5L30.5 16.18V14.5H27.98Z" fill="#E6E6E6"/>
<path d="M20.5 6.5V9.52L24.5 12.18V10.5H42.5V38.5H34.5V42.5H46.5V6.5H20.5Z" fill="#E6E6E6"/>
<path d="M16.84 11.9004L30.5 21.0004V42.5004H2.5V21.4604L16.84 11.9004ZM20.5 38.5004H26.5V22.8204L16.84 16.6804L6.5 23.2604V38.5004H12.5V26.5004H20.5V38.5004Z" fill="#E6E6E6"/>
</svg>
