<svg width="20" height="21" viewBox="0 0 20 21" fill="none" xmlns="http://www.w3.org/2000/svg">
<path fill-rule="evenodd" clip-rule="evenodd" d="M14.6 5.50039V5.90039H18.6C19.1523 5.90039 19.6 6.34811 19.6 6.90039V10.0837C19.6 10.5532 19.2195 10.9337 18.75 10.9337C18.2806 10.9337 17.9 10.5532 17.9 10.0837V7.60039H14.6V8.41706C14.6 8.8865 14.2195 9.26706 13.75 9.26706C13.2806 9.26706 12.9 8.8865 12.9 8.41706V7.60039H7.10002V8.41706C7.10002 8.8865 6.71947 9.26706 6.25002 9.26706C5.78058 9.26706 5.40002 8.8865 5.40002 8.41706V7.60039H2.10002V18.4004H8.75002C9.21947 18.4004 9.60003 18.7809 9.60003 19.2504C9.60003 19.7198 9.21947 20.1004 8.75003 20.1004H2.50002C1.94307 20.1004 1.40893 19.8791 1.0151 19.4853C0.621274 19.0915 0.400024 18.5573 0.400024 18.0004V6.90039C0.400024 6.34811 0.84774 5.90039 1.40002 5.90039H5.40002V5.50039C5.40002 4.28039 5.88467 3.11037 6.74733 2.2477C7.61 1.38503 8.78003 0.900391 10 0.900391C11.22 0.900391 12.39 1.38503 13.2527 2.2477C14.1154 3.11037 14.6 4.28039 14.6 5.50039ZM7.10002 5.50039V5.90039H12.9V5.50039C12.9 4.73126 12.5945 3.99364 12.0506 3.44978C11.5068 2.90593 10.7692 2.60039 10 2.60039C9.2309 2.60039 8.49327 2.90593 7.94941 3.44978C7.40556 3.99364 7.10002 4.73126 7.10002 5.50039Z" fill="#E85921"/>
<path d="M12.9 16.7504C12.9 16.2809 13.2806 15.9004 13.75 15.9004H15.4V14.2504C15.4 13.7809 15.7806 13.4004 16.25 13.4004C16.7195 13.4004 17.1 13.7809 17.1 14.2504V15.9004H18.75C19.2195 15.9004 19.6 16.2809 19.6 16.7504C19.6 17.2198 19.2195 17.6004 18.75 17.6004H17.1V19.2504C17.1 19.7198 16.7195 20.1004 16.25 20.1004C15.7806 20.1004 15.4 19.7198 15.4 19.2504V17.6004H13.75C13.2806 17.6004 12.9 17.2198 12.9 16.7504Z" fill="#E85921"/>
</svg>
