<svg width="21" height="20" viewBox="0 0 21 20" fill="none" xmlns="http://www.w3.org/2000/svg">
<circle cx="10" cy="10" r="10" fill="#FF7439"/>
<path d="M9.33939 10.8865L6.49976 7.80238L6.49967 7.80228C5.99332 7.25264 5.13736 7.21723 4.58714 7.72321L4.58697 7.72336C4.03669 8.22985 4.00171 9.08633 4.50787 9.63625L4.50794 9.63633L8.30176 13.7565C8.30181 13.7566 8.30185 13.7566 8.30189 13.7567C8.55519 14.0319 8.91553 14.1853 9.27726 14.1932L9.33179 14.1944L9.38529 14.1838L9.28824 13.6933C9.38529 14.1838 9.38536 14.1838 9.38543 14.1838L9.38557 14.1838L9.3859 14.1837L9.38667 14.1835L9.38873 14.1831L9.39479 14.1819L9.41428 14.1777C9.43033 14.1742 9.45248 14.1693 9.47917 14.1628C9.53204 14.15 9.60533 14.1308 9.68589 14.1052C9.76516 14.08 9.85961 14.046 9.95182 14.0023C10.0375 13.9616 10.1547 13.8971 10.2535 13.7986L10.2537 13.7984L19.8515 4.22576C19.8516 4.22571 19.8516 4.22566 19.8517 4.22561C20.3814 3.6975 20.3821 2.84018 19.8543 2.31098L19.8541 2.31084C19.3262 1.78196 18.4687 1.7803 17.9396 2.30903L9.33939 10.8865Z" fill="#FF7439" stroke="#F3F3FA"/>
</svg>
