<svg width="36" height="36" viewBox="0 0 36 36" fill="none" xmlns="http://www.w3.org/2000/svg">
<path d="M15.786 11C15.5252 11 15.264 11.1045 15.0652 11.3101L9.29895 17.2575C8.90035 17.6686 8.90035 18.3342 9.29895 18.7443L15.0652 24.6917C15.4638 25.1028 16.1092 25.1028 16.5068 24.6917L16.5944 24.6013C16.993 24.1902 16.993 23.5245 16.5944 23.1145L12.656 19.0523H25.9805C26.5433 19.0523 27 18.5813 27 18.0009C27 17.4205 26.5433 16.9494 25.9805 16.9494H12.656L16.5944 12.8873C16.993 12.4762 16.993 11.8105 16.5944 11.4005L16.5068 11.3101C16.3075 11.1045 16.0469 11 15.786 11Z" fill="#6B6F7A"/>
</svg>
