<svg width="488" height="489" viewBox="0 0 488 489" fill="none" xmlns="http://www.w3.org/2000/svg">
<path d="M487.7 59.22V429.92C487.7 462.13 461.61 488.22 429.42 488.22H58.7C26.51 488.22 0.419922 462.13 0.419922 429.92V59.22C0.419922 27.01 26.51 0.920047 58.7 0.920047H429.42C461.61 0.910047 487.7 27.01 487.7 59.22Z" fill="#EFEFEF"/>
<path d="M487.7 59.22V429.92C487.7 462.13 461.61 488.22 429.42 488.22H58.7C26.51 488.22 0.419922 462.13 0.419922 429.92V59.22C0.419922 27.01 26.51 0.920047 58.7 0.920047H429.42C461.61 0.910047 487.7 27.01 487.7 59.22Z" fill="#EFEFEF"/>
<path d="M487.7 304.89V429.91C487.7 462.12 461.61 488.21 429.42 488.21H205.45L85.44 368.17C82.52 365.25 80.6301 361.62 79.8401 357.75C78.9501 353.41 79.47 348.81 81.5 344.63L187.02 131.39C190.93 123.52 198.91 119.5 206.79 120C211.53 120.29 216.23 122.23 219.97 125.97L245.47 151.47C250.42 156.42 256.91 158.18 262.95 157.28C270.81 156.12 277.92 150.5 280.01 141.64C282.22 132.28 290.05 126.54 298.42 125.84C298.98 125.79 299.55 125.78 300.11 125.78C305.23 125.78 310.4 127.68 314.54 131.82L487.7 304.89Z" fill="#E3E3E3"/>
<path fill-rule="evenodd" clip-rule="evenodd" d="M413.15 357.76H358.98L261.36 160.47L288.44 105.73L413.15 357.76ZM324.43 357.76H201.15H163.74L199.63 285.23L208.54 303.23H243.28L199.73 215.2L129.19 357.76H75.02L199.73 105.73L324.43 357.76Z" fill="#AD2624"/>
</svg>
