<svg width="87" height="61" viewBox="0 0 87 61" fill="none" xmlns="http://www.w3.org/2000/svg">
<path d="M57.7882 30.5001C55.5173 30.5001 53.3807 29.2872 52.2251 27.3466L43.5848 12.9806L34.9579 27.3466C33.7889 29.3007 31.6523 30.5136 29.3814 30.5136C28.7767 30.5136 28.172 30.4327 27.5942 30.2575L9.18479 24.9747V48.963C9.18479 50.944 10.5285 52.669 12.4367 53.1407L41.4885 60.4315C42.8592 60.7685 44.297 60.7685 45.6542 60.4315L74.7329 53.1407C76.641 52.6556 77.9848 50.9306 77.9848 48.963V24.9747L59.5754 30.244C58.9976 30.4192 58.3929 30.5001 57.7882 30.5001ZM86.3564 15.3794L79.436 1.52549C79.0195 0.689943 78.1192 0.204786 77.192 0.326075L43.5848 4.6251L55.907 25.1229C56.4176 25.972 57.4389 26.3763 58.3929 26.1067L84.9857 18.4925C86.316 18.1017 86.961 16.6192 86.3564 15.3794ZM7.73354 1.52549L0.813227 15.3794C0.195102 16.6192 0.853539 18.1017 2.17041 18.479L28.7632 26.0933C29.7173 26.3628 30.7385 25.9585 31.2492 25.1095L43.5848 4.6251L9.96417 0.326075C9.03698 0.218263 8.1501 0.689943 7.73354 1.52549Z" fill="#DD4E5C"/>
</svg>
