<svg width="20" height="20" viewBox="0 0 20 20" fill="none" xmlns="http://www.w3.org/2000/svg">
<path fill-rule="evenodd" clip-rule="evenodd" d="M6.14152 17.594C6.14152 18.9266 7.25139 20 8.60479 20C9.95819 20 11.0681 18.9266 11.0681 17.594C11.0681 16.2614 9.95819 15.1879 8.60479 15.1879C7.25124 15.1879 6.14152 16.2641 6.14152 17.594ZM8.60479 16.6363C8.05397 16.6363 7.61587 17.0718 7.61587 17.5966C7.61587 18.1211 8.05638 18.5569 8.60479 18.5569C9.15321 18.5569 9.59371 18.1211 9.59371 17.5966C9.59371 17.0718 9.15562 16.6363 8.60479 16.6363Z" fill="#6B6F7A"/>
<path fill-rule="evenodd" clip-rule="evenodd" d="M13.0202 17.5939C13.0202 18.9265 14.1301 20 15.4835 20C16.8369 20 17.9467 18.9265 17.9467 17.5939C17.9467 16.2613 16.8369 15.1879 15.4835 15.1879C14.1301 15.1879 13.0202 16.2613 13.0202 17.5939ZM15.4835 16.6363C14.9326 16.6363 14.4945 17.0718 14.4945 17.5966C14.4945 18.1211 14.9351 18.5568 15.4835 18.5568C16.0343 18.5568 16.4724 18.1214 16.4724 17.5966C16.4724 17.0718 16.0343 16.6363 15.4835 16.6363Z" fill="#6B6F7A"/>
<path fill-rule="evenodd" clip-rule="evenodd" d="M6.08113 12.1073L5.06284 13.5455C4.90653 13.7665 4.88733 14.0549 5.0182 14.2952C5.14787 14.5332 5.3986 14.6793 5.66927 14.6793H19.0452C19.4474 14.6793 19.7823 14.3555 19.7823 13.9538C19.7823 13.5508 19.4461 13.2309 19.0452 13.2309H7.07897L7.47619 12.6695C7.64065 12.4431 7.624 12.1655 7.58155 11.9456C7.55948 11.8312 7.52745 11.7184 7.49805 11.6183L7.48468 11.573L19.3213 10.6354C19.7009 10.6067 20 10.2959 20 9.91568V1.71846C20 1.31551 19.6637 0.995564 19.2628 0.995564H5.10182L5.0056 0.56645C4.93073 0.234795 4.6301 0 4.28677 0H0.737175C0.336258 0 0 0.319941 0 0.722891C0 1.12584 0.336258 1.44578 0.737175 1.44578H3.69148L6.08113 12.1073ZM5.7264 2.44135L7.28905 10.1385L18.5257 9.24724V2.44135H5.7264Z" fill="#6B6F7A"/>
</svg>
