<svg width="20" height="16" viewBox="0 0 20 16" fill="none" xmlns="http://www.w3.org/2000/svg">
<path d="M3.33333 3.68C3.33333 3.4149 3.55719 3.2 3.83333 3.2H4.5C4.77614 3.2 5 3.4149 5 3.68V12.32C5 12.5851 4.77614 12.8 4.5 12.8H3.83333C3.55719 12.8 3.33333 12.5851 3.33333 12.32V3.68ZM5.83333 3.6C5.83333 3.37909 6.01988 3.2 6.25 3.2C6.48012 3.2 6.66667 3.37909 6.66667 3.6V12.4C6.66667 12.6209 6.48012 12.8 6.25 12.8C6.01988 12.8 5.83333 12.6209 5.83333 12.4V3.6ZM7.5 3.68C7.5 3.4149 7.72386 3.2 8 3.2H9.5C9.77614 3.2 10 3.4149 10 3.68V12.32C10 12.5851 9.77614 12.8 9.5 12.8H8C7.72386 12.8 7.5 12.5851 7.5 12.32V3.68ZM10.8333 3.6C10.8333 3.37909 11.0199 3.2 11.25 3.2C11.4801 3.2 11.6667 3.37909 11.6667 3.6V12.4C11.6667 12.6209 11.4801 12.8 11.25 12.8C11.0199 12.8 10.8333 12.6209 10.8333 12.4V3.6ZM13.3333 3.68C13.3333 3.4149 13.5572 3.2 13.8333 3.2H14.5C14.7761 3.2 15 3.4149 15 3.68V12.32C15 12.5851 14.7761 12.8 14.5 12.8H13.8333C13.5572 12.8 13.3333 12.5851 13.3333 12.32V3.68ZM15.8333 3.6C15.8333 3.37909 16.0199 3.2 16.25 3.2C16.4801 3.2 16.6667 3.37909 16.6667 3.6V12.4C16.6667 12.6209 16.4801 12.8 16.25 12.8C16.0199 12.8 15.8333 12.6209 15.8333 12.4V3.6ZM2.16667 1.6C1.89052 1.6 1.66667 1.8149 1.66667 2.08V4.32C1.66667 4.5851 1.44281 4.8 1.16667 4.8H0.5C0.223857 4.8 0 4.5851 0 4.32V1.6C0 1.17565 0.175595 0.768687 0.488155 0.468629C0.800716 0.168571 1.22464 0 1.66667 0H4.5C4.77614 0 5 0.214903 5 0.48V1.12C5 1.3851 4.77614 1.6 4.5 1.6H2.16667ZM18.3333 0C18.7754 0 19.1993 0.168571 19.5118 0.468629C19.8244 0.768687 20 1.17565 20 1.6V4.32C20 4.5851 19.7761 4.8 19.5 4.8H18.8333C18.5572 4.8 18.3333 4.5851 18.3333 4.32V2.08C18.3333 1.8149 18.1095 1.6 17.8333 1.6H15.5C15.2239 1.6 15 1.3851 15 1.12V0.48C15 0.214903 15.2239 0 15.5 0H18.3333ZM1.16667 11.2C1.44281 11.2 1.66667 11.4149 1.66667 11.68V13.92C1.66667 14.1851 1.89052 14.4 2.16667 14.4H4.5C4.77614 14.4 5 14.6149 5 14.88V15.52C5 15.7851 4.77614 16 4.5 16H1.66667C1.22464 16 0.800716 15.8314 0.488155 15.5314C0.175595 15.2313 0 14.8243 0 14.4V11.68C0 11.4149 0.223858 11.2 0.5 11.2H1.16667ZM17.8333 14.4C18.1095 14.4 18.3333 14.1851 18.3333 13.92V11.68C18.3333 11.4149 18.5572 11.2 18.8333 11.2H19.5C19.7761 11.2 20 11.4149 20 11.68V14.4C20 14.8243 19.8244 15.2313 19.5118 15.5314C19.1993 15.8314 18.7754 16 18.3333 16H15.5C15.2239 16 15 15.7851 15 15.52V14.88C15 14.6149 15.2239 14.4 15.5 14.4H17.8333Z" fill="white"/>
</svg>
