<svg width="19" height="19" viewBox="0 0 19 19" fill="none" xmlns="http://www.w3.org/2000/svg">
<path fill-rule="evenodd" clip-rule="evenodd" d="M18.722 16.7478C18.3695 17.0908 17.7979 17.0797 17.4579 16.7227L14.3219 13.4254C13.7486 13.8097 13.12 14.0808 12.4585 14.231V15.866C12.4585 17.5969 11.1265 19 9.48337 19H2.97517C1.33203 19 0 17.5969 0 15.866V3.13402C0 1.40315 1.33203 0 2.97517 0H9.48337C11.1084 0 12.4292 1.37241 12.4581 3.07695C14.9717 3.64933 16.8641 5.9273 16.8641 8.65358C16.8641 9.94417 16.4349 11.1852 15.65 12.1909L18.7469 15.4473C19.0942 15.8125 19.0823 16.3973 18.722 16.7478ZM2.97517 1.76289H9.48337C10.1449 1.76289 10.6911 2.28269 10.7741 2.95569C7.87428 3.18556 5.573 5.64658 5.573 8.65358C5.573 11.6644 7.88005 14.1278 10.785 14.3523V15.866C10.785 16.6232 10.2022 17.2371 9.48337 17.2371H2.97517C2.2563 17.2371 1.67354 16.6232 1.67354 15.866V3.13402C1.67354 2.37676 2.2563 1.76289 2.97517 1.76289ZM12.2726 4.71505C11.8598 4.60204 11.412 4.5544 10.971 4.58151C8.84418 4.71226 7.15718 6.52808 7.1835 8.70426C7.21044 10.9306 9.01012 12.7333 11.2185 12.7333C12.5134 12.7333 13.6677 12.1136 14.4066 11.1521C14.9375 10.4613 15.2539 9.5941 15.2539 8.65358C15.2539 6.77254 13.9882 5.18479 12.2726 4.71505Z" fill="#6B6F7A"/>
</svg>
