<svg width="57" height="43" viewBox="0 0 57 43" fill="none" xmlns="http://www.w3.org/2000/svg">
<path d="M49.0835 12.1667V9.83333L42.0835 14.5L35.0835 9.83333V12.1667L41.4302 16.4133C41.6207 16.5388 41.8437 16.6056 42.0718 16.6056C42.2999 16.6056 42.523 16.5388 42.7135 16.4133L49.0835 12.1667ZM51.4168 0.5H4.75016C2.1835 0.5 0.0834961 2.6 0.0834961 5.16667V37.8333C0.0834961 40.4 2.1835 42.5 4.75016 42.5H51.4168C53.9835 42.5 56.0602 40.4 56.0602 37.8333L56.0835 5.16667C56.0835 2.6 53.9835 0.5 51.4168 0.5ZM18.7502 7.5C22.6235 7.5 25.7502 10.6267 25.7502 14.5C25.7502 18.3733 22.6235 21.5 18.7502 21.5C14.8768 21.5 11.7502 18.3733 11.7502 14.5C11.7502 10.6267 14.8768 7.5 18.7502 7.5ZM32.7502 35.5H4.75016V33.1667C4.75016 28.5 14.0835 25.9333 18.7502 25.9333C23.4168 25.9333 32.7502 28.5 32.7502 33.1667V35.5ZM50.2502 21.5H33.9168C33.2635 21.5 32.7502 20.9867 32.7502 20.3333V8.66667C32.7502 8.01333 33.2635 7.5 33.9168 7.5H50.2502C50.9035 7.5 51.4168 8.01333 51.4168 8.66667V20.3333C51.4168 20.9867 50.9035 21.5 50.2502 21.5Z" fill="#FFDC5F"/>
</svg>
