<svg width="48" height="38" viewBox="0 0 48 38" fill="none" xmlns="http://www.w3.org/2000/svg">
<path fill-rule="evenodd" clip-rule="evenodd" d="M40.3333 0.333984C44.1993 0.333984 47.3333 3.46799 47.3333 7.33398V30.6673C47.3333 34.5333 44.1993 37.6673 40.3333 37.6673H7.66663C3.80063 37.6673 0.666626 34.5333 0.666626 30.6673V7.33398C0.666626 3.46799 3.80063 0.333984 7.66663 0.333984H40.3333ZM5.33329 19.0007V30.6673C5.33329 31.956 6.37796 33.0006 7.66663 33.0006H40.3333C41.622 33.0006 42.6666 31.956 42.6666 30.6673V19.0007H5.33329ZM5.33329 9.66732H42.6666V7.33398C42.6666 6.04532 41.622 5.00065 40.3333 5.00065H7.66663C6.37796 5.00065 5.33329 6.04532 5.33329 7.33398V9.66732Z" fill="#E6E6E6"/>
</svg>
