<svg width="24" height="24" viewBox="0 0 24 24" fill="none" xmlns="http://www.w3.org/2000/svg">
<path d="M8.34635 4.72025H14.9264V6.18518H16.4849V4.55747C16.4849 3.83925 15.8637 3.25531 15.0996 3.25531H8.17319C7.40912 3.25531 6.78791 3.83925 6.78791 4.55747V6.18518H8.34635V4.72025ZM19.2554 6.18518H4.01735C3.63423 6.18518 3.32471 6.47613 3.32471 6.83626V7.48734C3.32471 7.57687 3.40263 7.65012 3.49787 7.65012H4.80523L5.33986 18.2912C5.37449 18.9851 5.98488 19.5324 6.72298 19.5324H16.5498C17.2901 19.5324 17.8983 18.9871 17.9329 18.2912L18.4676 7.65012H19.7749C19.8702 7.65012 19.9481 7.57687 19.9481 7.48734V6.83626C19.9481 6.47613 19.6386 6.18518 19.2554 6.18518ZM16.3832 18.0674H6.88964L6.36583 7.65012H16.907L16.3832 18.0674Z" fill="#C90512"/>
<path fill-rule="evenodd" clip-rule="evenodd" d="M14.8295 11.2945L9.84249 16.1776L8.44324 14.7486L13.4303 9.86547L14.8295 11.2945Z" fill="#C90512"/>
<path fill-rule="evenodd" clip-rule="evenodd" d="M9.84249 9.8653L14.8295 14.7484L13.4303 16.1774L8.44324 11.2943L9.84249 9.8653Z" fill="#C90512"/>
</svg>
