<svg width="18" height="12" viewBox="0 0 18 12" fill="none" xmlns="http://www.w3.org/2000/svg">
<path d="M14.8333 1.83332C14.8333 0.916656 14.0833 0.166656 13.1667 0.166656H10.6667V1.83332H13.1667V4.04166L10.2667 7.66666H7.33334V3.49999H4.00001C2.15834 3.49999 0.666672 4.99166 0.666672 6.83332V9.33332H2.33334C2.33334 10.7167 3.45001 11.8333 4.83334 11.8333C6.21667 11.8333 7.33334 10.7167 7.33334 9.33332H11.0667L14.8333 4.62499V1.83332ZM4.83334 10.1667C4.37501 10.1667 4.00001 9.79166 4.00001 9.33332H5.66667C5.66667 9.79166 5.29167 10.1667 4.83334 10.1667Z" fill="white"/>
<path d="M7.33334 0.99999H3.16667V2.66666H7.33334V0.99999Z" fill="white"/>
<path d="M14.8333 6.83332C13.45 6.83332 12.3333 7.94999 12.3333 9.33332C12.3333 10.7167 13.45 11.8333 14.8333 11.8333C16.2167 11.8333 17.3333 10.7167 17.3333 9.33332C17.3333 7.94999 16.2167 6.83332 14.8333 6.83332ZM14.8333 10.1667C14.375 10.1667 14 9.79166 14 9.33332C14 8.87499 14.375 8.49999 14.8333 8.49999C15.2917 8.49999 15.6667 8.87499 15.6667 9.33332C15.6667 9.79166 15.2917 10.1667 14.8333 10.1667Z" fill="white"/>
</svg>
