<svg width="488" height="488" viewBox="0 0 488 488" fill="none" xmlns="http://www.w3.org/2000/svg">
<path d="M132.5 147.45C104.15 175.8 104.15 221.78 132.5 250.13L141.53 259.16V259.19L244.18 361.84L369.84 487.51H58.9299C26.7599 487.51 0.659912 461.43 0.659912 429.26V58.77C0.659912 26.6 26.7499 0.5 58.9299 0.5H429.42C461.59 0.5 487.67 26.59 487.67 58.77V279.22L356.54 148.11C356.33 147.88 356.12 147.67 355.89 147.45H355.87C341.71 133.27 323.13 126.18 304.56 126.18C286 126.18 267.4 133.28 253.23 147.45L244.2 156.5L235.15 147.45C220.97 133.27 202.41 126.18 183.82 126.18C165.24 126.18 146.67 133.27 132.5 147.45Z" fill="#EFEFEF"/>
<path d="M487.67 279.22V429.26C487.67 444.74 481.62 458.8 471.79 469.25C471.47 469.6 471.13 469.96 470.76 470.31C470.41 470.66 470.05 471.02 469.7 471.36C469.35 471.7 468.99 472.04 468.62 472.38C468.62 472.38 468.62 472.38 468.6 472.38C466.78 474.01 464.87 475.54 462.88 476.96C462.22 477.44 461.54 477.9 460.85 478.33C459.67 479.09 458.45 479.81 457.21 480.48C456.39 480.93 455.56 481.37 454.71 481.77C454.71 481.77 454.71 481.77 454.69 481.77C453.85 482.17 453 482.56 452.13 482.93C445.16 485.88 437.5 487.51 429.46 487.51H369.86L244.2 361.84L141.55 259.19V259.16L132.52 250.13C104.17 221.78 104.17 175.8 132.52 147.45C146.7 133.27 165.26 126.18 183.85 126.18C202.44 126.18 221.01 133.28 235.18 147.45L244.23 156.5L253.26 147.45C267.44 133.27 286.03 126.18 304.59 126.18C323.17 126.18 341.75 133.28 355.9 147.45H355.92C356.15 147.68 356.36 147.89 356.57 148.11L487.67 279.22Z" fill="#EFEFEF"/>
<path d="M376.98 204C376.8 206.61 376.46 209.21 376 211.79C375.73 213.39 375.37 214.97 374.97 216.55C374.92 216.78 374.86 217.02 374.81 217.24C374.6 217.98 374.41 218.71 374.18 219.45C373.84 220.58 373.49 221.69 373.1 222.8C372.71 223.91 372.31 225.01 371.86 226.11C371.52 226.93 371.18 227.74 370.81 228.55C370.08 230.18 369.29 231.78 368.44 233.34C368.02 234.13 367.57 234.9 367.12 235.68C366.81 236.2 366.51 236.71 366.18 237.23C365.23 238.75 364.21 240.25 363.13 241.73C362.58 242.46 362.03 243.2 361.45 243.91C360.32 245.35 359.11 246.75 357.84 248.12C357.21 248.8 356.57 249.47 355.9 250.14L346.87 259.17L244.18 361.85L141.53 259.2V259.17L132.5 250.14C104.15 221.79 104.15 175.81 132.5 147.46C146.68 133.28 165.24 126.19 183.83 126.19C202.42 126.19 220.99 133.29 235.16 147.46L244.21 156.51L253.24 147.46C267.42 133.28 286.01 126.19 304.57 126.19C323.15 126.19 341.73 133.29 355.88 147.46H355.9C356.13 147.69 356.34 147.9 356.55 148.12C357.64 149.24 358.68 150.39 359.68 151.56C359.72 151.61 359.77 151.65 359.81 151.7C360 151.93 360.18 152.15 360.37 152.38C360.85 152.96 361.32 153.53 361.77 154.11C362.24 154.69 362.69 155.27 363.12 155.87C363.65 156.61 364.18 157.35 364.68 158.11C365.2 158.85 365.68 159.61 366.16 160.37C366.48 160.89 366.79 161.4 367.1 161.92C367.55 162.69 368 163.47 368.42 164.26C369.27 165.82 370.06 167.42 370.79 169.05C371.16 169.86 371.5 170.66 371.84 171.49C372.29 172.59 372.69 173.68 373.08 174.8C373.47 175.91 373.82 177.03 374.16 178.14C374.37 178.83 374.56 179.54 374.74 180.24C374.82 180.53 374.9 180.8 374.97 181.09C375.37 182.65 375.71 184.22 375.99 185.8C376.31 187.53 376.55 189.25 376.73 190.99C376.83 191.84 376.91 192.72 376.97 193.59C377.22 197.04 377.22 200.54 376.98 204Z" fill="#AD2624"/>
<path d="M487.7 279.25V429.26C487.7 444.74 481.65 458.8 471.78 469.25C471.46 469.6 471.12 469.96 470.75 470.31C470.4 470.66 470.04 471.02 469.69 471.36C469.34 471.7 468.98 472.04 468.61 472.38C468.61 472.38 468.61 472.38 468.59 472.38C466.78 474.02 464.88 475.56 462.87 476.96C462.21 477.44 461.53 477.9 460.84 478.33C459.66 479.09 458.44 479.81 457.2 480.48C456.38 480.93 455.55 481.37 454.7 481.77C454.7 481.77 454.7 481.77 454.68 481.77C453.84 482.17 452.99 482.56 452.12 482.93C445.15 485.88 437.49 487.51 429.45 487.51H369.85L244.19 361.84L346.88 259.16L355.89 250.13C356.55 249.47 357.21 248.79 357.84 248.11C359.1 246.74 360.31 245.34 361.45 243.9C362.03 243.19 362.58 242.45 363.13 241.72C364.21 240.24 365.23 238.74 366.18 237.22C366.5 236.7 366.81 236.19 367.12 235.67C367.57 234.9 368.02 234.12 368.44 233.33C369.29 231.75 370.08 230.17 370.81 228.54C371.18 227.73 371.52 226.93 371.86 226.1C372.31 225 372.71 223.91 373.1 222.79C373.49 221.68 373.84 220.56 374.18 219.44C374.41 218.7 374.6 217.97 374.81 217.23C374.86 217 374.92 216.76 374.97 216.54C375.37 214.96 375.71 213.38 376 211.78C376.47 209.2 376.79 206.59 376.98 203.99C377.22 200.52 377.22 197.02 376.98 193.54C376.92 192.67 376.83 191.8 376.74 190.94C376.56 189.2 376.3 187.47 376 185.75C375.71 184.19 375.37 182.61 374.98 181.04C374.92 180.77 374.83 180.48 374.75 180.19C374.57 179.5 374.38 178.79 374.17 178.09C373.83 176.98 373.48 175.86 373.09 174.75C372.7 173.64 372.3 172.54 371.85 171.44C371.51 170.62 371.17 169.81 370.8 169C370.07 167.37 369.28 165.79 368.43 164.21C368.01 163.42 367.56 162.65 367.11 161.87C366.8 161.35 366.5 160.84 366.17 160.32C365.69 159.56 365.2 158.8 364.69 158.06C364.19 157.3 363.66 156.56 363.13 155.82C362.69 155.22 362.24 154.64 361.78 154.06C361.11 153.2 360.4 152.35 359.68 151.52C358.81 150.51 357.91 149.52 356.97 148.55C356.62 148.18 356.26 147.79 355.89 147.42L356.55 148.08L487.68 279.19L487.7 279.25Z" fill="#E3E3E3"/>
</svg>
