<svg width="20" height="20" viewBox="0 0 20 20" fill="none" xmlns="http://www.w3.org/2000/svg">
<path d="M2.14286 0C0.968857 0 0 0.966225 0 2.14009V6.42864C0 7.58837 0.566993 8.61302 1.42857 9.26631V17.8571C1.42857 19.0319 2.39664 20 3.57143 20H16.4286C17.6034 20 18.5714 19.0319 18.5714 17.8571V9.26631C19.433 8.61307 20 7.58844 20 6.42864V2.14009C20 0.966225 19.0311 0 17.8571 0H2.14286ZM2.14286 1.42859H17.8571C18.266 1.42859 18.5714 1.73443 18.5714 2.14009V6.42863C18.5714 7.62815 17.6281 8.57151 16.4286 8.57151H15.7143C14.5148 8.57151 13.5714 7.62815 13.5714 6.42863C13.5582 5.48962 12.1561 5.48962 12.1429 6.42863C12.1429 7.62815 11.1995 8.57151 10 8.57151C8.8005 8.57151 7.85714 7.62815 7.85714 6.42863C7.84386 5.48962 6.44186 5.48962 6.42857 6.42863C6.42857 7.62815 5.48521 8.57151 4.28571 8.57151H3.57143C2.37193 8.57151 1.42857 7.62815 1.42857 6.42863V2.14009C1.42857 1.73443 1.73401 1.42859 2.14286 1.42859ZM7.14286 8.45852C7.76915 9.33617 8.73557 9.94997 9.87864 9.99175C9.8815 9.99185 9.88414 9.993 9.88701 9.99315C9.92443 9.99843 9.96222 10.0008 10 10.0001C10.0332 10.0001 10.0663 9.99779 10.0991 9.99315C11.252 9.95874 12.2268 9.34197 12.8571 8.45856C13.5058 9.36764 14.5174 10.0001 15.7143 10.0001H16.4286C16.6729 10.0001 16.912 9.9748 17.1429 9.9276V17.8577C17.1429 18.2658 16.8366 18.572 16.4286 18.572H12.8571V15.0005C12.8571 13.8257 11.8891 12.8576 10.7143 12.8576H9.28571C8.11092 12.8576 7.14285 13.8257 7.14285 15.0005V18.572H3.57142C3.16335 18.572 2.85714 18.2658 2.85714 17.8577V9.9276C3.08796 9.9748 3.32706 10.0001 3.57142 10.0001H4.28571C5.48264 10.0001 6.49414 9.36757 7.14286 8.45852ZM9.28572 14.2859H10.7143C11.1224 14.2859 11.4286 14.5921 11.4286 15.0002V18.5716H8.57143V15.0002C8.57143 14.5921 8.87764 14.2859 9.28572 14.2859Z" fill="#FF7439"/>
</svg>
