<svg width="306" height="42" viewBox="0 0 306 42" fill="none" xmlns="http://www.w3.org/2000/svg">
<path d="M224.759 15H96.2405C94.3202 15 92.4785 14.2625 91.1207 12.9498C89.7628 11.637 89 9.85652 89 8C89 6.14348 89.7628 4.363 91.1207 3.05025C92.4785 1.73749 94.3202 1 96.2405 1H224.759C226.68 1 228.521 1.73749 229.879 3.05025C231.237 4.363 232 6.14348 232 8C232 9.85652 231.237 11.637 229.879 12.9498C228.521 14.2625 226.68 15 224.759 15Z" fill="#EEEEEE" fill-opacity="0.95"/>
<path d="M298.767 40H96.2333C94.3149 40 92.4751 39.2625 91.1186 37.9498C89.7621 36.637 89 34.8565 89 33C89 31.1435 89.7621 29.363 91.1186 28.0502C92.4751 26.7375 94.3149 26 96.2333 26H298.767C300.685 26 302.525 26.7375 303.881 28.0502C305.238 29.363 306 31.1435 306 33C306 34.8565 305.238 36.637 303.881 37.9498C302.525 39.2625 300.685 40 298.767 40Z" fill="#EEEEEE" fill-opacity="0.95"/>
<path d="M47.4194 42H8.58064C6.30571 41.9974 4.12469 41.0827 2.51607 39.4566C0.907443 37.8305 0.00258423 35.6258 0 33.3261V8.67391C0.00258184 6.37425 0.907442 4.16952 2.51607 2.54341C4.12469 0.917306 6.30571 0.00260991 8.58064 0H47.4194C49.6943 0.00260991 51.8753 0.917306 53.4839 2.54341C55.0926 4.16952 55.9974 6.37425 56 8.67391V33.3261C55.9974 35.6258 55.0926 37.8305 53.4839 39.4566C51.8753 41.0827 49.6943 41.9974 47.4194 42ZM8.58064 1.82609C6.78463 1.8281 5.06276 2.55021 3.79279 3.83399C2.52281 5.11776 1.80845 6.85838 1.80645 8.67391V33.3261C1.80845 35.1416 2.52281 36.8822 3.79279 38.166C5.06276 39.4498 6.78463 40.1719 8.58064 40.1739H47.4194C49.2154 40.1719 50.9372 39.4498 52.2072 38.166C53.4772 36.8822 54.1915 35.1416 54.1935 33.3261V8.67391C54.1916 6.85838 53.4772 5.11776 52.2072 3.83399C50.9372 2.55021 49.2154 1.8281 47.4194 1.82609H8.58064Z" fill="#EEEEEE" fill-opacity="0.95"/>
<path d="M28 32L26.26 30.3702C20.0806 24.4798 16.001 20.6566 16.001 15.894C15.9857 14.9879 16.1457 14.0878 16.4714 13.2469C16.7971 12.4061 17.282 11.6417 17.8973 10.999C18.5127 10.3562 19.246 9.84813 20.0538 9.50485C20.8616 9.16157 21.7277 8.99005 22.6005 9.00045C23.6305 9.00614 24.647 9.24454 25.5794 9.69908C26.5119 10.1536 27.3379 10.8134 28 11.6326C28.6622 10.8134 29.4881 10.1536 30.4206 9.69906C31.353 9.24452 32.3695 9.00612 33.3996 9.00045C34.2724 8.99005 35.1384 9.16157 35.9462 9.50485C36.754 9.84813 37.4874 10.3562 38.1027 10.999C38.718 11.6417 39.2029 12.4061 39.5287 13.2469C39.8544 14.0878 40.0143 14.9879 39.999 15.894C39.999 20.6566 35.9194 24.4798 29.7401 30.3702L28 32Z" fill="#C02425"/>
</svg>
