<svg width="19" height="19" viewBox="0 0 19 19" fill="none" xmlns="http://www.w3.org/2000/svg">
<path d="M7.0497 17.8555L7.40021 17.4989C7.35089 17.4505 7.32575 17.3875 7.32616 17.3248V17.3216L7.32616 10.5692L7.32616 10.5685C7.32545 10.1007 7.17124 9.6466 6.88833 9.27282L6.88728 9.27137L6.88525 9.26869L0.859876 0.987917L0.859884 0.987912L0.858077 0.985461C0.799406 0.905851 0.792433 0.804229 0.837024 0.719593L0.837055 0.719534C0.88092 0.63625 0.973666 0.576948 1.08264 0.577149V0.57715H1.08356L17.5328 0.577151L17.5338 0.577149C17.6426 0.576948 17.7353 0.636283 17.779 0.719332L17.7792 0.719771C17.8238 0.804448 17.8168 0.905807 17.7582 0.98513L17.7563 0.987737L11.7308 9.26867L11.7298 9.26996L11.7298 9.26995L11.7293 9.27068L11.7288 9.27137L11.7277 9.27287C11.445 9.6466 11.2908 10.1006 11.29 10.5685V10.5692V16.0522C11.29 16.183 11.2192 16.2561 11.1424 16.279L11.1266 16.2838L11.111 16.2895L7.72472 17.5491L7.71775 17.5517L7.71086 17.5545C7.67452 17.5692 7.63508 17.577 7.59497 17.5771C7.51987 17.577 7.44971 17.5475 7.39976 17.4985L7.0497 17.8555ZM7.0497 17.8555C7.19421 17.9972 7.39067 18.0771 7.59555 18.0771L6.48812 9.57255C6.70708 9.86094 6.82561 10.2104 6.82616 10.5692V17.3216C6.82488 17.5214 6.90537 17.7136 7.0497 17.8555ZM17.5328 0.0771484H1.08356H17.5328ZM6.88296 9.26565C6.88221 9.26466 6.88307 9.26579 6.88415 9.26723L6.88296 9.26565Z" stroke="white"/>
</svg>
