<svg width="14" height="14" viewBox="0 0 14 14" fill="none" xmlns="http://www.w3.org/2000/svg">
<path fill-rule="evenodd" clip-rule="evenodd" d="M7 13.6667C8.76811 13.6667 10.4638 12.9643 11.714 11.7141C12.9643 10.4638 13.6667 8.76812 13.6667 7.00001C13.6667 5.2319 12.9643 3.53621 11.714 2.28596C10.4638 1.03572 8.76811 0.333344 7 0.333344C5.23189 0.333344 3.5362 1.03572 2.28596 2.28596C1.03571 3.53621 0.333336 5.2319 0.333336 7.00001C0.333336 8.76812 1.03571 10.4638 2.28596 11.7141C3.5362 12.9643 5.23189 13.6667 7 13.6667ZM10.0892 5.92251C10.241 5.76534 10.325 5.55484 10.3231 5.33634C10.3212 5.11785 10.2335 4.90883 10.079 4.75433C9.92451 4.59982 9.7155 4.51218 9.497 4.51028C9.27851 4.50838 9.068 4.59238 8.91084 4.74418L6.16667 7.48834L5.08917 6.41084C4.932 6.25905 4.7215 6.17505 4.503 6.17695C4.2845 6.17885 4.07549 6.26649 3.92099 6.42099C3.76648 6.5755 3.67884 6.78451 3.67694 7.00301C3.67504 7.22151 3.75904 7.43201 3.91084 7.58918L5.5775 9.25584C5.73378 9.41207 5.9457 9.49983 6.16667 9.49983C6.38764 9.49983 6.59956 9.41207 6.75584 9.25584L10.0892 5.92251Z" fill="#6FD464"/>
</svg>
