<svg width="41" height="41" viewBox="0 0 41 41" fill="none" xmlns="http://www.w3.org/2000/svg">
<path d="M41 20.5002C41 31.8219 31.8219 41 20.5002 41C9.17806 41 0 31.8219 0 20.5002C0 9.17806 9.17806 0 20.5002 0C31.8219 0 41 9.17806 41 20.5002Z" fill="white"/>
<path d="M28.0594 20.978L27.2924 21.7467L21.0441 27.995C20.7438 28.295 20.2568 28.295 19.9568 27.995L13.7084 21.7467L12.9414 20.978C11.0651 19.1034 11.0651 16.062 12.9414 14.1874C13.8784 13.25 15.1071 12.78 16.3371 12.78C17.5658 12.78 18.7944 13.25 19.7331 14.1874L20.2018 14.656C20.3668 14.8207 20.6341 14.8207 20.7988 14.656L21.2674 14.1874C22.2061 13.25 23.4348 12.78 24.6634 12.78C25.8921 12.78 27.1208 13.25 28.0594 14.1874C29.9341 16.062 29.9341 19.1034 28.0594 20.978Z" fill="#C90512"/>
</svg>
