<svg width="84" height="76" viewBox="0 0 84 76" fill="none" xmlns="http://www.w3.org/2000/svg">
<path d="M81.0212 11.1358C77.5223 3.95528 67.4434 -1.91972 55.7195 1.50083C50.1173 3.11904 45.2295 6.58933 41.8545 11.3447C38.4797 6.58933 33.5918 3.11904 27.9895 1.50083C16.2396 -1.8675 6.18677 3.95528 2.68789 11.1358C-2.221 21.1886 -0.184336 32.4947 8.74566 44.7408C15.7434 54.3236 25.744 64.0369 40.2618 75.3169C40.7206 75.6748 41.2858 75.8691 41.8676 75.8691C42.4495 75.8691 43.0146 75.6748 43.4734 75.3169C57.9651 64.0631 67.9918 54.4281 74.9895 44.7408C83.8934 32.4947 85.9301 21.1886 81.0212 11.1358Z" fill="#F984AF"/>
</svg>
