<svg width="21" height="18" viewBox="0 0 21 18" fill="none" xmlns="http://www.w3.org/2000/svg">
<path d="M11.0628 5.14295C10.6971 5.14295 10.4006 5.4306 10.4005 5.78552L10.3988 9.64046C10.3988 9.81123 10.4687 9.97445 10.5929 10.095L13.4394 12.8573C13.6981 13.1083 14.1173 13.1083 14.3759 12.8573C14.6346 12.6062 14.6346 12.1992 14.3759 11.9482L11.7234 9.37425L11.7251 5.78607C11.7252 5.43093 11.4287 5.14295 11.0628 5.14295Z" fill="#6B6F7A"/>
<path d="M11.7275 0C7.06539 0 3.20696 3.36056 2.56074 7.71429H0.185796C0.031287 7.71429 -0.055467 7.88693 0.0396553 8.00511L2.75185 11.3747C2.93747 11.6053 3.29693 11.6053 3.48255 11.3747L6.19475 8.00511C6.28987 7.88693 6.20312 7.71429 6.04861 7.71429H3.89917C4.53282 4.0717 7.79691 1.28573 11.7275 1.28573C16.1102 1.28573 19.6754 4.7461 19.6754 9.00002C19.6754 13.2539 16.1102 16.7143 11.7275 16.7143C9.48545 16.7143 7.39183 15.818 5.88819 14.2345C5.64043 13.9736 5.22639 13.9218 4.93822 14.1402C4.64984 14.3587 4.59705 14.7646 4.84186 15.0285C6.6007 16.9243 9.07483 18 11.7275 18C16.8404 18 21 13.962 21 9.00002C21 4.03799 16.8404 3.73259e-05 11.7275 0Z" fill="#6B6F7A"/>
</svg>
