<svg width="20" height="20" viewBox="0 0 20 20" fill="none" xmlns="http://www.w3.org/2000/svg">
<path d="M10.5415 0.229438C10.2383 -0.0773097 9.76138 -0.0761794 9.45865 0.231038L0.224087 10.0524C-0.0746954 10.3702 -0.0746956 10.8854 0.224086 11.2031C0.523198 11.5212 1.00827 11.5208 1.30692 11.2022L1.72844 10.7525V18.9763C1.72844 19.5417 2.15937 20 2.69096 20H7.53361C8.0652 20 8.49613 19.5417 8.49613 18.9763V12.0025H11.504V18.9763C11.504 19.5417 11.9349 20 12.4665 20H17.3092C17.8407 20 18.2717 19.5417 18.2717 18.9763V10.7525L18.693 11.2013C18.9918 11.5196 19.4768 11.5198 19.7758 11.2018C20.0747 10.8839 20.0747 10.3685 19.7758 10.0506L10.5415 0.229438ZM10.0001 1.95609L16.7678 9.15382V18.4005H13.0079V11.4267C13.0079 10.8613 12.577 10.403 12.0454 10.403H7.95472C7.42313 10.403 6.9922 10.8613 6.9922 11.4267V18.4005H3.23237V9.15302L10.0001 1.95609Z" fill="#C02425"/>
</svg>
