<svg width="101" height="101" viewBox="0 0 101 101" fill="none" xmlns="http://www.w3.org/2000/svg">
<path d="M87.5792 37.4227L75.8606 21.0166C75.3919 20.4072 74.6887 20.0322 73.9387 20.0322H27.0642C26.3142 20.0322 25.6111 20.4072 25.1424 21.0166L13.4237 37.4227C13.2831 37.8446 13.1425 38.2664 13.0019 38.6883C12.955 43.8914 17.1737 48.157 22.3768 48.157C25.1892 48.157 27.6736 46.9382 29.4079 44.9695C31.1423 46.9382 33.6266 48.157 36.4391 48.157C39.2516 48.157 41.7359 46.9382 43.4703 44.9695C45.2047 46.9382 47.689 48.157 50.5015 48.157C53.314 48.157 55.7983 46.9382 57.5327 44.9695C59.267 46.9382 61.7514 48.157 64.5638 48.157C67.3763 48.157 69.8607 46.9382 71.595 44.9695C73.3294 46.9382 75.8137 48.157 78.6262 48.157C83.8293 48.157 88.048 43.8914 88.0011 38.6883C87.8605 38.2664 87.7199 37.8446 87.5792 37.4227Z" fill="#E6E6E6"/>
<path d="M78.6239 52.841C76.1349 52.841 73.7115 52.1754 71.5927 50.9473C67.3553 53.3988 61.7678 53.3988 57.5304 50.9473C53.2929 53.3988 47.7008 53.3988 43.468 50.9473C39.2352 53.3988 33.6384 53.3988 29.4056 50.9473C25.8854 52.991 21.526 53.2535 17.687 51.9269V76.2783C17.687 78.8657 19.787 80.9657 22.3745 80.9657H59.8741V57.5284H73.9365V80.9657H78.6239C81.2114 80.9657 83.3114 78.8657 83.3114 76.2783V51.9832C81.8207 52.5129 80.2505 52.841 78.6239 52.841ZM45.8117 71.5908H27.0619V57.5284H45.8117V71.5908Z" fill="#E6E6E6"/>
</svg>
