<svg width="51" height="51" viewBox="0 0 51 51" fill="none" xmlns="http://www.w3.org/2000/svg">
<path d="M15.083 40.5C12.3331 40.5 10.1082 42.75 10.1082 45.5C10.1082 48.25 12.3331 50.5 15.083 50.5C17.8329 50.5 20.0828 48.25 20.0828 45.5C20.0828 42.75 17.8329 40.5 15.083 40.5ZM0.0834961 0.5V5.5H5.08332L14.083 24.475L10.7081 30.6C10.3081 31.3 10.0832 32.125 10.0832 33C10.0832 35.75 12.3331 38 15.083 38H45.082V33H16.1329C15.783 33 15.508 32.725 15.508 32.375L15.583 32.075L17.8329 28H36.4572C38.3322 28 39.9821 26.975 40.8321 25.425L49.7818 9.2C49.988 8.81847 50.0918 8.38995 50.083 7.95632C50.0741 7.52269 49.9529 7.09877 49.7313 6.72597C49.5096 6.35317 49.1951 6.04424 48.8183 5.82936C48.4416 5.61448 48.0156 5.501 47.5819 5.5H10.6081L8.25821 0.5H0.0834961ZM40.0821 40.5C37.3322 40.5 35.1073 42.75 35.1073 45.5C35.1073 48.25 37.3322 50.5 40.0821 50.5C42.832 50.5 45.082 48.25 45.082 45.5C45.082 42.75 42.832 40.5 40.0821 40.5Z" fill="#FFA665"/>
</svg>
