<svg width="36" height="36" viewBox="0 0 36 36" fill="none" xmlns="http://www.w3.org/2000/svg">
<path d="M24.9844 0.920898H11.0156C5.33856 0.920898 0.719971 5.53948 0.719971 11.2165V25.1853C0.719971 30.8623 5.33856 35.4809 11.0156 35.4809H24.9844C30.6614 35.4809 35.28 30.8623 35.28 25.1853V11.2165C35.2799 5.53948 30.6613 0.920898 24.9844 0.920898ZM31.8032 25.1853C31.8032 28.9512 28.7503 32.0042 24.9844 32.0042H11.0156C7.24965 32.0042 4.19671 28.9512 4.19671 25.1853V11.2165C4.19671 7.45052 7.24965 4.39763 11.0156 4.39763H24.9844C28.7503 4.39763 31.8032 7.45052 31.8032 11.2165V25.1853Z" fill="white"/>
<path d="M18 9.26246C13.0713 9.26246 9.06153 13.2722 9.06153 18.2008C9.06153 23.1294 13.0713 27.1393 18 27.1393C22.9286 27.1393 26.9384 23.1295 26.9384 18.2008C26.9384 13.2722 22.9286 9.26246 18 9.26246ZM18 23.6626C14.9835 23.6626 12.5383 21.2173 12.5383 18.2009C12.5383 15.1845 14.9836 12.7392 18 12.7392C21.0164 12.7392 23.4617 15.1845 23.4617 18.2009C23.4617 21.2173 21.0164 23.6626 18 23.6626Z" fill="white"/>
<path d="M26.9555 11.4715C28.1383 11.4715 29.0972 10.5126 29.0972 9.32968C29.0972 8.14681 28.1383 7.18791 26.9555 7.18791C25.7726 7.18791 24.8137 8.14681 24.8137 9.32968C24.8137 10.5126 25.7726 11.4715 26.9555 11.4715Z" fill="white"/>
</svg>
