<svg width="44" height="7" viewBox="0 0 44 7" fill="none" xmlns="http://www.w3.org/2000/svg">
<path d="M0.747022 1.70622L0.982104 1.79051L0.98258 1.78918C1.06971 1.81957 1.18005 1.85779 1.31198 1.903C1.67472 2.02729 2.20089 2.20445 2.85731 2.41684C4.16976 2.8415 6.00493 3.40768 8.09687 3.97407C12.2613 5.10159 17.5149 6.25014 21.6899 6.25014C25.8648 6.25014 31.1185 5.10159 35.2829 3.97407C37.3749 3.40768 39.21 2.8415 40.5225 2.41684C41.1789 2.20445 41.7051 2.02729 42.0678 1.903C42.1996 1.85785 42.3098 1.81967 42.3968 1.7893L42.3973 1.79063L42.6225 1.70988L42.6229 1.70976L42.6317 1.70658L42.6325 1.70631L42.6328 1.70622C43.0225 1.56648 43.2257 1.13708 43.0859 0.747016C42.9756 0.439384 42.685 0.248555 42.3759 0.250071L42.3615 0.209952L42.1264 0.294278L42.1264 0.294285L42.1252 0.29471L42.1248 0.294831L42.119 0.296914L42.1187 0.297014L0.747022 1.70622ZM0.747022 1.70622L0.746813 1.70615L0.746772 1.70613C0.356861 1.56634 0.154102 1.13693 0.293896 0.747016C0.404106 0.439621 0.694322 0.248547 1.00328 0.249939L1.01759 0.210027L1.25156 0.293623C1.252 0.293777 1.25243 0.293932 1.25286 0.294087C1.25291 0.294105 1.25296 0.294123 1.25301 0.29414L1.26077 0.296913L1.26111 0.297035L1.28649 0.306062L1.28712 0.306282L1.39119 0.342988L0.747022 1.70622Z" fill="#B7BAC0" stroke="white" stroke-width="0.5" stroke-linecap="round"/>
</svg>
