<svg width="131" height="132" viewBox="0 0 131 132" fill="none" xmlns="http://www.w3.org/2000/svg">
<path d="M130.147 76.3865C129.921 77.7953 129.653 79.1919 129.342 80.5702C124.816 100.458 111.235 116.906 93.1642 125.347C85.3396 128.994 76.6733 131.153 67.5375 131.433L35.8242 99.7201C37.2208 100.928 39.0443 101.659 41.0386 101.659H88.578C92.9873 101.659 96.5795 98.0735 96.5795 93.6519V46.1186C96.5795 44.0512 95.7928 42.1606 94.4998 40.7396L130.147 76.3865Z" fill="#E6E8E8"/>
<path d="M88.5778 38.1172H85.1564V34.153C85.1564 33.226 84.8271 32.3722 84.2782 31.7074L91.1026 38.5258C90.3098 38.2574 89.4621 38.1172 88.5778 38.1172ZM83.0219 59.2492H46.3992C45.2221 59.2492 44.2646 58.2917 44.2646 57.1146C44.2646 55.9437 45.2221 54.9801 46.3992 54.9801H83.0219C84.1989 54.9801 85.1564 55.9437 85.1564 57.1146C85.1564 58.2917 84.1989 59.2492 83.0219 59.2492ZM83.0219 72.1174H46.3992C45.2221 72.1174 44.2646 71.166 44.2646 69.9829C44.2646 68.7997 45.2221 67.8483 46.3992 67.8483H83.0219C84.1989 67.8483 85.1564 68.7997 85.1564 69.9829C85.1564 71.166 84.1989 72.1174 83.0219 72.1174ZM83.0219 84.9796H46.3992C45.2221 84.9796 44.2646 84.0221 44.2646 82.845C44.2646 81.6619 45.2221 80.7105 46.3992 80.7105H83.0219C84.1989 80.7105 85.1564 81.6619 85.1564 82.845C85.1564 84.0221 84.1989 84.9796 83.0219 84.9796ZM57.4927 38.1172H51.9551V34.153C51.9551 33.226 51.6258 32.3722 51.0769 31.7074L57.4927 38.1172ZM74.0934 38.1172H68.5557V34.153C68.5557 33.226 68.2264 32.3722 67.6775 31.7074L74.0934 38.1172ZM65.4881 0.500366C29.3228 0.500366 0.00634766 29.8168 0.00634766 65.9821C0.00634766 98.2686 23.3766 125.097 54.1201 130.476C57.8159 131.128 61.6093 131.464 65.4881 131.464C66.1712 131.464 66.8603 131.452 67.5373 131.433L35.824 99.7201C37.2206 100.928 39.0441 101.66 41.0384 101.66H88.5778C92.9871 101.66 96.5793 98.0735 96.5793 93.6519V46.1186C96.5793 44.0512 95.7925 42.1606 94.4996 40.7396L130.147 76.3865C130.226 75.8803 130.305 75.368 130.372 74.8557C130.769 71.9528 130.97 68.9949 130.97 65.9821C130.97 29.8168 101.653 0.500366 65.4881 0.500366Z" fill="#F1F3F4"/>
<path d="M83.0221 59.2486H46.3994C45.2223 59.2486 44.2648 58.2911 44.2648 57.114C44.2648 55.9431 45.2223 54.9795 46.3994 54.9795H83.0221C84.1991 54.9795 85.1566 55.9431 85.1566 57.114C85.1566 58.2911 84.1991 59.2486 83.0221 59.2486ZM83.0221 72.1168H46.3994C45.2223 72.1168 44.2648 71.1654 44.2648 69.9823C44.2648 68.7991 45.2223 67.8477 46.3994 67.8477H83.0221C84.1991 67.8477 85.1566 68.7991 85.1566 69.9823C85.1566 71.1654 84.1991 72.1168 83.0221 72.1168ZM83.0221 84.979H46.3994C45.2223 84.979 44.2648 84.0215 44.2648 82.8445C44.2648 81.6613 45.2223 80.7099 46.3994 80.7099H83.0221C84.1991 80.7099 85.1566 81.6613 85.1566 82.8445C85.1566 84.0215 84.1991 84.979 83.0221 84.979ZM94.4998 40.739L94.3413 40.5744C93.4508 39.6473 92.347 38.9399 91.1028 38.5252C90.31 38.2568 89.4623 38.1166 88.578 38.1166H85.1566V34.1524C85.1566 33.2254 84.8273 32.3716 84.2784 31.7068L84.2296 31.652C83.5283 30.8286 82.4854 30.3041 81.3144 30.3041C79.186 30.3041 77.4661 32.0301 77.4661 34.1524V38.1166H68.5559V34.1524C68.5559 33.2254 68.2266 32.3716 67.6777 31.7068L67.6289 31.652C66.9276 30.8286 65.8786 30.3041 64.7077 30.3041C62.5853 30.3041 60.8655 32.0301 60.8655 34.1524V38.1166H51.9553V34.1524C51.9553 33.2254 51.6259 32.3716 51.0771 31.7068L51.0283 31.652C50.3269 30.8286 49.278 30.3041 48.107 30.3041C45.9847 30.3041 44.2648 32.0301 44.2648 34.1524V38.1166H41.0386C36.6231 38.1166 33.0371 41.7026 33.0371 46.1181V93.6514C33.0371 96.0786 34.1166 98.2559 35.8242 99.7196C37.2208 100.927 39.0443 101.659 41.0386 101.659H88.578C92.9873 101.659 96.5795 98.0729 96.5795 93.6514V46.1181C96.5795 44.0506 95.7927 42.16 94.4998 40.739Z" fill="#BF2721"/>
</svg>
