<svg width="22" height="16" viewBox="0 0 22 16" fill="none" xmlns="http://www.w3.org/2000/svg">
<path d="M2.04011 2.86342C2.83364 2.86342 3.46645 2.23061 3.46645 1.43708C3.46645 0.653599 2.83364 0.0107422 2.04011 0.0107422C1.25663 0.0107422 0.61377 0.653599 0.61377 1.43708C0.61377 2.23061 1.25663 2.86342 2.04011 2.86342ZM6.76109 2.40137H20.4017C20.9441 2.40137 21.376 1.97949 21.376 1.43708C21.376 0.894671 20.9542 0.472796 20.4017 0.472796H6.76109C6.22872 0.472796 5.7968 0.894671 5.7968 1.43708C5.7968 1.97949 6.21868 2.40137 6.76109 2.40137ZM2.04011 9.04088C2.83364 9.04088 3.46645 8.40806 3.46645 7.61454C3.46645 6.83106 2.83364 6.1882 2.04011 6.1882C1.25663 6.1882 0.61377 6.83106 0.61377 7.61454C0.61377 8.40806 1.25663 9.04088 2.04011 9.04088ZM6.76109 8.57882H20.4017C20.9441 8.57882 21.376 8.15695 21.376 7.61454C21.376 7.07213 20.9542 6.65025 20.4017 6.65025H6.76109C6.22872 6.65025 5.7968 7.07213 5.7968 7.61454C5.7968 8.15695 6.21868 8.57882 6.76109 8.57882ZM2.04011 15.2183C2.83364 15.2183 3.46645 14.5855 3.46645 13.792C3.46645 13.0085 2.83364 12.3657 2.04011 12.3657C1.25663 12.3657 0.61377 13.0085 0.61377 13.792C0.61377 14.5855 1.25663 15.2183 2.04011 15.2183ZM6.76109 14.7563H20.4017C20.9441 14.7563 21.376 14.3344 21.376 13.792C21.376 13.2496 20.9542 12.8277 20.4017 12.8277H6.76109C6.22872 12.8277 5.7968 13.2496 5.7968 13.792C5.7968 14.3344 6.21868 14.7563 6.76109 14.7563Z" fill="#212121"/>
</svg>
