<svg width="147" height="54" viewBox="0 0 147 54" fill="none" xmlns="http://www.w3.org/2000/svg">
<path fill-rule="evenodd" clip-rule="evenodd" d="M84.7147 34.6088H67.9441V34.6082H62.8549L67.7373 24.8208L68.9482 27.2499H73.6751L67.7499 15.3716L58.1545 34.6088H50.7852L67.7499 0.600098L84.7147 34.6088ZM96.7839 34.6088H89.4151L76.135 7.98642L79.8191 0.600098L96.7839 34.6088Z" fill="#C90512"/>
<path d="M29.5799 53.1999H28.1789V49.3473H28.18V45.9861H28.1789V42.741H27.1557C25.1405 42.741 24.1318 43.4541 24.1318 44.8816C24.1318 46.3679 25.106 47.1107 27.0549 47.1107C27.2502 47.1107 27.4242 47.105 27.5757 47.0936V48.0793L27.5711 48.0799L23.6243 53.1999H21.9697L26.083 48.0799C25.0311 48.0056 24.2038 47.6747 23.6012 47.0879C23.0332 46.5393 22.7475 45.8478 22.7475 45.0176C22.7475 43.941 23.1225 43.1027 23.8754 42.5055C24.6272 41.9084 25.6913 41.6084 27.0722 41.6084H29.5799V53.1999Z" fill="#080003"/>
<path d="M43.4856 52.4005C42.3294 53.0668 41.1536 53.4 39.9542 53.4C37.8209 53.4 36.1203 52.8388 34.8517 51.7188C33.6091 50.6217 32.9863 49.1788 32.9863 47.3851C32.9863 45.6399 33.6638 44.1948 35.0217 43.0462C36.345 41.9319 37.9678 41.373 39.8879 41.373C41.3005 41.373 42.4994 41.701 43.4856 42.3571V43.8639C42.4763 42.9542 41.225 42.4982 39.726 42.4982C38.2357 42.4982 36.9764 42.9491 35.9526 43.8485C34.8949 44.7816 34.3644 45.9605 34.3644 47.3851C34.3644 48.8279 34.8949 50.0091 35.9526 50.9291C36.9764 51.816 38.2357 52.2594 39.726 52.2594C41.1559 52.2594 42.4101 51.8034 43.4856 50.8908V52.4005Z" fill="#080003"/>
<path d="M59.6617 47.3851C59.6617 49.0228 58.9928 50.4348 57.6552 51.6211C56.318 52.808 54.7205 53.4 52.8615 53.4C51.0047 53.4 49.4049 52.808 48.0615 51.6211C46.718 50.4348 46.0469 49.0228 46.0469 47.3851C46.0469 45.7502 46.718 44.3382 48.0615 43.1513C49.4049 41.965 51.0047 41.373 52.8615 41.373C54.7205 41.373 56.318 41.965 57.6552 43.1513C58.9928 44.3382 59.6617 45.7502 59.6617 47.3851ZM58.2261 47.3851C58.2261 46.0245 57.7099 44.8759 56.6752 43.9359C55.6434 42.9976 54.372 42.5291 52.8615 42.5291C51.3423 42.5291 50.0651 42.9976 49.0333 43.9331C47.9981 44.8685 47.4825 46.0194 47.4825 47.3851C47.4825 48.7537 47.9981 49.9045 49.0333 50.8394C50.0651 51.7754 51.3423 52.244 52.8615 52.244C54.372 52.244 55.6434 51.7754 56.6752 50.8371C57.7099 49.8965 58.2261 48.7485 58.2261 47.3851Z" fill="#080003"/>
<path d="M74.782 47.4622C74.782 46.1805 74.3436 45.1479 73.4645 44.3611C72.5301 43.5256 71.2385 43.1079 69.5897 43.1079H69.0735V41.373H67.6845V46.6908H67.673V50.6474H67.2087C64.6578 50.6474 63.3806 49.5868 63.3806 47.4622C63.3806 45.5062 64.4452 44.4439 66.5704 44.2731V43.1268C65.1999 43.2159 64.1059 43.6273 63.2878 44.3611C62.4144 45.1479 61.9795 46.1805 61.9795 47.4622C61.9795 48.7331 62.4144 49.7611 63.2878 50.5422C64.2193 51.3674 65.5081 51.7805 67.1568 51.7805H67.673V53.1822H69.0735V51.7805H69.077V50.6474H69.0735V44.2485H69.5378C72.0888 44.2485 73.3631 45.3199 73.3631 47.4622C73.3631 49.3971 72.3065 50.4497 70.1905 50.6217V51.7611C71.5559 51.6708 72.647 51.2645 73.4645 50.5422C74.3436 49.7611 74.782 48.7331 74.782 47.4622Z" fill="#080003"/>
<path d="M88.3684 53.1822H86.9011L85.3352 49.9994H80.8953L81.4362 48.8948H84.8139L82.3839 43.9588L77.8725 53.1822H76.4023L82.381 41.373L88.3684 53.1822Z" fill="#080003"/>
<path d="M100.526 53.1999H98.6344L93.0854 47.7107L93.0774 47.7073V46.5404L98.4996 41.6084H100.321L94.2209 47.1107L100.526 53.1999ZM92.7715 53.1999H91.3877V41.6084H92.7715V53.1999Z" fill="#080003"/>
<path d="M111 42.741H107.713V53.1993H106.312V42.741H103.026V41.6084H111V42.741Z" fill="#080003"/>
<path d="M123.818 41.6084L117.533 53.1993H116.029L118.145 49.3119L113.599 41.6084H115.117L118.834 48.0358L122.313 41.6084H123.818Z" fill="#080003"/>
<path d="M134.178 44.8353C134.178 45.8758 133.8 46.6879 133.042 47.2673C132.283 47.849 131.231 48.1387 129.885 48.1387H129.808V47.0336C130.762 47.0221 131.508 46.8324 132.05 46.4679C132.606 46.0907 132.886 45.5501 132.886 44.8507C132.886 43.4256 131.79 42.713 129.6 42.713H128.694V53.1999H127.311V41.6084H129.6C132.652 41.6084 134.178 42.685 134.178 44.8353Z" fill="#080003"/>
<path d="M12.9381 53.1822H7.96123L9.74654 49.6617L6.95365 43.9593L2.44227 53.1822H0.972656L6.95134 41.373L10.4499 48.2742L13.9486 41.373L19.9272 53.1822H18.4576L13.9468 43.9593L11.1534 49.6617L12.9381 53.1822ZM10.9166 52.0508L10.4499 51.0976L9.98332 52.0508H10.9166Z" fill="#080003"/>
<path d="M146.592 53.1822H145.125L143.559 49.9994H139.12L139.66 48.8948H143.038L140.608 43.9588L136.096 53.1822H134.626L140.605 41.373L146.592 53.1822Z" fill="#080003"/>
</svg>
