<svg width="487" height="487" viewBox="0 0 487 487" fill="none" xmlns="http://www.w3.org/2000/svg">
<path d="M486.18 58.34V427.95C486.18 458.36 462.84 483.29 433.09 485.84C431.43 486 429.76 486.07 428.07 486.07H58.46C26.36 486.07 0.350098 460.06 0.350098 427.96V58.34C0.350098 26.24 26.36 0.229983 58.46 0.229983H428.07C460.17 0.219983 486.18 26.24 486.18 58.34Z" fill="#EFEFEF"/>
<path d="M486.18 258.83V427.95C486.18 458.36 462.84 483.29 433.09 485.84H191.44L114.17 408.55L181.93 152.12L192.9 106.54L222.84 75.75L238.49 67.75L272.15 62.99L288.42 88.09L293.89 94.11L292.94 67.76L353.83 128.65L356.39 129.05L486.18 258.83Z" fill="#E3E3E3"/>
<path d="M198.18 262.27C207.155 262.27 214.43 254.995 214.43 246.02C214.43 237.045 207.155 229.77 198.18 229.77C189.205 229.77 181.93 237.045 181.93 246.02C181.93 254.995 189.205 262.27 198.18 262.27Z" fill="#AD2624"/>
<path d="M145.6 122.3C134.49 122.3 125.3 130.96 124.64 142.05L109.73 394.36C109.02 406.42 118.61 416.59 130.69 416.59H243.29V289.93L215.04 345.68C213.68 348.36 210.98 349.9 208.17 349.9C207 349.9 205.81 349.63 204.7 349.06C200.91 347.14 199.39 342.51 201.31 338.72L243.29 255.88V122.3H145.6ZM198.18 277.67C180.73 277.67 166.54 263.47 166.54 246.03C166.54 228.59 180.73 214.39 198.18 214.39C215.62 214.39 229.82 228.59 229.82 246.03C229.82 263.47 215.63 277.67 198.18 277.67Z" fill="#AD2624"/>
<path d="M288.4 316.07C297.375 316.07 304.65 308.795 304.65 299.82C304.65 290.845 297.375 283.57 288.4 283.57C279.425 283.57 272.15 290.845 272.15 299.82C272.15 308.795 279.425 316.07 288.4 316.07Z" fill="#AD2624"/>
<path d="M376.85 394.36L361.95 142.05C361.29 130.96 352.11 122.3 340.99 122.3H243.29V255.88L267.84 207.42L271.52 200.16C273.44 196.37 278.07 194.85 281.86 196.77C282.59 197.14 283.24 197.61 283.79 198.16C286.11 200.44 286.8 204.05 285.25 207.11L243.29 289.92V416.59H355.9C367.97 416.59 377.56 406.42 376.85 394.36ZM288.4 331.47C270.95 331.47 256.76 317.27 256.76 299.83C256.76 282.38 270.96 268.19 288.4 268.19C305.84 268.19 320.04 282.38 320.04 299.83C320.05 317.27 305.85 331.47 288.4 331.47Z" fill="#AD2624"/>
<path d="M243.29 44.96C207.12 44.96 177.68 74.39 177.68 110.57V146.59C177.68 182.76 207.12 212.2 243.29 212.2C251.97 212.2 260.26 210.51 267.84 207.43L271.52 200.17C273.44 196.38 278.07 194.86 281.86 196.78C282.59 197.15 283.24 197.62 283.79 198.17C299.07 186.14 308.9 167.49 308.9 146.59V110.57C308.91 74.39 279.47 44.96 243.29 44.96ZM278.12 146.59C278.12 156.19 274.21 164.9 267.9 171.2C261.6 177.5 252.89 181.41 243.29 181.41C224.09 181.41 208.47 165.79 208.47 146.59V110.57C208.47 91.37 224.09 75.75 243.29 75.75C262.49 75.75 278.12 91.37 278.12 110.57V146.59Z" fill="#AD2624"/>
</svg>
