<svg width="488" height="488" viewBox="0 0 488 488" fill="none" xmlns="http://www.w3.org/2000/svg">
<path d="M487.7 59.03V429.55C487.7 461.72 461.61 487.8 429.43 487.8H58.9099C26.7399 487.8 0.659912 461.72 0.659912 429.55V59.03C0.659912 26.86 26.7399 0.76001 58.9099 0.76001H429.43C461.61 0.76001 487.7 26.85 487.7 59.03Z" fill="#EFEFEF"/>
<path d="M487.7 59.03V429.55C487.7 461.72 461.61 487.8 429.43 487.8H58.9099C26.7399 487.8 0.659912 461.72 0.659912 429.55V59.03C0.659912 26.86 26.7399 0.76001 58.9099 0.76001H429.43C461.61 0.76001 487.7 26.85 487.7 59.03Z" fill="#EFEFEF"/>
<path d="M487.69 233.47V429.55C487.69 447.39 479.67 463.35 467.05 474.03C456.91 482.63 443.78 487.8 429.42 487.8H250.74L124.8 361.86L124.77 361.84C124.11 361.39 123.53 360.81 123.09 360.15L123.06 360.12C122.4 359.12 122.01 357.93 122.01 356.64V246.83L109.61 234.43C108.85 233.88 108.17 233.2 107.63 232.45C106.39 230.82 105.66 228.79 105.66 226.58L120.95 182.36L125.01 170.62V155.28C125.01 151.22 128.32 147.91 132.38 147.91H140.91L127.23 134.23C126.97 134 126.71 133.76 126.49 133.49C125.55 132.43 125.01 131.04 125.01 129.51V111.64C125.01 108.27 127.75 105.53 131.14 105.53H357.22C358.85 105.53 360.35 106.19 361.45 107.24C361.53 107.3 361.61 107.38 361.68 107.47L487.69 233.47Z" fill="#E3E3E3"/>
<path d="M366.61 180.06L363.34 170.6V155.27C363.34 151.2 360.04 147.9 355.97 147.9H132.39C128.32 147.9 125.02 151.2 125.02 155.27V170.6L120.96 182.34L105.66 226.57C105.66 231.99 110.05 236.38 115.47 236.38C117.98 236.38 120.28 235.43 122.02 233.87C123.49 232.56 124.56 230.8 125.02 228.82V356.8C125.02 360.18 127.76 362.92 131.14 362.92H276.44V268.49H331.44V362.92H357.21C360.59 362.92 363.33 360.18 363.33 356.8V228.86C363.8 230.84 364.86 232.58 366.33 233.88C368.06 235.44 370.35 236.39 372.87 236.39C378.29 236.39 382.69 231.99 382.69 226.58L366.61 180.06ZM177.65 221.33L177.77 220.62L184.32 181.75L186.19 170.59H213.59L212.63 181.48L209.16 220.62L209.1 221.33L208.63 226.56C208.63 235.35 201.5 242.48 192.7 242.48C183.91 242.48 176.78 235.35 176.78 226.56L177.65 221.33ZM141.21 242.49C132.41 242.49 125.28 235.36 125.28 226.57L126.01 224.12L127.01 220.76L138.47 182.18L141.91 170.61H169.31L166.85 181.92L158.44 220.63L158.28 221.34L157.14 226.57C157.14 235.35 150 242.49 141.21 242.49ZM246.37 333.97H156.91V268.47H246.37V333.97ZM244.18 242.49C235.38 242.49 228.25 235.36 228.25 226.57L228.46 221.34L228.49 220.63L230.06 181.34L230.49 170.61H257.89L258.31 181.08L259.88 220.64L259.91 221.35L260.12 226.58C260.1 235.35 252.97 242.49 244.18 242.49ZM295.66 242.49C286.87 242.49 279.74 235.36 279.74 226.57L279.27 221.34L279.21 220.63L275.68 180.91L274.76 170.61H302.16L303.85 180.65L310.59 220.63L310.71 221.34L311.59 226.57C311.59 235.35 304.46 242.49 295.66 242.49ZM347.14 242.49C338.34 242.49 331.21 235.36 331.21 226.57L330.07 221.34L329.91 220.63L321.19 180.49L319.04 170.61H346.44L349.29 180.23L361.32 220.76L362.32 224.1L363.06 226.57C363.07 235.35 355.94 242.49 347.14 242.49Z" fill="#AD2624"/>
<path d="M363.34 111.63V129.49C363.34 132.87 360.6 135.61 357.22 135.61H131.14C127.76 135.61 125.02 132.87 125.02 129.49V111.63C125.02 108.25 127.76 105.52 131.14 105.52H357.22C360.59 105.52 363.34 108.25 363.34 111.63Z" fill="#AD2624"/>
<path d="M131.14 362.91H128.29C124.82 362.91 122.01 360.1 122.01 356.64V233.86C123.48 232.55 124.55 230.79 125.01 228.81V356.79C125.02 360.17 127.76 362.91 131.14 362.91Z" fill="#AD2624"/>
<path d="M366.34 233.87V356.64C366.34 360.1 363.53 362.91 360.06 362.91H357.21C360.59 362.91 363.33 360.17 363.33 356.79V228.85C363.8 230.82 364.87 232.56 366.34 233.87Z" fill="#AD2624"/>
</svg>
