<svg width="262" height="262" viewBox="0 0 262 262" fill="none" xmlns="http://www.w3.org/2000/svg">
<path d="M139.637 261.155C66.3644 261.051 11.3226 213.212 2.15515 148.782C-7.82884 78.627 40.3615 13.2606 110.569 1.71668C118.251 0.454639 118.252 0.454638 118.252 8.19763C118.252 12.0283 117.984 15.8887 118.333 19.6896C118.645 23.1194 117.494 24.3072 114.095 24.8046C96.8954 27.3213 81.0992 33.6909 67.4779 44.4182C31.3351 72.8809 16.6004 110.297 27.0966 155.018C37.5556 199.56 67.1958 227.036 112.105 235.966C170.792 247.637 228.194 206.219 237.109 146.926C237.503 144.32 238.468 143.704 240.865 143.771C246.18 143.912 251.495 143.815 256.81 143.815C261.435 143.815 261.516 143.83 260.848 148.559C259.2 160.236 256.342 171.632 251.339 182.322C227.563 233.153 186.967 258.549 139.637 261.155Z" fill="#E85921"/>
<path d="M117.798 195.373C108.03 195.373 98.2609 195.41 88.4921 195.358C82.7541 195.329 81.0246 192.849 83.1401 187.586C84.84 183.347 86.7626 179.197 88.5961 175.01C90.1475 171.476 93.035 170.34 96.6946 170.355C111.162 170.392 125.63 170.355 140.097 170.377C143.593 170.385 147.03 170.08 150.244 168.64C155.574 166.25 156.903 161.699 153.696 156.836C150.927 152.642 146.696 150.326 142.354 148.158C128.985 141.491 115.616 134.81 102.262 128.114C98.2683 126.109 94.5716 123.645 91.35 120.512C79.0946 108.612 78.6344 89.5325 90.437 77.1794C97.4072 69.8892 106.062 65.7542 116.143 65.6502C135.302 65.4498 154.468 65.6502 173.634 65.7987C179.818 65.8433 181.347 68.4045 178.897 74.0688C177.331 77.699 175.535 81.2327 174.154 84.9298C172.588 89.1316 169.678 90.8168 165.335 90.802C150.994 90.7426 136.653 90.7946 122.304 90.7797C118.815 90.7723 115.378 90.995 112.135 92.4278C106.894 94.744 105.587 99.0424 108.683 103.912C111.221 107.906 115.007 110.505 119.157 112.509C128.495 117.023 137.915 121.366 147.275 125.82C154.216 129.116 160.77 133.021 166.753 137.898C176.893 146.146 182.794 156.213 179.543 169.62C176.121 183.733 166.115 191.32 152.568 194.713C145.523 196.479 138.286 195.366 131.13 195.529C126.684 195.633 122.23 195.551 117.776 195.551C117.798 195.485 117.798 195.433 117.798 195.373Z" fill="#E85921"/>
<path d="M144.774 12.4354C144.774 10.0895 144.774 7.73615 144.774 5.39024C144.774 0.58706 144.811 0.386619 149.614 1.23293C203.267 10.6611 238.95 41.1357 256.468 92.7532C258.814 99.6647 260.098 106.851 261.056 114.089C261.367 116.42 261.056 117.43 258.354 117.341C252.423 117.148 246.484 117.229 240.553 117.311C238.549 117.341 237.54 116.97 237.154 114.616C229.575 68.5888 196.772 34.5137 151.217 25.1746C144.774 23.8532 144.774 23.8532 144.774 17.2534C144.774 15.6499 144.774 14.0464 144.774 12.4354Z" fill="#489D42"/>
</svg>
