<svg width="488" height="489" viewBox="0 0 488 489" fill="none" xmlns="http://www.w3.org/2000/svg">
<path d="M487.65 59.02V429.72C487.65 461.91 461.56 488 429.35 488H58.6699C26.4599 488 0.370117 461.91 0.370117 429.72V59.02C0.370117 26.83 26.4599 0.719971 58.6699 0.719971H429.35C461.56 0.719971 487.65 26.83 487.65 59.02Z" fill="#E3E3E3"/>
<path d="M487.65 59.02V429.72C487.65 461.91 461.56 488 429.35 488H58.6699C26.4599 488 0.370117 461.91 0.370117 429.72V59.02C0.370117 26.83 26.4599 0.719971 58.6699 0.719971H429.35C461.56 0.719971 487.65 26.83 487.65 59.02Z" fill="#EFEFEF"/>
<path d="M487.65 231.37V429.71C487.65 461.9 461.54 488.01 429.35 488.01H236L126.57 378.59C123.68 376.49 121.15 373.96 119.05 371.07C114.95 365.45 112.53 358.53 112.53 351.05V133.09C112.53 114.29 127.78 99.04 146.58 99.04H160.17V84.8101C160.17 81.3201 162.98 78.53 166.45 78.53C169.92 78.53 172.73 81.3201 172.73 84.8101V99.04H315.29V84.8101C315.29 81.3201 318.1 78.53 321.57 78.53C325.04 78.53 327.85 81.3201 327.85 84.8101V99.04H341.39C349.83 99.04 357.56 102.11 363.51 107.2C364.87 108.35 366.12 109.62 367.29 110.98L487.65 231.37Z" fill="#E3E3E3"/>
<path d="M341.37 99.04H146.58C127.77 99.04 112.53 114.28 112.53 133.09V351.05C112.53 369.85 127.77 385.1 146.58 385.1H341.37C360.18 385.1 375.42 369.86 375.42 351.05V133.09C375.43 114.28 360.18 99.04 341.37 99.04ZM212.13 302.64L179.05 335.72C177.82 336.94 176.22 337.55 174.61 337.55C173.01 337.55 171.4 336.94 170.17 335.72L152.58 318.13C150.12 315.67 150.12 311.7 152.58 309.25C155.03 306.8 159.01 306.8 161.45 309.25L174.6 322.4L203.25 293.76C205.7 291.3 209.68 291.3 212.13 293.76C214.58 296.21 214.58 300.18 212.13 302.64ZM212.13 233.13L179.05 266.21C177.87 267.39 176.27 268.05 174.61 268.05C172.95 268.05 171.35 267.39 170.17 266.21L152.58 248.61C150.12 246.16 150.12 242.18 152.58 239.74C155.03 237.28 159.01 237.28 161.45 239.74L174.6 252.89L203.25 224.24C205.7 221.79 209.68 221.79 212.13 224.24C214.58 226.71 214.58 230.68 212.13 233.13ZM212.13 163.63L179.05 196.71C177.82 197.94 176.22 198.55 174.61 198.55C173.01 198.55 171.4 197.94 170.17 196.71L152.58 179.12C150.12 176.66 150.12 172.69 152.58 170.24C155.03 167.79 159.01 167.79 161.45 170.24L174.6 183.39L203.25 154.75C205.7 152.29 209.68 152.29 212.13 154.75C214.58 157.2 214.58 161.17 212.13 163.63ZM330.98 321.5H247.78C244.31 321.5 241.5 318.69 241.5 315.22C241.5 311.75 244.31 308.94 247.78 308.94H330.98C334.45 308.94 337.26 311.75 337.26 315.22C337.26 318.69 334.45 321.5 330.98 321.5ZM330.98 252H247.78C244.31 252 241.5 249.19 241.5 245.72C241.5 242.25 244.31 239.44 247.78 239.44H330.98C334.45 239.44 337.26 242.24 337.26 245.72C337.26 249.18 334.45 252 330.98 252ZM330.98 182.49H247.78C244.31 182.49 241.5 179.68 241.5 176.21C241.5 172.74 244.31 169.93 247.78 169.93H330.98C334.45 169.93 337.26 172.74 337.26 176.21C337.26 179.68 334.45 182.49 330.98 182.49Z" fill="#AD2624"/>
<path d="M172.72 84.8101V99.04H160.16V84.8101C160.16 81.3401 162.96 78.53 166.44 78.53C169.91 78.53 172.72 81.3301 172.72 84.8101Z" fill="#AD2624"/>
<path d="M327.84 84.8101V99.04H315.28V84.8101C315.28 81.3401 318.09 78.53 321.56 78.53C325.03 78.53 327.84 81.3301 327.84 84.8101Z" fill="#AD2624"/>
</svg>
