<svg width="489" height="487" viewBox="0 0 489 487" fill="none" xmlns="http://www.w3.org/2000/svg">
<path d="M487.52 58.54V428.78C487.52 460.93 461.44 486.99 429.29 486.99H59.05C26.9 486.99 0.840088 460.93 0.840088 428.78V58.54C0.840088 26.39 26.9 0.310059 59.05 0.310059H429.29C461.45 0.320059 487.52 26.39 487.52 58.54Z" fill="#EFEFEF"/>
<path d="M488.13 319.62V428.77C488.13 445.71 480.89 460.95 469.36 471.59C459 481.16 445.12 487 429.91 487H250.25L143.23 379.96C142.28 379.22 141.38 378.43 140.52 377.57C139.68 376.73 138.89 375.85 138.18 374.91C134.2 369.88 131.83 363.52 131.83 356.6C131.83 295.33 180.61 245.45 241.47 243.69L208.85 211.07C203.81 207.38 199.37 202.93 195.68 197.9C188.28 187.83 183.92 175.39 183.92 161.93C183.92 128.31 211.17 101.04 244.79 101.04C259.39 101.04 272.78 106.18 283.27 114.74L283.29 114.76C286.45 117.35 289.37 120.26 291.96 123.43L488.13 319.62Z" fill="#E3E3E3"/>
<path d="M303.512 176.251C311.238 143.529 290.975 110.739 258.253 103.012C225.531 95.2858 192.741 115.549 185.015 148.271C177.288 180.993 197.551 213.783 230.273 221.509C262.995 229.236 295.785 208.973 303.512 176.251Z" fill="#AD2624"/>
<path d="M244.18 243.66C181.8 243.66 131.23 294.23 131.23 356.61C131.23 372.98 144.5 386.25 160.87 386.25H327.5C343.87 386.25 357.14 372.98 357.14 356.61C357.13 294.23 306.56 243.66 244.18 243.66Z" fill="#AD2624"/>
</svg>
