<svg width="39" height="55" viewBox="0 0 39 55" fill="none" xmlns="http://www.w3.org/2000/svg">
<path d="M19.3335 0.5C8.691 0.5 0.0834961 9.1075 0.0834961 19.75C0.0834961 31.2175 12.2385 47.03 17.2435 53.0525C18.3435 54.3725 20.351 54.3725 21.451 53.0525C26.4285 47.03 38.5835 31.2175 38.5835 19.75C38.5835 9.1075 29.976 0.5 19.3335 0.5ZM19.3335 26.625C17.5101 26.625 15.7614 25.9007 14.4721 24.6114C13.1828 23.322 12.4585 21.5734 12.4585 19.75C12.4585 17.9266 13.1828 16.178 14.4721 14.8886C15.7614 13.5993 17.5101 12.875 19.3335 12.875C21.1569 12.875 22.9055 13.5993 24.1949 14.8886C25.4842 16.178 26.2085 17.9266 26.2085 19.75C26.2085 21.5734 25.4842 23.322 24.1949 24.6114C22.9055 25.9007 21.1569 26.625 19.3335 26.625Z" fill="#887C7C"/>
</svg>
