<svg width="30" height="24" viewBox="0 0 30 24" fill="none" xmlns="http://www.w3.org/2000/svg">
<path d="M1.42129 21.1975L2.7738 20.3369C1.42129 18.8615 0.683599 16.8944 0.683599 14.6815C0.683599 10.8701 3.14265 7.67338 6.58514 6.68961C7.56881 3.12402 10.6425 0.541992 14.3309 0.541992C18.3882 0.541992 22.3228 2.75507 23.3065 7.55008L27.1179 5.09103C27.7327 4.72218 28.4704 4.96815 28.8392 5.45988C29.2081 6.07469 28.9621 6.81238 28.4704 7.18123L25.0279 9.27143C27.3639 10.378 29.0852 12.837 29.0852 15.7879C29.0852 19.7223 26.0116 22.9188 22.1999 22.9188H7.6921H7.32326C6.3396 22.7959 5.47902 22.427 4.74133 21.9351L2.65113 23.1645C2.40516 23.2874 2.28229 23.4105 2.03632 23.4105C1.66747 23.4105 1.17574 23.1645 1.05265 22.7957C0.683807 22.3039 0.929775 21.5662 1.4215 21.1974L1.42129 21.1975ZM14.3309 3.00125C11.6261 3.00125 9.41304 5.09145 8.921 8.04222C8.921 8.53395 8.42927 8.9028 7.93733 9.02588C5.23253 9.51761 3.26521 11.9767 3.26521 14.8047C3.26521 16.4029 3.88002 17.8783 4.86347 18.9848L20.8466 9.02599C20.4782 4.59962 17.2815 3.00114 14.3307 3.00114L14.3309 3.00125ZM7.81499 20.5826H22.3228C24.7818 20.5826 26.7489 18.4924 26.7489 15.9105C26.7489 13.3285 24.7818 11.2383 22.3228 11.2383H22.0768L7.32294 20.4595C7.44603 20.4597 7.56891 20.5826 7.81487 20.5826L7.81499 20.5826Z" fill="white"/>
</svg>
