<svg width="20" height="19" viewBox="0 0 20 19" fill="none" xmlns="http://www.w3.org/2000/svg">
<path fill-rule="evenodd" clip-rule="evenodd" d="M3.24423 -7.27177e-06C3.364 -0.00221846 3.48048 0.0392554 3.5719 0.116664L3.5732 0.117757C3.66742 0.196985 3.72882 0.308368 3.74562 0.430316L4.13986 3.00005H11.75V4.00004H4.29425L5.678 13H15.878L17.378 8.00001H18.422L16.729 13.6435C16.6982 13.7465 16.6349 13.8368 16.5486 13.9011C16.4623 13.9653 16.3576 14 16.25 14L5.266 13.9999L5.25679 14C5.13363 14.0023 5.01407 13.9584 4.92167 13.8769L4.92004 13.8755C4.84007 13.8056 4.78482 13.7122 4.76178 13.6093L2.81989 1.00006H1.25C1.11739 1.00006 0.990213 0.947382 0.896445 0.853615C0.802677 0.759848 0.75 0.632674 0.75 0.500069C0.75 0.367465 0.802677 0.24029 0.896445 0.146523C0.990213 0.0527565 1.11739 7.78437e-05 1.25 7.78437e-05L3.235 0.000163078L3.24423 -7.27177e-06ZM16.8964 0.146523C16.9902 0.0527567 17.1174 7.78437e-05 17.25 7.78437e-05C17.3826 7.78437e-05 17.5098 0.0527567 17.6036 0.146523C17.6973 0.24029 17.75 0.367464 17.75 0.500069V2.00006H19.25C19.3826 2.00006 19.5098 2.05274 19.6036 2.14651C19.6973 2.24027 19.75 2.36745 19.75 2.50005C19.75 2.63266 19.6973 2.75983 19.6036 2.8536C19.5098 2.94736 19.3826 3.00004 19.25 3.00004H17.75V4.50004C17.75 4.63264 17.6973 4.75981 17.6036 4.85358C17.5098 4.94735 17.3826 5.00003 17.25 5.00003C17.1174 5.00003 16.9902 4.94735 16.8964 4.85358C16.8027 4.75981 16.75 4.63264 16.75 4.50004V3.00004H15.25C15.1174 3.00004 14.9902 2.94736 14.8964 2.8536C14.8027 2.75983 14.75 2.63266 14.75 2.50005C14.75 2.36745 14.8027 2.24027 14.8964 2.14651C14.9902 2.05274 15.1174 2.00006 15.25 2.00006H16.75V0.500069C16.75 0.367464 16.8027 0.24029 16.8964 0.146523ZM5.18934 16.4393C5.47064 16.158 5.85217 15.9999 6.25 15.9999C6.64783 15.9999 7.02936 16.158 7.31066 16.4393C7.59197 16.7206 7.75 17.1021 7.75 17.4999C7.75 17.8977 7.59197 18.2793 7.31066 18.5606C7.02936 18.8419 6.64783 18.9999 6.25 18.9999C5.85217 18.9999 5.47064 18.8419 5.18934 18.5606C4.90803 18.2793 4.75 17.8977 4.75 17.4999C4.75 17.1021 4.90803 16.7206 5.18934 16.4393ZM14.1893 16.4393C14.4706 16.158 14.8522 15.9999 15.25 15.9999C15.6478 15.9999 16.0294 16.158 16.3107 16.4393C16.592 16.7206 16.75 17.1021 16.75 17.4999C16.75 17.8977 16.592 18.2793 16.3107 18.5606C16.0294 18.8419 15.6478 18.9999 15.25 18.9999C14.8522 18.9999 14.4706 18.8419 14.1893 18.5606C13.908 18.2793 13.75 17.8977 13.75 17.4999C13.75 17.1021 13.908 16.7206 14.1893 16.4393Z" fill="#C02425"/>
</svg>
