<svg width="8" height="16" viewBox="0 0 8 16" fill="none" xmlns="http://www.w3.org/2000/svg">
<path fill-rule="evenodd" clip-rule="evenodd" d="M0.30542 8.8644C0.10986 8.63904 -3.64266e-07 8.33343 -3.50337e-07 8.01477C-3.36408e-07 7.69611 0.10986 7.3905 0.30542 7.16514L6.20652 0.366878C6.30275 0.252099 6.41786 0.160548 6.54513 0.0975656C6.67239 0.0345835 6.80928 0.00143191 6.94778 4.53274e-05C7.08629 -0.00134126 7.22365 0.0290652 7.35185 0.0894899C7.48005 0.149915 7.59652 0.239148 7.69447 0.351983C7.79241 0.464817 7.86987 0.598994 7.92232 0.746684C7.97477 0.894373 8.00116 1.05262 7.99996 1.21219C7.99876 1.37175 7.96998 1.52944 7.91531 1.67606C7.86064 1.82268 7.78117 1.95529 7.68154 2.06614L2.51794 8.01477L7.68154 13.9634C7.87156 14.19 7.9767 14.4936 7.97432 14.8087C7.97195 15.1238 7.86224 15.4252 7.66883 15.648C7.47542 15.8708 7.21379 15.9972 6.94028 16C6.66677 16.0027 6.40326 15.8816 6.20652 15.6627L0.30542 8.8644Z" fill="#212121"/>
</svg>
