<svg width="83" height="74" viewBox="0 0 83 74" fill="none" xmlns="http://www.w3.org/2000/svg">
<path d="M31 44H13.1898L13.001 37.8957C12.9928 37.631 13.0362 37.3676 13.1281 37.1234C13.22 36.8793 13.3583 36.6602 13.5334 36.4814C13.7085 36.3025 13.9164 36.1681 14.1426 36.0873C14.3688 36.0066 14.608 35.9814 14.8437 36.0136L25.2081 37.4283H25.2094C26.7459 37.4329 28.2182 38.1163 29.3036 39.3287C30.389 40.5411 30.999 42.1837 31 43.8966V44Z" fill="white"/>
<path d="M23.6526 23H10.3474C10.1704 23 9.99519 23.0348 9.8317 23.1025C9.66821 23.1702 9.51965 23.2694 9.39453 23.3945C9.26941 23.5197 9.17016 23.6682 9.10247 23.8317C9.03477 23.9952 8.99995 24.1704 9 24.3474V37.6526C8.99995 37.8296 9.03477 38.0048 9.10247 38.1683C9.17016 38.3318 9.26941 38.4804 9.39453 38.6055C9.51965 38.7306 9.66821 38.8298 9.8317 38.8975C9.99519 38.9652 10.1704 39 10.3474 39H23.6526C23.8296 39 24.0048 38.9652 24.1683 38.8975C24.3318 38.8298 24.4803 38.7306 24.6055 38.6055C24.7306 38.4804 24.8298 38.3318 24.8975 38.1683C24.9652 38.0048 25 37.8296 25 37.6526V24.3474C25 24.1704 24.9652 23.9952 24.8975 23.8317C24.8298 23.6682 24.7306 23.5196 24.6055 23.3945C24.4803 23.2694 24.3318 23.1702 24.1683 23.1025C24.0048 23.0348 23.8296 23 23.6526 23Z" fill="#BF2526"/>
<path d="M25 24.2973V26H9V24.2973C8.99995 24.1269 9.03477 23.9582 9.10247 23.8008C9.17016 23.6434 9.26941 23.5003 9.39453 23.3799C9.51966 23.2594 9.66821 23.1638 9.8317 23.0987C9.99519 23.0335 10.1704 23 10.3474 23H23.6526C23.8296 23 24.0048 23.0335 24.1683 23.0987C24.3318 23.1638 24.4803 23.2594 24.6055 23.3799C24.7306 23.5003 24.8298 23.6434 24.8975 23.8008C24.9652 23.9582 25 24.1269 25 24.2973Z" fill="#6A6A6A"/>
<path d="M56.8962 27.1068C56.8007 26.7982 56.6386 26.5143 56.4215 26.2751C56.2044 26.036 55.9375 25.8473 55.6397 25.7225C55.3418 25.5976 55.0202 25.5397 54.6975 25.5526C54.3748 25.5656 54.0589 25.6492 53.772 25.7975L34.8341 19L34 23.733L52.8776 28.9264C53.1586 29.3921 53.6006 29.7385 54.1199 29.8999C54.6391 30.0613 55.1995 30.0266 55.6948 29.8023C56.1901 29.578 56.586 29.1798 56.8075 28.683C57.0289 28.1862 57.0605 27.6254 56.8962 27.1068Z" fill="#FFB8B8"/>
<path opacity="0.2" d="M56.8962 27.1068C56.8007 26.7982 56.6386 26.5143 56.4215 26.2751C56.2044 26.036 55.9375 25.8473 55.6397 25.7225C55.3418 25.5976 55.0202 25.5397 54.6975 25.5526C54.3748 25.5656 54.0589 25.6492 53.772 25.7975L34.8341 19L34 23.733L52.8776 28.9264C53.1586 29.3921 53.6006 29.7385 54.1199 29.8999C54.6391 30.0613 55.1995 30.0266 55.6948 29.8023C56.1901 29.578 56.586 29.1798 56.8075 28.683C57.0289 28.1862 57.0605 27.6254 56.8962 27.1068Z" fill="black"/>
<path d="M37.9441 18.616L36.4162 23.3545C36.3727 23.4894 36.3053 23.6115 36.2184 23.7126C36.1316 23.8137 36.0275 23.8914 35.9131 23.9404C35.7987 23.9894 35.6767 24.0085 35.5556 23.9965C35.4344 23.9845 35.3168 23.9417 35.2108 23.8709L31.4974 21.3898C30.9177 21.1218 30.4511 20.5918 30.2 19.9161C29.9488 19.2404 29.9337 18.474 30.1578 17.785C30.3819 17.096 30.827 16.5406 31.3955 16.2406C31.964 15.9405 32.6096 15.9204 33.1906 16.1845L37.3372 17.2762C37.4559 17.3075 37.5676 17.3688 37.6645 17.4559C37.7615 17.5431 37.8415 17.654 37.8991 17.7811C37.9567 17.9083 37.9905 18.0487 37.9983 18.1928C38.006 18.3368 37.9876 18.4812 37.9441 18.616Z" fill="white"/>
<path d="M59.2 31L52 34.0451L52.9453 37.3564C54.7707 43.7506 55.2552 50.4122 54.3722 56.977L59.6364 58L64 47.6466L62.4727 35.8722L59.2 31Z" fill="white"/>
<path d="M72 46C67.6861 46 64.1706 48.664 64 52H80C79.8294 48.664 76.3139 46 72 46Z" fill="#C02425"/>
<path d="M67.9669 46.7172C67.7415 28.3512 57.6012 30.0408 57.6012 30.0408C57.6012 30.0408 57.7909 35.7575 57.8821 35.9353C64.3438 48.5463 53.6795 63.331 40.1048 60.6111C39.8489 60.5598 39.603 60.5078 39.3671 60.455C37.6471 60.0846 36.1285 59.0522 35.1201 57.5679C34.1118 56.0836 33.6894 54.2589 33.939 52.4648C35.2762 41.3882 28.6253 41.5842 28.6253 41.5842H18.9L13.8496 36.8955C13.6713 36.73 13.4564 36.6121 13.2238 36.5521C12.9911 36.492 12.7477 36.4917 12.5149 36.5511C12.2821 36.6105 12.0669 36.7278 11.8882 36.8928C11.7095 37.0578 11.5727 37.2655 11.4898 37.4976L10.84 39.3167C10.84 39.3167 1.24798 40.3474 2.04732 50.0356H5.01283C5.00567 50.3108 5.01636 50.5863 5.04483 50.8601L27.1767 50.6745C28.474 50.6636 29.6191 51.7479 29.6244 53.0862C29.6258 53.412 29.5634 53.7347 29.441 54.035C29.3186 54.3354 29.1388 54.6072 28.9122 54.8342C28.6856 55.0612 28.417 55.2387 28.1224 55.3561C27.8278 55.4736 27.5132 55.5285 27.1976 55.5177L23.6294 55.395C22.5303 60.4452 25.2281 63.8464 28.2006 65.985C30.9993 67.9694 34.3203 69.0215 37.7163 68.9997H47.4097C59.9993 68.9997 62.1974 58.0747 62.1974 58.0747C68.792 55.1888 67.9669 46.7172 67.9669 46.7172Z" fill="#C02425"/>
<path d="M71.5 74C77.8513 74 83 68.8513 83 62.5C83 56.1487 77.8513 51 71.5 51C65.1487 51 60 56.1487 60 62.5C60 68.8513 65.1487 74 71.5 74Z" fill="#330000"/>
<path d="M71 66C72.6569 66 74 64.8807 74 63.5C74 62.1193 72.6569 61 71 61C69.3431 61 68 62.1193 68 63.5C68 64.8807 69.3431 66 71 66Z" fill="#5D5D5D"/>
<path d="M13 74C20.1797 74 26 68.1797 26 61C26 53.8203 20.1797 48 13 48C5.8203 48 0 53.8203 0 61C0 68.1797 5.8203 74 13 74Z" fill="#330000"/>
<path d="M13.5 65C15.433 65 17 63.433 17 61.5C17 59.567 15.433 58 13.5 58C11.567 58 10 59.567 10 61.5C10 63.433 11.567 65 13.5 65Z" fill="#5D5D5D"/>
<path d="M51.7028 35L49.1786 28.4257C49.047 28.083 48.9871 27.7189 49.0023 27.3541C49.0175 26.9892 49.1075 26.6309 49.2672 26.2994C49.4268 25.9679 49.653 25.6698 49.9328 25.4222C50.2126 25.1745 50.5405 24.9821 50.8978 24.856L58.1346 22.3014C58.7633 22.0794 59.4315 21.9783 60.1009 22.0039C60.7704 22.0295 61.428 22.1813 62.0363 22.4506C62.6446 22.7199 63.1916 23.1015 63.6461 23.5735C64.1006 24.0456 64.4536 24.5988 64.6851 25.2017C64.8939 25.7428 65.0005 26.3152 65 26.8922C64.9973 27.6247 64.8244 28.3475 64.4939 29.008C64.1634 29.6685 63.6835 30.2501 63.0892 30.7104C62.6599 31.0407 62.1774 31.3016 61.6605 31.4829L51.7028 35Z" fill="#C02425"/>
<path d="M65 26.493C64.9994 27.1662 64.8213 27.8307 64.479 28.4376C64.1366 29.0445 63.6387 29.5784 63.0218 30C62.0753 29.7876 61.1945 29.4025 60.4407 28.8713C59.6869 28.3401 59.0781 27.6756 58.6567 26.9241C58.2353 26.1725 58.0113 25.3519 58.0004 24.5193C57.9895 23.6867 58.1919 22.862 58.5935 22.1027C59.3645 21.96 60.1633 21.9661 60.9312 22.1204C61.6991 22.2748 62.4166 22.5734 63.0311 22.9945C63.6455 23.4156 64.1413 23.9484 64.482 24.5538C64.8227 25.1592 64.9997 25.8218 65 26.493Z" fill="#D8D8D8"/>
<path d="M3 51C4.65685 51 6 49.433 6 47.5C6 45.567 4.65685 44 3 44C1.34315 44 0 45.567 0 47.5C0 49.433 1.34315 51 3 51Z" fill="#D1D1D1"/>
<path d="M41.0004 61H43.7106L45 54L41 54.0002L41.0004 61Z" fill="#FFB8B8"/>
<path d="M39 59.0002L44.4968 59H44.497C44.957 59 45.4125 59.0751 45.8375 59.2211C46.2625 59.3671 46.6487 59.5811 46.974 59.8509C47.2993 60.1207 47.5573 60.441 47.7334 60.7935C47.9094 61.146 48 61.5238 48 61.9053V61.9997L39.0002 62L39 59.0002Z" fill="#2A2727"/>
<path d="M43.846 58C43.817 58 43.7878 57.9986 43.7585 57.9957L40.308 57.7397C40.1685 57.7265 40.0338 57.6808 39.9143 57.6061C39.7948 57.5315 39.6938 57.4298 39.6189 57.3091C39.5441 57.1883 39.4974 57.0516 39.4826 56.9096C39.4678 56.7675 39.4851 56.6239 39.5334 56.4898L44.1512 45.9143C44.1842 45.82 44.1977 45.7198 44.1908 45.6199C44.1839 45.5201 44.1568 45.4227 44.1113 45.3341C44.0658 45.2444 44.0022 45.1655 43.9247 45.1026C43.8472 45.0397 43.7576 44.9943 43.6616 44.9693C41.4901 44.3907 35.9189 42.8501 31.0961 41.0475C29.0298 40.2752 27.7285 39.1591 27.2282 37.7302C26.5686 35.8465 27.5444 34.1286 27.5862 34.0565L27.619 34L32.1571 34.4205L37.0769 34.847L47.8582 40.7402C48.7616 41.2382 49.4478 42.0648 49.7802 43.0553C50.1126 44.0459 50.0667 45.1277 49.6517 46.0853L44.6811 57.4471C44.6092 57.6117 44.4921 57.7515 44.3439 57.8496C44.1957 57.9477 44.0227 57.9999 43.846 58Z" fill="#4D4D4D"/>
<path d="M32.5 13C35.5376 13 38 10.9853 38 8.5C38 6.01472 35.5376 4 32.5 4C29.4624 4 27 6.01472 27 8.5C27 10.9853 29.4624 13 32.5 13Z" fill="#E9B7B7"/>
<path d="M39.0006 61H42.3882L44 54L39 54.0002L39.0006 61Z" fill="#FFB8B8"/>
<path d="M38 59.0003L42.886 59H42.8862C43.2951 59 43.7 59.1002 44.0778 59.2949C44.4556 59.4895 44.7989 59.7749 45.088 60.1346C45.3771 60.4943 45.6065 60.9213 45.763 61.3913C45.9195 61.8613 46 62.365 46 62.8737V62.9996L38.0002 63L38 59.0003Z" fill="#3E3E3E"/>
<path d="M42.5785 58C42.5482 58 42.5177 57.9986 42.4872 57.9959L38.8867 57.7505C38.741 57.7379 38.6005 57.6941 38.4758 57.6225C38.3511 57.551 38.2457 57.4536 38.1676 57.3378C38.0895 57.2221 38.0408 57.0911 38.0253 56.955C38.0098 56.8189 38.028 56.6812 38.0783 56.5527L42.8969 46.4178C42.9313 46.3275 42.9454 46.2314 42.9382 46.1357C42.931 46.0401 42.9028 45.9468 42.8552 45.8618C42.8078 45.7758 42.7415 45.7002 42.6606 45.64C42.5797 45.5797 42.4861 45.5362 42.386 45.5122C40.1202 44.9577 34.3066 43.4813 29.2741 41.7539C27.1181 41.0137 25.7602 39.9441 25.2381 38.5748C24.5499 36.7696 25.568 35.1232 25.6117 35.0541L25.6459 35L30.3813 35.403L35.515 35.8117L46.7651 41.4593C47.7078 41.9366 48.4238 42.7287 48.7706 43.678C49.1174 44.6273 49.0696 45.6641 48.6365 46.5818L43.4498 57.4702C43.3748 57.6279 43.2526 57.7618 43.0979 57.8558C42.9433 57.9499 42.7629 57.9999 42.5785 58Z" fill="#696969"/>
<path d="M33.9553 16.7828L28.8482 15C28.8482 15 25.6421 17.484 27.1823 23.6463C27.9864 26.8263 27.7522 30.183 26.5144 33.2181C26.3654 33.5936 26.1936 33.9595 26 34.3138C26 34.3138 31.6964 41.2469 37 36.0966L34.9375 26.093C34.9375 26.093 38.1786 19.457 33.9553 16.7828Z" fill="white"/>
<path d="M32.7853 12.9506C32.0924 11.91 31.5456 10.467 32.3085 9.47691C33.0615 8.49957 34.5467 8.64356 35.6999 8.21109C37.3062 7.60874 38.2378 5.71524 37.9472 4.0195C37.6567 2.32375 36.3001 0.918027 34.6839 0.34285C33.0678 -0.232326 31.2453 -0.0452651 29.6627 0.617086C27.7144 1.43245 26.0432 3.00971 25.3424 5.00769C24.6416 7.00566 25.0162 9.40461 26.47 10.9403C28.0287 12.5867 30.4749 13.0255 32.7379 12.9989" fill="#515151"/>
<path d="M56.8002 26.2822C56.6693 25.9346 56.4763 25.6256 56.2349 25.377C55.9936 25.1285 55.7096 24.9464 55.4032 24.8435C55.0967 24.7407 54.7752 24.7196 54.4612 24.7818C54.1472 24.844 53.8485 24.988 53.5859 25.2035L34.2405 20L34 25.6661L53.0916 28.9993C53.423 29.5039 53.8973 29.8453 54.4247 29.9587C54.952 30.0722 55.4958 29.9499 55.9529 29.6149C56.4101 29.28 56.7488 28.7557 56.905 28.1415C57.0611 27.5273 57.0239 26.8657 56.8002 26.2822Z" fill="#FFB8B8"/>
<path d="M37.972 20.9213L36.8071 26.1839C36.774 26.3336 36.7123 26.4736 36.6262 26.5944C36.5401 26.7151 36.4317 26.8138 36.3083 26.8836C36.1849 26.9535 36.0495 26.9929 35.9113 26.9991C35.773 27.0054 35.6351 26.9783 35.5071 26.9199L31.0206 24.8706C30.3338 24.6777 29.7438 24.189 29.3799 23.5117C29.016 22.8345 28.9081 22.024 29.0797 21.2582C29.2514 20.4923 29.6887 19.8336 30.2955 19.4266C30.9024 19.0197 31.6294 18.8977 32.3169 19.0873L37.1283 19.5959C37.266 19.6105 37.3993 19.658 37.5191 19.7352C37.6389 19.8124 37.7424 19.9175 37.8224 20.0433C37.9025 20.1691 37.9573 20.3126 37.9831 20.4641C38.0089 20.6157 38.0051 20.7716 37.972 20.9213Z" fill="white"/>
<path d="M54.5 30C55.3284 30 56 29.3284 56 28.5C56 27.6716 55.3284 27 54.5 27C53.6716 27 53 27.6716 53 28.5C53 29.3284 53.6716 30 54.5 30Z" fill="white"/>
<g filter="url(#filter0_d_2701_6443)">
<path d="M15.7796 33.5044L15.9873 34.0609H17.19L15.7796 31.5009L13.7488 35.6192H12L15.7796 28.2173L19.5593 35.6192H14.8206L15.7796 33.5044Z" fill="white"/>
<path d="M17.3335 29.6366L18.1872 27.9999L22.0003 35.6192H20.2929L17.3335 29.6366Z" fill="white"/>
</g>
<defs>
<filter id="filter0_d_2701_6443" x="2" y="17.9999" width="40.0005" height="37.6193" filterUnits="userSpaceOnUse" color-interpolation-filters="sRGB">
<feFlood flood-opacity="0" result="BackgroundImageFix"/>
<feColorMatrix in="SourceAlpha" type="matrix" values="0 0 0 0 0 0 0 0 0 0 0 0 0 0 0 0 0 0 127 0" result="hardAlpha"/>
<feOffset dx="5" dy="5"/>
<feGaussianBlur stdDeviation="7.5"/>
<feComposite in2="hardAlpha" operator="out"/>
<feColorMatrix type="matrix" values="0 0 0 0 0 0 0 0 0 0 0 0 0 0 0 0 0 0 0.25 0"/>
<feBlend mode="normal" in2="BackgroundImageFix" result="effect1_dropShadow_2701_6443"/>
<feBlend mode="normal" in="SourceGraphic" in2="effect1_dropShadow_2701_6443" result="shape"/>
</filter>
</defs>
</svg>
