<svg width="10" height="10" viewBox="0 0 10 10" fill="none" xmlns="http://www.w3.org/2000/svg">
<path fill-rule="evenodd" clip-rule="evenodd" d="M6.06065 4.61656H7.44457C7.65441 4.61656 7.81928 4.44307 7.81928 4.23387C7.81928 4.01956 7.65441 3.85118 7.44457 3.85118H6.06065C5.85081 3.85118 5.68594 4.01956 5.68594 4.23387C5.68594 4.44307 5.85081 4.61656 6.06065 4.61656ZM9.08829 1.96375C9.39305 1.96375 9.59289 2.0709 9.79274 2.30562C9.99258 2.54033 10.0276 2.8771 9.98259 3.18274L9.50796 6.53001C9.41803 7.17345 8.87845 7.64747 8.24395 7.64747H2.79319C2.12871 7.64747 1.57914 7.12752 1.52418 6.45399L1.06454 0.891702L0.310129 0.759036C0.110285 0.723318 -0.0296059 0.524319 0.00536689 0.320217C0.0403396 0.111523 0.235188 -0.0267564 0.440028 0.00436915L1.6316 0.187551C1.80147 0.218676 1.92637 0.361037 1.94136 0.534524L2.03628 1.67749C2.05127 1.84129 2.18117 1.96375 2.34105 1.96375H9.08829ZM2.71316 8.45393C2.29348 8.45393 1.95375 8.8009 1.95375 9.22952C1.95375 9.65303 2.29348 10 2.71316 10C3.12783 10 3.46757 9.65303 3.46757 9.22952C3.46757 8.8009 3.12783 8.45393 2.71316 8.45393ZM8.33378 8.45393C7.9141 8.45393 7.57437 8.8009 7.57437 9.22952C7.57437 9.65303 7.9141 10 8.33378 10C8.74845 10 9.08819 9.65303 9.08819 9.22952C9.08819 8.8009 8.74845 8.45393 8.33378 8.45393Z" fill="white"/>
</svg>
