<svg width="16" height="20" viewBox="0 0 16 20" fill="none" xmlns="http://www.w3.org/2000/svg">
<path d="M1.85088 14.3539L1.87778 14.3251V14.2857V8.57143C1.87778 5.65871 3.63099 3.12841 6.25282 2.28568L6.32222 2.26337V2.19048V1.90476C6.32222 0.905761 7.08384 0.1 8 0.1C8.91616 0.1 9.67778 0.905761 9.67778 1.90476V2.19048V2.26337L9.74718 2.28568C12.369 3.12841 14.1222 5.65871 14.1222 8.57143V14.2857V14.3251L14.1491 14.3539L15.9 16.2299V17.0429H0.1V16.2299L1.85088 14.3539ZM3.45556 15.2381V15.3381H3.55556H12.4444H12.5444V15.2381V8.57143C12.5444 5.85614 10.5505 3.70952 8 3.70952C5.4495 3.70952 3.45556 5.85614 3.45556 8.57143V15.2381ZM9.67522 18.1952C9.62643 19.1475 8.88539 19.9 8 19.9C7.11461 19.9 6.37357 19.1475 6.32478 18.1952H9.67522Z" fill="white" stroke="#D36666" stroke-width="0.2"/>
</svg>
