<svg width="19" height="19" viewBox="0 0 19 19" fill="none" xmlns="http://www.w3.org/2000/svg">
<path d="M8.75275 8.64512C9.08525 8.04837 9.2515 7.75 9.5 7.75C9.7485 7.75 9.91475 8.0475 10.2473 8.64512L10.333 8.79913C10.4275 8.96888 10.4748 9.05288 10.5483 9.10888C10.6226 9.16488 10.7145 9.18587 10.8983 9.227L11.0645 9.2655C11.7103 9.41163 12.0331 9.48425 12.1101 9.731C12.1871 9.97863 11.9666 10.2359 11.5265 10.7504L11.4128 10.8834C11.2876 11.0295 11.2246 11.1021 11.1966 11.1931C11.1686 11.2841 11.1783 11.3813 11.1966 11.5764L11.2141 11.754C11.2806 12.4409 11.3139 12.7848 11.1135 12.937C10.9123 13.0893 10.6095 12.9501 10.0049 12.6719L9.84913 12.6001C9.67675 12.5214 9.591 12.482 9.5 12.482C9.409 12.482 9.32325 12.5214 9.15088 12.6001L8.99513 12.6719C8.3905 12.951 8.08775 13.0893 7.8865 12.937C7.68525 12.7848 7.71938 12.4409 7.78588 11.754L7.80338 11.5764C7.82175 11.3813 7.83138 11.2841 7.80338 11.1931C7.77538 11.103 7.71238 11.0295 7.58725 10.8834L7.4735 10.7504C7.03338 10.2359 6.81288 9.97863 6.88988 9.731C6.96688 9.48425 7.28975 9.41163 7.9355 9.2655L8.10175 9.227C8.2855 9.18587 8.37738 9.16575 8.45175 9.10888C8.52525 9.05288 8.5725 8.96888 8.667 8.79913L8.75275 8.64512Z" stroke="#C02425"/>
<path d="M18.25 9.32325C18.25 7.02025 18.25 5.86787 17.5762 5.11975C17.5145 5.05069 17.449 4.98498 17.3803 4.92288C16.6321 4.25 15.4797 4.25 13.1767 4.25H12.8495C11.8406 4.25 11.3358 4.25 10.865 4.11613C10.6067 4.04228 10.3577 3.93893 10.123 3.80812C9.696 3.571 9.339 3.21312 8.625 2.5L8.14375 2.01875C7.904 1.779 7.785 1.66 7.659 1.555C7.11708 1.10581 6.45232 0.830451 5.7515 0.764875C5.58875 0.75 5.419 0.75 5.08125 0.75C4.30862 0.75 3.92275 0.75 3.60075 0.81125C2.90936 0.941821 2.27337 1.27774 1.77577 1.7752C1.27816 2.27265 0.942038 2.90853 0.81125 3.59987C0.75 3.92275 0.75 4.3095 0.75 5.08125M18.2421 13C18.2106 15.17 18.0496 16.3994 17.2245 17.2245C16.1999 18.25 14.5496 18.25 11.25 18.25H7.75C4.45038 18.25 2.80012 18.25 1.7755 17.2245C0.75 16.1999 0.75 14.5496 0.75 11.25V8.625" stroke="#C02425" stroke-linecap="round"/>
</svg>
