<svg width="131" height="131" viewBox="0 0 131 131" fill="none" xmlns="http://www.w3.org/2000/svg">
<circle cx="65.5" cy="65.5" r="65.5" fill="#F1F3F4"/>
<g clip-path="url(#clip0_1701_3927)">
<path fill-rule="evenodd" clip-rule="evenodd" d="M89.6595 37.4922C95.3779 37.4922 100.014 42.1107 100.014 47.808V82.1939C100.014 87.8912 95.3779 92.5097 89.6595 92.5097H41.34C35.6216 92.5097 30.9858 87.8912 30.9858 82.1939V47.808C30.9858 42.1107 35.6216 37.4922 41.34 37.4922H89.6595ZM37.8886 65.001V82.1939C37.8886 84.0931 39.4339 85.6325 41.34 85.6325H89.6595C91.5657 85.6325 93.1108 84.0931 93.1108 82.1939V65.001H37.8886ZM37.8886 51.2466H93.1108V47.808C93.1108 45.9089 91.5657 44.3694 89.6595 44.3694H41.34C39.4339 44.3694 37.8886 45.9089 37.8886 47.808V51.2466Z" fill="#BF2721"/>
</g>
<defs>
<clipPath id="clip0_1701_3927">
<rect width="71" height="56" fill="white" transform="translate(30 37)"/>
</clipPath>
</defs>
</svg>
