<svg width="22" height="22" viewBox="0 0 22 22" fill="none" xmlns="http://www.w3.org/2000/svg">
<path d="M19.5556 19.5556H2.44444V2.44444H19.5556M19.5556 0H2.44444C1.79614 0 1.17438 0.257539 0.715961 0.715961C0.257539 1.17438 0 1.79614 0 2.44444V19.5556C0 20.2039 0.257539 20.8256 0.715961 21.284C1.17438 21.7425 1.79614 22 2.44444 22H19.5556C20.2039 22 20.8256 21.7425 21.284 21.284C21.7425 20.8256 22 20.2039 22 19.5556V2.44444C22 1.79614 21.7425 1.17438 21.284 0.715961C20.8256 0.257539 20.2039 0 19.5556 0ZM16.5 16.1944C16.5 14.3611 12.8333 13.4444 11 13.4444C9.16667 13.4444 5.5 14.3611 5.5 16.1944V17.1111H16.5M11 11.3056C11.7293 11.3056 12.4288 11.0158 12.9445 10.5001C13.4603 9.98437 13.75 9.2849 13.75 8.55556C13.75 7.82621 13.4603 7.12674 12.9445 6.61101C12.4288 6.09529 11.7293 5.80556 11 5.80556C10.2707 5.80556 9.57118 6.09529 9.05546 6.61101C8.53973 7.12674 8.25 7.82621 8.25 8.55556C8.25 9.2849 8.53973 9.98437 9.05546 10.5001C9.57118 11.0158 10.2707 11.3056 11 11.3056Z" fill="#C02425"/>
</svg>
