<svg width="27" height="27" viewBox="0 0 27 27" fill="none" xmlns="http://www.w3.org/2000/svg">
<path fill-rule="evenodd" clip-rule="evenodd" d="M8.29105 23.7519C8.29105 25.5509 9.78938 27 11.6165 27C13.4436 27 14.9419 25.5509 14.9419 23.7519C14.9419 21.9528 13.4436 20.5037 11.6165 20.5037C9.78918 20.5037 8.29105 21.9566 8.29105 23.7519ZM11.6165 22.4591C10.8729 22.4591 10.2814 23.0469 10.2814 23.7554C10.2814 24.4635 10.8761 25.0518 11.6165 25.0518C12.3568 25.0518 12.9515 24.4635 12.9515 23.7554C12.9515 23.0469 12.3601 22.4591 11.6165 22.4591Z" fill="white"/>
<path fill-rule="evenodd" clip-rule="evenodd" d="M17.5773 23.7518C17.5773 25.5508 19.0756 26.9999 20.9027 26.9999C22.7298 26.9999 24.2281 25.5508 24.2281 23.7518C24.2281 21.9528 22.7298 20.5037 20.9027 20.5037C19.0756 20.5037 17.5773 21.9528 17.5773 23.7518ZM20.9027 22.459C20.1591 22.459 19.5676 23.0469 19.5676 23.7554C19.5676 24.4635 20.1623 25.0517 20.9027 25.0517C21.6463 25.0517 22.2377 24.4638 22.2377 23.7554C22.2377 23.0469 21.6463 22.459 20.9027 22.459Z" fill="white"/>
<path fill-rule="evenodd" clip-rule="evenodd" d="M8.20953 16.3448L6.83483 18.2864C6.62382 18.5848 6.5979 18.9741 6.77458 19.2985C6.94963 19.6199 7.28811 19.8171 7.65351 19.8171H25.711C26.2539 19.8171 26.7062 19.3799 26.7062 18.8376C26.7062 18.2936 26.2522 17.8617 25.711 17.8617H9.55661L10.0929 17.1038C10.3149 16.7982 10.2924 16.4234 10.2351 16.1265C10.2053 15.9721 10.1621 15.8199 10.1224 15.6848L10.1043 15.6235L26.0837 14.3577C26.5962 14.319 27 13.8994 27 13.3862V2.31992C27 1.77593 26.5461 1.34401 26.0048 1.34401H6.88746L6.75756 0.764708C6.65649 0.316974 6.25063 0 5.78713 0H0.995186C0.453949 0 0 0.431921 0 0.975903C0 1.51989 0.453949 1.95181 0.995186 1.95181H4.9835L8.20953 16.3448ZM7.73064 3.29582L9.84022 13.6869L25.0096 12.4838V3.29582H7.73064Z" fill="white"/>
</svg>
