<svg width="131" height="131" viewBox="0 0 131 131" fill="none" xmlns="http://www.w3.org/2000/svg">
<g clip-path="url(#clip0_7_2868)">
<path d="M130.885 67.7147C129.729 102.18 101.937 129.896 67.4379 130.91H64.3634L33.1146 99.6506C32.9728 99.5418 32.842 99.4104 32.7332 99.2692C32.2968 98.7564 32.0461 98.1023 32.0461 97.3939C32.0461 96.3573 32.5804 95.4636 33.3872 94.9618C33.5394 94.853 33.7142 94.7656 33.889 94.6898C33.9544 94.6678 34.0192 94.6354 34.0852 94.6134L34.15 94.592C34.2814 94.5584 34.4122 94.526 34.543 94.504C34.6195 94.4936 34.6959 94.471 34.7826 94.471C34.8591 94.4606 34.9355 94.4606 35.0229 94.4606H36.8975V31.0901L36.9091 30.9709L36.9201 30.9159L36.9525 30.8071C36.9855 30.7197 37.0289 30.6433 37.0943 30.5779L37.1053 30.5669L37.1163 30.5449L37.1377 30.5345L37.2031 30.4685L37.3126 30.392L37.378 30.3603L37.5308 30.3156H37.5742L37.7374 30.2943L37.8034 30.3059H37.8468L37.966 30.3383L38.0424 30.3603L38.1084 30.392L38.1738 30.4361L38.2392 30.4911L38.2612 30.5015L38.2716 30.5125L40.7911 32.8786L43.2764 30.5449L43.3858 30.4471L43.4182 30.4361L43.549 30.3603L43.6908 30.3156H43.7342L43.898 30.2943L44.0068 30.3156H44.0508L44.2036 30.3603L44.3234 30.4251L44.3888 30.4795L44.4322 30.5125L44.4646 30.5449L46.9511 32.8889L49.437 30.5449L49.5458 30.4471L49.5782 30.4361L49.709 30.3603L49.8618 30.3156H49.9059L50.036 30.2943H50.0587L50.1785 30.3156H50.2219L50.3637 30.3603L50.4945 30.4361L50.5165 30.4471L50.6033 30.5125L53.1118 32.8889L55.5971 30.5449L55.6845 30.4795L55.7499 30.4251L55.8697 30.3603L56.0225 30.3156H56.0665L56.1973 30.2943H56.2187L56.3385 30.3156H56.3825L56.5243 30.3603L56.6441 30.4251L56.7205 30.4795L56.7529 30.5125H56.7639L56.7963 30.5449L59.2822 32.8786L61.7687 30.5449L61.8781 30.4471L61.8995 30.4361L62.0303 30.3603L62.1831 30.3156H62.2265L62.3573 30.2943H62.3793L62.4991 30.3156H62.5425L62.6954 30.3603L62.8262 30.4361L62.8476 30.4471L62.924 30.5125L62.957 30.5449L65.4435 32.8889L67.9288 30.5449L68.0052 30.4795L68.0706 30.4251L68.191 30.3603L68.3438 30.3156H68.3872L68.518 30.2943H68.5394L68.6592 30.3156H68.7032L68.856 30.3603L68.9862 30.4361L69.0088 30.4471L69.0852 30.5125L69.117 30.5449L71.6035 32.8786L74.0894 30.5449L74.1328 30.5125L74.1658 30.4795L74.2306 30.4251L74.351 30.3603L74.5038 30.3156H74.5472L74.711 30.2943L74.8198 30.3156H74.8638L75.0166 30.3603L75.1358 30.4251L75.2012 30.4795L75.2453 30.5125L75.2776 30.5449L77.7642 32.8889L80.2494 30.5449L80.3588 30.4471L80.3809 30.4361L80.5117 30.3603L80.6645 30.3156H80.7079L80.8717 30.2943L80.9799 30.3156H81.0239L81.1767 30.3603L81.3075 30.4361L81.3295 30.4471L81.4059 30.5125L81.4383 30.5449L83.9242 32.8889L86.4101 30.5449L86.4541 30.5125L86.4865 30.4795L86.5629 30.4251L86.6827 30.3603L86.8245 30.3156H86.8679L87.0317 30.2943L87.1411 30.3156H87.1845L87.3367 30.3603L87.4681 30.4361L87.4895 30.4471L87.5659 30.5125L87.5989 30.5449L90.0958 32.8786L92.6031 30.5125L92.6251 30.5015L92.6361 30.4911L92.7125 30.4361L92.7773 30.392L92.8433 30.3603L92.9087 30.3383L93.0279 30.3059H93.0719L93.1924 30.2943L93.3012 30.3156H93.3446L93.4974 30.3603L93.5622 30.392L93.6832 30.4685L93.748 30.5345L93.77 30.5449L93.781 30.5669L93.7914 30.5779L93.8788 30.7087L130.885 67.7147Z" fill="#E6E8E8"/>
<path d="M130.915 66.3185V67.747L130.882 67.714C130.904 67.2556 130.915 66.788 130.915 66.3185Z" fill="#E6E8E8"/>
<path d="M0.0112464 64.6292V66.3193C0.000244141 66.0351 0.000244141 65.7521 0.000244141 65.4685C0.000244141 65.1849 0.000244141 64.9122 0.0112464 64.6292Z" fill="#BF2721"/>
<path d="M130.928 65.4685C130.928 65.7521 130.928 66.0351 130.917 66.3193V64.6292C130.928 64.9122 130.928 65.1849 130.928 65.4685Z" fill="#BF2721"/>
<path d="M41.3895 34.5356L41.3565 34.557L41.2801 34.6114L41.2697 34.6334L41.2587 34.6444L41.1059 34.7208L41.0411 34.7428L40.9751 34.7526L40.8987 34.7642L40.8223 34.7752L40.7355 34.7642L40.6591 34.7526L40.5283 34.7208L40.3755 34.6444L40.3431 34.623V34.6114L40.2777 34.557L40.2446 34.5356L38.5222 32.911L37.1921 31.6567C37.0283 31.5039 36.9415 31.2967 36.9415 31.0895L36.9519 30.9703L36.9629 30.9153L36.9959 30.8065C37.0283 30.7191 37.0723 30.6427 37.1371 30.5773L37.1481 30.5663L37.1591 30.5449L37.1805 30.5339L37.2465 30.4685L37.3553 30.392L37.4207 30.3597L37.5735 30.3156L37.7367 30.2943L37.8028 30.3053H37.8462L37.9653 30.3376L38.0418 30.3597L38.1078 30.392L38.1732 30.4354L38.2386 30.4905L38.2606 30.5008L38.271 30.5119L40.7905 32.8779L40.8119 32.8999L41.3565 33.4122C41.6731 33.7178 41.6841 34.208 41.3895 34.5356Z" fill="#BF2721"/>
<path d="M44.4315 31.6567L43.8973 32.1695L41.3894 34.5356L41.357 34.557L41.2806 34.6114L41.2696 34.6334L41.2592 34.6444L41.1718 34.6878L41.1064 34.7208L41.041 34.7428L40.9756 34.7526L40.8992 34.7642L40.8228 34.7752L40.7354 34.7642L40.659 34.7526L40.5282 34.7208L40.4628 34.6878L40.3753 34.6444L40.3436 34.623V34.6114L40.2776 34.557L40.2445 34.5356C39.9395 34.208 39.9615 33.7178 40.2776 33.4122L40.8118 32.8999L43.3197 30.5449L43.4285 30.4471L43.4615 30.4354L43.5923 30.3597L43.7335 30.3156L43.8973 30.2943L44.0067 30.3156H44.0501L44.2029 30.3597L44.3227 30.4244L44.3887 30.4788L44.4315 30.5119L44.4645 30.5449L44.5733 30.6861C44.7591 30.9917 44.7041 31.4061 44.4315 31.6567Z" fill="#BF2721"/>
<path d="M47.5501 34.5246L47.4951 34.5796L47.4083 34.6444L47.3209 34.6884C47.2665 34.7208 47.2011 34.7428 47.1357 34.7532L47.0593 34.7648L46.9829 34.7752L46.8961 34.7648L46.8197 34.7532C46.7537 34.7428 46.6882 34.7208 46.6338 34.6884L46.5464 34.6444L46.4596 34.5796L46.4052 34.5362L46.3936 34.5246L43.8967 32.1695L43.3521 31.6573C43.0361 31.3627 43.0251 30.8615 43.3191 30.5449L43.4285 30.4471L43.4615 30.4361L43.5917 30.3603L43.7335 30.3156L43.8967 30.2943L44.0061 30.3156H44.0495L44.2024 30.3603L44.3228 30.4251L44.3882 30.4795L44.431 30.5125L44.464 30.5449L46.9505 32.8889L46.9719 32.911L47.5171 33.4128C47.8337 33.7068 47.8441 34.208 47.5501 34.5246Z" fill="#BF2721"/>
<path d="M50.6027 31.6567L50.0575 32.1695L47.5606 34.524H47.5502L47.4952 34.579L47.4078 34.6444L47.321 34.6878C47.2666 34.7208 47.2012 34.7428 47.1358 34.7526L47.0594 34.7642L46.983 34.7752L46.8962 34.7642L46.8198 34.7526C46.7537 34.7428 46.6883 34.7208 46.6339 34.6878L46.5465 34.6444L46.4597 34.579L46.4053 34.5356L46.3937 34.524L46.3723 34.4922C46.1107 34.1756 46.1327 33.6958 46.4377 33.4122L46.972 32.911L49.4799 30.5449L49.5893 30.4471L49.6217 30.4354L49.7519 30.3597L49.8833 30.3156H49.9047L50.0355 30.2943H50.0575L50.1779 30.3156H50.2213L50.3625 30.3597L50.4933 30.4354L50.5153 30.4471L50.6247 30.5449L50.7225 30.6647C50.9193 30.9807 50.8753 31.3951 50.6027 31.6567Z" fill="#BF2721"/>
<path d="M53.7102 34.5246L53.6772 34.5576L53.5794 34.6444L53.47 34.6988L53.3832 34.7318L53.2958 34.7532L53.2194 34.7648L53.143 34.7752L53.0562 34.7648L52.9798 34.7532L52.849 34.7208L52.7836 34.6884L52.7072 34.6444L52.6748 34.623L52.5984 34.5576L52.5654 34.5362L50.0575 32.1695L49.5129 31.6573C49.1962 31.3627 49.1859 30.8615 49.4799 30.5449L49.5893 30.4471L49.6217 30.4361L49.7519 30.3603L49.8833 30.3156H49.9047L50.0355 30.2943H50.0575L50.1779 30.3156H50.2213L50.3625 30.3603L50.4933 30.4361L50.5153 30.4471L50.6027 30.5125L53.1112 32.8889L53.1326 32.911L53.6772 33.4128C53.9938 33.7068 54.0158 34.208 53.7102 34.5246Z" fill="#BF2721"/>
<path d="M56.7639 31.6567L56.218 32.1695L53.7211 34.524H53.7108L53.6778 34.557L53.58 34.6444L53.4705 34.6988L53.3837 34.7312L53.2963 34.7526L53.2199 34.7642L53.1435 34.7752L53.0567 34.7642L52.9803 34.7526L52.8495 34.7208L52.7841 34.6878L52.7077 34.6444L52.6753 34.623L52.5989 34.557L52.5659 34.5356C52.2713 34.208 52.2823 33.7178 52.5989 33.4122L53.1331 32.911L55.6404 30.5449L55.7278 30.4788L55.7932 30.4244L55.913 30.3597L56.0438 30.3156H56.0659L56.1967 30.2943H56.218L56.3385 30.3156H56.3825L56.5237 30.3597L56.6441 30.4244L56.7205 30.4788L56.7523 30.5119H56.7639L56.7963 30.5449L56.9051 30.6861C57.0799 31.0027 57.0359 31.4061 56.7639 31.6567Z" fill="#BF2721"/>
<path d="M59.8714 34.5356L59.8384 34.557L59.773 34.6114V34.623L59.74 34.6444L59.6532 34.6878L59.5878 34.7208L59.5224 34.7428L59.457 34.7526L59.3806 34.7642L59.3042 34.7752L59.2278 34.7642L59.141 34.7526L59.0102 34.7208L58.9552 34.6878L58.8678 34.6444L58.8354 34.623L58.759 34.557L58.7266 34.5356L56.2181 32.1695L55.6838 31.6567C55.3568 31.3627 55.3464 30.8609 55.6405 30.5449L55.7279 30.4788L55.7933 30.4244L55.9131 30.3597L56.0439 30.3156H56.0659L56.1967 30.2943H56.2181L56.3385 30.3156H56.3825L56.5237 30.3597L56.6441 30.4244L56.7205 30.4788L56.7523 30.5119H56.7639L56.7963 30.5449L59.2822 32.8779L59.3042 32.8999L59.8384 33.4122C60.155 33.7178 60.1764 34.208 59.8714 34.5356Z" fill="#BF2721"/>
<path d="M62.924 31.6567L62.3898 32.1695H62.3788L59.8715 34.5356L59.8385 34.557L59.7731 34.6114V34.623L59.74 34.6444L59.6526 34.6878L59.5878 34.7208L59.5224 34.7428L59.457 34.7526L59.3806 34.7642L59.3042 34.7752L59.2278 34.7642L59.141 34.7526L59.0102 34.7208L58.9552 34.6878L58.8678 34.6444L58.8354 34.623L58.759 34.557L58.7266 34.5356C58.4314 34.208 58.443 33.7178 58.759 33.4122L59.3042 32.8999L61.8121 30.5449L61.9209 30.4471L61.9429 30.4354L62.0731 30.3597L62.2259 30.3156L62.3567 30.2943H62.3788L62.4992 30.3156H62.5426L62.6954 30.3597L62.8262 30.4354L62.8476 30.4471L62.924 30.5119L62.957 30.5449L63.0658 30.6861C63.2406 31.0027 63.1966 31.4061 62.924 31.6567Z" fill="#BF2721"/>
<path d="M66.0418 34.5246L66.0094 34.5576L65.977 34.5796L65.8896 34.6444L65.8132 34.6884C65.7478 34.7208 65.6824 34.7428 65.617 34.7532L65.5406 34.7648L65.4642 34.7752L65.3768 34.7648L65.3003 34.7532C65.2356 34.7428 65.1805 34.7208 65.1151 34.6884L65.0387 34.6444L64.9519 34.5796L64.8859 34.5362V34.5246L62.389 32.1695H62.3786L61.8444 31.6573C61.5278 31.3627 61.5064 30.8615 61.8114 30.5449L61.9208 30.4471L61.9422 30.4361L62.073 30.3603L62.2258 30.3156L62.3566 30.2943H62.3786L62.4984 30.3156H62.5418L62.6946 30.3603L62.8255 30.4361L62.8468 30.4471L62.9233 30.5125L62.9563 30.5449L65.4428 32.8889L65.4642 32.911L65.9984 33.4128C66.3144 33.7068 66.3358 34.208 66.0418 34.5246Z" fill="#BF2721"/>
<path d="M69.0846 31.6567L68.5503 32.1695H68.5387L66.0418 34.524L66.01 34.557L65.977 34.579L65.8896 34.6444L65.8132 34.6878C65.7478 34.7208 65.683 34.7428 65.617 34.7526L65.5406 34.7642L65.4642 34.7752L65.3774 34.7642L65.301 34.7526C65.2356 34.7428 65.1806 34.7208 65.1158 34.6878L65.0394 34.6444L64.952 34.579L64.8866 34.5356V34.524C64.592 34.208 64.603 33.7068 64.9196 33.4122L65.4642 32.911L67.9721 30.5449L68.0485 30.4788L68.1139 30.4244L68.2337 30.3597L68.3865 30.3156L68.5173 30.2943H68.5387L68.6591 30.3156H68.7025L68.8553 30.3597L68.9862 30.4354L69.0082 30.4471L69.0846 30.5119L69.117 30.5449L69.2258 30.6861C69.4006 31.0027 69.3566 31.4061 69.0846 31.6567Z" fill="#BF2721"/>
<path d="M72.2025 34.5356L72.1695 34.557L72.0931 34.6114V34.623L72.0717 34.6444L71.9519 34.6988L71.8645 34.7312L71.7771 34.7526L71.6249 34.7752L71.5485 34.7642L71.4611 34.7526L71.4177 34.7428L71.3413 34.7208L71.1885 34.6444L71.1555 34.623V34.6114L71.1231 34.59L71.0907 34.557L71.0577 34.5356H71.0467L68.5498 32.1695H68.5388L68.0046 31.6567C67.688 31.3627 67.6666 30.8609 67.9716 30.5449L68.048 30.4788L68.114 30.4244L68.2338 30.3597L68.3866 30.3156L68.5174 30.2943H68.5388L68.6586 30.3156H68.702L68.8548 30.3597L68.9856 30.4354L69.0076 30.4471L69.084 30.5119L69.1164 30.5449L71.6029 32.8779L71.6249 32.8999L72.1695 33.4122C72.4862 33.7178 72.4966 34.208 72.2025 34.5356Z" fill="#BF2721"/>
<path d="M75.2447 31.6567L74.7104 32.1695L72.2025 34.5356L72.1701 34.557L72.0937 34.6114V34.623L72.0723 34.6444L71.9519 34.6988L71.8651 34.7312L71.7771 34.7526L71.6249 34.7752L71.5485 34.7642L71.4617 34.7526L71.4177 34.7428L71.3413 34.7208L71.2759 34.6878L71.1885 34.6444L71.1561 34.623V34.6114L71.1237 34.59L71.0907 34.557L71.0577 34.5356H71.0473L71.0143 34.4922C70.7521 34.1652 70.7747 33.7068 71.0797 33.4122L71.6249 32.8999L74.1328 30.5449L74.1762 30.5119L74.2092 30.4788L74.274 30.4244L74.3944 30.3597L74.5466 30.3156L74.7104 30.2943L74.8199 30.3156H74.8633L75.0161 30.3597L75.1353 30.4244L75.2013 30.4788L75.2447 30.5119L75.2777 30.5449L75.3865 30.6861C75.5613 31.0027 75.5173 31.4061 75.2447 31.6567Z" fill="#BF2721"/>
<path d="M78.3626 34.5356L78.3296 34.557L78.2538 34.6114V34.623L78.2318 34.6444L78.079 34.7208L78.0142 34.7428L77.9482 34.7526L77.8717 34.7642L77.785 34.7752L77.7085 34.7642L77.6328 34.7526L77.5447 34.7312L77.4579 34.6988L77.3491 34.6444L77.2177 34.5356L77.2067 34.524L74.7098 32.1695L74.1652 31.6567C73.8486 31.3627 73.8382 30.8609 74.1322 30.5449L74.1756 30.5119L74.2086 30.4788L74.274 30.4244L74.3944 30.3597L74.5466 30.3156L74.7098 30.2943L74.8192 30.3156H74.8626L75.0154 30.3597L75.1352 30.4244L75.2006 30.4788L75.244 30.5119L75.277 30.5449L77.7636 32.8889L77.785 32.911L78.3296 33.4122C78.6462 33.7178 78.6566 34.208 78.3626 34.5356Z" fill="#BF2721"/>
<path d="M81.4053 31.6567L80.8711 32.1695L78.3626 34.5356L78.3302 34.557L78.2544 34.6114V34.623L78.2324 34.6444L78.145 34.6878L78.0796 34.7208L78.0142 34.7428L77.9488 34.7526L77.8724 34.7642L77.7849 34.7752L77.7085 34.7642L77.6328 34.7526L77.5453 34.7312L77.4579 34.6988L77.3491 34.6444L77.2177 34.5356L77.2073 34.524C76.9127 34.208 76.9347 33.7068 77.2507 33.4122L77.7849 32.911L80.2929 30.5449L80.4017 30.4471L80.4243 30.4354L80.5545 30.3597L80.7073 30.3156L80.8711 30.2943L80.9799 30.3156H81.0233L81.1761 30.3597L81.3069 30.4354L81.3289 30.4471L81.4053 30.5119L81.4377 30.5449L81.5465 30.6861C81.7323 30.9917 81.6773 31.4061 81.4053 31.6567Z" fill="#BF2721"/>
<path d="M84.5226 34.5246L84.4896 34.5576L84.4682 34.5796L84.3808 34.6444L84.2934 34.6884L84.1736 34.7318L84.1082 34.7532L83.945 34.7752L83.8686 34.7648L83.7922 34.7532L83.6828 34.7208L83.6064 34.6884L83.519 34.6444L83.4322 34.5796L83.3778 34.5362L83.3668 34.5246L80.8699 32.1695L80.3246 31.6573C80.008 31.3627 79.9976 30.8615 80.2916 30.5449L80.401 30.4471L80.423 30.4361L80.5538 30.3603L80.7067 30.3156L80.8699 30.2943L80.9787 30.3156H81.0221L81.1749 30.3603L81.3057 30.4361L81.3277 30.4471L81.4041 30.5125L81.4365 30.5449L83.923 32.8889L83.945 32.911L84.4896 33.4128C84.8062 33.7068 84.8166 34.208 84.5226 34.5246Z" fill="#BF2721"/>
<path d="M87.5666 31.6567L87.0323 32.1695L84.5354 34.524H84.5244L84.492 34.557L84.4706 34.579L84.3826 34.6444L84.2952 34.6878L84.1754 34.7312L84.1106 34.7526L83.9468 34.7752L83.8704 34.7642L83.794 34.7526L83.6846 34.7208L83.6082 34.6878L83.5214 34.6444L83.434 34.579L83.3796 34.5356L83.3692 34.524C83.074 34.208 83.0966 33.7068 83.4126 33.4122L83.9468 32.911L86.4547 30.5449L86.4981 30.5119L86.5311 30.4788L86.6075 30.4244L86.7273 30.3597L86.8685 30.3156L87.0323 30.2943L87.1417 30.3156H87.1851L87.3373 30.3597L87.4688 30.4354L87.4901 30.4471L87.5666 30.5119L87.5996 30.5449L87.7084 30.6861C87.8936 30.9917 87.8392 31.4061 87.5666 31.6567Z" fill="#BF2721"/>
<path d="M90.6839 34.5356L90.6509 34.557L90.5861 34.6114V34.623L90.5531 34.6444L90.4436 34.6988L90.3568 34.7312L90.2694 34.7526L90.193 34.7642L90.1166 34.7752L90.0298 34.7642L89.9534 34.7526L89.8226 34.7208L89.6698 34.6444L89.6484 34.623L89.572 34.557L89.539 34.5356L87.0311 32.1695L86.4865 31.6567C86.1699 31.3627 86.1595 30.8609 86.4535 30.5449L86.4969 30.5119L86.5299 30.4788L86.6063 30.4244L86.7261 30.3597L86.8679 30.3156L87.0311 30.2943L87.1405 30.3156H87.1839L87.3361 30.3597L87.4675 30.4354L87.4889 30.4471L87.5653 30.5119L87.5983 30.5449L90.0952 32.8779L90.1166 32.8999L90.6509 33.4122C90.9675 33.7178 90.9785 34.208 90.6839 34.5356Z" fill="#BF2721"/>
<path d="M93.9784 31.0901C93.9784 31.2973 93.902 31.5045 93.7278 31.6573L92.4081 32.911L90.685 34.5362L90.6526 34.5576L90.5872 34.612V34.623L90.5542 34.6444L90.4454 34.6988L90.358 34.7318L90.2712 34.7532L90.1948 34.7648L90.1184 34.7752L90.031 34.7648L89.9546 34.7532L89.8238 34.7208L89.7584 34.6884L89.671 34.6444L89.6496 34.623L89.5732 34.5576L89.5402 34.5362C89.2352 34.2086 89.2566 33.7184 89.5732 33.4128L90.1184 32.9006L92.6477 30.5125L92.6697 30.5015L92.6807 30.4911L92.7571 30.4361L92.8219 30.392L92.8879 30.3603L92.9533 30.3383L93.0731 30.3059L93.1935 30.2943L93.3023 30.3156H93.3457L93.4985 30.3603L93.5633 30.392L93.6844 30.4685L93.7491 30.5345L93.7711 30.5449L93.7822 30.5669L93.7925 30.5779L93.8799 30.7087L93.9233 30.8071L93.9564 30.9159L93.9667 30.9709L93.9784 31.0901Z" fill="#BF2721"/>
<path d="M38.5222 31.0901V99.5418C38.5222 99.9776 38.1622 100.326 37.7374 100.326C37.6713 100.326 37.6066 100.316 37.5522 100.305C37.2795 100.239 37.0503 100.021 36.9849 99.749L36.9629 99.6286L36.9415 99.5418V31.0901L36.9525 30.9709L36.9629 30.9159L36.9959 30.8071C37.0289 30.7197 37.0723 30.6433 37.1371 30.5779L37.2465 30.4685L37.3559 30.3921L37.4207 30.3603L37.5735 30.3156L37.7374 30.2943L37.8028 30.3059H37.8468L37.966 30.3383L38.0424 30.3603L38.1078 30.3921L38.1738 30.4361L38.2386 30.4911L38.2606 30.5015L38.2716 30.5125L38.381 30.6543C38.4678 30.7735 38.5222 30.9263 38.5222 31.0901Z" fill="#BF2721"/>
<path d="M93.9785 31.0901V99.5418C93.9785 99.9776 93.6295 100.326 93.1936 100.326C92.7572 100.326 92.4082 99.9776 92.4082 99.5418V31.0901C92.4082 30.8505 92.5066 30.6433 92.6698 30.5015L92.6808 30.4911L92.7572 30.4361L92.822 30.3921L92.888 30.3603L92.9534 30.3383L93.0732 30.3059L93.1936 30.2943L93.3024 30.3156H93.3458L93.4986 30.3603L93.5634 30.3921L93.6845 30.4685L93.7493 30.5345L93.7823 30.5669L93.7927 30.5779L93.8801 30.7087L93.9235 30.8071L93.9565 30.9159L93.9669 30.9709L93.9785 31.0901Z" fill="#BF2721"/>
<path d="M93.9784 99.5393C93.9784 99.9757 93.6239 100.326 93.1911 100.326H37.7331C37.3003 100.326 36.9458 99.9757 36.9458 99.5393C36.9458 99.1059 37.3003 98.7514 37.7331 98.7514H93.1911C93.6239 98.7514 93.9784 99.1059 93.9784 99.5393Z" fill="#BF2721"/>
<path d="M95.9037 98.7517H93.979V96.0396H95.9037C96.6519 96.0396 97.2619 96.6503 97.2619 97.3978C97.2619 98.146 96.6519 98.7517 95.9037 98.7517ZM95.9037 94.4651H92.4038V100.326H95.9037C97.5211 100.326 98.8365 99.0121 98.8365 97.3978C98.8365 95.7799 97.5211 94.4651 95.9037 94.4651Z" fill="#BF2721"/>
<path d="M97.2668 97.3974C97.2668 98.1455 96.6568 98.7513 95.9087 98.7513H93.9839V96.0392H95.9087C96.6568 96.0392 97.2668 96.6492 97.2668 97.3974Z" fill="#BF2721"/>
<path d="M33.7789 97.9269C33.7025 97.7637 33.6591 97.5895 33.6591 97.3933C33.6591 97.109 33.7465 96.859 33.8987 96.6408C34.1493 96.2814 34.5644 96.0412 35.0222 96.0412H36.9415V98.7447H35.0222C34.9238 98.7447 34.8364 98.7343 34.7496 98.7239C34.3132 98.6359 33.9537 98.3303 33.7789 97.9269ZM35.0222 94.4599C34.9354 94.4599 34.859 94.4599 34.7826 94.4709C34.6952 94.4709 34.6188 94.4929 34.5424 94.5033C34.4116 94.5259 34.2808 94.5577 34.1493 94.5913L34.0846 94.6127C34.0192 94.6347 33.9537 94.6671 33.8883 94.6891C33.7141 94.7649 33.5387 94.853 33.3865 94.9611C32.6017 95.496 32.0889 96.3896 32.0889 97.3933C32.0889 98.1017 32.3401 98.7557 32.7759 99.2685C32.8847 99.4103 33.0161 99.5417 33.1573 99.6499C33.6701 100.075 34.3132 100.326 35.0222 100.326H38.5221V94.4599H35.0222Z" fill="#BF2721"/>
<path d="M36.9488 96.0401V98.7521H35.0241C34.2759 98.7521 33.6659 98.1458 33.6659 97.3982C33.6659 96.6501 34.2759 96.0401 35.0241 96.0401H36.9488Z" fill="#BF2721"/>
<path d="M84.217 47.1674H78.6114C77.8516 47.1674 77.2336 46.5489 77.2336 45.7897C77.2336 45.0257 77.8516 44.4114 78.6114 44.4114H84.217C84.981 44.4114 85.5947 45.0257 85.5947 45.7897C85.5947 46.5489 84.981 47.1674 84.217 47.1674ZM84.217 56.3121H78.6114C77.8516 56.3121 77.2336 55.6936 77.2336 54.9338C77.2336 54.174 77.8516 53.5561 78.6114 53.5561H84.217C84.981 53.5561 85.5947 54.174 85.5947 54.9338C85.5947 55.6936 84.981 56.3121 84.217 56.3121ZM84.217 65.4562H78.6114C77.8516 65.4562 77.2336 64.8425 77.2336 64.0785C77.2336 63.3187 77.8516 62.7008 78.6114 62.7008H84.217C84.981 62.7008 85.5947 63.3187 85.5947 64.0785C85.5947 64.8425 84.981 65.4562 84.217 65.4562ZM84.217 74.6052H78.6114C77.8516 74.6052 77.2336 73.9866 77.2336 73.2269C77.2336 72.4634 77.8516 71.8491 78.6114 71.8491H84.217C84.981 71.8491 85.5947 72.4634 85.5947 73.2269C85.5947 73.9866 84.981 74.6052 84.217 74.6052ZM84.217 83.7499H84.1577C83.3979 83.7499 82.78 83.1313 82.78 82.3716C82.78 81.6124 83.3979 80.9938 84.1577 80.9938H84.217C84.981 80.9938 85.5947 81.6124 85.5947 82.3716C85.5947 83.1313 84.981 83.7499 84.217 83.7499ZM78.0955 82.3716C78.0955 81.6124 78.7098 80.9938 79.4732 80.9938H79.5881C80.3473 80.9938 80.9658 81.6124 80.9658 82.3716C80.9658 83.1313 80.3473 83.7499 79.5881 83.7499H79.4732C78.7098 83.7499 78.0955 83.1313 78.0955 82.3716ZM84.217 91.4533H74.112C73.3523 91.4533 72.7343 90.8347 72.7343 90.0756C72.7343 89.3115 73.3523 88.6972 74.112 88.6972H84.217C84.981 88.6972 85.5947 89.3115 85.5947 90.0756C85.5947 90.8347 84.981 91.4533 84.217 91.4533ZM74.785 80.9938H74.8993C75.6591 80.9938 76.277 81.6124 76.277 82.3716C76.277 83.1313 75.6591 83.7499 74.8993 83.7499H74.785C74.0252 83.7499 73.4073 83.1313 73.4073 82.3716C73.4073 81.6124 74.0252 80.9938 74.785 80.9938ZM70.4513 47.1674H46.7177C45.9536 47.1674 45.3399 46.5489 45.3399 45.7897C45.3399 45.0257 45.9536 44.4114 46.7177 44.4114H70.4513C71.2148 44.4114 71.8285 45.0257 71.8285 45.7897C71.8285 46.5489 71.2148 47.1674 70.4513 47.1674ZM45.3399 54.9338C45.3399 54.174 45.9536 53.5561 46.7177 53.5561H63.2076C63.9716 53.5561 64.5859 54.174 64.5859 54.9338C64.5859 55.6936 63.9716 56.3121 63.2076 56.3121H46.7177C45.9536 56.3121 45.3399 55.6936 45.3399 54.9338ZM70.4513 65.4562H46.7177C45.9536 65.4562 45.3399 64.8425 45.3399 64.0785C45.3399 63.3187 45.9536 62.7008 46.7177 62.7008H70.4513C71.2148 62.7008 71.8285 63.3187 71.8285 64.0785C71.8285 64.8425 71.2148 65.4562 70.4513 65.4562ZM70.2111 83.7499H70.0962C69.3371 83.7499 68.7191 83.1313 68.7191 82.3716C68.7191 81.6124 69.3371 80.9938 70.0962 80.9938H70.2111C70.9746 80.9938 71.5889 81.6124 71.5889 82.3716C71.5889 83.1313 70.9746 83.7499 70.2111 83.7499ZM65.5266 83.7499H65.4123C64.6483 83.7499 64.034 83.1313 64.034 82.3716C64.034 81.6124 64.6483 80.9938 65.4123 80.9938H65.5266C66.2864 80.9938 66.9043 81.6124 66.9043 82.3716C66.9043 83.1313 66.2864 83.7499 65.5266 83.7499ZM46.7177 74.6052C45.9536 74.6052 45.3399 73.9866 45.3399 73.2269C45.3399 72.4634 45.9536 71.8491 46.7177 71.8491H63.2076C63.9716 71.8491 64.5859 72.4634 64.5859 73.2269C64.5859 73.9866 63.9716 74.6052 63.2076 74.6052H46.7177ZM60.8378 83.7499H60.7235C59.9601 83.7499 59.3464 83.1313 59.3464 82.3716C59.3464 81.6124 59.9601 80.9938 60.7235 80.9938H60.8378C61.5976 80.9938 62.2162 81.6124 62.2162 82.3716C62.2162 83.1313 61.5976 83.7499 60.8378 83.7499ZM56.1496 83.7499H56.036C55.2756 83.7499 54.6582 83.1313 54.6582 82.3716C54.6582 81.6124 55.2756 80.9938 56.036 80.9938H56.1496C56.9094 80.9938 57.5274 81.6124 57.5274 82.3716C57.5274 83.1313 56.9094 83.7499 56.1496 83.7499ZM51.4615 83.7499H51.3472C50.5868 83.7499 49.9694 83.1313 49.9694 82.3716C49.9694 81.6124 50.5868 80.9938 51.3472 80.9938H51.4615C52.2249 80.9938 52.8392 81.6124 52.8392 82.3716C52.8392 83.1313 52.2249 83.7499 51.4615 83.7499ZM46.777 83.7499H46.7177C45.9536 83.7499 45.3399 83.1313 45.3399 82.3716C45.3399 81.6124 45.9536 80.9938 46.7177 80.9938H46.777C47.5367 80.9938 48.1547 81.6124 48.1547 82.3716C48.1547 83.1313 47.5367 83.7499 46.777 83.7499ZM90.6888 34.5307L90.657 34.5625L90.5867 34.6175L90.5549 34.6414L90.4443 34.7007C90.3899 34.7275 90.3306 34.7477 90.2713 34.7593C90.2199 34.7716 90.1692 34.7752 90.1136 34.7752L89.9565 34.7593L89.8269 34.7202L89.7633 34.6884L89.6772 34.6414L89.6454 34.6175L89.5751 34.5625L89.5433 34.5307L87.0354 32.1689L84.5324 34.5228L84.4927 34.5625L84.4688 34.5821L84.3826 34.6493L84.3001 34.6927C84.2408 34.7239 84.1742 34.7477 84.1106 34.7593L83.9529 34.7752L83.7965 34.7593C83.7329 34.7477 83.6663 34.7239 83.607 34.6927L83.5238 34.6493L83.4377 34.5821L83.3784 34.5307L83.3747 34.5228L80.8748 32.1689L78.3638 34.5307L78.332 34.5625L78.2611 34.6175L78.2293 34.6414L78.1425 34.6884L78.0802 34.7202L77.95 34.7593L77.7923 34.7752L77.6352 34.7593C77.5765 34.7477 77.5172 34.7275 77.4616 34.7007L77.3522 34.6414L77.2183 34.5307L77.2141 34.5228L74.7104 32.1689L72.2032 34.5307L72.1714 34.5625L72.1005 34.6175L72.0687 34.6414L71.9587 34.7007C71.9036 34.7275 71.845 34.7477 71.7857 34.7593L71.628 34.7752L71.4703 34.7593L71.3413 34.7202L71.2777 34.6884L71.1909 34.6414L71.1598 34.6175L71.0883 34.5625L71.0577 34.5307L68.5498 32.1689L66.0456 34.5228L66.0064 34.5625L65.9832 34.5821L65.8964 34.6493L65.8139 34.6927C65.7546 34.7239 65.688 34.7477 65.625 34.7593L65.4673 34.7752L65.3096 34.7593C65.2473 34.7477 65.18 34.7239 65.1214 34.6927L65.0382 34.6493L64.9514 34.5821L64.8928 34.5307L64.8885 34.5228L62.3891 32.1689L59.8776 34.5307L59.8464 34.5625L59.7755 34.6175L59.7437 34.6414L59.6569 34.6884L59.594 34.7202L59.4644 34.7593L59.3067 34.7752L59.149 34.7593L59.0157 34.7202L58.9528 34.6884L58.8654 34.6414L58.8348 34.6175L58.7633 34.5625L58.7321 34.5307L56.2242 32.1689L53.7206 34.5228L53.6815 34.5625L53.5831 34.6414L53.4724 34.7007C53.4174 34.7275 53.3587 34.7477 53.2995 34.7593L53.1424 34.7752L52.9847 34.7593L52.8545 34.7202L52.7921 34.6884L52.7053 34.6414L52.6742 34.6175L52.6026 34.5625L52.5715 34.5307L50.0636 32.1689L47.5599 34.5228L47.5208 34.5625L47.4976 34.5821L47.4108 34.6493L47.3277 34.6927C47.269 34.7239 47.2018 34.7477 47.1388 34.7593L46.9817 34.7752L46.824 34.7593C46.7611 34.7477 46.6938 34.7239 46.6351 34.6927L46.5526 34.6493L46.4658 34.5821L46.4072 34.5307L46.4029 34.5228L43.8993 32.1689L41.392 34.5307L41.3602 34.5625L41.2899 34.6175L41.2581 34.6414L41.1713 34.6884L41.1084 34.7202L40.9782 34.7593L40.8211 34.7752C40.7654 34.7752 40.7147 34.7716 40.6634 34.7593L40.5295 34.7202L40.4666 34.6884L40.3798 34.6414L40.348 34.6175L40.2777 34.5625L40.2459 34.5307L38.5259 32.9134V98.7515H92.4088V32.9134L90.6888 34.5307Z" fill="#BF2721"/>
<path d="M130.915 64.629V66.3191C130.915 66.7879 130.904 67.2561 130.882 67.7146L93.8763 30.7085L93.7895 30.5777L93.7785 30.5661L93.7681 30.5447L93.7455 30.5343L93.6807 30.4683L93.5603 30.3919L93.4949 30.3601L93.3421 30.3155H93.2987L93.1899 30.2941L93.0695 30.3057H93.0261L92.9063 30.3375L92.8409 30.3601L92.7755 30.3919L92.7101 30.4359L92.6337 30.4903L92.6233 30.5013L92.6007 30.5123L90.0934 32.8784L87.5965 30.5447L87.5635 30.5123L87.4871 30.4469L87.4657 30.4359L87.3342 30.3601L87.1821 30.3155H87.1386L87.0292 30.2941L86.866 30.3155H86.822L86.6802 30.3601L86.561 30.4249L86.4846 30.4793L86.4516 30.5123L86.4082 30.5447L83.9217 32.8888L81.4358 30.5447L81.4034 30.5123L81.327 30.4469L81.305 30.4359L81.1742 30.3601L81.0214 30.3155H80.978L80.8692 30.2941L80.7054 30.3155H80.662L80.5092 30.3601L80.3784 30.4359L80.3564 30.4469L80.247 30.5447L77.7617 32.8888L75.2758 30.5447L75.2428 30.5123L75.1994 30.4793L75.1334 30.4249L75.0142 30.3601L74.8614 30.3155H74.818L74.7086 30.2941L74.5447 30.3155H74.5014L74.3485 30.3601L74.2287 30.4249L74.1633 30.4793L74.1309 30.5123L74.0869 30.5447L71.601 32.8784L69.1151 30.5447L69.0827 30.5123L69.0063 30.4469L68.9843 30.4359L68.8535 30.3601L68.7007 30.3155H68.6573L68.5369 30.2941H68.5155L68.3847 30.3155H68.3413L68.1885 30.3601L68.0687 30.4249L68.0027 30.4793L67.9263 30.5447L65.441 32.8888L62.9545 30.5447L62.9221 30.5123L62.8457 30.4469L62.8243 30.4359L62.6935 30.3601L62.5407 30.3155H62.4967L62.3769 30.2941H62.3549L62.2241 30.3155H62.1807L62.0279 30.3601L61.897 30.4359L61.8757 30.4469L61.7662 30.5447L59.2803 32.8784L56.7938 30.5447L56.7621 30.5123H56.7504L56.718 30.4793L56.6416 30.4249L56.5218 30.3601L56.3806 30.3155H56.336L56.2162 30.2941H56.1948L56.064 30.3155H56.0206L55.8678 30.3601L55.7474 30.4249L55.682 30.4793L55.5946 30.5447L53.1093 32.8888L50.6014 30.5123L50.514 30.4469L50.492 30.4359L50.3612 30.3601L50.2194 30.3155H50.176L50.0562 30.2941H50.0342L49.9034 30.3155H49.86L49.7072 30.3601L49.5764 30.4359L49.5434 30.4469L49.4346 30.5447L46.9487 32.8888L44.4628 30.5447L44.4298 30.5123L44.387 30.4793L44.321 30.4249L44.2012 30.3601L44.0483 30.3155H44.0049L43.8955 30.2941L43.7317 30.3155H43.6883L43.5471 30.3601L43.4163 30.4359L43.3833 30.4469L43.2739 30.5447L40.7886 32.8784L38.2697 30.5123L38.2587 30.5013L38.2367 30.4903L38.1719 30.4359L38.1059 30.3919L38.0405 30.3601L37.9641 30.3375L37.8443 30.3057H37.8009L37.7355 30.2941L37.5717 30.3155H37.5283L37.3755 30.3601L37.3101 30.3919L37.2013 30.4683L37.1353 30.5343L37.1139 30.5447L37.1035 30.5661L37.0919 30.5777C37.0271 30.6425 36.9831 30.7189 36.9507 30.8069L36.9177 30.9157L36.9067 30.9707L36.8957 31.0899V94.4604H35.0204C34.9336 94.4604 34.8572 94.4604 34.7808 94.4708C34.6934 94.4708 34.617 94.4928 34.5406 94.5038C34.4098 94.5258 34.279 94.5478 34.1482 94.5918L34.0827 94.6132C34.0173 94.6236 33.9519 94.6456 33.8865 94.6896C33.7123 94.7654 33.5375 94.8528 33.3853 94.9616C32.5779 95.4634 32.0437 96.3571 32.0437 97.3937C32.0437 98.1022 32.2943 98.7562 32.7307 99.269C32.8395 99.4102 32.9709 99.5416 33.1121 99.6504L64.3609 130.91H63.4887C28.5327 129.874 0.456213 101.428 0.00939941 66.3191V64.629C0.456213 28.8552 29.5902 0.00427246 65.4624 0.00427246C101.335 0.00427246 130.469 28.8552 130.915 64.629Z" fill="#F1F3F4"/>
</g>
<defs>
<clipPath id="clip0_7_2868">
<rect width="131" height="131" fill="white"/>
</clipPath>
</defs>
</svg>
