<svg width="131" height="131" viewBox="0 0 131 131" fill="none" xmlns="http://www.w3.org/2000/svg">
<path d="M130.876 67.7105C129.72 102.176 101.928 129.892 67.4289 130.906H64.3544L33.1056 99.6464C32.9637 99.5376 32.8329 99.4062 32.7241 99.265C32.2877 98.7521 32.0371 98.0981 32.0371 97.3897C32.0371 96.353 32.5713 95.4594 33.3782 94.9576C33.5304 94.8488 33.7052 94.7614 33.88 94.6856C33.9454 94.6636 34.0102 94.6312 34.0762 94.6092L34.141 94.5878C34.2724 94.5542 34.4032 94.5218 34.534 94.4998C34.6104 94.4894 34.6868 94.4668 34.7736 94.4668C34.85 94.4564 34.9264 94.4564 35.0138 94.4564H36.8885V31.0859L36.9001 30.9667L36.9111 30.9117L36.9435 30.8029C36.9765 30.7155 37.0199 30.6391 37.0853 30.5737L37.0963 30.5626L37.1073 30.5406L37.1287 30.5303L37.1941 30.4642L37.3035 30.3878L37.3689 30.3561L37.5217 30.3114H37.5651L37.7283 30.29L37.7943 30.3017H37.8377L37.9569 30.334L38.0333 30.3561L38.0993 30.3878L38.1648 30.4318L38.2302 30.4869L38.2522 30.4972L38.2625 30.5083L40.7821 32.8743L43.2674 30.5406L43.3768 30.4428L43.4092 30.4318L43.54 30.3561L43.6818 30.3114H43.7252L43.889 30.29L43.9978 30.3114H44.0418L44.1946 30.3561L44.3144 30.4208L44.3798 30.4752L44.4232 30.5083L44.4556 30.5406L46.9421 32.8847L49.428 30.5406L49.5368 30.4428L49.5692 30.4318L49.7 30.3561L49.8528 30.3114H49.8968L50.027 30.29H50.0496L50.1694 30.3114H50.2128L50.3546 30.3561L50.4854 30.4318L50.5074 30.4428L50.5942 30.5083L53.1028 32.8847L55.588 30.5406L55.6754 30.4752L55.7408 30.4208L55.8606 30.3561L56.0135 30.3114H56.0575L56.1883 30.29H56.2097L56.3295 30.3114H56.3735L56.5153 30.3561L56.6351 30.4208L56.7115 30.4752L56.7439 30.5083H56.7549L56.7873 30.5406L59.2732 32.8743L61.7597 30.5406L61.8691 30.4428L61.8905 30.4318L62.0213 30.3561L62.1741 30.3114H62.2175L62.3483 30.29H62.3703L62.4901 30.3114H62.5335L62.6863 30.3561L62.8171 30.4318L62.8385 30.4428L62.9149 30.5083L62.9479 30.5406L65.4344 32.8847L67.9197 30.5406L67.9961 30.4752L68.0615 30.4208L68.1819 30.3561L68.3348 30.3114H68.3781L68.509 30.29H68.5303L68.6502 30.3114H68.6942L68.847 30.3561L68.9772 30.4318L68.9998 30.4428L69.0762 30.5083L69.108 30.5406L71.5945 32.8743L74.0804 30.5406L74.1238 30.5083L74.1568 30.4752L74.2216 30.4208L74.342 30.3561L74.4948 30.3114H74.5382L74.702 30.29L74.8108 30.3114H74.8548L75.0076 30.3561L75.1268 30.4208L75.1922 30.4752L75.2362 30.5083L75.2686 30.5406L77.7551 32.8847L80.2404 30.5406L80.3498 30.4428L80.3718 30.4318L80.5026 30.3561L80.6554 30.3114H80.6988L80.8626 30.29L80.9708 30.3114H81.0148L81.1677 30.3561L81.2985 30.4318L81.3205 30.4428L81.3969 30.5083L81.4293 30.5406L83.9152 32.8847L86.4011 30.5406L86.4451 30.5083L86.4775 30.4752L86.5539 30.4208L86.6737 30.3561L86.8155 30.3114H86.8589L87.0227 30.29L87.1321 30.3114H87.1755L87.3277 30.3561L87.4591 30.4318L87.4805 30.4428L87.5569 30.5083L87.5899 30.5406L90.0868 32.8743L92.5941 30.5083L92.6161 30.4972L92.6271 30.4869L92.7035 30.4318L92.7683 30.3878L92.8343 30.3561L92.8997 30.334L93.0189 30.3017H93.0629L93.1833 30.29L93.2921 30.3114H93.3355L93.4883 30.3561L93.5531 30.3878L93.6742 30.4642L93.7389 30.5303L93.7609 30.5406L93.7719 30.5626L93.7823 30.5737L93.8697 30.7045L130.876 67.7105Z" fill="#E6E8E8"/>
<path d="M130.906 64.6248V66.3148C130.906 66.7837 130.895 67.2519 130.873 67.7103L93.8669 30.7042L93.7801 30.5734L93.7691 30.5618L93.7587 30.5404L93.7361 30.53L93.6713 30.464L93.5509 30.3876L93.4855 30.3558L93.3327 30.3112H93.2893L93.1805 30.2898L93.0601 30.3014H93.0167L92.8969 30.3332L92.8315 30.3558L92.7661 30.3876L92.7007 30.4316L92.6243 30.486L92.6139 30.497L92.5913 30.508L90.084 32.8741L87.5871 30.5404L87.5541 30.508L87.4777 30.4426L87.4563 30.4316L87.3248 30.3558L87.1727 30.3112H87.1292L87.0198 30.2898L86.8566 30.3112H86.8126L86.6708 30.3558L86.5516 30.4206L86.4752 30.475L86.4422 30.508L86.3988 30.5404L83.9123 32.8845L81.4264 30.5404L81.394 30.508L81.3176 30.4426L81.2956 30.4316L81.1648 30.3558L81.012 30.3112H80.9686L80.8598 30.2898L80.696 30.3112H80.6526L80.4998 30.3558L80.369 30.4316L80.347 30.4426L80.2376 30.5404L77.7523 32.8845L75.2664 30.5404L75.2334 30.508L75.19 30.475L75.124 30.4206L75.0048 30.3558L74.852 30.3112H74.8086L74.6992 30.2898L74.5353 30.3112H74.492L74.3391 30.3558L74.2193 30.4206L74.1539 30.475L74.1215 30.508L74.0775 30.5404L71.5916 32.8741L69.1057 30.5404L69.0733 30.508L68.9969 30.4426L68.9749 30.4316L68.8441 30.3558L68.6913 30.3112H68.6479L68.5275 30.2898H68.5061L68.3753 30.3112H68.3319L68.1791 30.3558L68.0593 30.4206L67.9933 30.475L67.9169 30.5404L65.4316 32.8845L62.9451 30.5404L62.9127 30.508L62.8363 30.4426L62.8149 30.4316L62.6841 30.3558L62.5313 30.3112H62.4873L62.3675 30.2898H62.3455L62.2147 30.3112H62.1713L62.0185 30.3558L61.8876 30.4316L61.8663 30.4426L61.7568 30.5404L59.2709 32.8741L56.7844 30.5404L56.7527 30.508H56.741L56.7086 30.475L56.6322 30.4206L56.5124 30.3558L56.3712 30.3112H56.3266L56.2068 30.2898H56.1854L56.0546 30.3112H56.0112L55.8584 30.3558L55.738 30.4206L55.6726 30.475L55.5852 30.5404L53.0999 32.8845L50.592 30.508L50.5046 30.4426L50.4826 30.4316L50.3518 30.3558L50.21 30.3112H50.1666L50.0468 30.2898H50.0248L49.894 30.3112H49.8506L49.6978 30.3558L49.567 30.4316L49.534 30.4426L49.4252 30.5404L46.9393 32.8845L44.4534 30.5404L44.4204 30.508L44.3776 30.475L44.3116 30.4206L44.1918 30.3558L44.0389 30.3112H43.9955L43.8861 30.2898L43.7223 30.3112H43.6789L43.5377 30.3558L43.4069 30.4316L43.3739 30.4426L43.2645 30.5404L40.7792 32.8741L38.2603 30.508L38.2493 30.497L38.2273 30.486L38.1625 30.4316L38.0965 30.3876L38.0311 30.3558L37.9547 30.3332L37.8349 30.3014H37.7915L37.7261 30.2898L37.5623 30.3112H37.5189L37.3661 30.3558L37.3007 30.3876L37.1919 30.464L37.1259 30.53L37.1045 30.5404L37.0941 30.5618L37.0825 30.5734C37.0177 30.6382 36.9737 30.7146 36.9413 30.8026L36.9083 30.9114L36.8973 30.9664L36.8863 31.0856V94.4561H35.011C34.9242 94.4561 34.8478 94.4561 34.7714 94.4665C34.684 94.4665 34.6076 94.4885 34.5312 94.4995C34.4004 94.5215 34.2696 94.5435 34.1388 94.5876L34.0733 94.6089C34.0079 94.6193 33.9425 94.6413 33.8771 94.6854C33.7029 94.7611 33.5281 94.8485 33.3759 94.9574C32.5685 95.4592 32.0343 96.3528 32.0343 97.3895C32.0343 98.0979 32.2849 98.7519 32.7213 99.2647C32.8301 99.4059 32.9615 99.5373 33.1027 99.6461L64.3515 130.906H63.4793C28.5233 129.87 0.446814 101.424 0 66.3148V64.6248C0.446814 28.851 29.5808 0 65.453 0C101.325 0 130.459 28.851 130.906 64.6248Z" fill="#F1F3F4"/>
<path d="M88 37H42.5C40.567 37 39 38.567 39 40.5V96.5C39 98.433 40.567 100 42.5 100H88C89.933 100 91.5 98.433 91.5 96.5V40.5C91.5 38.567 89.933 37 88 37Z" fill="#E6E8E8" stroke="#C02425" stroke-width="6.41667" stroke-linejoin="round"/>
<path d="M54.75 30V40.5M75.75 30V40.5M51.25 56.25H79.25M51.25 70.25H72.25M51.25 84.25H65.25" stroke="#C02425" stroke-width="6.41667" stroke-linecap="round" stroke-linejoin="round"/>
</svg>
