<svg width="26" height="26" viewBox="0 0 26 26" fill="none" xmlns="http://www.w3.org/2000/svg">
<path d="M26 13C26 5.8203 20.1797 0 13 0C5.8203 0 0 5.8203 0 13C0 20.1797 5.8203 26 13 26C20.1797 26 26 20.1797 26 13Z" fill="#C02425"/>
<g clip-path="url(#clip0_204_2772)">
<path d="M13.2368 16.5457H17.4914" stroke="#E9E6FA" stroke-width="1.5" stroke-linecap="round" stroke-linejoin="round"/>
<path d="M15.3642 8.7458C15.5523 8.55774 15.8074 8.45209 16.0733 8.45209C16.205 8.45209 16.3354 8.47803 16.4571 8.52842C16.5788 8.57882 16.6893 8.65268 16.7824 8.7458C16.8755 8.83892 16.9494 8.94947 16.9998 9.07114C17.0502 9.1928 17.0761 9.3232 17.0761 9.45489C17.0761 9.58658 17.0502 9.71698 16.9998 9.83865C16.9494 9.96032 16.8755 10.0709 16.7824 10.164L10.8733 16.0731L8.98242 16.5458L9.45515 14.6549L15.3642 8.7458Z" stroke="white" stroke-linecap="round" stroke-linejoin="round"/>
</g>
<defs>
<clipPath id="clip0_204_2772">
<rect width="11.3455" height="11.3455" fill="white" transform="translate(7.56421 7.09116)"/>
</clipPath>
</defs>
</svg>
