<svg width="23" height="25" viewBox="0 0 23 25" fill="none" xmlns="http://www.w3.org/2000/svg">
<path d="M9.47055 24.294C6.95881 24.294 4.54993 23.2702 2.77386 21.4478C0.997788 19.6254 0 17.1536 0 14.5764C0 11.9991 0.997788 9.52739 2.77386 7.70499C4.54993 5.88258 6.95881 4.85876 9.47055 4.85876C9.69889 4.85876 9.91788 4.95184 10.0793 5.11751C10.2408 5.28319 10.3315 5.50789 10.3315 5.74218V13.693H18.0801C18.3085 13.693 18.5275 13.786 18.6889 13.9517C18.8504 14.1174 18.9411 14.3421 18.9411 14.5764C18.9411 17.1536 17.9433 19.6254 16.1672 21.4478C14.3912 23.2702 11.9823 24.294 9.47055 24.294ZM8.60959 6.67861C7.15906 6.8442 5.78359 7.42678 4.64157 8.35927C3.49954 9.29176 2.63739 10.5362 2.1544 11.9494C1.6714 13.3626 1.58718 14.887 1.91145 16.3471C2.23572 17.8073 2.95529 19.1437 3.9873 20.2027C5.01931 21.2616 6.32181 21.9999 7.74482 22.3327C9.16782 22.6654 10.6535 22.579 12.0307 22.0834C13.408 21.5878 14.6208 20.7032 15.5296 19.5313C16.4384 18.3595 17.0061 16.9482 17.1675 15.4598H10.3315C9.87483 15.4598 9.43685 15.2736 9.11393 14.9423C8.79101 14.611 8.60959 14.1616 8.60959 13.693V6.67861Z" fill="#C02425"/>
<path d="M22.154 10.4117H14.5437C14.0952 10.4117 13.665 10.2289 13.3479 9.90347C13.0307 9.57804 12.8525 9.13666 12.8525 8.67644V0.867644C12.8525 0.63753 12.9416 0.416842 13.1002 0.254127C13.2588 0.0914122 13.4739 0 13.6981 0C16.165 0 18.5309 1.00553 20.2752 2.7954C22.0196 4.58526 22.9996 7.01283 22.9996 9.54408C22.9996 9.77419 22.9105 9.99488 22.7519 10.1576C22.5933 10.3203 22.3782 10.4117 22.154 10.4117ZM14.5437 8.67644H21.2577C21.0652 6.91731 20.296 5.27746 19.0761 4.02576C17.8563 2.77406 16.2581 1.98479 14.5437 1.78735V8.67644Z" fill="#C02425"/>
</svg>
