<svg width="18" height="18" viewBox="0 0 18 18" fill="none" xmlns="http://www.w3.org/2000/svg">
<path d="M6.23095 8.55435V17.3077C6.23095 17.4258 6.26114 17.5419 6.31866 17.645C6.37617 17.7481 6.45909 17.8348 6.55954 17.8968C6.65999 17.9588 6.77463 17.9941 6.89257 17.9993C7.01051 18.0045 7.12782 17.9795 7.23336 17.9266L11.387 15.8498C11.5019 15.7922 11.5984 15.7038 11.6659 15.5945C11.7334 15.4852 11.7692 15.3593 11.7692 15.2308V8.55435L17.8432 1.13157C17.9008 1.0612 17.944 0.980169 17.9704 0.893101C17.9967 0.806033 18.0056 0.714633 17.9966 0.624119C17.9876 0.533605 17.9609 0.445749 17.9179 0.365569C17.875 0.285389 17.8166 0.214455 17.7463 0.156816C17.6759 0.0991766 17.5949 0.0559618 17.5078 0.0296385C17.4207 0.00331516 17.3293 -0.0056011 17.2388 0.00339887C17.1483 0.0123988 17.0605 0.0391388 16.9803 0.0820919C16.9001 0.125045 16.8292 0.18337 16.7715 0.253737L10.5411 7.86898C10.4398 7.99281 10.3845 8.14791 10.3846 8.3079V14.803L7.6155 16.1876V8.3079C7.61563 8.14791 7.56035 7.99281 7.45905 7.86898L2.15344 1.38495H13.1537C13.3373 1.38495 13.5134 1.31201 13.6432 1.18218C13.7731 1.05235 13.846 0.87626 13.846 0.692652C13.846 0.509044 13.7731 0.332956 13.6432 0.203126C13.5134 0.0732954 13.3373 0.000357221 13.1537 0.000357221H0.692738C0.561593 0.000269727 0.43312 0.0374371 0.322278 0.107532C0.211435 0.177627 0.122782 0.277765 0.0666405 0.39629C0.0104989 0.514814 -0.010822 0.646848 0.00516029 0.77702C0.0211426 0.907191 0.0737704 1.03014 0.156917 1.13157L6.23095 8.55435Z" fill="white"/>
</svg>
