<svg width="20" height="18" viewBox="0 0 20 18" fill="none" xmlns="http://www.w3.org/2000/svg">
<path d="M9.04955 16.1458L9.04846 16.1448C6.4585 13.841 4.36985 11.979 2.91993 10.239C1.47778 8.50823 0.75 6.99281 0.75 5.39509C0.75 2.79268 2.81963 0.75 5.5 0.75C7.01859 0.75 8.48456 1.44728 9.43556 2.53419L10 3.1793L10.5644 2.53419C11.5154 1.44728 12.9814 0.75 14.5 0.75C17.1804 0.75 19.25 2.79268 19.25 5.39509C19.25 6.99281 18.5222 8.50823 17.0801 10.239C15.6301 11.979 13.5415 13.841 10.9515 16.1448L10.9504 16.1458L10 16.9945L9.04955 16.1458Z" stroke="white" stroke-width="1.5"/>
</svg>
