<svg width="16" height="14" viewBox="0 0 16 14" fill="none" xmlns="http://www.w3.org/2000/svg">
<path d="M7.0039 12.8041L7.00353 12.8038C4.93844 11.0179 3.24495 9.5513 2.06482 8.17437C0.887006 6.80014 0.25 5.54819 0.25 4.19618C0.25 1.98809 2.06246 0.25 4.4 0.25C5.72073 0.25 6.98931 0.837602 7.81417 1.75416L8 1.96064L8.18583 1.75416C9.01069 0.837602 10.2793 0.25 11.6 0.25C13.9375 0.25 15.75 1.98809 15.75 4.19618C15.75 5.54819 15.113 6.80014 13.9352 8.17437C12.755 9.5513 11.0616 11.0179 8.99647 12.8038L8.9961 12.8041L8 13.6689L7.0039 12.8041Z" fill="#C02425" stroke="white" stroke-width="0.5"/>
</svg>
