<svg width="32" height="32" viewBox="0 0 32 32" fill="none" xmlns="http://www.w3.org/2000/svg">
<path d="M22.84 24.2L22.16 23.52C21.92 23.28 21.6336 23.16 21.3008 23.16C20.968 23.16 20.6811 23.28 20.44 23.52C20.1989 23.76 20.0789 24.04 20.08 24.36C20.0811 24.68 20.2011 24.96 20.44 25.2L22 26.76C22.24 27 22.52 27.12 22.84 27.12C23.16 27.12 23.44 27 23.68 26.76L27.56 22.96C27.8 22.72 27.92 22.4331 27.92 22.0992C27.92 21.7653 27.8 21.4789 27.56 21.24C27.32 21.0011 27.0331 20.8811 26.6992 20.88C26.3653 20.8789 26.0789 20.9989 25.84 21.24L22.84 24.2ZM22.4 9.6C22.8533 9.6 23.2336 9.4464 23.5408 9.1392C23.848 8.832 24.0011 8.45227 24 8C23.9989 7.54773 23.8453 7.168 23.5392 6.8608C23.2331 6.5536 22.8533 6.4 22.4 6.4H6.4C5.94666 6.4 5.56693 6.5536 5.2608 6.8608C4.95467 7.168 4.80107 7.54773 4.8 8C4.79893 8.45227 4.95253 8.83253 5.2608 9.1408C5.56907 9.44907 5.9488 9.60213 6.4 9.6H22.4ZM24 32C21.7867 32 19.9003 31.2197 18.3408 29.6592C16.7813 28.0987 16.0011 26.2123 16 24C15.9989 21.7877 16.7792 19.9013 18.3408 18.3408C19.9024 16.7803 21.7888 16 24 16C26.2112 16 28.0981 16.7803 29.6608 18.3408C31.2235 19.9013 32.0032 21.7877 32 24C31.9968 26.2123 31.2165 28.0992 29.6592 29.6608C28.1019 31.2224 26.2155 32.0021 24 32ZM0 30.2V3.2C0 2.32 0.3136 1.56693 0.9408 0.9408C1.568 0.314667 2.32107 0.00106667 3.2 0H25.6C26.48 0 27.2336 0.3136 27.8608 0.9408C28.488 1.568 28.8011 2.32107 28.8 3.2V12C28.8 12.4533 28.6133 12.8203 28.24 13.1008C27.8667 13.3813 27.4533 13.4544 27 13.32C26.2533 13.1333 25.4933 13 24.72 12.92C23.9467 12.84 23.1733 12.8 22.4 12.8H6.4C5.94666 12.8 5.56693 12.9536 5.2608 13.2608C4.95467 13.568 4.80107 13.9477 4.8 14.4C4.79893 14.8523 4.95253 15.2325 5.2608 15.5408C5.56907 15.8491 5.9488 16.0021 6.4 16H16.16C15.7067 16.4533 15.2869 16.9467 14.9008 17.48C14.5147 18.0133 14.1744 18.5867 13.88 19.2H6.4C5.94666 19.2 5.56693 19.3536 5.2608 19.6608C4.95467 19.968 4.80107 20.3477 4.8 20.8C4.79893 21.2523 4.95253 21.6325 5.2608 21.9408C5.56907 22.2491 5.9488 22.4021 6.4 22.4H12.92C12.8667 22.6667 12.8336 22.9269 12.8208 23.1808C12.808 23.4347 12.8011 23.7077 12.8 24C12.8 24.6933 12.8667 25.3733 13 26.04C13.1333 26.7067 13.3067 27.3733 13.52 28.04C13.6533 28.3333 13.6 28.5669 13.36 28.7408C13.12 28.9147 12.8933 28.8944 12.68 28.68L12.56 28.56C12.4 28.4 12.2133 28.32 12 28.32C11.7867 28.32 11.6 28.4 11.44 28.56L10.16 29.84C10 30 9.81333 30.08 9.6 30.08C9.38666 30.08 9.2 30 9.04 29.84L7.76 28.56C7.6 28.4 7.41333 28.32 7.2 28.32C6.98666 28.32 6.8 28.4 6.64 28.56L5.36 29.84C5.2 30 5.01333 30.08 4.8 30.08C4.58667 30.08 4.4 30 4.24 29.84L2.96 28.56C2.8 28.4 2.61333 28.32 2.4 28.32C2.18667 28.32 2 28.4 1.84 28.56L0.56 29.84L0 30.2Z" fill="#C02425"/>
</svg>
