<svg width="32" height="28" viewBox="0 0 32 28" fill="none" xmlns="http://www.w3.org/2000/svg">
<path d="M14.1717 25.4195L14.1706 25.4185C10.0353 21.8424 6.66485 18.9226 4.31946 16.186C1.98102 13.4576 0.75 11.0102 0.75 8.39237C0.75 4.12559 4.25138 0.75 8.8 0.75C11.3702 0.75 13.8399 1.89482 15.4425 3.67555L16 4.29501L16.5575 3.67555C18.1601 1.89482 20.6298 0.75 23.2 0.75C27.7486 0.75 31.25 4.12559 31.25 8.39237C31.25 11.0102 30.019 13.4576 27.6805 16.186C25.3351 18.9226 21.9647 21.8424 17.8294 25.4185L17.8283 25.4195L16 27.0068L14.1717 25.4195Z" fill="#C02425" stroke="#C02425" stroke-width="1.5"/>
</svg>
