<svg width="16" height="15" viewBox="0 0 16 15" fill="none" xmlns="http://www.w3.org/2000/svg">
<path d="M7.35082 13.3718L7.34974 13.3708C5.27525 11.4487 3.61303 9.90463 2.46067 8.46406C1.31702 7.03438 0.75 5.79545 0.75 4.49591C0.75 2.36981 2.36449 0.75 4.4 0.75C5.55919 0.75 6.68882 1.30536 7.42571 2.18265L8 2.86637L8.57429 2.18265C9.31118 1.30536 10.4408 0.75 11.6 0.75C13.6355 0.75 15.25 2.36981 15.25 4.49591C15.25 5.79545 14.683 7.03438 13.5393 8.46406C12.387 9.90463 10.7247 11.4487 8.65025 13.3708L8.64919 13.3718L8 13.9757L7.35082 13.3718Z" stroke="white" stroke-width="1.5"/>
</svg>
