<svg width="130" height="102" viewBox="0 0 130 102" fill="none" xmlns="http://www.w3.org/2000/svg">
<path d="M62.959 55.8448H59.2306C59.0995 55.8448 58.9738 55.8965 58.8811 55.9885C58.7884 56.0805 58.7363 56.2053 58.7363 56.3354V57.9593C58.7363 58.0894 58.7884 58.2142 58.8811 58.3062C58.9738 58.3982 59.0995 58.4499 59.2306 58.4499H59.8485V60.8831H62.3412V58.4499H62.959C63.0901 58.4499 63.2158 58.3982 63.3085 58.3062C63.4012 58.2142 63.4533 58.0894 63.4533 57.9593V56.3354C63.4533 56.2053 63.4012 56.0805 63.3085 55.9885C63.2158 55.8965 63.0901 55.8448 62.959 55.8448Z" fill="#6B6F7A"/>
<path d="M66.6938 70.7072C64.4105 67.3916 63.2432 63.4439 63.3592 59.4297C63.3612 59.337 63.3309 59.2466 63.2734 59.1736C63.2159 59.1006 63.1347 59.0496 63.0436 59.0293V58.3276H59.106V59.0196H59.0517C58.9987 59.0197 58.9461 59.0301 58.8971 59.0503C58.8481 59.0705 58.8036 59.1001 58.7662 59.1374C58.7287 59.1747 58.699 59.2189 58.6787 59.2676C58.6585 59.3163 58.6481 59.3684 58.6482 59.421C58.6482 59.4308 58.6486 59.4405 58.6493 59.4502C58.9595 63.7414 57.912 67.5897 55.5068 70.995C55.3683 71.1907 55.2976 71.4256 55.3052 71.6646L55.7358 84.8811C55.7461 85.1759 55.8708 85.4554 56.0838 85.6611C56.2968 85.8669 56.5816 85.983 56.8789 85.9854H65.7852C66.0859 85.983 66.3737 85.8642 66.5873 85.6543C66.8009 85.4444 66.9236 85.16 66.929 84.8617L67.0949 72.0295C67.0998 71.5585 66.9599 71.0972 66.6938 70.7072Z" fill="#C02425"/>
<path opacity="0.2" d="M62.1827 56.374C62.1827 56.6547 62.0703 56.9239 61.8703 57.1223C61.6703 57.3208 61.3991 57.4323 61.1163 57.4323C60.8334 57.4323 60.5622 57.3208 60.3622 57.1223C60.1622 56.9239 60.0498 56.6547 60.0498 56.374" fill="black"/>
<path d="M65.2836 75.0973H57.5313C57.4165 75.0973 57.3031 75.1219 57.1988 75.1695C57.0946 75.217 57.0019 75.2864 56.9272 75.3728C56.8525 75.4592 56.7975 75.5607 56.766 75.6702C56.7344 75.7797 56.7272 75.8947 56.7446 76.0072L57.9161 83.5635H64.6429L66.0658 76.0327C66.0874 75.9186 66.0833 75.8012 66.054 75.6889C66.0246 75.5766 65.9707 75.472 65.896 75.3827C65.8213 75.2934 65.7277 75.2215 65.6219 75.1722C65.516 75.1229 65.4005 75.0973 65.2836 75.0973Z" fill="white"/>
<path d="M52.3213 86.3562H30.0967C31.6505 78.0197 31.293 67.9532 30.0967 57.1273H52.3213C51.1568 67.9532 50.8088 78.0197 52.3213 86.3562Z" fill="#C02425"/>
<path d="M41.3426 76.2589C44.3003 76.2589 46.698 73.8796 46.698 70.9446C46.698 68.0096 44.3003 65.6302 41.3426 65.6302C38.385 65.6302 35.9873 68.0096 35.9873 70.9446C35.9873 73.8796 38.385 76.2589 41.3426 76.2589Z" fill="white"/>
<path d="M98.3185 88.2867H27.7118L12.7602 18.1471H0V15H15.3309L30.2825 85.1393H98.3185V88.2867Z" fill="#2B3141"/>
<path d="M38.0589 101.1C41.8123 101.1 44.8551 98.0809 44.8551 94.3562C44.8551 90.6315 41.8123 87.6121 38.0589 87.6121C34.3055 87.6121 31.2627 90.6315 31.2627 94.3562C31.2627 98.0809 34.3055 101.1 38.0589 101.1Z" fill="#2B3141"/>
<path d="M88.804 101.1C92.5575 101.1 95.6002 98.0809 95.6002 94.3562C95.6002 90.6315 92.5575 87.6121 88.804 87.6121C85.0506 87.6121 82.0078 90.6315 82.0078 94.3562C82.0078 98.0809 85.0506 101.1 88.804 101.1Z" fill="#2B3141"/>
<path d="M97.0309 86.8044H28.3347L16.2139 27.364H108.406C108.876 27.3641 109.341 27.4652 109.768 27.6606C110.195 27.8559 110.575 28.1407 110.881 28.4955C111.186 28.8503 111.411 29.2666 111.539 29.7157C111.667 30.1649 111.696 30.6363 111.623 31.0975L100.248 84.0742C100.131 84.8364 99.7412 85.5314 99.1507 86.0325C98.5602 86.5337 97.8079 86.8076 97.0309 86.8044ZM29.0807 85.9052H97.0309C97.5917 85.9075 98.1346 85.7098 98.5608 85.3481C98.9869 84.9864 99.2679 84.4847 99.3525 83.9346L110.728 30.9578C110.78 30.625 110.76 30.2847 110.667 29.9605C110.575 29.6363 110.413 29.3358 110.192 29.0797C109.971 28.8237 109.697 28.6181 109.389 28.4771C109.081 28.3362 108.745 28.2632 108.406 28.2632H17.3138L29.0807 85.9052Z" fill="#2B3141"/>
<path d="M41.6907 86.6142L33.7529 27.8869L34.6468 27.7404L42.5846 86.4677L41.6907 86.6142Z" fill="#2B3141"/>
<path d="M64.7978 27.8138H63.8916V86.5411H64.7978V27.8138Z" fill="#2B3141"/>
<path d="M85.9062 28H85V86.7272H85.9062V28Z" fill="#2B3141"/>
<path d="M85.6572 82.15L83.9646 81.1759C77.9363 77.6363 73.9676 75.3509 73.164 71.6138C72.9987 70.9055 72.9771 70.1711 73.1006 69.4543C73.2241 68.7375 73.4902 68.0527 73.8831 67.4405C74.2759 66.8283 74.7876 66.3012 75.3879 65.8903C75.9881 65.4794 76.6647 65.1932 77.3775 65.0484C78.2177 64.8724 79.0861 64.8814 79.9224 65.0747C80.7588 65.2681 81.543 65.6411 82.2207 66.168C82.622 65.4091 83.1836 64.7467 83.8665 64.2266C84.5495 63.7066 85.3374 63.3415 86.1757 63.1566C86.885 62.9955 87.6195 62.9784 88.3356 63.1063C89.0516 63.2341 89.7348 63.5043 90.3446 63.9009C90.9544 64.2975 91.4784 64.8124 91.8856 65.4151C92.2929 66.0178 92.5751 66.6961 92.7155 67.4098C93.519 71.1469 90.8404 74.8616 86.8 80.5663L85.6572 82.15Z" fill="#C02425"/>
<path d="M109.863 20.6505L109.136 20.2323C106.549 18.7127 104.845 17.7316 104.5 16.1273C104.429 15.8232 104.419 15.5079 104.472 15.2002C104.526 14.8924 104.64 14.5984 104.808 14.3356C104.977 14.0728 105.197 13.8465 105.454 13.6701C105.712 13.4937 106.003 13.3708 106.309 13.3087C106.669 13.2331 107.042 13.237 107.401 13.32C107.76 13.403 108.097 13.5631 108.388 13.7893C108.56 13.4635 108.801 13.1791 109.094 12.9559C109.388 12.7326 109.726 12.5759 110.086 12.4965C110.39 12.4274 110.706 12.42 111.013 12.4749C111.32 12.5298 111.614 12.6458 111.875 12.816C112.137 12.9863 112.362 13.2073 112.537 13.4661C112.712 13.7248 112.833 14.016 112.893 14.3224C113.238 15.9268 112.088 17.5216 110.354 19.9706L109.863 20.6505Z" fill="#C02425"/>
<path d="M119.12 8.81221L118.68 8.09832C117.129 5.52919 116.098 3.85478 116.559 2.27986C116.642 1.97868 116.784 1.6971 116.977 1.4518C117.17 1.2065 117.411 1.00246 117.684 0.851769C117.958 0.701075 118.259 0.606785 118.57 0.574482C118.88 0.542178 119.194 0.572521 119.493 0.663708C119.846 0.769144 120.172 0.95017 120.448 1.19422C120.724 1.43827 120.944 1.73949 121.092 2.07698C121.398 1.87263 121.746 1.73747 122.11 1.6809C122.474 1.62433 122.846 1.64769 123.2 1.74937C123.501 1.83368 123.782 1.97746 124.026 2.17219C124.27 2.36693 124.473 2.60865 124.622 2.88307C124.771 3.15749 124.863 3.45902 124.894 3.76981C124.924 4.08061 124.892 4.39434 124.799 4.69245C124.338 6.26738 122.567 7.12153 119.875 8.44819L119.12 8.81221Z" fill="#C02425"/>
<path d="M125.011 27.2899L124.339 26.7886C121.949 24.9733 120.374 23.7973 120.221 22.1634C120.187 21.853 120.215 21.5389 120.304 21.2396C120.393 20.9403 120.541 20.6619 120.74 20.4209C120.938 20.1799 121.183 19.9812 121.46 19.8366C121.737 19.6919 122.04 19.6043 122.351 19.5788C122.718 19.5465 123.088 19.5945 123.435 19.7194C123.781 19.8444 124.097 20.0432 124.359 20.3023C124.568 19.9992 124.842 19.7454 125.159 19.5584C125.477 19.3714 125.831 19.2558 126.198 19.2196C126.508 19.187 126.822 19.2171 127.121 19.308C127.42 19.3989 127.697 19.5488 127.937 19.7489C128.177 19.9489 128.374 20.195 128.517 20.4727C128.66 20.7503 128.746 21.0538 128.769 21.3652C128.922 22.9991 127.591 24.4465 125.579 26.6729L125.011 27.2899Z" fill="#C02425"/>
<path d="M20.844 43.5501L20.8418 44.4493L108.557 44.6601L108.559 43.7609L20.844 43.5501Z" fill="#2B3141"/>
<path d="M102.368 71.3278L25.3086 71.8506L25.3148 72.7498L102.374 72.2271L102.368 71.3278Z" fill="#2B3141"/>
</svg>
