<svg width="116" height="170" viewBox="0 0 116 170" fill="none" xmlns="http://www.w3.org/2000/svg">
<g clip-path="url(#clip0_52_7355)">
<path d="M82.8729 71.502C82.8729 71.502 83.4338 79.074 83.4338 79.3545C83.4338 79.6349 79.5075 98.9858 79.5075 98.9858C79.5075 98.9858 73.8986 109.643 79.5075 109.362C85.1165 109.082 83.4338 99.2663 83.4338 99.2663L89.3232 83.0003L86.7991 71.502L82.8729 71.502Z" fill="#FFB8B8"/>
<path d="M110.636 156.197L111.477 162.367L105.588 162.928L106.429 155.355L110.636 156.197Z" fill="#FFB8B8"/>
<path d="M92.1266 156.197L91.2852 162.367L97.1747 162.928L96.3332 155.355L92.1266 156.197Z" fill="#FFB8B8"/>
<path d="M85.6766 98.4252L84.2743 100.388C84.2743 100.388 83.433 108.802 84.2743 111.606C85.1157 114.411 86.7984 127.311 86.7984 128.153C86.7984 128.994 87.0788 129.555 86.7984 129.835C86.5179 130.116 86.7984 132.92 86.7984 132.92V134.323L90.4442 155.076C90.4442 155.076 88.2006 157.6 89.8833 157.6C91.566 157.6 97.7358 157.6 97.4554 154.795L96.8945 154.515C96.8945 154.515 96.0531 136.005 96.3336 135.164C96.614 134.323 96.8945 128.994 96.8945 128.994L99.4185 111.887L104.186 128.433L105.308 153.113C105.308 153.113 104.186 155.917 105.308 156.478C106.43 157.039 111.197 159.002 111.478 156.197C111.758 153.393 113.16 128.994 113.16 127.872C113.16 126.75 112.6 109.363 112.6 109.363C112.6 109.363 112.88 106.558 113.16 105.997C113.441 105.436 112.88 104.875 113.16 104.034C113.441 103.193 112.6 100.388 112.6 100.388L99.9794 97.0229L85.6766 98.4252Z" fill="#2F2E41"/>
<path d="M95.4928 161.245C95.4928 161.245 96.8951 159.843 94.9319 159.843C93.6716 159.868 92.4303 160.155 91.2861 160.684L89.8839 165.732C89.8839 165.732 84.1347 170.36 90.585 169.799C97.0353 169.238 98.0169 169.098 98.2973 168.537C98.4941 168.143 98.1384 164.019 97.9088 161.596C97.8985 161.479 97.8569 161.367 97.7885 161.272C97.72 161.177 97.6272 161.102 97.5198 161.055C97.4123 161.009 97.2943 160.992 97.1781 161.006C97.0618 161.021 96.9517 161.067 96.8594 161.139C96.677 161.308 96.4427 161.411 96.1946 161.43C95.9465 161.449 95.6992 161.384 95.4928 161.245Z" fill="#2F2E41"/>
<path d="M107.551 161.245C107.551 161.245 106.149 159.843 108.112 159.843C109.372 159.868 110.613 160.155 111.758 160.684L113.16 165.732C113.16 165.732 118.909 170.36 112.459 169.799C106.008 169.238 104.186 169.098 103.905 168.537C103.71 168.146 104.467 164.081 104.944 161.65C104.971 161.516 105.031 161.391 105.119 161.286C105.207 161.182 105.321 161.102 105.449 161.053C105.577 161.005 105.715 160.991 105.85 161.011C105.986 161.031 106.113 161.085 106.222 161.169C106.404 161.326 106.633 161.418 106.873 161.432C107.114 161.446 107.352 161.38 107.551 161.245Z" fill="#2F2E41"/>
<path d="M86.7983 47.3836C86.7983 47.3836 87.9201 52.9925 87.9201 53.8339C87.9201 54.6752 92.6877 57.1992 92.6877 57.1992L98.0163 50.4685C98.0163 50.4685 94.6509 45.7009 94.6509 44.5791L86.7983 47.3836Z" fill="#FFB8B8"/>
<path d="M91.0053 54.6751C91.0053 54.6751 88.561 54.0246 87.82 52.9476C87.82 52.9476 80.0679 60.5645 80.0679 61.9668L86.2377 72.9043C86.2377 72.9043 86.2377 76.8305 86.7986 77.111C87.3595 77.3914 86.7986 77.111 86.7986 78.2328C86.7986 79.3545 85.116 86.6462 85.6768 87.768C86.2377 88.8898 86.7986 88.0484 86.2377 89.7311C85.6768 91.4138 84.2746 100.388 84.2746 100.388C84.2746 100.388 89.3226 98.7055 96.6143 101.51C103.906 104.314 112.6 100.388 112.6 100.388C112.6 100.388 110.356 95.3401 110.917 93.6574C111.478 91.9747 109.515 88.8898 109.515 88.8898L108.113 63.0886C108.113 63.0886 110.076 51.5902 108.674 51.0293L105.869 49.9075L96.888 48.8037C96.888 48.8037 94.6512 54.3947 91.0053 54.6751Z" fill="#3F3D56"/>
<path d="M82.872 60.0034L80.0676 61.9666C80.0676 61.9666 78.6653 66.1733 80.0676 68.1364C81.4698 70.0995 82.0307 72.904 82.0307 72.904L87.6396 72.3431L82.872 60.0034Z" fill="#3F3D56"/>
<path d="M83.7729 40.3699V14.7995C83.7729 12.856 83.3901 10.9315 82.6463 9.13596C81.9026 7.34041 80.8125 5.70893 79.4382 4.33467C78.064 2.96041 76.4325 1.87029 74.6369 1.12655C72.8414 0.382802 70.9169 1.53272e-06 68.9734 0H14.799C12.8555 -4.598e-06 10.931 0.382791 9.13549 1.12653C7.33994 1.87027 5.70846 2.96038 4.3342 4.33464C2.95994 5.70889 1.86981 7.34037 1.12607 9.13592C0.38232 10.9315 -0.000484296 12.8559 -0.000488281 14.7994V155.081C-0.000490138 159.006 1.55873 162.77 4.33417 165.546C7.1096 168.321 10.8739 169.88 14.799 169.88H68.9734C72.8984 169.88 76.6627 168.321 79.4382 165.546C82.2136 162.77 83.7729 159.006 83.7729 155.081V58.5714L83.7729 40.3699Z" fill="#2B3141"/>
<path d="M69.5709 3.85011H62.4993C62.8245 4.6474 62.9487 5.51243 62.8608 6.369C62.7729 7.22556 62.4758 8.04738 61.9955 8.76205C61.5152 9.47671 60.8665 10.0623 60.1066 10.4672C59.3467 10.8721 58.4989 11.084 57.6378 11.084H26.602C25.7409 11.084 24.8931 10.8721 24.1332 10.4672C23.3732 10.0623 22.7246 9.47672 22.2443 8.76205C21.764 8.04738 21.4668 7.22556 21.3789 6.36899C21.2911 5.51242 21.4152 4.64739 21.7404 3.8501H15.1356C12.2044 3.8501 9.39324 5.01451 7.32058 7.08717C5.24791 9.15983 4.0835 11.971 4.0835 14.9022V154.978C4.08349 157.909 5.2479 160.72 7.32057 162.793C9.39323 164.865 12.2044 166.03 15.1356 166.03H69.5709C71.0223 166.03 72.4594 165.744 73.8003 165.188C75.1412 164.633 76.3596 163.819 77.3859 162.793C78.4122 161.766 79.2263 160.548 79.7817 159.207C80.3371 157.866 80.623 156.429 80.623 154.978V14.9022C80.623 13.4508 80.3371 12.0136 79.7817 10.6727C79.2263 9.33182 78.4122 8.11345 77.3859 7.08717C76.3596 6.06089 75.1412 5.24681 73.8003 4.69139C72.4594 4.13597 71.0223 3.85011 69.5709 3.85011Z" fill="white"/>
<path d="M76.7591 66.458H9.47069C9.14033 66.4576 8.8236 66.3262 8.59 66.0926C8.3564 65.859 8.225 65.5422 8.22461 65.2119V48.5205C8.225 48.1901 8.3564 47.8734 8.59 47.6398C8.8236 47.4062 9.14033 47.2748 9.47069 47.2744H76.7591C77.0894 47.2748 77.4062 47.4062 77.6398 47.6398C77.8734 47.8734 78.0048 48.1901 78.0052 48.5205V65.2119C78.0048 65.5422 77.8734 65.859 77.6398 66.0926C77.4062 66.3262 77.0894 66.4576 76.7591 66.458ZM9.47069 47.7728C9.27247 47.7731 9.08242 47.8519 8.94225 47.9921C8.80209 48.1322 8.72325 48.3223 8.72303 48.5205V65.2119C8.72325 65.4101 8.80209 65.6001 8.94225 65.7403C9.08242 65.8805 9.27247 65.9593 9.47069 65.9595H76.7591C76.9573 65.9593 77.1474 65.8805 77.2875 65.7403C77.4277 65.6001 77.5065 65.4101 77.5067 65.2119V48.5205C77.5065 48.3223 77.4277 48.1322 77.2875 47.9921C77.1474 47.8519 76.9573 47.7731 76.7591 47.7728L9.47069 47.7728Z" fill="#E6E6E6"/>
<path d="M19.9255 61.3016C22.7288 61.3016 25.0013 59.0291 25.0013 56.2258C25.0013 53.4224 22.7288 51.1499 19.9255 51.1499C17.1222 51.1499 14.8496 53.4224 14.8496 56.2258C14.8496 59.0291 17.1222 61.3016 19.9255 61.3016Z" fill="#E6E6E6"/>
<path d="M31.6483 52.8418C31.4242 52.8422 31.2093 52.9315 31.051 53.0901C30.8926 53.2487 30.8037 53.4637 30.8037 53.6878C30.8037 53.9119 30.8926 54.1269 31.051 54.2855C31.2093 54.4441 31.4242 54.5334 31.6483 54.5338H71.5301C71.6413 54.5339 71.7515 54.5122 71.8543 54.4698C71.9571 54.4273 72.0505 54.365 72.1292 54.2865C72.2079 54.2079 72.2704 54.1146 72.313 54.0118C72.3556 53.9091 72.3775 53.799 72.3775 53.6878C72.3775 53.5766 72.3556 53.4664 72.313 53.3637C72.2704 53.261 72.2079 53.1677 72.1292 53.0891C72.0505 53.0105 71.9571 52.9482 71.8543 52.9058C71.7515 52.8634 71.6413 52.8416 71.5301 52.8418H31.6483Z" fill="#E6E6E6"/>
<path d="M31.6487 57.918C31.4243 57.918 31.2092 58.0071 31.0505 58.1658C30.8919 58.3244 30.8027 58.5396 30.8027 58.7639C30.8027 58.9883 30.8919 59.2035 31.0505 59.3621C31.2092 59.5208 31.4243 59.6099 31.6487 59.6099H48.81C49.0343 59.6099 49.2495 59.5208 49.4082 59.3621C49.5668 59.2035 49.656 58.9883 49.656 58.7639C49.656 58.5396 49.5668 58.3244 49.4082 58.1658C49.2495 58.0071 49.0343 57.918 48.81 57.918H31.6487Z" fill="#E6E6E6"/>
<path d="M76.7591 120.612H9.47069C9.14033 120.612 8.8236 120.48 8.59 120.247C8.3564 120.013 8.225 119.697 8.22461 119.366V102.675C8.225 102.344 8.3564 102.028 8.59 101.794C8.8236 101.561 9.14033 101.429 9.47069 101.429H76.7591C77.0894 101.429 77.4062 101.561 77.6398 101.794C77.8734 102.028 78.0048 102.344 78.0052 102.675V119.366C78.0048 119.697 77.8734 120.013 77.6398 120.247C77.4062 120.48 77.0894 120.612 76.7591 120.612ZM9.47069 101.927C9.27247 101.927 9.08242 102.006 8.94225 102.146C8.80209 102.287 8.72325 102.477 8.72303 102.675V119.366C8.72325 119.564 8.80209 119.754 8.94225 119.895C9.08242 120.035 9.27247 120.114 9.47069 120.114H76.7591C76.9573 120.114 77.1474 120.035 77.2875 119.895C77.4277 119.754 77.5065 119.564 77.5067 119.366V102.675C77.5065 102.477 77.4277 102.287 77.2875 102.146C77.1474 102.006 76.9573 101.927 76.7591 101.927L9.47069 101.927Z" fill="#E6E6E6"/>
<path d="M19.9255 115.456C22.7288 115.456 25.0013 113.183 25.0013 110.38C25.0013 107.577 22.7288 105.304 19.9255 105.304C17.1222 105.304 14.8496 107.577 14.8496 110.38C14.8496 113.183 17.1222 115.456 19.9255 115.456Z" fill="#E6E6E6"/>
<path d="M31.6487 106.996C31.4243 106.996 31.2092 107.085 31.0505 107.244C30.8919 107.403 30.8027 107.618 30.8027 107.842C30.8027 108.066 30.8919 108.282 31.0505 108.44C31.2092 108.599 31.4243 108.688 31.6487 108.688H71.5305C71.6417 108.688 71.7519 108.666 71.8547 108.624C71.9575 108.582 72.0509 108.519 72.1296 108.441C72.2083 108.362 72.2708 108.269 72.3134 108.166C72.356 108.063 72.3779 107.953 72.3779 107.842C72.3779 107.731 72.356 107.621 72.3134 107.518C72.2708 107.415 72.2083 107.322 72.1296 107.243C72.0509 107.165 71.9575 107.103 71.8547 107.06C71.7519 107.018 71.6417 106.996 71.5305 106.996H31.6487Z" fill="#E6E6E6"/>
<path d="M31.6483 112.072C31.4242 112.073 31.2093 112.162 31.051 112.321C30.8926 112.479 30.8037 112.694 30.8037 112.918C30.8037 113.142 30.8926 113.357 31.051 113.516C31.2093 113.675 31.4242 113.764 31.6483 113.764H48.8096C49.0339 113.764 49.2491 113.675 49.4078 113.516C49.5664 113.358 49.6555 113.143 49.6555 112.918C49.6555 112.694 49.5664 112.479 49.4078 112.32C49.2491 112.161 49.0339 112.072 48.8096 112.072H31.6483Z" fill="#E6E6E6"/>
<path d="M77.5364 77.2316V93.9237C77.5362 94.2538 77.4052 94.5704 77.172 94.804C76.9387 95.0377 76.6224 95.1694 76.2923 95.1702H41.7573V76.3096H77.1256C77.2551 76.4257 77.3587 76.5678 77.4295 76.7267C77.5003 76.8856 77.5367 77.0577 77.5364 77.2316Z" fill="#C02425"/>
<path d="M59.8804 75.9854H59.4136V94.6709H59.8804V75.9854Z" fill="white"/>
<path d="M77.126 76.3098C76.8992 76.1004 76.6015 75.9845 76.2927 75.9854H9.0038C8.67344 75.9861 8.35681 76.1176 8.12321 76.3512C7.88961 76.5849 7.75805 76.9015 7.75732 77.2318V93.9239C7.75805 94.2543 7.88961 94.5709 8.12321 94.8045C8.35681 95.0381 8.67344 95.1697 9.0038 95.1704H76.2927C76.6228 95.1696 76.9392 95.0379 77.1724 94.8043C77.4056 94.5706 77.5367 94.254 77.5369 93.9239V77.2318C77.5371 77.0579 77.5007 76.8859 77.4299 76.727C77.3591 76.5681 77.2556 76.4259 77.126 76.3098ZM77.0397 93.9239C77.0391 94.1219 76.9602 94.3115 76.8202 94.4515C76.6803 94.5914 76.4906 94.6703 76.2927 94.6709H9.0038C8.80576 94.6707 8.61587 94.5919 8.47583 94.4519C8.33579 94.3119 8.25703 94.122 8.25685 93.9239V77.2318C8.25674 77.1337 8.27599 77.0365 8.31349 76.9459C8.35099 76.8552 8.40601 76.7728 8.47539 76.7034C8.54477 76.6341 8.62716 76.579 8.71783 76.5415C8.8085 76.504 8.90568 76.4848 9.0038 76.4849H76.2927C76.4908 76.4851 76.6806 76.5638 76.8207 76.7039C76.9607 76.8439 77.0395 77.0338 77.0397 77.2318L77.0397 93.9239Z" fill="#E6E6E6"/>
<path d="M30.4485 84.8203H14.375C14.1506 84.8203 13.9353 84.9095 13.7766 85.0681C13.618 85.2268 13.5288 85.4421 13.5288 85.6665C13.5288 85.8909 13.618 86.1061 13.7766 86.2648C13.9353 86.4235 14.1506 86.5126 14.375 86.5126H30.4485C30.6729 86.5126 30.8881 86.4235 31.0468 86.2648C31.2055 86.1061 31.2947 85.8909 31.2947 85.6665C31.2947 85.4421 31.2055 85.2268 31.0468 85.0681C30.8881 84.9095 30.6729 84.8203 30.4485 84.8203Z" fill="#E6E6E6"/>
<path d="M49.792 83.7137C49.4893 83.4755 49.1083 83.3593 48.7242 83.3881C48.3401 83.4169 47.9807 83.5885 47.7168 83.8691C47.4449 84.1738 47.3013 84.5718 47.316 84.98C47.3306 85.3882 47.5025 85.7749 47.7955 86.0593L49.7634 88.0272C49.8072 88.071 49.8666 88.0956 49.9285 88.0956C49.9904 88.0956 50.0498 88.071 50.0935 88.0272L52.0614 86.0593C52.3545 85.7749 52.5263 85.3882 52.541 84.98C52.5556 84.5718 52.412 84.1738 52.1401 83.869C51.8762 83.5884 51.5168 83.4169 51.1327 83.3881C50.7486 83.3593 50.3677 83.4755 50.065 83.7137C50.0259 83.744 49.9779 83.7605 49.9285 83.7605C49.879 83.7605 49.831 83.744 49.792 83.7137Z" fill="white"/>
<path d="M70.2873 88.1908H67.3839C67.3318 88.1908 67.2813 88.1734 67.2402 88.1414C67.1992 88.1094 67.1701 88.0645 67.1574 88.014L66.3405 84.7461C66.3319 84.7117 66.3312 84.6758 66.3386 84.6411C66.3459 84.6064 66.3611 84.5738 66.3829 84.5458C66.4048 84.5179 66.4327 84.4953 66.4646 84.4797C66.4964 84.4641 66.5314 84.4561 66.5669 84.4561H71.1043C71.1398 84.4561 71.1748 84.4641 71.2067 84.4797C71.2385 84.4953 71.2664 84.5179 71.2883 84.5458C71.3101 84.5738 71.3253 84.6064 71.3326 84.6411C71.34 84.6758 71.3394 84.7117 71.3307 84.7461L70.5138 88.014C70.5011 88.0645 70.472 88.1094 70.431 88.1414C70.3899 88.1734 70.3394 88.1908 70.2873 88.1908Z" fill="white"/>
<path d="M68.8355 85.5063C68.8045 85.5064 68.7749 85.5187 68.753 85.5406C68.7311 85.5625 68.7188 85.5921 68.7188 85.6231V87.257C68.7188 87.288 68.731 87.3177 68.7529 87.3395C68.7748 87.3614 68.8045 87.3737 68.8355 87.3737C68.8664 87.3737 68.8961 87.3614 68.918 87.3395C68.9399 87.3177 68.9522 87.288 68.9522 87.257V85.6231C68.9521 85.5921 68.9398 85.5625 68.9179 85.5406C68.8961 85.5187 68.8664 85.5064 68.8355 85.5063Z" fill="#C02425"/>
<path d="M69.6697 87.2261C69.6615 87.2559 69.6655 87.2877 69.6807 87.3146C69.6959 87.3415 69.7212 87.3612 69.7509 87.3695C69.7807 87.3778 69.8125 87.374 69.8395 87.3589C69.8664 87.3438 69.8863 87.3186 69.8947 87.2889L70.3349 85.7154C70.343 85.6856 70.339 85.6539 70.3238 85.627C70.3085 85.6002 70.2833 85.5805 70.2536 85.5722C70.2239 85.5639 70.1921 85.5677 70.1652 85.5828C70.1382 85.5978 70.1184 85.6229 70.1099 85.6526L69.6697 87.2261Z" fill="#C02425"/>
<path d="M67.4489 85.5669C67.4383 85.5669 67.4277 85.5683 67.4174 85.5712C67.3876 85.5796 67.3623 85.5994 67.3471 85.6264C67.3319 85.6534 67.328 85.6853 67.3363 85.7152L67.7765 87.2886C67.7848 87.3185 67.8047 87.3438 67.8317 87.359C67.8587 87.3742 67.8906 87.378 67.9204 87.3697C67.9503 87.3613 67.9755 87.3415 67.9907 87.3145C68.0059 87.2875 68.0098 87.2555 68.0015 87.2257L67.5613 85.6522C67.5544 85.6277 67.5396 85.6061 67.5194 85.5907C67.4991 85.5753 67.4744 85.567 67.4489 85.5669Z" fill="#C02425"/>
<path d="M70.936 83.9893H69.302V83.7559C69.302 83.6321 69.2529 83.5133 69.1653 83.4258C69.0777 83.3382 68.959 83.2891 68.8352 83.2891C68.7114 83.2891 68.5926 83.3382 68.5051 83.4258C68.4175 83.5133 68.3684 83.6321 68.3684 83.7559V83.9893H66.7344C66.7034 83.9893 66.6737 84.0016 66.6519 84.0235C66.63 84.0454 66.6177 84.0751 66.6177 84.106C66.6177 84.137 66.63 84.1667 66.6519 84.1886C66.6737 84.2105 66.7034 84.2228 66.7344 84.2228H70.936C70.967 84.2228 70.9966 84.2105 71.0185 84.1886C71.0404 84.1667 71.0527 84.137 71.0527 84.106C71.0527 84.0751 71.0404 84.0454 71.0185 84.0235C70.9966 84.0016 70.967 83.9893 70.936 83.9893Z" fill="white"/>
<path d="M89.3219 49.3465C93.349 49.3465 96.6136 46.0819 96.6136 42.0548C96.6136 38.0278 93.349 34.7632 89.3219 34.7632C85.2949 34.7632 82.0303 38.0278 82.0303 42.0548C82.0303 46.0819 85.2949 49.3465 89.3219 49.3465Z" fill="#FFB8B8"/>
<path d="M83.7552 34.3489L82.4904 33.8426C82.4904 33.8426 85.135 30.931 88.8145 31.1842L87.7796 30.0448C87.7796 30.0448 90.3093 29.0321 92.6089 31.6905C93.8178 33.088 95.2165 34.7306 96.0885 36.581H97.443L96.8777 37.8258L98.8563 39.0706L96.8254 38.847C97.0178 39.9217 96.952 41.0267 96.6333 42.0709L96.6878 43.0548C96.6878 43.0548 94.3337 39.4125 94.3337 38.9062V40.1721C94.3337 40.1721 93.0688 39.0328 93.0688 38.2732L92.3789 39.1594L92.034 37.7669L87.7796 39.1594L88.4695 38.0201L85.8249 38.3998L86.8597 37.0073C86.8597 37.0073 83.8701 38.653 83.7551 40.0455C83.6401 41.438 82.1454 43.2103 82.1454 43.2103L81.4555 41.9444C81.4555 41.9444 80.4207 36.2478 83.7552 34.3489Z" fill="#2F2E41"/>
<path d="M103.625 62.5278C103.625 62.5278 102.001 66.7039 102.34 70.8357C102.402 71.5755 102.651 72.2874 103.064 72.9044L83.1679 82.3502C83.1679 82.3502 74.178 83.281 76.4216 87.2072C78.6651 91.1335 86.7981 85.2441 86.7981 85.2441C86.7981 85.2441 108.112 82.1592 109.795 79.0743C111.478 75.9893 112.599 63.0887 112.599 63.0887L103.625 62.5278Z" fill="#FFB8B8"/>
<path d="M104.466 51.0293H108.673C108.673 51.0293 111.758 51.5902 112.599 57.1991C113.44 62.8081 114.282 64.2103 113.44 64.2103C112.599 64.2103 102.503 63.9299 102.503 63.6494C102.503 63.369 104.466 51.0293 104.466 51.0293Z" fill="#3F3D56"/>
</g>
<defs>
<clipPath id="clip0_52_7355">
<rect width="115.52" height="169.88" fill="white"/>
</clipPath>
</defs>
</svg>
