<svg viewBox="0 0 24 18" fill="none" xmlns="http://www.w3.org/2000/svg">
<path d="M7.84667 18C7.45556 18 7.12667 17.8719 6.86 17.6156C6.59422 17.3584 6.46133 17.0413 6.46133 16.6641C6.46133 16.287 6.59467 15.9703 6.86133 15.714C7.12622 15.4577 7.45467 15.3296 7.84667 15.3296H22.616C23.0071 15.3296 23.3356 15.4581 23.6013 15.7153C23.8671 15.9707 24 16.2874 24 16.6654C24 17.0426 23.8671 17.3593 23.6013 17.6156C23.3347 17.8719 23.0058 18 22.6147 18H7.84667ZM7.84667 10.3346C7.45556 10.3346 7.12667 10.2064 6.86 9.95014C6.59422 9.69386 6.46133 9.37714 6.46133 9C6.46133 8.62286 6.59467 8.30571 6.86133 8.04857C7.12622 7.79314 7.45467 7.66543 7.84667 7.66543H22.616C23.0071 7.66543 23.3356 7.79357 23.6013 8.04986C23.8671 8.30614 24 8.62286 24 9C24 9.37714 23.8671 9.69429 23.6013 9.95143C23.3347 10.2069 23.0058 10.3346 22.6147 10.3346H7.84667ZM7.84667 2.67043C7.45556 2.67043 7.12667 2.54186 6.86 2.28471C6.59422 2.02929 6.46133 1.71257 6.46133 1.33457C6.46133 0.957429 6.59467 0.640714 6.86133 0.384428C7.12533 0.128143 7.45333 0 7.84533 0H22.6147C23.0058 0 23.3342 0.128143 23.6 0.384428C23.8658 0.641571 23.9987 0.958714 23.9987 1.33586C23.9987 1.713 23.8658 2.02971 23.6 2.286C23.3333 2.54229 23.0044 2.67043 22.6133 2.67043H7.84667ZM1.384 2.67043C0.992889 2.67043 0.664445 2.54186 0.398667 2.28471C0.132889 2.03014 0 1.71386 0 1.33586C0 0.958714 0.132889 0.642 0.398667 0.385715C0.665333 0.129429 0.994222 0.00128562 1.38533 0.00128562C1.77644 0.00128562 2.10489 0.129429 2.37067 0.385715C2.63644 0.642857 2.76933 0.96 2.76933 1.33714C2.76933 1.71429 2.636 2.031 2.36933 2.28729C2.10444 2.54357 1.776 2.67043 1.384 2.67043ZM1.384 10.3346C0.992889 10.3346 0.664445 10.2064 0.398667 9.95014C0.132889 9.69386 0 9.37714 0 9C0 8.62286 0.132889 8.30571 0.398667 8.04857C0.665333 7.79314 0.994222 7.66543 1.38533 7.66543C1.77644 7.66543 2.10489 7.79357 2.37067 8.04986C2.63644 8.30614 2.76933 8.62286 2.76933 9C2.76933 9.37714 2.636 9.69429 2.36933 9.95143C2.10444 10.2069 1.776 10.3346 1.384 10.3346ZM1.384 18C0.992889 18 0.664445 17.8719 0.398667 17.6156C0.132889 17.3584 0 17.0413 0 16.6641C0 16.287 0.132889 15.9703 0.398667 15.714C0.665333 15.4577 0.994222 15.3296 1.38533 15.3296C1.77644 15.3296 2.10489 15.4581 2.37067 15.7153C2.63644 15.9707 2.76933 16.2874 2.76933 16.6654C2.76933 17.0426 2.636 17.3593 2.36933 17.6156C2.10533 17.8719 1.776 18 1.384 18Z" fill="#C02425"/>
</svg>
