<svg width="22" height="22" viewBox="0 0 22 22" fill="none" xmlns="http://www.w3.org/2000/svg">
<path d="M10.1463 10.023C10.5263 9.341 10.7163 9 11.0003 9C11.2843 9 11.4743 9.34 11.8543 10.023L11.9523 10.199C12.0603 10.393 12.1143 10.489 12.1983 10.553C12.2833 10.617 12.3883 10.641 12.5983 10.688L12.7883 10.732C13.5263 10.899 13.8953 10.982 13.9833 11.264C14.0713 11.547 13.8193 11.841 13.3163 12.429L13.1863 12.581C13.0433 12.748 12.9713 12.831 12.9393 12.935C12.9073 13.039 12.9183 13.15 12.9393 13.373L12.9593 13.576C13.0353 14.361 13.0733 14.754 12.8443 14.928C12.6143 15.102 12.2683 14.943 11.5773 14.625L11.3993 14.543C11.2023 14.453 11.1043 14.408 11.0003 14.408C10.8963 14.408 10.7983 14.453 10.6013 14.543L10.4233 14.625C9.73228 14.944 9.38628 15.102 9.15628 14.928C8.92628 14.754 8.96528 14.361 9.04128 13.576L9.06128 13.373C9.08228 13.15 9.09328 13.039 9.06128 12.935C9.02928 12.832 8.95728 12.748 8.81428 12.581L8.68428 12.429C8.18128 11.841 7.92928 11.547 8.01728 11.264C8.10528 10.982 8.47428 10.899 9.21228 10.732L9.40228 10.688C9.61228 10.641 9.71728 10.618 9.80228 10.553C9.88628 10.489 9.94028 10.393 10.0483 10.199L10.1463 10.023Z" stroke="#C02425" stroke-width="1.5"/>
<path d="M21 10.798C21 8.166 21 6.849 20.23 5.994C20.1594 5.91508 20.0846 5.83997 20.006 5.769C19.151 5 17.834 5 15.202 5H14.828C13.675 5 13.098 5 12.56 4.847C12.2648 4.7626 11.9802 4.64449 11.712 4.495C11.224 4.224 10.816 3.815 10 3L9.45 2.45C9.176 2.176 9.04 2.04 8.896 1.92C8.27667 1.40664 7.51694 1.09194 6.716 1.017C6.53 1 6.336 1 5.95 1C5.067 1 4.626 1 4.258 1.07C3.46784 1.21922 2.741 1.60314 2.17231 2.17165C1.60361 2.74017 1.21947 3.46689 1.07 4.257C1 4.626 1 5.068 1 5.95M20.991 15C20.955 17.48 20.771 18.885 19.828 19.828C18.657 21 16.771 21 13 21H9C5.229 21 3.343 21 2.172 19.828C1 18.657 1 16.771 1 13V10" stroke="#C02425" stroke-width="1.5" stroke-linecap="round"/>
</svg>
