<svg width="18" height="12" viewBox="0 0 18 12" fill="none" xmlns="http://www.w3.org/2000/svg">
<path d="M15 4.58571V0H10.5882V1.71429H13.2353V3.98571L10.1647 7.71429H7.05882V3.42857H0V9.42857H1.76471C1.76471 10.8514 2.94706 12 4.41176 12C5.87647 12 7.05882 10.8514 7.05882 9.42857H11.0118L15 4.58571ZM4.41176 10.2857C3.92647 10.2857 3.52941 9.9 3.52941 9.42857H5.29412C5.29412 9.9 4.89706 10.2857 4.41176 10.2857Z" fill="#C02425"/>
<path d="M3 1H7.41176V2.69231H3V1ZM15.3529 6.92308C13.8882 6.92308 12.7059 8.05692 12.7059 9.46154C12.7059 10.8662 13.8882 12 15.3529 12C16.8176 12 18 10.8662 18 9.46154C18 8.05692 16.8176 6.92308 15.3529 6.92308ZM15.3529 10.3077C14.8676 10.3077 14.4706 9.92692 14.4706 9.46154C14.4706 8.99615 14.8676 8.61538 15.3529 8.61538C15.8382 8.61538 16.2353 8.99615 16.2353 9.46154C16.2353 9.92692 15.8382 10.3077 15.3529 10.3077Z" fill="#C02425"/>
</svg>
