<svg width="16" height="12" viewBox="0 0 16 12" fill="none" xmlns="http://www.w3.org/2000/svg">
<path d="M1.6 12C1.16 12 0.783467 11.8532 0.4704 11.5597C0.157333 11.2662 0.000533333 10.913 0 10.5V1.5C0 1.0875 0.1568 0.7345 0.4704 0.441C0.784 0.1475 1.16053 0.0005 1.6 0H14.4C14.84 0 15.2168 0.147 15.5304 0.441C15.844 0.735 16.0005 1.088 16 1.5V10.5C16 10.9125 15.8435 11.2657 15.5304 11.5597C15.2173 11.8537 14.8405 12.0005 14.4 12H1.6ZM8 6.75L1.6 3V10.5H14.4V3L8 6.75ZM8 5.25L14.4 1.5H1.6L8 5.25ZM1.6 3V1.5V10.5V3Z" fill="#C02425"/>
</svg>
