<svg width="24" height="24" viewBox="0 0 24 24" fill="none" xmlns="http://www.w3.org/2000/svg">
<path d="M21.7708 3.95323L17.4706 5.69774L6.88235 1.40445L9.45882 0.358324C10.637 -0.119441 11.9513 -0.119441 13.1294 0.358324L21.2569 3.65413C21.4411 3.72848 21.6141 3.83011 21.7708 3.95323ZM11.2955 8.20072L15.5704 6.46623L4.98212 2.17295L1.33129 3.65413C1.14709 3.72847 0.974105 3.82867 0.817412 3.9518L11.2955 8.20072ZM2.95562e-08 5.64765C2.95562e-08 5.49023 0.0169413 5.33424 0.0494119 5.18397L10.5882 9.45722V14.2757C10.1217 15.3055 9.88091 16.4255 9.88235 17.5586C9.88235 18.7321 10.1365 19.8441 10.5882 20.843V22.1854C10.2011 22.1292 9.82194 22.0264 9.45882 21.8791L1.33129 18.5833C0.938249 18.424 0.601333 18.1489 0.364031 17.7935C0.126728 17.4382 -7.06785e-05 17.0189 2.95562e-08 16.5898V5.64765ZM22.5882 5.64765V11.4865C21.1984 10.3216 19.4505 9.68575 17.6471 9.68906C16.5895 9.6876 15.5428 9.90575 14.5716 10.3301C13.6004 10.7544 12.7252 11.3759 12 12.1563V9.45722L22.5388 5.18397C22.5713 5.33424 22.5882 5.49023 22.5882 5.64765ZM24 17.5601C24 15.8521 23.3307 14.2141 22.1393 13.0064C20.9479 11.7986 19.332 11.1202 17.6471 11.1202C15.9622 11.1202 14.3463 11.7986 13.1549 13.0064C11.9634 14.2141 11.2941 15.8521 11.2941 17.5601C11.2941 19.2681 11.9634 20.9061 13.1549 22.1138C14.3463 23.3215 15.9622 24 17.6471 24C19.332 24 20.9479 23.3215 22.1393 22.1138C23.3307 20.9061 24 19.2681 24 17.5601ZM14.3209 17.0563L14.3252 17.0535L17.1487 14.1913C17.2138 14.1229 17.2917 14.0684 17.3778 14.0309C17.464 13.9934 17.5566 13.9737 17.6503 13.9729C17.744 13.972 17.837 13.9901 17.9237 14.0261C18.0105 14.0621 18.0893 14.1152 18.1556 14.1824C18.2218 14.2496 18.2743 14.3295 18.3098 14.4174C18.3452 14.5054 18.3631 14.5996 18.3623 14.6946C18.3615 14.7896 18.342 14.8835 18.305 14.9708C18.268 15.0581 18.2142 15.1371 18.1468 15.2031L16.5275 16.8445H20.4706C20.6578 16.8445 20.8373 16.9199 20.9697 17.0541C21.1021 17.1883 21.1765 17.3703 21.1765 17.5601C21.1765 17.7499 21.1021 17.9319 20.9697 18.066C20.8373 18.2002 20.6578 18.2756 20.4706 18.2756H16.5275L18.1468 19.9171C18.2142 19.9831 18.268 20.0621 18.305 20.1494C18.342 20.2367 18.3615 20.3305 18.3623 20.4256C18.3631 20.5206 18.3452 20.6148 18.3098 20.7027C18.2743 20.7907 18.2218 20.8706 18.1556 20.9377C18.0893 21.0049 18.0105 21.0581 17.9237 21.094C17.837 21.13 17.744 21.1481 17.6503 21.1473C17.5566 21.1465 17.464 21.1267 17.3778 21.0892C17.2917 21.0517 17.2138 20.9972 17.1487 20.9289L14.3252 18.0667C14.1936 17.934 14.119 17.754 14.1176 17.5658V17.5558C14.1185 17.3692 14.1915 17.1904 14.3209 17.0578" fill="#A6A6A6"/>
<circle cx="18" cy="18" r="5" fill="#A6A6A6"/>
<path d="M16.9091 18.9552L15.4773 17.3881L15 17.9104L16.9091 20L21 15.5224L20.5227 15L16.9091 18.9552Z" fill="white" stroke="white" stroke-width="0.2"/>
</svg>
