<svg width="26" height="23" viewBox="0 0 26 23" fill="none" xmlns="http://www.w3.org/2000/svg">
<path d="M8.96014 0L0.0865493 4.40763L3.2563 7.55637L12.1297 3.14891L8.96014 0ZM17.0399 0L13.8703 3.14891L22.7438 7.55637L25.9136 4.40768L17.0399 0ZM13 3.86175L12.4849 4.11772V12.2413L13 12.4972L13.5152 12.2413V4.11772L13 3.86175ZM3.29654 8.82277L0 12.9164L7.98778 17.325L12.1297 13.2104L3.29654 8.82277ZM22.7035 8.82277L13.8704 13.2103L18.0123 17.325L26 12.9164L22.7035 8.82277ZM12.4849 14.3058L8.16678 18.5954L3.66976 16.1136V18.6215L12.4849 23V14.3058ZM13.5152 14.3058V23L22.3303 18.6215V16.1135L17.8333 18.5954L13.5152 14.3058Z" fill="#A6A6A6"/>
</svg>
