<svg width="24" height="26" viewBox="0 0 24 26" fill="none" xmlns="http://www.w3.org/2000/svg">
<path d="M23.04 5.82026L12.8862 0.229957C12.6149 0.07912 12.31 0 12 0C11.69 0 11.3851 0.07912 11.1138 0.229957L0.96 5.82258C0.670025 5.98223 0.427965 6.21728 0.259098 6.5032C0.090231 6.78912 0.000750297 7.11541 0 7.44801V18.552C0.000750297 18.8846 0.090231 19.2109 0.259098 19.4968C0.427965 19.7827 0.670025 20.0178 0.96 20.1774L11.1138 25.77C11.3851 25.9209 11.69 26 12 26C12.31 26 12.6149 25.9209 12.8862 25.77L23.04 20.1774C23.33 20.0178 23.572 19.7827 23.7409 19.4968C23.9098 19.2109 23.9993 18.8846 24 18.552V7.44917C23.9999 7.11598 23.9107 6.78896 23.7418 6.50238C23.5729 6.21579 23.3305 5.98019 23.04 5.82026ZM12 1.85538L21.2712 6.96386L17.835 8.85516L8.56385 3.74668L12 1.85538ZM12 12.0723L2.72885 6.96386L6.64154 4.80785L15.9127 9.91633L12 12.0723ZM22.1538 18.5566L12.9231 23.6407V13.678L16.6154 11.6451V15.7876C16.6154 16.0339 16.7126 16.2702 16.8857 16.4444C17.0589 16.6186 17.2936 16.7164 17.5385 16.7164C17.7833 16.7164 18.0181 16.6186 18.1912 16.4444C18.3643 16.2702 18.4615 16.0339 18.4615 15.7876V10.628L22.1538 8.5951V18.552V18.5566Z" fill="#A6A6A6"/>
</svg>
