<svg width="29" height="20" viewBox="0 0 29 20" fill="none" xmlns="http://www.w3.org/2000/svg">
<path d="M24 2.85714C24 1.28571 22.7294 0 21.1765 0H16.9412V2.85714H21.1765V6.64286L16.2635 12.8571H11.2941V5.71429H5.64706C2.52706 5.71429 0 8.27143 0 11.4286V15.7143H2.82353C2.82353 18.0857 4.71529 20 7.05882 20C9.40235 20 11.2941 18.0857 11.2941 15.7143H17.6188L24 7.64286V2.85714ZM7.05882 17.1429C6.28235 17.1429 5.64706 16.5 5.64706 15.7143H8.47059C8.47059 16.5 7.83529 17.1429 7.05882 17.1429Z" fill="#A6A6A6"/>
<path d="M5 2H12.0588V4.76923H5V2ZM24.7647 11.6923C22.4212 11.6923 20.5294 13.5477 20.5294 15.8462C20.5294 18.1446 22.4212 20 24.7647 20C27.1082 20 29 18.1446 29 15.8462C29 13.5477 27.1082 11.6923 24.7647 11.6923ZM24.7647 17.2308C23.9882 17.2308 23.3529 16.6077 23.3529 15.8462C23.3529 15.0846 23.9882 14.4615 24.7647 14.4615C25.5412 14.4615 26.1765 15.0846 26.1765 15.8462C26.1765 16.6077 25.5412 17.2308 24.7647 17.2308Z" fill="#A6A6A6"/>
</svg>
