<svg width="22" height="22" viewBox="0 0 22 22" fill="none" xmlns="http://www.w3.org/2000/svg">
<path d="M4.8125 9.625C3.48333 9.625 2.34896 9.15521 1.40938 8.21563C0.469792 7.27604 0 6.14167 0 4.8125C0 3.48333 0.469792 2.34896 1.40938 1.40938C2.34896 0.469792 3.48333 0 4.8125 0C6.14167 0 7.27604 0.469792 8.21563 1.40938C9.15521 2.34896 9.625 3.48333 9.625 4.8125C9.625 6.14167 9.15521 7.27604 8.21563 8.21563C7.27604 9.15521 6.14167 9.625 4.8125 9.625ZM4.8125 6.875C5.38542 6.875 5.87262 6.67471 6.27412 6.27412C6.67562 5.87354 6.87592 5.38633 6.875 4.8125C6.875 4.23958 6.67471 3.75283 6.27412 3.35225C5.87354 2.95167 5.38633 2.75092 4.8125 2.75C4.23958 2.75 3.75283 2.95075 3.35225 3.35225C2.95167 3.75375 2.75092 4.2405 2.75 4.8125C2.75 5.38542 2.95075 5.87262 3.35225 6.27412C3.75375 6.67562 4.2405 6.87592 4.8125 6.875ZM17.1875 22C15.8583 22 14.724 21.5302 13.7844 20.5906C12.8448 19.651 12.375 18.5167 12.375 17.1875C12.375 15.8583 12.8448 14.724 13.7844 13.7844C14.724 12.8448 15.8583 12.375 17.1875 12.375C18.5167 12.375 19.651 12.8448 20.5906 13.7844C21.5302 14.724 22 15.8583 22 17.1875C22 18.5167 21.5302 19.651 20.5906 20.5906C19.651 21.5302 18.5167 22 17.1875 22ZM17.1875 19.25C17.7604 19.25 18.2476 19.0497 18.6491 18.6491C19.0506 18.2485 19.2509 17.7613 19.25 17.1875C19.25 16.6146 19.0497 16.1278 18.6491 15.7272C18.2485 15.3267 17.7613 15.1259 17.1875 15.125C16.6146 15.125 16.1278 15.3257 15.7272 15.7272C15.3267 16.1287 15.1259 16.6155 15.125 17.1875C15.125 17.7604 15.3257 18.2476 15.7272 18.6491C16.1287 19.0506 16.6155 19.2509 17.1875 19.25ZM1.925 22L0 20.075L20.075 0L22 1.925L1.925 22Z" fill="#C02425"/>
</svg>
