<svg width="18" height="20" viewBox="0 0 18 20" fill="none" xmlns="http://www.w3.org/2000/svg">
<path d="M9 9.47059C10.1158 9.47059 11.1859 9.02437 11.9749 8.2301C12.7639 7.43583 13.2072 6.35856 13.2072 5.23529C13.2072 4.11202 12.7639 3.03476 11.9749 2.24049C11.1859 1.44622 10.1158 1 9 1C7.88418 1 6.81406 1.44622 6.02506 2.24049C5.23605 3.03476 4.7928 4.11202 4.7928 5.23529C4.7928 6.35856 5.23605 7.43583 6.02506 8.2301C6.81406 9.02437 7.88418 9.47059 9 9.47059ZM17 19C16.4563 17.2943 15.3886 15.8064 13.9508 14.7508C12.5131 13.6952 10.7795 13.1264 9 13.1264C7.22048 13.1264 5.48691 13.6952 4.04915 14.7508C2.6114 15.8064 1.54372 17.2943 1 19H17Z" stroke="#6B6F7A" stroke-width="1.5" stroke-linecap="round" stroke-linejoin="round"/>
</svg>
