<svg width="16" height="16" viewBox="0 0 16 16" fill="none" xmlns="http://www.w3.org/2000/svg">
<path fill-rule="evenodd" clip-rule="evenodd" d="M6.85714 13.7128C3.07005 13.7128 0 10.6427 0 6.85556C0 3.0684 3.07005 -0.00170898 6.85714 -0.00170898C10.6442 -0.00170898 13.7143 3.0684 13.7143 6.85556C13.7143 8.33737 13.2443 9.7094 12.4452 10.8307L15.6652 14.0507C16.1115 14.4971 16.1115 15.2207 15.6652 15.667C15.2189 16.1133 14.4953 16.1133 14.049 15.667L10.8284 12.4464C9.70785 13.2439 8.33726 13.7128 6.85714 13.7128ZM6.85707 11.4304C9.3818 11.4304 11.4285 9.38365 11.4285 6.85887C11.4285 4.33409 9.3818 2.28735 6.85707 2.28735C4.33234 2.28735 2.28564 4.33409 2.28564 6.85887C2.28564 9.38365 4.33234 11.4304 6.85707 11.4304Z" fill="#2B3141"/>
</svg>
