<svg width="10" height="10" viewBox="0 0 10 10" fill="none" xmlns="http://www.w3.org/2000/svg">
<path d="M4.26759 1.49061C4.50146 0.785681 5.49859 0.785682 5.73247 1.49061L6.21565 2.94698C6.32037 3.26263 6.61553 3.47568 6.94809 3.47568H8.47689C9.22834 3.47568 9.53656 4.44049 8.92429 4.87615L7.71535 5.73636C7.43922 5.93284 7.32359 6.28648 7.43031 6.60813L7.89859 8.01959C8.13353 8.72774 7.32667 9.32393 6.71875 8.89137L5.44742 7.98677C5.1796 7.7962 4.82045 7.7962 4.55263 7.98677L3.28131 8.89136C2.67339 9.32393 1.86652 8.72774 2.10147 8.01959L2.56975 6.60813C2.67646 6.28648 2.56083 5.93284 2.2847 5.73636L1.07577 4.87615C0.46349 4.44049 0.771708 3.47568 1.52317 3.47568H3.05196C3.38453 3.47568 3.67969 3.26263 3.78441 2.94698L4.26759 1.49061Z" fill="#FFA665"/>
</svg>
