<svg width="22" height="20" viewBox="0 0 22 20" fill="none" xmlns="http://www.w3.org/2000/svg">
<path d="M19.4113 6.12525L19.3085 5.6H18.7733H3.22667H2.69147L2.58875 6.12525L1.85542 9.87525L1.70391 10.65H2.49333H19.5067H20.2961L20.1446 9.87525L19.4113 6.12525ZM1.87222 12.5V11.85H1.22222H0.65V10.063L1.75742 4.4H20.2426L21.35 10.063V11.85H20.7778H20.1278V12.5V19.35H18.9833V12.5V11.85H18.3333H13.4444H12.7944V12.5V19.35H1.87222V12.5ZM3.01667 17.5V18.15H3.66667H11H11.65V17.5V12.5V11.85H11H3.66667H3.01667V12.5V17.5ZM1.87222 1.85V0.65H20.1278V1.85H1.87222Z" stroke="white" stroke-width="1.3"/>
</svg>
