<svg width="15" height="16" viewBox="0 0 15 16" fill="none" xmlns="http://www.w3.org/2000/svg">
<path d="M3.75 1.6C3.75 1.17565 3.90804 0.768687 4.18934 0.468629C4.47064 0.168571 4.85218 0 5.25 0H9.75C10.1478 0 10.5294 0.168571 10.8107 0.468629C11.092 0.768687 11.25 1.17565 11.25 1.6V3.2H14.25C14.4489 3.2 14.6397 3.28429 14.7803 3.43431C14.921 3.58434 15 3.78783 15 4C15 4.21217 14.921 4.41566 14.7803 4.56569C14.6397 4.71571 14.4489 4.8 14.25 4.8H13.4482L12.798 14.5136C12.7711 14.9173 12.6017 15.2951 12.3241 15.5709C12.0465 15.8467 11.6811 16 11.3018 16H3.6975C3.3181 16 2.9528 15.8467 2.67516 15.5709C2.39753 15.2951 2.22819 14.9173 2.20125 14.5136L1.5525 4.8H0.75C0.551088 4.8 0.360322 4.71571 0.21967 4.56569C0.0790176 4.41566 0 4.21217 0 4C0 3.78783 0.0790176 3.58434 0.21967 3.43431C0.360322 3.28429 0.551088 3.2 0.75 3.2H3.75V1.6ZM5.25 3.2H9.75V1.6H5.25V3.2ZM3.0555 4.8L3.69825 14.4H11.3025L11.9452 4.8H3.0555Z" fill="#C02425"/>
</svg>
