<svg width="18" height="21" viewBox="0 0 18 21" fill="none" xmlns="http://www.w3.org/2000/svg">
<path d="M7.77273 0C6.17073 0 4.88373 1.31255 4.88373 2.89939V3.25193H1.63636C1.18555 3.25193 0.818182 3.61415 0.818182 4.05866V4.86539H0V6.47885H1.63636V18.5798C1.63636 19.9069 2.745 21 4.09091 21H13.9091C15.255 21 16.3636 19.9069 16.3636 18.5798V6.47885H18V4.86539H17.1818V4.05866C17.1818 3.61415 16.8145 3.25193 16.3636 3.25193H13.1163V2.89858C13.1163 1.31255 11.8293 0 10.2273 0H7.77273ZM7.77273 1.66348H10.2273C10.8851 1.66348 11.4292 2.19269 11.4292 2.89858V3.25193H6.57V2.89858C6.57 2.19269 7.11409 1.66428 7.77191 1.66428L7.77273 1.66348ZM3.27273 6.47885H7.46591C7.56736 6.48934 7.668 6.50386 7.77273 6.50386H10.2273C10.332 6.50386 10.4318 6.48934 10.5341 6.47885H14.7273V18.5798C14.7273 19.034 14.3697 19.3865 13.9091 19.3865H4.09091C3.63027 19.3865 3.27273 19.034 3.27273 18.5798V6.47885ZM4.90909 8.09231V17.7731H6.54545V8.09231H4.90909ZM8.18182 8.09231V17.7731H9.81818V8.09231H8.18182ZM11.4545 8.09231V17.7731H13.0909V8.09231H11.4545Z" fill="#B7BAC0"/>
</svg>
