<svg width="21" height="18" viewBox="0 0 21 18" fill="none" xmlns="http://www.w3.org/2000/svg">
<rect width="21" height="18" rx="2" fill="#FFB800"/>
<path d="M13.7366 10.33C13.7366 10.8033 13.5833 11.2 13.2766 11.52C12.97 11.84 12.58 12 12.1066 12C11.6333 12 11.2433 11.84 10.9366 11.52C10.63 11.2 10.4766 10.8033 10.4766 10.33C10.4766 9.85667 10.63 9.46 10.9366 9.14C11.2433 8.82 11.6333 8.66 12.1066 8.66C12.58 8.66 12.97 8.82 13.2766 9.14C13.5833 9.46 13.7366 9.85667 13.7366 10.33ZM12.5466 4.98L8.64664 12.16H8.08664L11.3066 6.3L11.2866 6.28C11.1866 6.39333 11.0666 6.47667 10.9266 6.53C10.7933 6.57667 10.67 6.6 10.5566 6.6C10.4633 6.6 10.3733 6.59 10.2866 6.57C10.2066 6.54333 10.13 6.49333 10.0566 6.42L10.0366 6.44C10.07 6.60667 10.0866 6.73 10.0866 6.81C10.0866 7.28333 9.93331 7.68 9.62664 8C9.31997 8.32 8.92997 8.48 8.45664 8.48C7.98331 8.48 7.59331 8.32 7.28664 8C6.97997 7.68 6.82664 7.28333 6.82664 6.81C6.82664 6.33 6.97664 5.93333 7.27664 5.62C7.58331 5.3 7.97664 5.14 8.45664 5.14C8.63664 5.14 8.82331 5.17333 9.01664 5.24C9.20997 5.3 9.39997 5.41 9.58664 5.57L9.62664 5.6C9.79997 5.72667 9.93664 5.81667 10.0366 5.87C10.1966 5.95 10.3633 5.99 10.5366 5.99C10.8233 5.99 11.1 5.88667 11.3666 5.68C11.6 5.5 11.7966 5.26667 11.9566 4.98H12.5466ZM13.0166 10.33C13.0166 10.0633 12.9266 9.84 12.7466 9.66C12.5733 9.47333 12.36 9.38 12.1066 9.38C11.8533 9.38 11.6366 9.47333 11.4566 9.66C11.2833 9.84 11.1966 10.0633 11.1966 10.33C11.1966 10.6033 11.2833 10.83 11.4566 11.01C11.63 11.19 11.8466 11.28 12.1066 11.28C12.3666 11.28 12.5833 11.19 12.7566 11.01C12.93 10.83 13.0166 10.6033 13.0166 10.33ZM9.36664 6.84C9.36664 6.57333 9.27664 6.34333 9.09664 6.15C8.91664 5.95667 8.70331 5.86 8.45664 5.86C8.20997 5.86 7.99664 5.95667 7.81664 6.15C7.63664 6.34333 7.54664 6.57333 7.54664 6.84C7.54664 7.12667 7.64664 7.35667 7.84664 7.53C8.02664 7.68333 8.22997 7.76 8.45664 7.76C8.71664 7.76 8.93331 7.67 9.10664 7.49C9.27997 7.31 9.36664 7.09333 9.36664 6.84Z" fill="white"/>
</svg>
