<svg width="17" height="20" viewBox="0 0 17 20" fill="none" xmlns="http://www.w3.org/2000/svg">
<path d="M12.9185 9.63171L12.8813 9.60883L12.8536 9.64269C12.5862 9.97025 12.2859 10.2724 11.9412 10.5451L11.8825 10.5915L11.9478 10.6279C13.9184 11.7273 15.2478 13.7936 15.2478 16.1553C15.2478 16.4566 15.0784 16.748 14.755 17.0182C14.4319 17.2884 13.9601 17.5325 13.3697 17.7378C12.1892 18.1483 10.5455 18.3998 8.69932 18.3998C6.85317 18.3998 5.20941 18.1483 4.02898 17.7378C3.43854 17.5325 2.96679 17.2884 2.6436 17.0182C2.32028 16.748 2.15085 16.4566 2.15085 16.1553C2.15085 13.7936 3.48021 11.7273 5.45082 10.6279L5.51617 10.5915L5.45748 10.5451C5.11278 10.2724 4.8125 9.97029 4.54501 9.64269L4.51736 9.60883L4.48011 9.63171C2.25548 10.9981 0.77373 13.411 0.77373 16.1553C0.77373 16.5782 0.893022 17.0837 1.29399 17.5836C1.69442 18.0828 2.37315 18.5732 3.4864 18.9719C4.87475 19.4691 6.72614 19.7419 8.69937 19.7419C10.6726 19.7419 12.524 19.4691 13.9123 18.9719C15.0256 18.5732 15.7043 18.0828 16.1047 17.5836C16.5057 17.0837 16.625 16.5782 16.625 16.1553C16.6249 13.411 15.1432 10.9981 12.9185 9.63171Z" fill="white" stroke="white" stroke-width="0.1"/>
<path d="M8.69947 10.5431C11.2165 10.5431 13.1428 8.17928 13.1428 5.40039C13.1428 2.6202 11.2155 0.257617 8.69947 0.257617C6.18246 0.257617 4.25615 2.62144 4.25615 5.40034C4.25615 8.18053 6.18348 10.5431 8.69947 10.5431ZM8.69947 1.59974C10.3807 1.59974 11.7657 3.29431 11.7657 5.40034C11.7657 7.50637 10.3807 9.20095 8.69947 9.20095C7.0182 9.20095 5.63327 7.50637 5.63327 5.40034C5.63327 3.29431 7.0182 1.59974 8.69947 1.59974Z" fill="white" stroke="white" stroke-width="0.1"/>
</svg>
