<svg width="24" height="24" viewBox="0 0 24 24" fill="none" xmlns="http://www.w3.org/2000/svg">
<path d="M12 17.75C11.5858 17.75 11.25 17.4142 11.25 17C11.25 16.5858 11.5858 16.25 12 16.25C12.4142 16.25 12.75 16.5858 12.75 17C12.75 17.4142 12.4142 17.75 12 17.75Z" fill="#EE4236"/>
<path fill-rule="evenodd" clip-rule="evenodd" d="M2.25 11.9999V11.8025C2.3585 6.44562 6.7695 2.17979 12.1274 2.25088C17.486 2.32198 21.7828 6.70468 21.7478 12.0637C21.7128 17.4227 17.3593 21.7488 12.0002 21.75C6.61782 21.7441 2.25598 17.3823 2.25 11.9999ZM11.992 3.75002C7.43726 3.75002 3.74428 7.44116 3.742 11.9959C3.73972 16.5506 7.42926 20.2455 11.984 20.25H12.0002C16.555 20.2455 20.2443 16.5506 20.242 11.9959C20.2397 7.44116 16.5467 3.75002 11.992 3.75002Z" fill="#EE4236"/>
<path d="M12 7L12 14" stroke="#EE4236" stroke-width="1.5" stroke-linecap="round"/>
</svg>
