<svg width="47" height="46" viewBox="0 0 47 46" fill="none" xmlns="http://www.w3.org/2000/svg">
<path d="M44.0005 22.9382C44.0005 34.2602 34.8225 43.4382 23.5005 43.4382C12.1785 43.4382 3.00049 34.2602 3.00049 22.9382C3.00049 11.6162 12.1785 2.43823 23.5005 2.43823C34.8225 2.43823 44.0005 11.6162 44.0005 22.9382Z" fill="white"/>
<path d="M1.00049 22.9382C1.00049 10.5118 11.0741 0.438232 23.5005 0.438232C35.9269 0.438232 46.0005 10.5118 46.0005 22.9382C46.0005 35.3646 35.9269 45.4382 23.5005 45.4382C11.0741 45.4382 1.00049 35.3646 1.00049 22.9382Z" stroke="#C1272D" stroke-width="0.666667" stroke-miterlimit="10"/>
<path d="M19.9267 14.4559L30.6124 21.8229C31.3934 22.3612 31.3934 23.5152 30.6124 24.0535L19.9267 31.4209C19.0281 32.0402 17.8027 31.3969 17.8027 30.3052V15.5712C17.8027 14.4795 19.0281 13.8362 19.9267 14.4559Z" fill="#4D4D4D"/>
</svg>
