<svg width="169" height="105" viewBox="0 0 169 105" fill="none" xmlns="http://www.w3.org/2000/svg">
<g clip-path="url(#clip0_958_7222)">
<path d="M150.091 6.88417H31.0003C30.9503 6.88307 30.9027 6.86244 30.8678 6.8267C30.8328 6.79096 30.8132 6.74294 30.8132 6.69294C30.8132 6.64294 30.8328 6.59492 30.8678 6.55918C30.9027 6.52344 30.9503 6.50281 31.0003 6.50171H150.091C150.141 6.50281 150.189 6.52344 150.224 6.55918C150.259 6.59492 150.279 6.64294 150.279 6.69294C150.279 6.74294 150.259 6.79096 150.224 6.8267C150.189 6.86244 150.141 6.88307 150.091 6.88417Z" fill="#CACACA"/>
<path d="M35.2105 4.20698C36.3469 4.20698 37.2682 3.2652 37.2682 2.10346C37.2682 0.941718 36.3469 -6.10352e-05 35.2105 -6.10352e-05C34.0741 -6.10352e-05 33.1528 0.941718 33.1528 2.10346C33.1528 3.2652 34.0741 4.20698 35.2105 4.20698Z" fill="#3F3D56"/>
<path d="M42.3189 4.20698C43.4553 4.20698 44.3766 3.2652 44.3766 2.10346C44.3766 0.941718 43.4553 -6.10352e-05 42.3189 -6.10352e-05C41.1825 -6.10352e-05 40.2612 0.941718 40.2612 2.10346C40.2612 3.2652 41.1825 4.20698 42.3189 4.20698Z" fill="#3F3D56"/>
<path d="M49.4271 4.20698C50.5635 4.20698 51.4847 3.2652 51.4847 2.10346C51.4847 0.941718 50.5635 -6.10352e-05 49.4271 -6.10352e-05C48.2906 -6.10352e-05 47.3694 0.941718 47.3694 2.10346C47.3694 3.2652 48.2906 4.20698 49.4271 4.20698Z" fill="#3F3D56"/>
<path d="M145.832 0.521301H140.782C140.682 0.523288 140.587 0.564443 140.517 0.635927C140.447 0.707411 140.407 0.803524 140.407 0.903629C140.407 1.00373 140.447 1.09985 140.517 1.17133C140.587 1.24282 140.682 1.28397 140.782 1.28596H145.832C145.932 1.28397 146.027 1.24282 146.097 1.17133C146.167 1.09985 146.206 1.00373 146.206 0.903629C146.206 0.803524 146.167 0.707411 146.097 0.635927C146.027 0.564443 145.932 0.523288 145.832 0.521301Z" fill="#3F3D56"/>
<path d="M145.832 1.95648H140.782C140.682 1.95847 140.587 1.99962 140.517 2.07111C140.447 2.14259 140.407 2.2387 140.407 2.33881C140.407 2.43891 140.447 2.53503 140.517 2.60651C140.587 2.678 140.682 2.71915 140.782 2.72114H145.832C145.932 2.71915 146.027 2.678 146.097 2.60651C146.167 2.53503 146.206 2.43891 146.206 2.33881C146.206 2.2387 146.167 2.14259 146.097 2.07111C146.027 1.99962 145.932 1.95847 145.832 1.95648Z" fill="#3F3D56"/>
<path d="M145.832 3.38971H140.782C140.682 3.3917 140.587 3.43285 140.517 3.50433C140.447 3.57582 140.407 3.67193 140.407 3.77204C140.407 3.87214 140.447 3.96826 140.517 4.03974C140.587 4.11122 140.682 4.15238 140.782 4.15437H145.832C145.932 4.15238 146.027 4.11122 146.097 4.03974C146.167 3.96826 146.206 3.87214 146.206 3.77204C146.206 3.67193 146.167 3.57582 146.097 3.50433C146.027 3.43285 145.932 3.3917 145.832 3.38971Z" fill="#3F3D56"/>
<path d="M123.685 21.8739H41.9437C41.5409 21.8739 41.1547 22.0338 40.8697 22.3184C40.5847 22.603 40.4243 22.9891 40.4238 23.3919V61.9769C40.4243 62.3799 40.5845 62.7662 40.8695 63.0511C41.1544 63.3361 41.5407 63.4964 41.9437 63.4968H123.685C124.087 63.496 124.473 63.3355 124.758 63.0506C125.042 62.7657 125.202 62.3796 125.203 61.9769V23.3919C125.202 22.9894 125.042 22.6036 124.758 22.319C124.473 22.0344 124.087 21.8743 123.685 21.8739Z" fill="#3F3D56"/>
<path d="M102.093 40.463C101.691 40.4634 101.305 40.6235 101.021 40.9081C100.736 41.1927 100.576 41.5785 100.575 41.981V52.8802C100.576 53.2829 100.736 53.669 101.02 53.9539C101.305 54.2388 101.691 54.3993 102.093 54.4001H125.203V40.463H102.093Z" fill="#C02425"/>
<path opacity="0.5" d="M164.06 54.3992H102.094C101.692 54.3988 101.305 54.2386 101.021 53.9538C100.736 53.669 100.576 53.2828 100.575 52.88V41.9813C100.576 41.5785 100.736 41.1924 101.021 40.9076C101.305 40.6228 101.692 40.4626 102.094 40.4622H164.06C164.463 40.4626 164.849 40.6228 165.134 40.9076C165.418 41.1924 165.579 41.5785 165.579 41.9813V52.88C165.579 53.2828 165.418 53.669 165.134 53.9538C164.849 54.2386 164.463 54.3988 164.06 54.3992Z" fill="#C02425"/>
<path d="M110.474 50.5927C111.836 50.5927 112.94 49.489 112.94 48.1275C112.94 46.766 111.836 45.6622 110.474 45.6622C109.113 45.6622 108.009 46.766 108.009 48.1275C108.009 49.489 109.113 50.5927 110.474 50.5927Z" fill="white"/>
<path d="M162.14 47.4112H117.595C117.4 47.4112 117.214 47.3338 117.076 47.1962C116.938 47.0585 116.861 46.8718 116.861 46.6771C116.861 46.4824 116.938 46.2957 117.076 46.158C117.214 46.0203 117.4 45.943 117.595 45.943H162.14C162.334 45.943 162.521 46.0203 162.659 46.158C162.797 46.2957 162.874 46.4824 162.874 46.6771C162.874 46.8718 162.797 47.0585 162.659 47.1962C162.521 47.3338 162.334 47.4112 162.14 47.4112Z" fill="white"/>
<path d="M145.221 50.312H117.595C117.4 50.312 117.214 50.2346 117.076 50.0969C116.938 49.9593 116.861 49.7725 116.861 49.5778C116.861 49.3831 116.938 49.1964 117.076 49.0587C117.214 48.921 117.4 48.8437 117.595 48.8437H145.221C145.416 48.8437 145.603 48.921 145.74 49.0587C145.878 49.1964 145.955 49.3831 145.955 49.5778C145.955 49.7725 145.878 49.9593 145.74 50.0969C145.603 50.2346 145.416 50.312 145.221 50.312Z" fill="white"/>
<path d="M28.5158 102.746L30.6493 102.746L31.6642 94.5165H28.5154L28.5158 102.746Z" fill="#FFB6B6"/>
<path d="M27.9714 102.049L28.5719 102.049L30.9165 101.096L32.173 102.049C32.8832 102.049 33.5644 102.331 34.0665 102.833C34.5686 103.335 34.8508 104.016 34.8508 104.727V104.814L27.9716 104.814L27.9714 102.049Z" fill="#2F2E41"/>
<path d="M9.23828 99.9719L11.1478 100.924L15.7271 94.0114L12.909 92.6068L9.23828 99.9719Z" fill="#FFB6B6"/>
<path d="M9.06204 99.1057L9.5995 99.3736L12.1231 99.5661L12.8225 100.98C13.458 101.297 13.9418 101.853 14.1672 102.526C14.3927 103.2 14.3413 103.935 14.0246 104.571L13.9858 104.649L7.82886 101.58L9.06204 99.1057Z" fill="#2F2E41"/>
<path d="M29.4611 65.3717L15.8958 65.7256L16.1317 72.3313C16.1317 72.3313 15.8958 74.1007 16.3676 74.5725C16.8394 75.0444 17.0753 75.0444 16.8394 75.8701C16.6035 76.6958 15.9936 84.5852 15.9936 84.5852C15.9936 84.5852 10.426 94.4297 10.6619 94.6656C10.8978 94.9015 11.1338 94.6656 10.8978 95.2554C10.6619 95.8452 10.426 95.6092 10.6619 95.8452C10.8709 96.0705 11.0678 96.3067 11.2517 96.5529H15.0968C15.0968 96.5529 15.3118 95.3733 15.3118 95.2554C15.3118 95.1374 15.5477 94.4297 15.5477 94.3117C15.5477 94.1937 22.2655 87.0762 22.2655 87.0762L23.6811 75.2803L27.1019 86.8403C27.1019 86.8403 27.1019 96.9848 27.3378 97.2207C27.5737 97.4566 27.5737 97.3386 27.4557 97.8105C27.3378 98.2823 26.8659 98.1643 27.2198 98.5182C27.5737 98.8721 27.6917 98.2823 27.5737 98.8721L27.4557 99.4619L31.9876 99.5125C31.9876 99.5125 32.4595 98.5182 32.2236 98.1643C31.9876 97.8105 32.0018 97.9071 32.2896 97.328C32.5774 96.7488 32.6954 96.6309 32.5774 96.5129C32.4595 96.395 32.4595 95.7675 32.4595 95.7675C32.4595 95.7675 30.7586 72.5672 30.7586 72.2133C30.7497 72.0312 30.7833 71.8496 30.8566 71.6827V71.2023L30.4047 69.5003L29.4611 65.3717Z" fill="#2F2E41"/>
<path d="M163.795 44.8901C162.765 44.8901 161.759 44.5848 160.903 44.0129C160.047 43.4409 159.38 42.6279 158.986 41.6768C158.592 40.7256 158.489 39.679 158.689 38.6693C158.89 37.6596 159.386 36.7321 160.114 36.0041C160.842 35.2761 161.769 34.7804 162.779 34.5795C163.789 34.3787 164.835 34.4817 165.787 34.8757C166.738 35.2697 167.551 35.9369 168.123 36.7929C168.695 37.6489 169 38.6553 169 39.6848C169 41.0653 168.452 42.3893 167.475 43.3655C166.499 44.3417 165.175 44.8901 163.795 44.8901Z" fill="#C02425"/>
<path d="M165.849 39.1713H164.308V37.6309C164.308 37.4947 164.254 37.3641 164.158 37.2678C164.061 37.1715 163.931 37.1174 163.795 37.1174C163.658 37.1174 163.528 37.1715 163.432 37.2678C163.335 37.3641 163.281 37.4947 163.281 37.6309V39.1713H161.741C161.673 39.1712 161.606 39.1844 161.544 39.2101C161.482 39.2359 161.425 39.2737 161.377 39.3214C161.329 39.3691 161.291 39.4257 161.265 39.4881C161.24 39.5504 161.226 39.6173 161.226 39.6848C161.226 39.7523 161.24 39.8192 161.265 39.8815C161.291 39.9439 161.329 40.0005 161.377 40.0482C161.425 40.0959 161.482 40.1337 161.544 40.1595C161.606 40.1852 161.673 40.1984 161.741 40.1983H163.281V41.7387C163.281 41.8749 163.335 42.0055 163.432 42.1018C163.528 42.1981 163.658 42.2522 163.795 42.2522C163.931 42.2522 164.061 42.1981 164.158 42.1018C164.254 42.0055 164.308 41.8749 164.308 41.7387V40.1983H165.849C165.985 40.1983 166.115 40.1442 166.212 40.0479C166.308 39.9516 166.362 39.821 166.362 39.6848C166.362 39.5486 166.308 39.418 166.212 39.3217C166.115 39.2254 165.985 39.1713 165.849 39.1713Z" fill="white"/>
<path d="M84.3538 54.4697H64.5763C64.1733 54.4702 63.787 54.6304 63.5021 54.9154C63.2171 55.2003 63.0568 55.5867 63.0564 55.9896V63.4968H85.8718V55.9896C85.8714 55.587 85.7115 55.2008 85.4269 54.9159C85.1424 54.631 84.7564 54.4706 84.3538 54.4697Z" fill="#C02425"/>
<path opacity="0.5" d="M84.3531 75.5637H64.5756C64.1728 75.5632 63.7867 75.403 63.5019 75.1182C63.2171 74.8334 63.0569 74.4473 63.0564 74.0445V55.9889C63.0569 55.5861 63.2171 55.2 63.5019 54.9152C63.7867 54.6304 64.1728 54.4702 64.5756 54.4697H84.3531C84.7559 54.4702 85.142 54.6304 85.4268 54.9152C85.7116 55.2 85.8719 55.5861 85.8723 55.9889V74.0445C85.8719 74.4473 85.7117 74.8334 85.4268 75.1182C85.142 75.403 84.7559 75.5632 84.3531 75.5637Z" fill="#C02425"/>
<path d="M70.4027 63.028C71.7643 63.028 72.868 61.9243 72.868 60.5628C72.868 59.2013 71.7643 58.0975 70.4027 58.0975C69.0412 58.0975 67.9375 59.2013 67.9375 60.5628C67.9375 61.9243 69.0412 63.028 70.4027 63.028Z" fill="white"/>
<path d="M80.2571 66.775H68.6716C68.4769 66.775 68.2902 66.6977 68.1525 66.56C68.0148 66.4223 67.9375 66.2356 67.9375 66.0409C67.9375 65.8462 68.0148 65.6595 68.1525 65.5218C68.2902 65.3842 68.4769 65.3068 68.6716 65.3068H80.2571C80.4518 65.3068 80.6385 65.3842 80.7762 65.5218C80.9139 65.6595 80.9912 65.8462 80.9912 66.0409C80.9912 66.2356 80.9139 66.4223 80.7762 66.56C80.6385 66.6977 80.4518 66.775 80.2571 66.775Z" fill="white"/>
<path d="M74.2622 69.6758H68.6716C68.4769 69.6758 68.2902 69.5984 68.1525 69.4608C68.0148 69.3231 67.9375 69.1364 67.9375 68.9417C67.9375 68.747 68.0148 68.5602 68.1525 68.4225C68.2902 68.2849 68.4769 68.2075 68.6716 68.2075H74.2622C74.4569 68.2075 74.6437 68.2849 74.7813 68.4225C74.919 68.5602 74.9964 68.747 74.9964 68.9417C74.9964 69.1364 74.919 69.3231 74.7813 69.4608C74.6437 69.5984 74.4569 69.6758 74.2622 69.6758Z" fill="white"/>
<path d="M64.1633 80.8628C63.1338 80.8628 62.1274 80.5575 61.2714 79.9856C60.4154 79.4136 59.7482 78.6007 59.3542 77.6495C58.9603 76.6984 58.8572 75.6518 59.058 74.642C59.2589 73.6323 59.7546 72.7048 60.4826 71.9768C61.2106 71.2488 62.1381 70.7531 63.1478 70.5522C64.1575 70.3514 65.2042 70.4545 66.1553 70.8484C67.1065 71.2424 67.9194 71.9096 68.4914 72.7656C69.0634 73.6216 69.3686 74.628 69.3686 75.6575C69.3686 77.0381 68.8202 78.3621 67.844 79.3382C66.8678 80.3144 65.5439 80.8628 64.1633 80.8628Z" fill="#C02425"/>
<path d="M66.2172 75.144H64.6768V73.6036C64.6768 73.4674 64.6227 73.3368 64.5264 73.2405C64.4301 73.1442 64.2995 73.0901 64.1633 73.0901C64.0271 73.0901 63.8965 73.1442 63.8002 73.2405C63.7039 73.3368 63.6498 73.4674 63.6498 73.6036V75.144H62.1094C62.0419 75.1439 61.975 75.1571 61.9126 75.1829C61.8502 75.2086 61.7935 75.2464 61.7457 75.2941C61.6979 75.3418 61.66 75.3984 61.6342 75.4608C61.6083 75.5232 61.595 75.59 61.595 75.6575C61.595 75.725 61.6083 75.7919 61.6342 75.8542C61.66 75.9166 61.6979 75.9733 61.7457 76.0209C61.7935 76.0686 61.8502 76.1064 61.9126 76.1322C61.975 76.1579 62.0419 76.1711 62.1094 76.171H63.6498V77.7114C63.6498 77.8476 63.7039 77.9782 63.8002 78.0745C63.8965 78.1708 64.0271 78.2249 64.1633 78.2249C64.2995 78.2249 64.4301 78.1708 64.5264 78.0745C64.6227 77.9782 64.6768 77.8476 64.6768 77.7114V76.171H66.2172C66.3534 76.171 66.484 76.1169 66.5803 76.0206C66.6766 75.9243 66.7307 75.7937 66.7307 75.6575C66.7307 75.5213 66.6766 75.3907 66.5803 75.2944C66.484 75.1981 66.3534 75.144 66.2172 75.144Z" fill="white"/>
<path d="M61.754 42.9914H41.9765C41.5737 42.991 41.1876 42.8308 40.9027 42.5459C40.6179 42.2611 40.4577 41.875 40.4573 41.4722V23.4166C40.4577 23.0138 40.6179 22.6277 40.9028 22.3429C41.1876 22.0581 41.5737 21.8979 41.9765 21.8975H61.754C62.1568 21.8979 62.5429 22.0581 62.8277 22.3429C63.1125 22.6277 63.2727 23.0138 63.2732 23.4166V41.4722C63.2727 41.875 63.1125 42.2611 62.8277 42.5459C62.5429 42.8308 62.1568 42.991 61.754 42.9914Z" fill="#C02425"/>
<path d="M47.8034 31.9625C49.1649 31.9625 50.2686 30.8587 50.2686 29.4972C50.2686 28.1357 49.1649 27.032 47.8034 27.032C46.4419 27.032 45.3381 28.1357 45.3381 29.4972C45.3381 30.8587 46.4419 31.9625 47.8034 31.9625Z" fill="#C02425"/>
<path d="M57.658 34.9561H46.0725C45.8778 34.9561 45.6911 34.8788 45.5534 34.7411C45.4157 34.6034 45.3384 34.4167 45.3384 34.222C45.3384 34.0273 45.4157 33.8406 45.5534 33.7029C45.6911 33.5653 45.8778 33.4879 46.0725 33.4879H57.658C57.8527 33.4879 58.0394 33.5653 58.1771 33.7029C58.3147 33.8406 58.3921 34.0273 58.3921 34.222C58.3921 34.4167 58.3147 34.6034 58.1771 34.7411C58.0394 34.8788 57.8527 34.9561 57.658 34.9561Z" fill="#C02425"/>
<path d="M51.6629 37.8569H46.0723C45.8776 37.8569 45.6908 37.7795 45.5532 37.6419C45.4155 37.5042 45.3381 37.3175 45.3381 37.1227C45.3381 36.928 45.4155 36.7413 45.5532 36.6036C45.6908 36.466 45.8776 36.3886 46.0723 36.3886H51.6629C51.8576 36.3886 52.0443 36.466 52.182 36.6036C52.3196 36.7413 52.397 36.928 52.397 37.1227C52.397 37.3175 52.3196 37.5042 52.182 37.6419C52.0443 37.7795 51.8576 37.8569 51.6629 37.8569Z" fill="#C02425"/>
<path opacity="0.5" d="M61.754 42.9914H41.9765C41.5737 42.991 41.1876 42.8308 40.9027 42.5459C40.6179 42.2611 40.4577 41.875 40.4573 41.4722V23.4166C40.4577 23.0138 40.6179 22.6277 40.9028 22.3429C41.1876 22.0581 41.5737 21.8979 41.9765 21.8975H61.754C62.1568 21.8979 62.5429 22.0581 62.8277 22.3429C63.1125 22.6277 63.2727 23.0138 63.2732 23.4166V41.4722C63.2727 41.875 63.1125 42.2611 62.8277 42.5459C62.5429 42.8308 62.1568 42.991 61.754 42.9914Z" fill="#C02425"/>
<path d="M47.8034 31.9625C49.1649 31.9625 50.2686 30.8587 50.2686 29.4972C50.2686 28.1357 49.1649 27.032 47.8034 27.032C46.4419 27.032 45.3381 28.1357 45.3381 29.4972C45.3381 30.8587 46.4419 31.9625 47.8034 31.9625Z" fill="white"/>
<path d="M57.658 34.9561H46.0725C45.8778 34.9561 45.6911 34.8788 45.5534 34.7411C45.4157 34.6034 45.3384 34.4167 45.3384 34.222C45.3384 34.0273 45.4157 33.8406 45.5534 33.7029C45.6911 33.5653 45.8778 33.4879 46.0725 33.4879H57.658C57.8527 33.4879 58.0394 33.5653 58.1771 33.7029C58.3147 33.8406 58.3921 34.0273 58.3921 34.222C58.3921 34.4167 58.3147 34.6034 58.1771 34.7411C58.0394 34.8788 57.8527 34.9561 57.658 34.9561Z" fill="white"/>
<path d="M51.6629 37.8569H46.0723C45.8776 37.8569 45.6908 37.7795 45.5532 37.6419C45.4155 37.5042 45.3381 37.3175 45.3381 37.1227C45.3381 36.928 45.4155 36.7413 45.5532 36.6036C45.6908 36.466 45.8776 36.3886 46.0723 36.3886H51.6629C51.8576 36.3886 52.0443 36.466 52.182 36.6036C52.3196 36.7413 52.397 36.928 52.397 37.1227C52.397 37.3175 52.3196 37.5042 52.182 37.6419C52.0443 37.7795 51.8576 37.8569 51.6629 37.8569Z" fill="white"/>
<path d="M42.3843 25.7932C44.5687 25.7932 46.3394 24.0225 46.3394 21.8381C46.3394 19.6538 44.5687 17.883 42.3843 17.883C40.2 17.883 38.4292 19.6538 38.4292 21.8381C38.4292 24.0225 40.2 25.7932 42.3843 25.7932Z" fill="#FF6584"/>
<path d="M53.2378 104.676C53.2379 104.705 53.2321 104.735 53.2209 104.762C53.2097 104.789 53.1932 104.814 53.1723 104.835C53.1515 104.855 53.1268 104.872 53.0995 104.883C53.0723 104.894 53.0431 104.9 53.0136 104.9H0.224124C0.164683 104.9 0.107675 104.876 0.0656439 104.834C0.0236126 104.792 0 104.735 0 104.676C0 104.617 0.0236126 104.56 0.0656439 104.517C0.107675 104.475 0.164683 104.452 0.224124 104.452H53.0136C53.0431 104.452 53.0723 104.457 53.0995 104.469C53.1268 104.48 53.1515 104.496 53.1723 104.517C53.1932 104.538 53.2097 104.563 53.2209 104.59C53.2321 104.617 53.2379 104.647 53.2378 104.676Z" fill="#CCCCCC"/>
<path d="M41.5391 32.3144C41.7017 32.769 41.6791 33.2693 41.4762 33.7074C41.2733 34.1455 40.9064 34.4864 40.4545 34.6564C40.3545 34.6938 40.2515 34.7222 40.1465 34.7413L39.1019 41.1372L36.6516 38.8748L38.0192 33.148C37.9686 32.6654 38.1099 32.1823 38.4126 31.8031C38.7154 31.4239 39.1552 31.1791 39.637 31.1216C40.0423 31.0751 40.4514 31.1679 40.7971 31.3846C41.1427 31.6014 41.4044 31.9293 41.5391 32.3144Z" fill="#FFB6B6"/>
<path d="M23.4558 46.8067C23.4558 46.8067 25.3576 44.294 32.2586 44.3628L36.1756 42.9397L37.0708 34.7337L40.204 35.4797L39.7564 45.6252L33.0424 49.5044L24.2397 51.2948L23.4558 46.8067Z" fill="#3F3D56"/>
<path d="M22.4453 41.572C24.7074 41.572 26.5412 39.7383 26.5412 37.4762C26.5412 35.214 24.7074 33.3802 22.4453 33.3802C20.1832 33.3802 18.3494 35.214 18.3494 37.4762C18.3494 39.7383 20.1832 41.572 22.4453 41.572Z" fill="#FFB6B6"/>
<path d="M15.5129 68.5323C15.5056 68.5323 15.4984 68.5313 15.4914 68.5293C15.4158 68.5082 15.356 68.4916 15.6289 66.1319L15.9235 64.2667L15.6359 62.6197L15.1523 62.1361L15.9296 61.3588L16.5819 59.5059L15.4532 57.8334L14.1583 50.9936C13.9357 49.8134 14.1087 48.5927 14.6504 47.5208C15.1922 46.4489 16.0725 45.5857 17.1549 45.065L18.6536 44.6271L19.1989 43.6271C19.3521 43.3462 19.5775 43.1115 19.852 42.9472C20.1264 42.7828 20.4398 42.6949 20.7596 42.6925L23.5042 42.672C23.7811 42.6699 24.0548 42.732 24.3037 42.8534C24.5525 42.9748 24.7699 43.1522 24.9388 43.3717L25.8963 44.6164L29.867 45.9653L29.2086 60.1512C29.3132 60.2387 29.3985 60.347 29.459 60.4692C29.5196 60.5913 29.5542 60.7248 29.5605 60.861C29.5669 60.9972 29.5449 61.1333 29.496 61.2606C29.447 61.3879 29.3722 61.5036 29.2762 61.6005C29.235 61.6421 29.2022 61.6761 29.1819 61.6985C29.115 61.7935 29.2406 62.5035 29.3957 63.1064L29.5946 64.0295C29.5308 64.0751 29.4771 64.1334 29.4369 64.2008C29.3968 64.2682 29.3711 64.3432 29.3614 64.4211C29.3517 64.4989 29.3582 64.5779 29.3806 64.6531C29.403 64.7283 29.4407 64.798 29.4914 64.8579L29.745 65.1574C29.7951 65.533 29.6943 65.9132 29.4645 66.2145C29.2348 66.5159 28.8949 66.7138 28.5194 66.7649C24.8906 67.2588 15.5318 68.5323 15.5129 68.5323Z" fill="#3F3D56"/>
<path d="M21.3979 41.3722C21.3803 41.3334 21.3627 41.2945 21.3452 41.2555C21.352 41.2557 21.3586 41.2567 21.3654 41.2569L21.3979 41.3722Z" fill="#2F2E41"/>
<path d="M18.2356 33.5665C18.4301 33.383 18.6828 33.2738 18.9497 33.2578C19.2146 33.2663 19.4832 33.5055 19.4283 33.7648C19.9148 32.9034 20.6891 32.2409 21.6154 31.8936C22.5417 31.5462 23.5607 31.5363 24.4936 31.8654C25.1519 32.0977 25.7975 32.5623 25.9487 33.2438C25.9634 33.4227 26.0168 33.5963 26.1051 33.7526C26.1816 33.8361 26.2809 33.8955 26.3907 33.9233C26.5006 33.9511 26.6162 33.9462 26.7232 33.9092L26.7297 33.9073C26.7664 33.8947 26.806 33.8935 26.8433 33.9037C26.8807 33.914 26.9141 33.9351 26.9393 33.9646C26.9645 33.994 26.9803 34.0303 26.9846 34.0688C26.9889 34.1073 26.9816 34.1462 26.9636 34.1805L26.7773 34.5278C27.0121 34.5802 27.2561 34.575 27.4884 34.5127C27.527 34.5026 27.5678 34.5047 27.6052 34.5186C27.6426 34.5326 27.6747 34.5578 27.6972 34.5908C27.7197 34.6237 27.7314 34.6628 27.7308 34.7027C27.7302 34.7426 27.7173 34.7814 27.6938 34.8136C27.3842 35.2371 26.9801 35.5825 26.5136 35.8223C26.047 36.0621 25.531 36.1897 25.0064 36.1949C24.2622 36.1904 23.5104 35.9339 22.7861 36.1051C22.5059 36.1713 22.2441 36.2994 22.0198 36.4799C21.7956 36.6605 21.6146 36.889 21.4902 37.1487C21.3658 37.4083 21.3011 37.6925 21.3009 37.9805C21.3007 38.2684 21.3649 38.5527 21.4889 38.8125C21.2664 38.5692 20.8362 38.6268 20.6086 38.8654C20.5038 38.9931 20.4264 39.141 20.381 39.2999C20.3357 39.4588 20.3234 39.6253 20.3451 39.7891C20.4058 40.2909 20.5547 40.7779 20.7851 41.2278C19.905 41.2007 19.0545 40.9042 18.3483 40.3783C17.6422 39.8523 17.1145 39.1224 16.8365 38.2869C16.5585 37.4515 16.5436 36.5509 16.7938 35.7067C17.044 34.8626 17.5472 34.1155 18.2356 33.5665Z" fill="#2F2E41"/>
<path d="M17.1086 74.4067C16.717 74.1243 16.452 73.6993 16.3709 73.2233C16.2898 72.7474 16.399 72.2586 16.6749 71.8624C16.7362 71.775 16.805 71.6932 16.8806 71.6179L14.1167 65.7562L17.4177 66.2317L19.5363 71.7251C19.8515 72.0941 20.0088 72.5722 19.9743 73.0562C19.9397 73.5402 19.7161 73.9911 19.3517 74.3116C19.0441 74.5795 18.6545 74.7349 18.2468 74.7522C17.8392 74.7695 17.4378 74.6477 17.1086 74.4067Z" fill="#FFB6B6"/>
<path d="M16.2715 71.2061L11.8734 61.3214L11.8293 53.5144L13.2157 49.2974C13.4038 48.7253 13.7047 48.1967 14.1006 47.7428C14.4964 47.289 14.9793 46.9191 15.5205 46.655C16.0618 46.3909 16.6505 46.238 17.2519 46.2054C17.8532 46.1727 18.455 46.2609 19.0217 46.4648L19.0523 46.4758L19.0651 46.5056C19.1163 46.6252 20.2791 49.5014 16.83 55.4182L16.1359 59.4669L18.5715 68.747L16.2715 71.2061Z" fill="#3F3D56"/>
</g>
<defs>
<clipPath id="clip0_958_7222">
<rect width="169" height="104.9" fill="white"/>
</clipPath>
</defs>
</svg>
