<svg width="106" height="66" viewBox="0 0 106 66" fill="none" xmlns="http://www.w3.org/2000/svg">
<g clip-path="url(#clip0_958_7473)">
<path d="M94.14 4.31789H19.4438C19.4124 4.3172 19.3826 4.30426 19.3606 4.28184C19.3387 4.25942 19.3264 4.22931 19.3264 4.19795C19.3264 4.16658 19.3387 4.13647 19.3606 4.11405C19.3826 4.09163 19.4124 4.07869 19.4438 4.078H94.14C94.1713 4.07869 94.2011 4.09163 94.2231 4.11405C94.245 4.13647 94.2573 4.16658 94.2573 4.19795C94.2573 4.22931 94.245 4.25942 94.2231 4.28184C94.2011 4.30426 94.1713 4.3172 94.14 4.31789Z" fill="#CACACA"/>
<path d="M22.0848 2.63874C22.7976 2.63874 23.3754 2.04804 23.3754 1.31937C23.3754 0.590702 22.7976 0 22.0848 0C21.372 0 20.7942 0.590702 20.7942 1.31937C20.7942 2.04804 21.372 2.63874 22.0848 2.63874Z" fill="white"/>
<path d="M26.5433 2.63874C27.2561 2.63874 27.8339 2.04804 27.8339 1.31937C27.8339 0.590702 27.2561 0 26.5433 0C25.8305 0 25.2527 0.590702 25.2527 1.31937C25.2527 2.04804 25.8305 2.63874 26.5433 2.63874Z" fill="white"/>
<path d="M31.0018 2.63874C31.7146 2.63874 32.2924 2.04804 32.2924 1.31937C32.2924 0.590702 31.7146 0 31.0018 0C30.289 0 29.7112 0.590702 29.7112 1.31937C29.7112 2.04804 30.289 2.63874 31.0018 2.63874Z" fill="white"/>
<path d="M91.4685 0.327026H88.3015C88.2387 0.328273 88.1789 0.354085 88.135 0.398922C88.091 0.443758 88.0664 0.504042 88.0664 0.56683C88.0664 0.629617 88.091 0.689902 88.135 0.734738C88.1789 0.779574 88.2387 0.805387 88.3015 0.806633H91.4685C91.5313 0.805387 91.5911 0.779574 91.6351 0.734738C91.679 0.689902 91.7036 0.629617 91.7036 0.56683C91.7036 0.504042 91.679 0.443758 91.6351 0.398922C91.5911 0.354085 91.5313 0.328273 91.4685 0.327026Z" fill="white"/>
<path d="M91.4685 1.22711H88.3015C88.2387 1.22836 88.1789 1.25417 88.135 1.29901C88.091 1.34384 88.0664 1.40413 88.0664 1.46692C88.0664 1.5297 88.091 1.58999 88.135 1.63482C88.1789 1.67966 88.2387 1.70547 88.3015 1.70672H91.4685C91.5313 1.70547 91.5911 1.67966 91.6351 1.63482C91.679 1.58999 91.7036 1.5297 91.7036 1.46692C91.7036 1.40413 91.679 1.34384 91.6351 1.29901C91.5911 1.25417 91.5313 1.22836 91.4685 1.22711Z" fill="white"/>
<path d="M91.4685 2.12616H88.3015C88.2387 2.12741 88.1789 2.15322 88.135 2.19805C88.091 2.24289 88.0664 2.30318 88.0664 2.36596C88.0664 2.42875 88.091 2.48903 88.135 2.53387C88.1789 2.57871 88.2387 2.60452 88.3015 2.60577H91.4685C91.5313 2.60452 91.5911 2.57871 91.6351 2.53387C91.679 2.48903 91.7036 2.42875 91.7036 2.36596C91.7036 2.30318 91.679 2.24289 91.6351 2.19805C91.5911 2.15322 91.5313 2.12741 91.4685 2.12616Z" fill="white"/>
<path d="M77.5773 13.7197H26.3078C26.0552 13.7197 25.8129 13.82 25.6341 13.9985C25.4554 14.1771 25.3548 14.4192 25.3545 14.6719V38.8731C25.3548 39.1258 25.4553 39.3682 25.634 39.5469C25.8127 39.7256 26.055 39.8261 26.3078 39.8264H77.5773C77.8298 39.8259 78.0719 39.7252 78.2504 39.5465C78.4289 39.3678 78.5292 39.1257 78.5294 38.8731V14.6719C78.5292 14.4194 78.4288 14.1774 78.2503 13.9989C78.0718 13.8204 77.8297 13.72 77.5773 13.7197Z" fill="white"/>
<path d="M64.0351 25.3792C63.7827 25.3795 63.5407 25.4799 63.3622 25.6584C63.1837 25.8369 63.0833 26.0789 63.083 26.3313V33.1675C63.0832 33.4201 63.1836 33.6622 63.362 33.8409C63.5405 34.0196 63.7826 34.1203 64.0351 34.1208H78.5297V25.3792H64.0351Z" fill="#C02425"/>
<path opacity="0.5" d="M102.902 34.1203H64.0356C63.783 34.12 63.5408 34.0195 63.3622 33.8409C63.1835 33.6622 63.0831 33.42 63.0828 33.1674V26.3315C63.0831 26.0789 63.1835 25.8367 63.3622 25.658C63.5408 25.4794 63.783 25.3789 64.0356 25.3787H102.902C103.154 25.3789 103.396 25.4794 103.575 25.658C103.754 25.8367 103.854 26.0789 103.854 26.3315V33.1674C103.854 33.42 103.754 33.6622 103.575 33.8409C103.396 34.0195 103.154 34.12 102.902 34.1203Z" fill="#C02425"/>
<path d="M69.2914 31.7327C70.1453 31.7327 70.8376 31.0405 70.8376 30.1865C70.8376 29.3325 70.1453 28.6403 69.2914 28.6403C68.4374 28.6403 67.7451 29.3325 67.7451 30.1865C67.7451 31.0405 68.4374 31.7327 69.2914 31.7327Z" fill="white"/>
<path d="M101.697 29.7372H73.7578C73.6357 29.7372 73.5186 29.6887 73.4322 29.6024C73.3459 29.516 73.2974 29.3989 73.2974 29.2768C73.2974 29.1547 73.3459 29.0376 73.4322 28.9512C73.5186 28.8649 73.6357 28.8163 73.7578 28.8163H101.697C101.819 28.8163 101.936 28.8649 102.023 28.9512C102.109 29.0376 102.158 29.1547 102.158 29.2768C102.158 29.3989 102.109 29.516 102.023 29.6024C101.936 29.6887 101.819 29.7372 101.697 29.7372Z" fill="white"/>
<path d="M91.0855 31.5567H73.7578C73.6357 31.5567 73.5186 31.5082 73.4322 31.4218C73.3459 31.3354 73.2974 31.2183 73.2974 31.0962C73.2974 30.9741 73.3459 30.857 73.4322 30.7706C73.5186 30.6843 73.6357 30.6357 73.7578 30.6357H91.0855C91.2077 30.6357 91.3248 30.6843 91.4111 30.7706C91.4975 30.857 91.546 30.9741 91.546 31.0962C91.546 31.2183 91.4975 31.3354 91.4111 31.4218C91.3248 31.5082 91.2077 31.5567 91.0855 31.5567Z" fill="white"/>
<path d="M17.8855 64.4441L19.2237 64.444L19.8603 59.2825H17.8853L17.8855 64.4441Z" fill="#FFB6B6"/>
<path d="M17.5444 64.0072L17.9211 64.0072L19.3916 63.4092L20.1798 64.0071C20.6252 64.0071 21.0524 64.1841 21.3674 64.499C21.6823 64.814 21.8593 65.2411 21.8593 65.6865V65.7411L17.5445 65.7413L17.5444 64.0072Z" fill="white"/>
<path d="M5.79443 62.7044L6.99215 63.3013L9.86436 58.9658L8.09678 58.0848L5.79443 62.7044Z" fill="#FFB6B6"/>
<path d="M5.68363 62.161L6.02074 62.329L7.60361 62.4498L8.04226 63.3365C8.44088 63.5352 8.74433 63.8842 8.88571 64.3066C9.02709 64.7289 8.99491 65.1902 8.79625 65.5888L8.7719 65.6377L4.91016 63.713L5.68363 62.161Z" fill="white"/>
<path d="M18.4784 41.0024L9.97002 41.2243L10.118 45.3676C10.118 45.3676 9.97002 46.4774 10.266 46.7733C10.5619 47.0692 10.7099 47.0693 10.5619 47.5872C10.4139 48.1051 10.0314 53.0535 10.0314 53.0535C10.0314 53.0535 6.5393 59.2281 6.68727 59.3761C6.83524 59.524 6.98321 59.3761 6.83524 59.746C6.68727 60.1159 6.5393 59.9679 6.68727 60.1159C6.81834 60.2572 6.94183 60.4054 7.0572 60.5598H9.46888C9.46888 60.5598 9.60375 59.82 9.60375 59.746C9.60375 59.672 9.75172 59.2281 9.75172 59.1541C9.75172 59.0801 13.9653 54.6158 13.9653 54.6158L14.8531 47.2172L16.9987 54.4679C16.9987 54.4679 16.9987 60.8307 17.1467 60.9787C17.2947 61.1266 17.2947 61.0526 17.2207 61.3486C17.1467 61.6445 16.8507 61.5705 17.0727 61.7925C17.2947 62.0145 17.3686 61.6445 17.2947 62.0145L17.2207 62.3844L20.0632 62.4161C20.0632 62.4161 20.3591 61.7925 20.2111 61.5706C20.0632 61.3486 20.072 61.4092 20.2526 61.0459C20.4331 60.6827 20.5071 60.6087 20.4331 60.5347C20.3591 60.4608 20.3591 60.0672 20.3591 60.0672C20.3591 60.0672 19.2923 45.5155 19.2923 45.2936C19.2867 45.1794 19.3077 45.0654 19.3537 44.9607V44.6595L19.0703 43.5919L18.4784 41.0024Z" fill="#3F3D56"/>
<path d="M102.735 28.156C102.089 28.156 101.458 27.9645 100.921 27.6057C100.384 27.247 99.9658 26.7371 99.7187 26.1405C99.4716 25.5439 99.407 24.8875 99.533 24.2541C99.6589 23.6208 99.9699 23.0391 100.426 22.5825C100.883 22.1259 101.465 21.8149 102.098 21.689C102.731 21.563 103.388 21.6276 103.984 21.8747C104.581 22.1219 105.091 22.5403 105.45 23.0772C105.808 23.6141 106 24.2454 106 24.8911C106 25.757 105.656 26.5874 105.044 27.1997C104.431 27.812 103.601 28.156 102.735 28.156Z" fill="#C02425"/>
<path d="M104.023 24.569H103.057V23.6028C103.057 23.5174 103.023 23.4355 102.963 23.3751C102.903 23.3147 102.821 23.2808 102.735 23.2808C102.65 23.2808 102.568 23.3147 102.507 23.3751C102.447 23.4355 102.413 23.5174 102.413 23.6028V24.569H101.447C101.405 24.5689 101.363 24.5772 101.324 24.5933C101.284 24.6095 101.249 24.6332 101.219 24.6631C101.189 24.693 101.165 24.7286 101.149 24.7677C101.133 24.8068 101.124 24.8487 101.124 24.8911C101.124 24.9334 101.133 24.9753 101.149 25.0145C101.165 25.0536 101.189 25.0891 101.219 25.119C101.249 25.1489 101.284 25.1726 101.324 25.1888C101.363 25.2049 101.405 25.2132 101.447 25.2131H102.413V26.1793C102.413 26.2647 102.447 26.3466 102.507 26.407C102.568 26.4674 102.65 26.5014 102.735 26.5014C102.821 26.5014 102.903 26.4674 102.963 26.407C103.023 26.3466 103.057 26.2647 103.057 26.1793V25.2131H104.023C104.109 25.2131 104.191 25.1792 104.251 25.1188C104.312 25.0584 104.345 24.9765 104.345 24.8911C104.345 24.8057 104.312 24.7237 104.251 24.6633C104.191 24.6029 104.109 24.569 104.023 24.569Z" fill="white"/>
<path d="M52.9084 34.1645H40.5036C40.2508 34.1648 40.0085 34.2653 39.8298 34.444C39.6511 34.6227 39.5506 34.8651 39.5503 35.1178V39.8264H53.8605V35.1178C53.8603 34.8652 53.76 34.6231 53.5815 34.4444C53.403 34.2657 53.161 34.165 52.9084 34.1645Z" fill="#C02425"/>
<path opacity="0.5" d="M52.908 47.395H40.5032C40.2505 47.3947 40.0083 47.2942 39.8297 47.1156C39.6511 46.937 39.5506 46.6948 39.5503 46.4421V35.1173C39.5506 34.8647 39.6511 34.6225 39.8297 34.4439C40.0083 34.2652 40.2505 34.1648 40.5032 34.1645H52.908C53.1606 34.1648 53.4028 34.2652 53.5815 34.4439C53.7601 34.6225 53.8606 34.8647 53.8609 35.1173V46.4421C53.8606 46.6948 53.7601 46.937 53.5815 47.1156C53.4028 47.2942 53.1606 47.3947 52.908 47.395Z" fill="#C02425"/>
<path d="M44.1578 39.5324C45.0118 39.5324 45.7041 38.8401 45.7041 37.9861C45.7041 37.1322 45.0118 36.4399 44.1578 36.4399C43.3039 36.4399 42.6116 37.1322 42.6116 37.9861C42.6116 38.8401 43.3039 39.5324 44.1578 39.5324Z" fill="white"/>
<path d="M50.3387 41.8825H43.072C42.9499 41.8825 42.8328 41.834 42.7464 41.7477C42.6601 41.6613 42.6116 41.5442 42.6116 41.4221C42.6116 41.3 42.6601 41.1829 42.7464 41.0965C42.8328 41.0102 42.9499 40.9617 43.072 40.9617H50.3387C50.4608 40.9617 50.5779 41.0102 50.6642 41.0965C50.7506 41.1829 50.7991 41.3 50.7991 41.4221C50.7991 41.5442 50.7506 41.6613 50.6642 41.7477C50.5779 41.834 50.4608 41.8825 50.3387 41.8825Z" fill="white"/>
<path d="M46.5786 43.702H43.072C42.9499 43.702 42.8328 43.6535 42.7464 43.5671C42.6601 43.4808 42.6116 43.3637 42.6116 43.2415C42.6116 43.1194 42.6601 43.0023 42.7464 42.9159C42.8328 42.8296 42.9499 42.7811 43.072 42.7811H46.5786C46.7007 42.7811 46.8178 42.8296 46.9042 42.9159C46.9905 43.0023 47.039 43.1194 47.039 43.2415C47.039 43.3637 46.9905 43.4808 46.9042 43.5671C46.8178 43.6535 46.7007 43.702 46.5786 43.702Z" fill="white"/>
<path d="M40.2444 50.7188C39.5986 50.7188 38.9674 50.5273 38.4305 50.1685C37.8936 49.8098 37.4751 49.2999 37.228 48.7033C36.9809 48.1067 36.9163 47.4503 37.0422 46.817C37.1682 46.1836 37.4792 45.6019 37.9358 45.1453C38.3924 44.6887 38.9741 44.3777 39.6074 44.2518C40.2407 44.1258 40.8972 44.1904 41.4938 44.4376C42.0904 44.6847 42.6003 45.1031 42.959 45.64C43.3178 46.1769 43.5092 46.8082 43.5092 47.4539C43.5092 48.3198 43.1653 49.1502 42.553 49.7625C41.9407 50.3748 41.1103 50.7188 40.2444 50.7188Z" fill="#C02425"/>
<path d="M41.5329 47.1318H40.5668V46.1656C40.5668 46.0802 40.5328 45.9983 40.4724 45.9379C40.412 45.8775 40.3301 45.8436 40.2447 45.8436C40.1593 45.8436 40.0774 45.8775 40.017 45.9379C39.9566 45.9983 39.9226 46.0802 39.9226 46.1656V47.1318H38.9565C38.9141 47.1317 38.8722 47.14 38.833 47.1562C38.7939 47.1723 38.7583 47.196 38.7283 47.2259C38.6984 47.2558 38.6746 47.2914 38.6584 47.3305C38.6421 47.3696 38.6338 47.4115 38.6338 47.4539C38.6338 47.4962 38.6421 47.5381 38.6584 47.5773C38.6746 47.6164 38.6984 47.6519 38.7283 47.6818C38.7583 47.7117 38.7939 47.7354 38.833 47.7516C38.8722 47.7677 38.9141 47.776 38.9565 47.7759H39.9226V48.7421C39.9226 48.8275 39.9566 48.9094 40.017 48.9698C40.0774 49.0302 40.1593 49.0642 40.2447 49.0642C40.3301 49.0642 40.412 49.0302 40.4724 48.9698C40.5328 48.9094 40.5668 48.8275 40.5668 48.7421V47.7759H41.5329C41.6184 47.7759 41.7003 47.742 41.7607 47.6816C41.8211 47.6212 41.855 47.5393 41.855 47.4539C41.855 47.3685 41.8211 47.2865 41.7607 47.2261C41.7003 47.1657 41.6184 47.1318 41.5329 47.1318Z" fill="white"/>
<path d="M38.7332 26.965H26.3284C26.0757 26.9647 25.8335 26.8643 25.6549 26.6856C25.4763 26.507 25.3758 26.2648 25.3755 26.0122V14.6873C25.3758 14.4347 25.4763 14.1925 25.6549 14.0139C25.8335 13.8353 26.0757 13.7348 26.3284 13.7345H38.7332C38.9858 13.7348 39.228 13.8353 39.4067 14.0139C39.5853 14.1925 39.6858 14.4347 39.6861 14.6873V26.0122C39.6858 26.2648 39.5853 26.507 39.4067 26.6856C39.228 26.8643 38.9858 26.9647 38.7332 26.965Z" fill="#C02425"/>
<path d="M29.9833 20.0475C30.8372 20.0475 31.5295 19.3552 31.5295 18.5013C31.5295 17.6473 30.8372 16.955 29.9833 16.955C29.1293 16.955 28.437 17.6473 28.437 18.5013C28.437 19.3552 29.1293 20.0475 29.9833 20.0475Z" fill="#C02425"/>
<path d="M36.1641 21.9252H28.8975C28.7753 21.9252 28.6582 21.8766 28.5719 21.7903C28.4855 21.7039 28.437 21.5868 28.437 21.4647C28.437 21.3426 28.4855 21.2255 28.5719 21.1391C28.6582 21.0528 28.7753 21.0043 28.8975 21.0043H36.1641C36.2862 21.0043 36.4033 21.0528 36.4897 21.1391C36.576 21.2255 36.6245 21.3426 36.6245 21.4647C36.6245 21.5868 36.576 21.7039 36.4897 21.7903C36.4033 21.8766 36.2862 21.9252 36.1641 21.9252Z" fill="#C02425"/>
<path d="M32.404 23.7446H28.8975C28.7754 23.7446 28.6582 23.6961 28.5719 23.6097C28.4855 23.5234 28.437 23.4063 28.437 23.2841C28.437 23.162 28.4855 23.0449 28.5719 22.9585C28.6582 22.8722 28.7754 22.8237 28.8975 22.8237H32.404C32.5261 22.8237 32.6432 22.8722 32.7296 22.9585C32.8159 23.0449 32.8645 23.162 32.8645 23.2841C32.8645 23.4063 32.8159 23.5234 32.7296 23.6097C32.6432 23.6961 32.5261 23.7446 32.404 23.7446Z" fill="#C02425"/>
<path opacity="0.5" d="M38.7332 26.965H26.3284C26.0757 26.9647 25.8335 26.8643 25.6549 26.6856C25.4763 26.507 25.3758 26.2648 25.3755 26.0122V14.6873C25.3758 14.4347 25.4763 14.1925 25.6549 14.0139C25.8335 13.8353 26.0757 13.7348 26.3284 13.7345H38.7332C38.9858 13.7348 39.228 13.8353 39.4067 14.0139C39.5853 14.1925 39.6858 14.4347 39.6861 14.6873V26.0122C39.6858 26.2648 39.5853 26.507 39.4067 26.6856C39.228 26.8643 38.9858 26.9647 38.7332 26.965Z" fill="#C02425"/>
<path d="M29.9833 20.0475C30.8372 20.0475 31.5295 19.3552 31.5295 18.5013C31.5295 17.6473 30.8372 16.955 29.9833 16.955C29.1293 16.955 28.437 17.6473 28.437 18.5013C28.437 19.3552 29.1293 20.0475 29.9833 20.0475Z" fill="white"/>
<path d="M36.1641 21.9252H28.8975C28.7753 21.9252 28.6582 21.8766 28.5719 21.7903C28.4855 21.7039 28.437 21.5868 28.437 21.4647C28.437 21.3426 28.4855 21.2255 28.5719 21.1391C28.6582 21.0528 28.7753 21.0043 28.8975 21.0043H36.1641C36.2862 21.0043 36.4033 21.0528 36.4897 21.1391C36.576 21.2255 36.6245 21.3426 36.6245 21.4647C36.6245 21.5868 36.576 21.7039 36.4897 21.7903C36.4033 21.8766 36.2862 21.9252 36.1641 21.9252Z" fill="white"/>
<path d="M32.404 23.7446H28.8975C28.7754 23.7446 28.6582 23.6961 28.5719 23.6097C28.4855 23.5234 28.437 23.4063 28.437 23.2841C28.437 23.162 28.4855 23.0449 28.5719 22.9585C28.6582 22.8722 28.7754 22.8237 28.8975 22.8237H32.404C32.5261 22.8237 32.6432 22.8722 32.7296 22.9585C32.8159 23.0449 32.8645 23.162 32.8645 23.2841C32.8645 23.4063 32.8159 23.5234 32.7296 23.6097C32.6432 23.6961 32.5261 23.7446 32.404 23.7446Z" fill="white"/>
<path d="M26.5842 16.1781C27.9543 16.1781 29.065 15.0674 29.065 13.6973C29.065 12.3273 27.9543 11.2166 26.5842 11.2166C25.2142 11.2166 24.1035 12.3273 24.1035 13.6973C24.1035 15.0674 25.2142 16.1781 26.5842 16.1781Z" fill="#FF6584"/>
<path d="M33.3917 65.6547C33.3918 65.6732 33.3882 65.6915 33.3812 65.7086C33.3741 65.7257 33.3638 65.7412 33.3507 65.7543C33.3376 65.7673 33.3221 65.7777 33.305 65.7847C33.2879 65.7918 33.2696 65.7954 33.2512 65.7953H0.140575C0.103292 65.7953 0.0675359 65.7805 0.0411731 65.7541C0.0148103 65.7278 0 65.692 0 65.6547C0 65.6175 0.0148103 65.5817 0.0411731 65.5553C0.0675359 65.529 0.103292 65.5142 0.140575 65.5142H33.2512C33.2696 65.5141 33.2879 65.5177 33.305 65.5248C33.3221 65.5318 33.3376 65.5421 33.3507 65.5552C33.3638 65.5683 33.3741 65.5838 33.3812 65.6009C33.3882 65.618 33.3918 65.6363 33.3917 65.6547Z" fill="#CCCCCC"/>
<path d="M26.054 20.2682C26.156 20.5533 26.1419 20.8671 26.0146 21.1419C25.8874 21.4167 25.6572 21.6305 25.3738 21.7372C25.3111 21.7606 25.2464 21.7784 25.1806 21.7904L24.5254 25.802L22.9885 24.383L23.8463 20.791C23.8146 20.4884 23.9032 20.1854 24.0931 19.9475C24.283 19.7097 24.5588 19.5561 24.861 19.52C25.1152 19.4909 25.3718 19.5491 25.5886 19.685C25.8054 19.821 25.9696 20.0266 26.054 20.2682Z" fill="#FFB6B6"/>
<path d="M14.7117 29.3581C14.7117 29.3581 15.9045 27.7821 20.2329 27.8253L22.6898 26.9326L23.2512 21.7857L25.2164 22.2536L24.9357 28.6171L20.7246 31.0502L15.2033 32.1731L14.7117 29.3581Z" fill="#3F3D56"/>
<path d="M14.0783 26.0748C15.4971 26.0748 16.6473 24.9246 16.6473 23.5058C16.6473 22.087 15.4971 20.9368 14.0783 20.9368C12.6595 20.9368 11.5093 22.087 11.5093 23.5058C11.5093 24.9246 12.6595 26.0748 14.0783 26.0748Z" fill="#FFB6B6"/>
<path d="M9.73023 42.9848C9.72567 42.9848 9.72113 42.9842 9.71675 42.983C9.66932 42.9697 9.63185 42.9593 9.80302 41.4792L9.98776 40.3093L9.8074 39.2763L9.50405 38.973L9.9916 38.4855L10.4007 37.3233L9.69281 36.2743L8.8806 31.9842C8.74097 31.244 8.84947 30.4783 9.18929 29.806C9.52911 29.1337 10.0813 28.5923 10.7601 28.2657L11.7002 27.991L12.0422 27.3638C12.1382 27.1876 12.2797 27.0404 12.4518 26.9373C12.6239 26.8343 12.8205 26.7791 13.0211 26.7776L14.7426 26.7647C14.9162 26.7634 15.0879 26.8024 15.244 26.8785C15.4001 26.9547 15.5364 27.0659 15.6423 27.2036L16.2429 27.9843L18.7334 28.8303L18.3204 37.728C18.386 37.7829 18.4395 37.8508 18.4775 37.9275C18.5155 38.0041 18.5372 38.0878 18.5412 38.1732C18.5452 38.2587 18.5314 38.344 18.5007 38.4239C18.47 38.5037 18.4231 38.5763 18.3629 38.6371C18.337 38.6632 18.3164 38.6845 18.3037 38.6985C18.2617 38.7581 18.3405 39.2035 18.4378 39.5816L18.5625 40.1606C18.5225 40.1892 18.4888 40.2258 18.4637 40.268C18.4385 40.3103 18.4224 40.3574 18.4163 40.4062C18.4102 40.455 18.4143 40.5046 18.4283 40.5517C18.4424 40.5989 18.466 40.6426 18.4978 40.6802L18.6569 40.868C18.6883 41.1036 18.6251 41.3421 18.481 41.5311C18.3369 41.7201 18.1237 41.8442 17.8882 41.8763C15.6121 42.186 9.74212 42.9848 9.73023 42.9848Z" fill="#3F3D56"/>
<path d="M13.4212 25.9494C13.4102 25.9251 13.3992 25.9007 13.3882 25.8762C13.3924 25.8764 13.3966 25.877 13.4008 25.8771L13.4212 25.9494Z" fill="white"/>
<path d="M11.4377 21.0536C11.5597 20.9385 11.7182 20.8699 11.8856 20.8599C12.0517 20.8653 12.2202 21.0153 12.1858 21.1779C12.4909 20.6376 12.9766 20.2221 13.5576 20.0043C14.1386 19.7864 14.7777 19.7801 15.3628 19.9866C15.7757 20.1323 16.1806 20.4237 16.2755 20.8511C16.2847 20.9633 16.3182 21.0722 16.3736 21.1702C16.4216 21.2227 16.4838 21.2599 16.5527 21.2773C16.6216 21.2948 16.6941 21.2917 16.7613 21.2685L16.7654 21.2673C16.7884 21.2594 16.8132 21.2587 16.8366 21.2651C16.86 21.2715 16.881 21.2848 16.8968 21.3032C16.9126 21.3217 16.9225 21.3444 16.9252 21.3686C16.9279 21.3927 16.9233 21.4171 16.912 21.4386L16.7952 21.6565C16.9425 21.6893 17.0955 21.6861 17.2412 21.647C17.2654 21.6407 17.291 21.642 17.3145 21.6507C17.3379 21.6595 17.3581 21.6753 17.3722 21.696C17.3863 21.7166 17.3937 21.7412 17.3933 21.7662C17.3929 21.7912 17.3848 21.8155 17.37 21.8358C17.1759 22.1014 16.9224 22.318 16.6298 22.4684C16.3372 22.6188 16.0135 22.6989 15.6845 22.7022C15.2177 22.6993 14.7461 22.5384 14.2918 22.6458C14.1161 22.6873 13.9519 22.7676 13.8112 22.8809C13.6706 22.9942 13.5571 23.1375 13.4791 23.3004C13.401 23.4632 13.3604 23.6415 13.3603 23.8221C13.3601 24.0026 13.4004 24.181 13.4782 24.344C13.3386 24.1913 13.0689 24.2274 12.9261 24.3771C12.8604 24.4572 12.8118 24.55 12.7833 24.6497C12.7549 24.7493 12.7472 24.8537 12.7608 24.9565C12.7988 25.2712 12.8923 25.5767 13.0368 25.8588C12.4848 25.8419 11.9513 25.6559 11.5084 25.326C11.0655 24.9961 10.7345 24.5383 10.5601 24.0143C10.3858 23.4903 10.3764 22.9254 10.5333 22.3959C10.6903 21.8665 11.0059 21.3979 11.4377 21.0536Z" fill="#4A4A4A"/>
<path d="M10.7308 46.6693C10.4852 46.4922 10.319 46.2256 10.2681 45.9271C10.2173 45.6286 10.2858 45.322 10.4588 45.0735C10.4972 45.0187 10.5404 44.9673 10.5878 44.9201L8.85425 41.2436L10.9247 41.5418L12.2535 44.9874C12.4512 45.2188 12.5499 45.5187 12.5282 45.8223C12.5066 46.1258 12.3663 46.4087 12.1378 46.6097C11.9448 46.7777 11.7004 46.8752 11.4447 46.8861C11.1891 46.8969 10.9373 46.8205 10.7308 46.6693Z" fill="#FFB6B6"/>
<path d="M10.2059 44.6618L7.4473 38.462L7.41968 33.5653L8.28924 30.9203C8.40721 30.5615 8.59593 30.2299 8.84422 29.9452C9.09252 29.6606 9.39537 29.4286 9.73486 29.2629C10.0744 29.0973 10.4436 29.0014 10.8208 28.9809C11.198 28.9604 11.5754 29.0157 11.9309 29.1436L11.95 29.1505L11.9581 29.1692C11.9902 29.2443 12.7195 31.0482 10.5562 34.7594L10.1208 37.2988L11.6485 43.1195L10.2059 44.6618Z" fill="#3F3D56"/>
</g>
<defs>
<clipPath id="clip0_958_7473">
<rect width="106" height="65.7953" fill="white"/>
</clipPath>
</defs>
</svg>
