<svg width="68" height="69" viewBox="0 0 68 69" fill="none" xmlns="http://www.w3.org/2000/svg">
<g clip-path="url(#clip0)">
<path d="M34.2323 12.3553L30.9599 18.6533L23.9167 19.528L28.8951 24.5864L27.5506 31.5553L33.8998 28.3836L40.1121 31.8158L39.0577 24.7972L44.2416 19.9496L37.2407 18.7836L34.2323 12.3553Z" fill="#61CC6C"/>
<path d="M34.4594 1.40401C22.6357 1.15877 12.852 10.5449 12.6067 22.3686C12.3615 34.1923 21.7476 43.9761 33.5713 44.2213C45.395 44.4666 55.1788 35.0804 55.424 23.2567C55.6693 11.433 46.2831 1.64926 34.4594 1.40401ZM47.0566 22.612L43.184 26.2334L43.9717 31.4767C44.1852 32.8985 43.5847 34.2917 42.4043 35.1125C41.7372 35.5764 40.9633 35.803 40.1892 35.7869C39.5934 35.7746 38.9975 35.6185 38.4501 35.316L33.8092 32.7519L29.066 35.1213C27.7798 35.7639 26.2692 35.6231 25.1237 34.7541C23.9784 33.885 23.4359 32.4682 23.7084 31.0564L24.7128 25.8503L20.9936 22.0715C19.9851 21.0468 19.652 19.5667 20.1246 18.2087C20.5972 16.8508 21.7772 15.8972 23.204 15.72L28.4657 15.0665L30.9103 10.3616C31.5733 9.08573 32.878 8.31173 34.3155 8.34154C35.7531 8.37136 37.0246 9.1988 37.6341 10.501L39.8815 15.3033L45.1116 16.1744C46.5298 16.4106 47.6692 17.4123 48.0851 18.7887C48.501 20.165 48.1069 21.6301 47.0566 22.612Z" fill="#61CC6C"/>
<path d="M43.3717 46.3042C40.7821 47.3367 38.0714 47.9248 35.2915 48.0614L39.6377 67.5258L45.0504 62.2824L51.7036 64.8316L47.1461 44.421C45.9478 45.1501 44.6877 45.7795 43.3717 46.3042Z" fill="#61CC6C"/>
<path d="M23.6929 45.8957C22.4015 45.3176 21.1703 44.6376 20.0043 43.8606L14.6052 64.0619L21.3584 61.7908L26.5491 67.2541L31.6985 47.987C28.9248 47.7356 26.2391 47.0354 23.6929 45.8957Z" fill="#61CC6C"/>
</g>
<defs>
<clipPath id="clip0">
<rect width="66" height="66" fill="white" transform="translate(1.46631 0.719727) rotate(1.18824)"/>
</clipPath>
</defs>
</svg>
