<svg width="33" height="26" viewBox="0 0 33 26" fill="none" xmlns="http://www.w3.org/2000/svg">
<path d="M3.3 0C2.42479 0 1.58542 0.34241 0.966547 0.951903C0.347677 1.5614 0 2.38805 0 3.25V9.75C0.875214 9.75 1.71458 10.0924 2.33345 10.7019C2.95232 11.3114 3.3 12.138 3.3 13C3.3 13.862 2.95232 14.6886 2.33345 15.2981C1.71458 15.9076 0.875214 16.25 0 16.25V22.75C0 23.612 0.347677 24.4386 0.966547 25.0481C1.58542 25.6576 2.42479 26 3.3 26H29.7C30.5752 26 31.4146 25.6576 32.0335 25.0481C32.6523 24.4386 33 23.612 33 22.75V16.25C32.1248 16.25 31.2854 15.9076 30.6665 15.2981C30.0477 14.6886 29.7 13.862 29.7 13C29.7 12.138 30.0477 11.3114 30.6665 10.7019C31.2854 10.0924 32.1248 9.75 33 9.75V3.25C33 2.38805 32.6523 1.5614 32.0335 0.951903C31.4146 0.34241 30.5752 0 29.7 0H3.3ZM22.275 4.875L24.75 7.3125L10.725 21.125L8.25 18.6875L22.275 4.875ZM11.2365 4.94C12.8535 4.94 14.157 6.22375 14.157 7.81625C14.157 8.57908 13.8493 9.31066 13.3016 9.85007C12.7539 10.3895 12.0111 10.6925 11.2365 10.6925C9.6195 10.6925 8.316 9.40875 8.316 7.81625C8.316 7.05342 8.62369 6.32184 9.17139 5.78243C9.71909 5.24303 10.4619 4.94 11.2365 4.94ZM21.7635 15.3075C23.3805 15.3075 24.684 16.5912 24.684 18.1838C24.684 18.9466 24.3763 19.6782 23.8286 20.2176C23.2809 20.757 22.5381 21.06 21.7635 21.06C20.1465 21.06 18.843 19.7762 18.843 18.1838C18.843 17.4209 19.1507 16.6893 19.6984 16.1499C20.2461 15.6105 20.9889 15.3075 21.7635 15.3075Z" fill="white"/>
</svg>
