<svg width="101" height="100" viewBox="0 0 101 100" fill="none" xmlns="http://www.w3.org/2000/svg">
<path fill-rule="evenodd" clip-rule="evenodd" d="M80.975 14.8967C80.5965 10.5864 76.2188 7.86789 72.2196 9.45972L52.2238 17.4189C51.9201 17.5398 51.6327 17.6789 51.3618 17.8343C48.8122 18.5305 46.5063 20.1693 45.0057 22.6154L20.1136 63.1926C16.9892 68.2858 18.5395 74.9503 23.5765 78.0782L41.8167 89.4052C46.8537 92.533 53.4698 90.9398 56.5942 85.8466L81.4863 45.2694C82.9869 42.8233 83.4092 40.0148 82.8848 37.4097C82.9014 37.0964 82.8962 36.7756 82.8675 36.4482L80.975 14.8967ZM65.509 30.2535C68.5311 32.1302 72.5008 31.1743 74.3755 28.1183C76.2501 25.0624 75.3199 21.0637 72.2978 19.187C69.2756 17.3103 65.306 18.2662 63.4313 21.3221C61.5566 24.3781 62.4868 28.3768 65.509 30.2535Z" fill="#E6E6E6"/>
<path d="M39.7124 59.8701C38.6677 59.239 37.8541 58.4141 37.2716 57.3956C36.7015 56.3566 36.4134 55.252 36.4074 54.0817C36.4223 52.924 36.7372 51.8364 37.3519 50.8188C37.9666 49.8012 38.7829 49.0165 39.8007 48.4647C40.8518 47.9051 41.9636 47.6462 43.1362 47.6879C44.3211 47.7093 45.4359 48.0355 46.4806 48.6667C47.5253 49.2978 48.3328 50.1328 48.9029 51.1717C49.5063 52.2029 49.7944 53.3076 49.7672 54.4856C49.7731 55.6559 49.4688 56.7499 48.854 57.7674C48.2393 58.785 47.4126 59.5634 46.3738 60.1026C45.356 60.6544 44.2442 60.9133 43.0384 60.8794C41.8658 60.8377 40.7571 60.5012 39.7124 59.8701ZM57.3927 55.8839L60.4955 57.7583L35.4756 71.7695L32.3728 69.895L57.3927 55.8839ZM41.0771 57.6111C42.0382 58.1917 43.0228 58.3559 44.0307 58.1037C45.0596 57.8641 45.8506 57.2864 46.4039 56.3706C46.9694 55.4344 47.1189 54.4553 46.8524 53.4331C46.6067 52.4235 46.0033 51.6284 45.0421 51.0478C44.081 50.4671 43.086 50.2966 42.0572 50.5362C41.0492 50.7884 40.2625 51.3826 39.6969 52.3188C39.1437 53.2346 38.9899 54.1973 39.2356 55.2069C39.5021 56.2291 40.116 57.0305 41.0771 57.6111ZM46.3563 78.9677C45.3116 78.3366 44.498 77.5118 43.9156 76.4932C43.3454 75.4543 43.0573 74.3496 43.0513 73.1793C43.0663 72.0216 43.3811 70.934 43.9958 69.9164C44.6105 68.8988 45.4268 68.1142 46.4447 67.5623C47.4957 67.0028 48.6075 66.7439 49.7801 66.7856C50.965 66.8069 52.0798 67.1332 53.1245 67.7643C54.1692 68.3954 54.9767 69.2304 55.5469 70.2694C56.1502 71.3006 56.4383 72.4052 56.4111 73.5832C56.4171 74.7536 56.1127 75.8475 55.498 76.8651C54.8832 77.8826 54.0565 78.661 53.0178 79.2002C51.9999 79.7521 50.8881 80.011 49.6823 79.977C48.5097 79.9353 47.401 79.5989 46.3563 78.9677ZM47.6897 76.6898C48.6508 77.2704 49.6458 77.441 50.6747 77.2014C51.7035 76.9618 52.4946 76.3841 53.0478 75.4682C53.6134 74.5321 53.7629 73.5529 53.4963 72.5307C53.2297 71.5085 52.6159 70.7071 51.6547 70.1265C50.7145 69.5585 49.73 69.3943 48.7011 69.6339C47.6723 69.8735 46.8751 70.4613 46.3095 71.3975C45.7562 72.3133 45.6129 73.2823 45.8795 74.3045C46.1461 75.3267 46.7495 76.1218 47.6897 76.6898Z" fill="white"/>
</svg>
