<svg width="25" height="20" viewBox="0 0 25 20" fill="none" xmlns="http://www.w3.org/2000/svg">
<path d="M16.062 1.83823H16.9405C17.888 1.84897 18.7923 2.23158 19.4535 2.90156C20.1148 3.57154 20.4787 4.47379 20.4649 5.40908V6.50074C20.4649 6.92334 20.812 7.26593 21.2401 7.26593C21.6682 7.26593 22.0153 6.92334 22.0153 6.50074V5.40908C22.0157 2.62723 19.7582 0.357935 16.9405 0.307861H16.1033C15.6752 0.307861 15.3281 0.650445 15.3281 1.07304C15.3281 1.49564 15.6752 1.83823 16.1033 1.83823H16.062Z" fill="#F9F9FA"/>
<path d="M3.1531 7.26593C3.57889 7.26043 3.92271 6.92105 3.92828 6.50074V5.40908C3.91444 4.46675 4.28401 3.55831 4.95423 2.88714C5.62445 2.21596 6.53935 1.83813 7.49408 1.83823H8.33127C8.75706 1.83273 9.10088 1.49335 9.10644 1.07304C9.10088 0.652743 8.75706 0.313356 8.33127 0.307861H7.49408C4.66017 0.335837 2.37779 2.61156 2.37793 5.40908V6.50074C2.37789 6.91939 2.71869 7.26034 3.14277 7.26593H3.1531Z" fill="#F9F9FA"/>
<path d="M23.1423 10.2551H1.17899C0.882589 10.2212 0.59276 10.3582 0.433727 10.6074C0.274695 10.8566 0.274695 11.1738 0.433727 11.423C0.59276 11.6722 0.882589 11.8092 1.17899 11.7753H2.37792V14.6422C2.40626 17.4396 4.7117 19.6925 7.54575 19.6924H8.38294C8.81106 19.6924 9.15811 19.3498 9.15811 18.9272C9.15811 18.5046 8.81106 18.162 8.38294 18.162H7.49407C5.52474 18.162 3.92827 16.5861 3.92827 14.6422V11.7753H6.79125V12.918C6.79125 14.2421 7.8787 15.3155 9.22013 15.3155H15.1321C15.7763 15.3155 16.3941 15.0629 16.8496 14.6133C17.3051 14.1637 17.561 13.5538 17.561 12.918V11.7753H20.4653V14.6422C20.4655 16.5703 18.894 18.1397 16.9409 18.162H16.1037C15.6756 18.162 15.3285 18.5046 15.3285 18.9272C15.3285 19.3498 15.6756 19.6924 16.1037 19.6924H16.9409C18.2968 19.6924 19.5971 19.16 20.5549 18.2126C21.5127 17.2652 22.0494 15.9806 22.0467 14.6422V11.7753H23.1423C23.4387 11.8092 23.7285 11.6722 23.8875 11.423C24.0465 11.1738 24.0465 10.8566 23.8875 10.6074C23.7285 10.3582 23.4387 10.2212 23.1423 10.2551Z" fill="#F9F9FA"/>
<path d="M6.79073 7.08202V8.39814C6.78779 8.47475 6.81734 8.5491 6.87226 8.60332C6.92718 8.65753 7.00251 8.6867 7.08012 8.6838H17.2607C17.3384 8.6867 17.4137 8.65753 17.4686 8.60332C17.5235 8.5491 17.5531 8.47475 17.5501 8.39814V7.08202C17.5501 6.44615 17.2942 5.83631 16.8387 5.38668C16.3832 4.93705 15.7654 4.68445 15.1213 4.68445H9.21961C7.87817 4.68445 6.79073 5.75788 6.79073 7.08202Z" fill="#F9F9FA"/>
</svg>
