<svg width="20" height="18" viewBox="0 0 20 18" fill="none" xmlns="http://www.w3.org/2000/svg">
<path d="M19.7057 4.00023C19.5273 3.70087 19.2717 3.45141 18.964 3.27616C18.6563 3.10092 18.3069 3.00588 17.95 3.00032H4.73021L4.13118 0.74052C4.07066 0.522377 3.93564 0.330501 3.7481 0.196141C3.56056 0.0617807 3.33155 -0.00714611 3.09839 0.000586427H1.0328C0.758881 0.000586427 0.496186 0.105934 0.302499 0.293453C0.108812 0.480973 0 0.735304 0 1.0005C0 1.26569 0.108812 1.52002 0.302499 1.70754C0.496186 1.89506 0.758881 2.00041 1.0328 2.00041H2.31346L5.16398 12.2595C5.2245 12.4776 5.35953 12.6695 5.54707 12.8039C5.73461 12.9382 5.96361 13.0071 6.19678 12.9994H15.4919C15.6827 12.9989 15.8695 12.9472 16.0317 12.8501C16.194 12.753 16.3253 12.6144 16.4111 12.4495L19.7987 5.89006C19.9455 5.5921 20.0139 5.26358 19.9977 4.93382C19.9814 4.60407 19.8812 4.28333 19.7057 4.00023Z" fill="white"/>
<path d="M5.5 18C6.32843 18 7 17.3284 7 16.5C7 15.6716 6.32843 15 5.5 15C4.67157 15 4 15.6716 4 16.5C4 17.3284 4.67157 18 5.5 18Z" fill="white"/>
<path d="M15.5 18C16.3284 18 17 17.3284 17 16.5C17 15.6716 16.3284 15 15.5 15C14.6716 15 14 15.6716 14 16.5C14 17.3284 14.6716 18 15.5 18Z" fill="white"/>
</svg>
