<svg width="30" height="28" viewBox="0 0 30 28" fill="none" xmlns="http://www.w3.org/2000/svg">
<path d="M14.3146 0.638979C14.6255 0.122323 15.3745 0.122321 15.6854 0.638977L20.0918 7.96082C20.2035 8.14642 20.3857 8.2788 20.5967 8.32768L28.9219 10.2558C29.5093 10.3918 29.7408 11.1042 29.3455 11.5596L23.7436 18.0128C23.6016 18.1764 23.532 18.3906 23.5508 18.6064L24.2896 27.1199C24.3418 27.7207 23.7358 28.1609 23.1806 27.9257L15.3121 24.5922C15.1126 24.5077 14.8874 24.5077 14.6879 24.5922L6.81945 27.9257C6.26422 28.1609 5.65824 27.7207 5.71037 27.1199L6.44923 18.6064C6.46796 18.3906 6.39837 18.1764 6.25636 18.0128L0.654514 11.5596C0.259227 11.1042 0.49069 10.3918 1.07814 10.2558L9.40326 8.32768C9.6143 8.2788 9.7965 8.14643 9.9082 7.96082L14.3146 0.638979Z" fill="#EBEEF4"/>
</svg>
