<svg width="131" height="132" viewBox="0 0 131 132" fill="none" xmlns="http://www.w3.org/2000/svg">
<g clip-path="url(#clip0_13_2330)">
<path d="M130.96 65.9786C130.96 68.9877 130.758 71.9486 130.363 74.8498L95.6972 40.1903C95.6411 40.128 95.5843 40.0719 95.5252 40.0128H95.5203C91.7123 36.1993 86.7187 34.2928 81.722 34.2928C76.7308 34.2928 71.7293 36.1993 67.9188 40.0128L65.4903 42.4462L63.0569 40.0128C59.2434 36.1993 54.2528 34.2928 49.2537 34.2928C44.2516 34.2928 39.261 36.1993 35.4505 40.0128C27.8271 47.6362 27.8271 60.0007 35.4505 67.624L37.879 70.0525V70.0605L65.4799 97.6644L93.1534 125.341C84.7476 129.267 75.3708 131.459 65.4799 131.459C29.3165 131.459 0 102.141 0 65.9786C0 29.8158 29.3165 0.498688 65.4799 0.498688C101.643 0.498688 130.96 29.8158 130.96 65.9786Z" fill="#EFEFF0"/>
<path d="M130.362 74.8504C127.324 97.2826 112.929 116.104 93.1528 125.341L65.4793 97.665L37.8785 70.0611V70.0531L35.45 67.6246C27.8266 60.0013 27.8266 47.6367 35.45 40.0128C39.2604 36.1998 44.2516 34.2934 49.2538 34.2934C54.2523 34.2934 59.2434 36.1998 63.0569 40.0128L65.4903 42.4468L67.9182 40.0128C71.7287 36.1998 76.7308 34.2934 81.7214 34.2934C86.7181 34.2934 91.7117 36.1998 95.5197 40.0128H95.5252C95.5844 40.0719 95.6405 40.1286 95.6966 40.1902L130.362 74.8504Z" fill="#EFEFF0"/>
<path d="M101.192 55.2211C101.144 55.9236 101.053 56.6219 100.927 57.3154C100.853 57.7447 100.758 58.1698 100.649 58.5949C100.637 58.6558 100.62 58.7205 100.606 58.7815C100.55 58.9809 100.498 59.1761 100.437 59.3755C100.346 59.6792 100.251 59.9787 100.147 60.2775C100.042 60.5769 99.9337 60.8715 99.8123 61.1667C99.7214 61.3875 99.63 61.6046 99.5306 61.8217C99.3354 62.2596 99.1226 62.6889 98.8932 63.1091C98.7804 63.322 98.6591 63.5299 98.5377 63.7379C98.4554 63.8769 98.373 64.016 98.2858 64.1544C98.0303 64.5624 97.7571 64.9656 97.4668 65.3644C97.3186 65.5596 97.1716 65.759 97.0154 65.9499C96.7117 66.3359 96.3867 66.7135 96.0445 67.0818C95.875 67.2636 95.7012 67.4459 95.5237 67.624L93.0952 70.0525L65.4797 97.6638L37.877 70.061V70.0525L35.4485 67.624C27.8245 60 27.8245 47.6361 35.4485 40.0127C39.2601 36.2004 44.2519 34.2928 49.2516 34.2928C54.252 34.2928 59.2438 36.2004 63.0555 40.0127L65.4882 42.4455L67.9167 40.0127C71.7284 36.2004 76.7287 34.2928 81.7199 34.2928C86.716 34.2928 91.712 36.2004 95.5194 40.0127H95.5237C95.5847 40.0731 95.6408 40.1298 95.6969 40.1902C95.9903 40.4909 96.269 40.8007 96.5385 41.1154L96.5733 41.1532C96.6251 41.2136 96.6733 41.2745 96.7252 41.3349C96.8551 41.4911 96.9807 41.6429 97.1021 41.799C97.2283 41.9552 97.3491 42.1113 97.4668 42.2717C97.6095 42.4711 97.7528 42.6712 97.887 42.8748C98.026 43.0743 98.1559 43.278 98.2858 43.4817C98.373 43.6207 98.4554 43.7592 98.5377 43.8982C98.6591 44.1062 98.7804 44.3141 98.8932 44.527C99.1226 44.9478 99.3354 45.3771 99.5306 45.815C99.63 46.0315 99.7214 46.2487 99.8123 46.47C99.9337 46.7646 100.042 47.0598 100.147 47.3586C100.251 47.6581 100.346 47.9569 100.437 48.2563C100.493 48.443 100.545 48.6339 100.594 48.8205C100.615 48.8985 100.637 48.9717 100.654 49.0498C100.762 49.4706 100.853 49.8914 100.927 50.3165C101.014 50.7806 101.078 51.2441 101.127 51.7125C101.153 51.9424 101.175 52.1766 101.192 52.4108C101.256 53.3475 101.256 54.2886 101.192 55.2211Z" fill="#BF2721"/>
<path d="M130.362 74.8503C127.324 97.2826 112.929 116.104 93.153 125.341L65.4795 97.665L93.0969 70.0531L95.5199 67.6246C95.6967 67.4471 95.8742 67.2642 96.0444 67.0818C96.3828 66.7128 96.7079 66.3365 97.0171 65.9493C97.1732 65.7584 97.3214 65.5596 97.4666 65.3632C97.7569 64.965 98.0313 64.5618 98.2868 64.1532C98.3728 64.016 98.4564 63.8763 98.5393 63.7391C98.6607 63.5293 98.7815 63.322 98.8943 63.1097C99.123 62.6846 99.3352 62.2602 99.5316 61.8217C99.631 61.604 99.7231 61.3887 99.814 61.1655C99.9347 60.8721 100.043 60.5763 100.148 60.2781C100.252 59.9799 100.346 59.6786 100.438 59.3749C100.5 59.1755 100.551 58.9821 100.607 58.7803C100.621 58.7211 100.637 58.6565 100.65 58.5949C100.704 58.382 100.753 58.1698 100.801 57.9575C100.849 57.7423 100.893 57.53 100.927 57.3147C100.989 56.9677 101.043 56.6207 101.089 56.2713V56.2688C101.132 55.9188 101.167 55.5693 101.193 55.2198C101.258 54.2892 101.258 53.3481 101.193 52.4096C101.175 52.176 101.153 51.9418 101.126 51.7131C101.115 51.5948 101.102 51.4795 101.089 51.3636C101.067 51.1892 101.043 51.0142 101.016 50.8391C100.989 50.6647 100.957 50.4927 100.927 50.3177C100.849 49.8957 100.758 49.4706 100.656 49.051C100.637 48.976 100.616 48.8979 100.594 48.8199C100.545 48.6345 100.495 48.4436 100.438 48.2551C100.346 47.9569 100.252 47.6581 100.148 47.3598C100.043 47.0586 99.9347 46.7652 99.814 46.4694C99.7231 46.2493 99.631 46.0309 99.5316 45.8162C99.3352 45.3778 99.123 44.9527 98.8943 44.5282C98.7815 44.3154 98.6607 44.1056 98.5393 43.8988C98.4564 43.7592 98.3728 43.6219 98.2868 43.4817C98.1576 43.2774 98.0264 43.0731 97.8886 42.8742C97.7544 42.6699 97.6117 42.4705 97.4666 42.2717C97.3507 42.1107 97.2299 41.9546 97.1037 41.7984C96.9585 41.6106 96.8055 41.4276 96.6493 41.2447L96.539 41.1154C96.3072 40.844 96.0633 40.5775 95.8102 40.3171C95.7156 40.2176 95.6193 40.1127 95.5199 40.0127L95.6967 40.1902L130.362 74.8503Z" fill="#E5E4E4"/>
</g>
<defs>
<clipPath id="clip0_13_2330">
<rect width="131" height="131" fill="white" transform="translate(0 0.5)"/>
</clipPath>
</defs>
</svg>
