<svg width="43" height="66" viewBox="0 0 43 66" fill="none" xmlns="http://www.w3.org/2000/svg">
<path fill-rule="evenodd" clip-rule="evenodd" d="M28.4603 1.4105C31.0707 -0.478263 34.7411 0.699082 35.8011 3.76519L41.101 19.0957C41.1815 19.3286 41.2438 19.5611 41.2888 19.792C42.1438 21.5911 42.3493 23.7111 41.7068 25.7646L31.0472 59.8294C29.7092 64.1052 25.201 66.4732 20.9778 65.1186L5.68435 60.213C1.46117 58.8583 -0.877741 54.2939 0.460239 50.0182L11.1198 15.9534C11.7624 13.8999 13.1362 12.2864 14.8585 11.314C15.0266 11.1515 15.2097 10.9978 15.408 10.8543L28.4603 1.4105ZM27.3823 17.7621C29.9163 18.5749 32.6212 17.1541 33.424 14.5886C34.2268 12.0232 32.8234 9.28455 30.2895 8.47176C27.7556 7.65897 25.0507 9.0798 24.2479 11.6453C23.4451 14.2107 24.8484 16.9494 27.3823 17.7621Z" fill="#FFDC5F"/>
</svg>
