<svg width="25" height="29" viewBox="0 0 25 29" fill="none" xmlns="http://www.w3.org/2000/svg">
<path d="M23.33 8.52941H19.6918V4.54902C19.6918 2.04069 17.4911 0 14.7862 0H14.4796C13.7104 0 12.9822 0.165471 12.3335 0.459394C11.6848 0.165471 10.9565 0 10.1873 0C7.48239 0 5.28177 2.04069 5.28177 4.54902V8.52941H1.33692L0.333496 29H24.3335L23.33 8.52941ZM14.7461 1.63714C16.4367 1.63714 17.8522 2.98131 17.8522 4.54902V8.52941H15.0928V4.54902C15.0928 3.48751 14.6976 2.51055 14.038 1.73579C14.038 1.73579 14.1394 1.63714 14.7461 1.63714ZM12.3335 2.52118C12.9006 3.03744 13.2533 3.75561 13.2533 4.54902V8.52941H11.4137V4.54902C11.4137 3.75561 11.7663 3.03744 12.3335 2.52118ZM7.12134 4.54902C7.12134 2.98131 8.49673 1.70588 10.1873 1.70588C10.3373 1.70588 10.4846 1.7164 10.629 1.73579C9.96931 2.51055 9.5741 3.48751 9.5741 4.54902V8.52941H7.12134V4.54902ZM3.0947 10.2353H5.28177V27.2941H2.25855L3.0947 10.2353ZM7.12134 27.2941V10.2353H9.5741V11.9412H11.4137V10.2353H17.8522V11.9412H19.6918V10.2353H21.5722L22.4084 27.2941H7.12134Z" fill="white"/>
</svg>
