<svg width="101" height="100" viewBox="0 0 101 100" fill="none" xmlns="http://www.w3.org/2000/svg">
<path fill-rule="evenodd" clip-rule="evenodd" d="M71.3583 67.9768H39.5387V67.9757H29.8829L39.1462 49.2551L41.4444 53.9012H50.4123L39.1716 31.1809L20.9647 67.9768H6.98486L39.1704 2.92578L71.3583 67.9768ZM94.2564 67.9768H80.2754L55.0803 17.0545L62.0696 2.92694L94.2564 67.9768Z" fill="#E6E6E6"/>
<path d="M20.5324 81.3762H19.5777V78.7329H19.5789V76.4265H19.5777V74.1999H18.8817C17.5104 74.1999 16.8236 74.6882 16.8236 75.6682C16.8236 76.6874 17.4861 77.1976 18.8136 77.1976C18.9463 77.1976 19.0641 77.1942 19.168 77.1861V77.8625H19.1645L16.4773 81.3762H15.3518L18.1522 77.8625C17.4353 77.8117 16.872 77.5843 16.4623 77.1826C16.0756 76.8063 15.8816 76.3307 15.8816 75.7617C15.8816 75.0229 16.1367 74.448 16.6481 74.0383C17.1606 73.6285 17.8844 73.4219 18.8251 73.4219H20.5324V81.3762Z" fill="#E6E6E6"/>
<path d="M29.9747 80.9884C29.1875 81.4455 28.3875 81.674 27.5703 81.674C26.1193 81.674 24.9615 81.2897 24.0981 80.5209C23.252 79.7683 22.8284 78.7779 22.8284 77.5474C22.8284 76.3492 23.2901 75.3576 24.2136 74.5692C25.1139 73.8051 26.2186 73.4219 27.5253 73.4219C28.4868 73.4219 29.3029 73.647 29.9747 74.0971V75.1314C29.2879 74.5069 28.436 74.1941 27.4156 74.1941C26.401 74.1941 25.5445 74.5035 24.8473 75.121C24.127 75.7605 23.7668 76.5697 23.7668 77.5474C23.7668 78.5378 24.127 79.3481 24.8473 79.9795C25.5445 80.5878 26.401 80.8914 27.4156 80.8914C28.3887 80.8914 29.2429 80.5786 29.9747 79.953V80.9884Z" fill="#E6E6E6"/>
<path d="M40.9963 77.5474C40.9963 78.6705 40.5403 79.6402 39.6307 80.454C38.72 81.2689 37.6326 81.674 36.3675 81.674C35.1035 81.674 34.015 81.2689 33.1008 80.454C32.1866 79.6402 31.7295 78.6705 31.7295 77.5474C31.7295 76.4254 32.1866 75.4558 33.1008 74.642C34.015 73.8282 35.1035 73.4219 36.3675 73.4219C37.6326 73.4219 38.72 73.8282 39.6307 74.642C40.5403 75.4558 40.9963 76.4254 40.9963 77.5474ZM40.0186 77.5474C40.0186 76.6136 39.6677 75.8252 38.9635 75.1799C38.2606 74.537 37.396 74.2149 36.3675 74.2149C35.3332 74.2149 34.464 74.5369 33.7611 75.1787C33.0569 75.8205 32.706 76.6101 32.706 77.5474C32.706 78.4858 33.0569 79.2754 33.7611 79.9172C34.464 80.5602 35.3332 80.881 36.3675 80.881C37.396 80.881 38.2606 80.5601 38.9635 79.916C39.6677 79.2708 40.0186 78.4824 40.0186 77.5474Z" fill="#E6E6E6"/>
<path d="M51.3023 77.6005C51.3023 76.7209 51.0033 76.0122 50.4054 75.4731C49.7694 74.8994 48.8909 74.612 47.7678 74.612H47.4169V73.4219H46.4715V77.0707H46.4634V79.7867H46.1471C44.411 79.7867 43.5418 79.0584 43.5418 77.6005C43.5418 76.258 44.2667 75.5296 45.7131 75.4119V74.6258C44.7804 74.687 44.0359 74.9687 43.4784 75.4731C42.8839 76.0122 42.5884 76.7209 42.5884 77.6005C42.5884 78.4731 42.8839 79.1772 43.4784 79.714C44.1132 80.2808 44.9894 80.5636 46.1125 80.5636H46.4634V81.5251H47.4169V80.5636H47.4192V79.7867H47.4169V75.3957H47.7331C49.4692 75.3957 50.3361 76.1299 50.3361 77.6005C50.3361 78.9279 49.617 79.6505 48.1776 79.7683V80.5509C49.1068 80.4885 49.849 80.2092 50.4054 79.714C51.0033 79.1772 51.3023 78.4731 51.3023 77.6005Z" fill="#E6E6E6"/>
<path d="M60.5242 81.5251H59.5246L58.4591 79.3412H55.4372L55.8054 78.584H58.1048L56.4506 75.1961L53.3802 81.5251H52.3794L56.4483 73.4219L60.5242 81.5251Z" fill="#E6E6E6"/>
<path d="M68.8065 81.3762H67.5194L63.7426 77.6097L63.7368 77.6074V76.8063L67.4271 73.4219H68.6668L64.5148 77.1976L68.8065 81.3762ZM63.5279 81.3762H62.5859V73.4219H63.5279V81.3762Z" fill="#E6E6E6"/>
<path d="M75.9649 74.1999H73.7278V81.3762H72.7744V74.1999H70.5374V73.4219H75.9649V74.1999Z" fill="#E6E6E6"/>
<path d="M84.6731 73.4219L80.3964 81.3762H79.3714L80.812 78.7086L77.7173 73.4219H78.7516L81.2806 77.8325L83.6493 73.4219H84.6731Z" fill="#E6E6E6"/>
<path d="M91.7075 75.6358C91.7075 76.3503 91.4512 76.9079 90.9352 77.305C90.4193 77.7044 89.7024 77.9029 88.7859 77.9029H88.734V77.1445C89.3838 77.1376 89.8906 77.0072 90.26 76.7567C90.6386 76.4981 90.829 76.1276 90.829 75.6462C90.829 74.6685 90.0834 74.1803 88.592 74.1803H87.9756V81.3762H87.0337V73.4219H88.592C90.6697 73.4219 91.7075 74.1606 91.7075 75.6358Z" fill="#E6E6E6"/>
<path d="M9.19582 81.5252H5.80793L7.02341 79.1092L5.12226 75.1961L2.0518 81.5252H1.05103L5.11995 73.4219L7.5013 78.1569L9.88264 73.4219L13.9527 81.5252H12.9519L9.88264 75.1961L7.98033 79.1092L9.19582 81.5252ZM7.81872 80.7483L7.5013 80.095L7.18385 80.7483H7.81872Z" fill="#E6E6E6"/>
<path d="M100.163 81.5251H99.1633L98.099 79.3412H95.0758L95.4441 78.584H97.7435L96.0893 75.1961L93.0189 81.5251H92.0181L96.087 73.4219L100.163 81.5251Z" fill="#E6E6E6"/>
</svg>
