<svg width="44" height="44" viewBox="0 0 44 44" fill="none" xmlns="http://www.w3.org/2000/svg">
<rect width="44" height="44" rx="16" fill="#E85921"/>
<g clip-path="url(#clip0_1151_2639)">
<path d="M20.6028 9.26177C20.6028 9.63163 20.5989 10.0015 20.6054 10.3714C20.6074 10.4791 20.5806 10.5183 20.4676 10.5333C18.9731 10.7324 17.5655 11.1979 16.2636 11.9585C13.7703 13.4151 12.0381 15.5093 11.0843 18.2345C10.5579 19.7378 10.3787 21.2916 10.5063 22.8788C10.7094 25.4055 11.643 27.6345 13.3109 29.5383C15.1606 31.6501 17.4865 32.9327 20.2655 33.3604C22.6168 33.7221 24.8735 33.3773 27.0174 32.3481C28.6063 31.5855 29.9463 30.504 31.0422 29.1221C32.2774 27.5643 33.0519 25.8025 33.386 23.8448C33.4043 23.7377 33.4245 23.6297 33.4291 23.5216C33.4333 23.4194 33.4797 23.3982 33.5727 23.3985C34.3397 23.4015 35.1071 23.4025 35.8741 23.3979C35.9923 23.3972 36.0014 23.4393 35.9897 23.5415C35.8169 25.067 35.4078 26.5262 34.7541 27.9149C33.7896 29.9637 32.4106 31.6854 30.6193 33.0692C28.7875 34.4843 26.7288 35.3997 24.4434 35.7875C21.5618 36.2762 18.7831 35.9259 16.132 34.6936C13.4013 33.424 11.2955 31.4608 9.80366 28.8472C8.8982 27.261 8.33103 25.5537 8.11193 23.742C7.74753 20.7269 8.26866 17.8695 9.7377 15.2028C11.1049 12.7205 13.0575 10.8254 15.5652 9.50661C17.0973 8.70061 18.7312 8.21747 20.449 8.01115C20.5734 7.99614 20.6084 8.02552 20.6058 8.15218C20.5973 8.52172 20.6028 8.89191 20.6028 9.26177Z" fill="white"/>
<path d="M20.4519 28.9252C19.44 28.9252 18.4281 28.9252 17.4166 28.9252C17.3676 28.9252 17.3186 28.9255 17.2696 28.9242C16.853 28.9148 16.6747 28.6879 16.7756 28.2818C16.8429 28.0115 16.981 27.768 17.0891 27.5133C17.189 27.2783 17.2941 27.0455 17.3927 26.8102C17.5563 26.4194 17.7979 26.2546 18.2231 26.2546C19.7897 26.2539 21.3564 26.2536 22.9234 26.2549C23.2849 26.2552 23.6398 26.2219 23.9817 26.0946C24.1211 26.0427 24.2501 25.9732 24.3598 25.8743C24.6729 25.5922 24.7013 25.1877 24.4398 24.7973C24.2194 24.4682 23.9206 24.2231 23.5735 24.0462C22.8424 23.6737 22.1012 23.3211 21.3669 22.9545C20.4137 22.4786 19.4475 22.0274 18.5277 21.4888C17.7349 21.0246 17.1243 20.3926 16.8481 19.4896C16.422 18.0973 16.9395 16.6169 18.1454 15.7564C18.8908 15.2246 19.7208 14.9598 20.6358 14.9644C22.5887 14.9742 24.5417 14.986 26.4946 14.9984C26.603 14.999 26.7121 15.0075 26.8198 15.0212C27.2038 15.0702 27.3593 15.3206 27.2208 15.6829C27.1356 15.9059 27.0295 16.121 26.9338 16.3401C26.8097 16.6237 26.686 16.9077 26.5635 17.1921C26.4309 17.4996 26.1903 17.6517 25.8631 17.6654C25.6241 17.6756 25.3844 17.67 25.1451 17.6703C23.7851 17.6707 22.4251 17.6707 21.0652 17.6703C20.7759 17.6703 20.4888 17.6909 20.2087 17.7676C20.1042 17.7963 19.9994 17.8296 19.9024 17.8766C19.3995 18.1202 19.2618 18.5357 19.5347 19.0212C19.7956 19.4854 20.2214 19.771 20.6785 20.0096C21.7002 20.5431 22.7683 20.9795 23.8034 21.4852C24.7722 21.9585 25.6767 22.521 26.4251 23.3097C27.7387 24.6938 27.4758 26.6254 26.3176 27.7703C25.5134 28.5655 24.5329 28.951 23.4054 28.9585C22.4209 28.9651 21.4361 28.9598 20.4516 28.9598C20.4519 28.9484 20.4519 28.9366 20.4519 28.9252Z" fill="white"/>
<path d="M34.7208 20.5324C34.3401 20.5324 33.9591 20.5291 33.5783 20.5343C33.4761 20.5357 33.4412 20.5056 33.4268 20.4005C33.1362 18.2763 32.3225 16.3709 30.9668 14.7125C29.1399 12.478 26.7931 11.1085 23.9498 10.5944C23.8214 10.5712 23.6918 10.5546 23.5625 10.5382C23.4975 10.5301 23.4711 10.502 23.4714 10.4328C23.4734 9.65487 23.4743 8.87727 23.4711 8.09935C23.4704 7.95963 23.5625 8.00566 23.6272 8.01349C24.2374 8.08727 24.8431 8.18814 25.439 8.34092C28.5952 9.15083 31.1787 10.8418 33.1721 13.4146C34.696 15.3814 35.6152 17.6107 35.9518 20.0777C35.9659 20.1798 35.9705 20.2843 35.9923 20.3845C36.0178 20.5011 35.9816 20.5363 35.863 20.5343C35.4826 20.5285 35.1016 20.5324 34.7208 20.5324Z" fill="white"/>
</g>
<defs>
<clipPath id="clip0_1151_2639">
<rect width="28" height="28" fill="white" transform="translate(8 8)"/>
</clipPath>
</defs>
</svg>
