<svg width="26" height="25" viewBox="0 0 26 25" fill="none" xmlns="http://www.w3.org/2000/svg">
<path d="M13.0047 1.12393C13.0153 1.09205 13.0293 1.07919 13.0397 1.07209C13.0533 1.06289 13.0741 1.05542 13.0996 1.05542C13.1251 1.05542 13.1459 1.06289 13.1595 1.07209C13.17 1.07919 13.1839 1.09205 13.1945 1.12393L15.7673 8.87848C15.9165 9.32841 16.3372 9.6321 16.8113 9.6321H25.1098C25.1441 9.6321 25.1607 9.64157 25.1705 9.64923C25.1834 9.6593 25.1971 9.67697 25.205 9.70167C25.2129 9.72638 25.212 9.7487 25.2073 9.76441C25.2037 9.77636 25.1957 9.79369 25.1677 9.81358L18.4758 14.5752C18.0822 14.8552 17.9174 15.3593 18.0695 15.8178L20.6307 23.5374C20.6413 23.5696 20.6377 23.5883 20.6335 23.6002C20.6281 23.6156 20.6158 23.6341 20.5952 23.6494C20.5745 23.6646 20.5533 23.671 20.5369 23.6716C20.5243 23.6721 20.5054 23.67 20.4778 23.6504L13.7373 18.8543C13.3556 18.5827 12.8436 18.5827 12.4619 18.8543L5.72146 23.6504C5.69387 23.67 5.67493 23.6721 5.66235 23.6716C5.64596 23.6709 5.6247 23.6646 5.60405 23.6494C5.58341 23.6341 5.57111 23.6156 5.56568 23.6002C5.56152 23.5883 5.5579 23.5696 5.56857 23.5374L8.12971 15.8178C8.28183 15.3593 8.117 14.8552 7.7234 14.5752L1.03149 9.81358C1.00354 9.79369 0.995501 9.77636 0.991921 9.76441C0.987214 9.7487 0.986313 9.72637 0.994205 9.70167C1.0021 9.67697 1.01577 9.6593 1.02872 9.64923C1.03856 9.64157 1.05516 9.6321 1.08946 9.6321H9.38793C9.86197 9.6321 10.2827 9.32841 10.432 8.87848L13.0047 1.12393Z" stroke="#C02425"/>
</svg>
