<svg width="24" height="24" viewBox="0 0 24 24" fill="none" xmlns="http://www.w3.org/2000/svg">
<path d="M20.8988 8.86121L18.0863 4.92375C17.9738 4.7775 17.8051 4.6875 17.6251 4.6875H6.37518C6.19518 4.6875 6.02644 4.7775 5.91394 4.92375L3.10146 8.86121C3.06771 8.96246 3.03396 9.06371 3.00021 9.16496C2.98897 10.4137 4.00145 11.4374 5.25019 11.4374C5.92519 11.4374 6.52143 11.1449 6.93768 10.6724C7.35392 11.1449 7.95017 11.4374 8.62516 11.4374C9.30015 11.4374 9.8964 11.1449 10.3126 10.6724C10.7289 11.1449 11.3251 11.4374 12.0001 11.4374C12.6751 11.4374 13.2714 11.1449 13.6876 10.6724C14.1039 11.1449 14.7001 11.4374 15.3751 11.4374C16.0501 11.4374 16.6463 11.1449 17.0626 10.6724C17.4788 11.1449 18.0751 11.4374 18.7501 11.4374C19.9988 11.4374 21.0113 10.4137 21 9.16496C20.9663 9.06371 20.9325 8.96246 20.8988 8.86121Z" fill="white"/>
<path d="M18.75 12.5619C18.1526 12.5619 17.571 12.4022 17.0625 12.1074C16.0455 12.6958 14.7045 12.6958 13.6875 12.1074C12.6705 12.6958 11.3284 12.6958 10.3126 12.1074C9.2967 12.6958 7.95346 12.6958 6.93759 12.1074C6.09273 12.5979 5.04649 12.6609 4.12512 12.3425V18.1869C4.12512 18.8079 4.62912 19.3119 5.25011 19.3119H14.25V13.6869H17.625V19.3119H18.75C19.371 19.3119 19.875 18.8079 19.875 18.1869V12.356C19.5172 12.4832 19.1403 12.5619 18.75 12.5619ZM10.8751 17.0619H6.3751V13.6869H10.8751V17.0619Z" fill="white"/>
</svg>
