<svg width="56" height="42" viewBox="0 0 56 42" fill="none" xmlns="http://www.w3.org/2000/svg">
<path d="M0.0834961 7.375C0.0834961 5.55164 0.807824 3.80295 2.09714 2.51364C3.38645 1.22433 5.13513 0.5 6.9585 0.5H48.2085C50.0319 0.5 51.7805 1.22433 53.0699 2.51364C54.3592 3.80295 55.0835 5.55164 55.0835 7.375V10.8125H0.0834961V7.375Z" fill="#887C7C"/>
<path fill-rule="evenodd" clip-rule="evenodd" d="M0.0834961 17.6875V34.875C0.0834961 36.6984 0.807824 38.447 2.09714 39.7364C3.38645 41.0257 5.13513 41.75 6.9585 41.75H48.2085C50.0319 41.75 51.7805 41.0257 53.0699 39.7364C54.3592 38.447 55.0835 36.6984 55.0835 34.875V17.6875H0.0834961ZM10.396 24.5625C9.48431 24.5625 8.60997 24.9247 7.96532 25.5693C7.32066 26.214 6.9585 27.0883 6.9585 28V31.4375C6.9585 32.3492 7.32066 33.2235 7.96532 33.8682C8.60997 34.5128 9.48431 34.875 10.396 34.875H13.8335C14.7452 34.875 15.6195 34.5128 16.2642 33.8682C16.9088 33.2235 17.271 32.3492 17.271 31.4375V28C17.271 27.0883 16.9088 26.214 16.2642 25.5693C15.6195 24.9247 14.7452 24.5625 13.8335 24.5625H10.396Z" fill="#887C7C"/>
</svg>
