<svg width="14" height="20" viewBox="0 0 14 20" fill="none" xmlns="http://www.w3.org/2000/svg">
<path fill-rule="evenodd" clip-rule="evenodd" d="M7.08406 15.2819L13.4084 19.2433V3.3977C13.4084 2.69728 13.1419 2.02555 12.6674 1.53028C12.193 1.03501 11.5496 0.756775 10.8787 0.756775H3.28946C2.61854 0.756775 1.97509 1.03501 1.50068 1.53028C1.02626 2.02555 0.759735 2.69728 0.759735 3.3977V19.2433L7.08406 15.2819ZM2.0246 16.9113L7.08406 13.7422L12.1435 16.9113V3.3977C12.1435 3.04749 12.0103 2.71163 11.773 2.46399C11.5358 2.21636 11.2141 2.07724 10.8787 2.07724H3.28946C2.954 2.07724 2.63228 2.21636 2.39507 2.46399C2.15786 2.71163 2.0246 3.04749 2.0246 3.3977V16.9113Z" fill="#E85921"/>
</svg>
