<svg width="11" height="13" viewBox="0 0 11 13" fill="none" xmlns="http://www.w3.org/2000/svg">
<path d="M5.49996 11.3371C3.06096 11.3371 1.08363 9.36011 1.08363 6.92077C1.08363 4.48177 3.06096 2.50477 5.49996 2.50477C7.93896 2.50477 9.9163 4.48177 9.9163 6.92077C9.9163 9.36011 7.93896 11.3371 5.49996 11.3371ZM5.49996 1.82544C2.6873 1.82544 0.404297 4.10811 0.404297 6.92077C0.404297 9.73377 2.6873 12.0168 5.49996 12.0168C8.31263 12.0168 10.5956 9.73377 10.5956 6.92077C10.5956 4.10811 8.31263 1.82544 5.49996 1.82544Z" fill="#666666"/>
<path d="M9.07401 8.02117C8.60167 9.54984 7.18201 10.6575 5.50034 10.6575C3.43501 10.6575 1.76367 8.98617 1.76367 6.9205C1.76367 4.85517 3.43501 3.18384 5.50034 3.18384V6.9205L9.07401 8.02117Z" fill="#666666"/>
<path d="M6.30753 1.21649L5.97553 2.21249H5.02486L4.69286 1.21649C4.65453 1.10182 4.73986 0.983154 4.86086 0.983154H6.13953C6.2602 0.983154 6.34586 1.10182 6.30753 1.21649Z" fill="#666666"/>
</svg>
