<svg width="131" height="131" viewBox="0 0 131 131" fill="none" xmlns="http://www.w3.org/2000/svg">
<g clip-path="url(#clip0_13_12817)">
<path d="M130.885 67.7147C129.729 102.18 101.936 129.896 67.4377 130.91H64.3632L33.1143 99.6506C32.9725 99.5418 32.8417 99.4104 32.7329 99.2692C32.2965 98.7564 32.0459 98.1023 32.0459 97.3939C32.0459 96.3573 32.5801 95.4636 33.387 94.9618C33.5391 94.853 33.714 94.7656 33.8888 94.6898C33.9542 94.6678 34.019 94.6354 34.085 94.6134L34.1498 94.592C34.2812 94.5584 34.412 94.526 34.5428 94.504C34.6192 94.4936 34.6956 94.471 34.7824 94.471C34.8588 94.4606 34.9352 94.4606 35.0226 94.4606H36.8973V31.0901L36.9089 30.9709L36.9199 30.9159L36.9523 30.8071C36.9853 30.7197 37.0287 30.6433 37.0941 30.5779L37.1051 30.5669L37.1161 30.5449L37.1375 30.5345L37.2029 30.4685L37.3123 30.392L37.3777 30.3603L37.5305 30.3156H37.5739L37.7371 30.2943L37.8031 30.3059H37.8465L37.9657 30.3383L38.0421 30.3603L38.1081 30.392L38.1735 30.4361L38.2389 30.4911L38.2609 30.5015L38.2713 30.5125L40.7909 32.8786L43.2761 30.5449L43.3856 30.4471L43.4179 30.4361L43.5487 30.3603L43.6906 30.3156H43.734L43.8978 30.2943L44.0066 30.3156H44.0506L44.2034 30.3603L44.3232 30.4251L44.3886 30.4795L44.432 30.5125L44.4644 30.5449L46.9509 32.8889L49.4368 30.5449L49.5456 30.4471L49.578 30.4361L49.7088 30.3603L49.8616 30.3156H49.9056L50.0358 30.2943H50.0584L50.1782 30.3156H50.2216L50.3634 30.3603L50.4942 30.4361L50.5162 30.4471L50.603 30.5125L53.1115 32.8889L55.5968 30.5449L55.6842 30.4795L55.7496 30.4251L55.8694 30.3603L56.0222 30.3156H56.0663L56.1971 30.2943H56.2185L56.3383 30.3156H56.3823L56.5241 30.3603L56.6439 30.4251L56.7203 30.4795L56.7527 30.5125H56.7637L56.7961 30.5449L59.282 32.8786L61.7685 30.5449L61.8779 30.4471L61.8993 30.4361L62.0301 30.3603L62.1829 30.3156H62.2263L62.3571 30.2943H62.3791L62.4989 30.3156H62.5423L62.6951 30.3603L62.8259 30.4361L62.8473 30.4471L62.9237 30.5125L62.9567 30.5449L65.4432 32.8889L67.9285 30.5449L68.0049 30.4795L68.0703 30.4251L68.1907 30.3603L68.3435 30.3156H68.3869L68.5177 30.2943H68.5391L68.6589 30.3156H68.7029L68.8558 30.3603L68.986 30.4361L69.0086 30.4471L69.085 30.5125L69.1168 30.5449L71.6033 32.8786L74.0892 30.5449L74.1326 30.5125L74.1656 30.4795L74.2304 30.4251L74.3508 30.3603L74.5036 30.3156H74.547L74.7108 30.2943L74.8196 30.3156H74.8636L75.0164 30.3603L75.1356 30.4251L75.201 30.4795L75.245 30.5125L75.2774 30.5449L77.7639 32.8889L80.2492 30.5449L80.3586 30.4471L80.3806 30.4361L80.5114 30.3603L80.6642 30.3156H80.7076L80.8714 30.2943L80.9796 30.3156H81.0236L81.1764 30.3603L81.3072 30.4361L81.3293 30.4471L81.4057 30.5125L81.438 30.5449L83.9239 32.8889L86.4098 30.5449L86.4539 30.5125L86.4862 30.4795L86.5627 30.4251L86.6825 30.3603L86.8243 30.3156H86.8677L87.0315 30.2943L87.1409 30.3156H87.1843L87.3365 30.3603L87.4679 30.4361L87.4893 30.4471L87.5657 30.5125L87.5987 30.5449L90.0956 32.8786L92.6029 30.5125L92.6249 30.5015L92.6359 30.4911L92.7123 30.4361L92.7771 30.392L92.8431 30.3603L92.9085 30.3383L93.0277 30.3059H93.0717L93.1921 30.2943L93.3009 30.3156H93.3443L93.4971 30.3603L93.5619 30.392L93.6829 30.4685L93.7477 30.5345L93.7697 30.5449L93.7807 30.5669L93.7911 30.5779L93.8785 30.7087L130.885 67.7147Z" fill="#E6E8E8"/>
<path d="M130.915 66.3185V67.747L130.882 67.714C130.904 67.2556 130.915 66.788 130.915 66.3185Z" fill="#E6E8E8"/>
<path d="M0.0110022 64.6293V66.3193C0 66.0351 0 65.7521 0 65.4685C0 65.1849 0 64.9123 0.0110022 64.6293Z" fill="#BF2721"/>
<path d="M130.927 65.4685C130.927 65.7521 130.927 66.0351 130.916 66.3193V64.6293C130.927 64.9123 130.927 65.1849 130.927 65.4685Z" fill="#BF2721"/>
<path d="M41.3894 34.5356L41.3564 34.557L41.28 34.6114L41.2696 34.6334L41.2586 34.6444L41.1058 34.7208L41.041 34.7428L40.975 34.7526L40.8985 34.7642L40.8221 34.7752L40.7353 34.7642L40.6589 34.7526L40.5281 34.7208L40.3753 34.6444L40.3429 34.623V34.6114L40.2775 34.557L40.2445 34.5356L38.5221 32.911L37.192 31.6567C37.0282 31.5039 36.9414 31.2967 36.9414 31.0895L36.9518 30.9703L36.9628 30.9153L36.9958 30.8065C37.0282 30.7191 37.0722 30.6427 37.137 30.5773L37.148 30.5663L37.159 30.5449L37.1804 30.5339L37.2464 30.4685L37.3552 30.392L37.4206 30.3597L37.5734 30.3156L37.7366 30.2943L37.8026 30.3053H37.846L37.9652 30.3376L38.0416 30.3597L38.1076 30.392L38.173 30.4354L38.2384 30.4905L38.2605 30.5008L38.2708 30.5119L40.7904 32.8779L40.8118 32.8999L41.3564 33.4122C41.673 33.7178 41.684 34.208 41.3894 34.5356Z" fill="#BF2721"/>
<path d="M44.4311 31.6567L43.8969 32.1695L41.389 34.5356L41.3566 34.557L41.2802 34.6114L41.2692 34.6334L41.2588 34.6444L41.1714 34.6878L41.106 34.7208L41.0406 34.7428L40.9752 34.7526L40.8988 34.7642L40.8224 34.7752L40.735 34.7642L40.6586 34.7526L40.5278 34.7208L40.4624 34.6878L40.375 34.6444L40.3432 34.623V34.6114L40.2772 34.557L40.2442 34.5356C39.9392 34.208 39.9612 33.7178 40.2772 33.4122L40.8114 32.8999L43.3193 30.5449L43.4281 30.4471L43.4611 30.4354L43.5919 30.3597L43.7331 30.3156L43.8969 30.2943L44.0063 30.3156H44.0497L44.2025 30.3597L44.3223 30.4244L44.3884 30.4788L44.4311 30.5119L44.4642 30.5449L44.573 30.6861C44.7588 30.9917 44.7038 31.4061 44.4311 31.6567Z" fill="#BF2721"/>
<path d="M47.55 34.5246L47.495 34.5796L47.4082 34.6444L47.3208 34.6884C47.2664 34.7208 47.201 34.7428 47.1356 34.7532L47.0591 34.7648L46.9827 34.7752L46.8959 34.7648L46.8195 34.7532C46.7535 34.7428 46.6881 34.7208 46.6337 34.6884L46.5463 34.6444L46.4595 34.5796L46.4051 34.5362L46.3935 34.5246L43.8966 32.1695L43.352 31.6573C43.036 31.3627 43.025 30.8615 43.319 30.5449L43.4284 30.4471L43.4614 30.4361L43.5916 30.3603L43.7334 30.3156L43.8966 30.2943L44.006 30.3156H44.0494L44.2022 30.3603L44.3226 30.4251L44.388 30.4795L44.4308 30.5125L44.4638 30.5449L46.9503 32.8889L46.9717 32.911L47.517 33.4128C47.8336 33.7068 47.844 34.208 47.55 34.5246Z" fill="#BF2721"/>
<path d="M50.6028 31.6567L50.0576 32.1695L47.5607 34.524H47.5503L47.4953 34.579L47.4079 34.6444L47.3211 34.6878C47.2667 34.7208 47.2013 34.7428 47.1359 34.7526L47.0595 34.7642L46.9831 34.7752L46.8963 34.7642L46.8199 34.7526C46.7539 34.7428 46.6885 34.7208 46.6341 34.6878L46.5467 34.6444L46.4599 34.579L46.4055 34.5356L46.3938 34.524L46.3725 34.4922C46.1108 34.1756 46.1328 33.6958 46.4379 33.4122L46.9721 32.911L49.48 30.5449L49.5894 30.4471L49.6218 30.4354L49.752 30.3597L49.8834 30.3156H49.9048L50.0356 30.2943H50.0576L50.178 30.3156H50.2214L50.3626 30.3597L50.4934 30.4354L50.5154 30.4471L50.6248 30.5449L50.7226 30.6647C50.9194 30.9807 50.8754 31.3951 50.6028 31.6567Z" fill="#BF2721"/>
<path d="M53.7097 34.5246L53.6767 34.5576L53.5789 34.6444L53.4695 34.6988L53.3827 34.7318L53.2953 34.7532L53.2189 34.7648L53.1425 34.7752L53.0557 34.7648L52.9793 34.7532L52.8485 34.7208L52.7831 34.6884L52.7067 34.6444L52.6743 34.623L52.5979 34.5576L52.5649 34.5362L50.057 32.1695L49.5124 31.6573C49.1958 31.3627 49.1854 30.8615 49.4794 30.5449L49.5888 30.4471L49.6212 30.4361L49.7514 30.3603L49.8828 30.3156H49.9042L50.035 30.2943H50.057L50.1774 30.3156H50.2208L50.362 30.3603L50.4928 30.4361L50.5148 30.4471L50.6022 30.5125L53.1107 32.8889L53.1321 32.911L53.6767 33.4128C53.9933 33.7068 54.0154 34.208 53.7097 34.5246Z" fill="#BF2721"/>
<path d="M56.7635 31.6567L56.2177 32.1695L53.7208 34.524H53.7104L53.6774 34.557L53.5796 34.6444L53.4702 34.6988L53.3834 34.7312L53.296 34.7526L53.2196 34.7642L53.1432 34.7752L53.0564 34.7642L52.98 34.7526L52.8492 34.7208L52.7838 34.6878L52.7074 34.6444L52.675 34.623L52.5986 34.557L52.5655 34.5356C52.2709 34.208 52.2819 33.7178 52.5986 33.4122L53.1328 32.911L55.6401 30.5449L55.7275 30.4788L55.7929 30.4244L55.9127 30.3597L56.0435 30.3156H56.0655L56.1963 30.2943H56.2177L56.3381 30.3156H56.3821L56.5233 30.3597L56.6437 30.4244L56.7201 30.4788L56.7519 30.5119H56.7635L56.7959 30.5449L56.9047 30.6861C57.0795 31.0027 57.0355 31.4061 56.7635 31.6567Z" fill="#BF2721"/>
<path d="M59.8713 34.5356L59.8383 34.557L59.7729 34.6114V34.623L59.7399 34.6444L59.6531 34.6878L59.5877 34.7208L59.5223 34.7428L59.4569 34.7526L59.3805 34.7642L59.3041 34.7752L59.2277 34.7642L59.1409 34.7526L59.0101 34.7208L58.9551 34.6878L58.8677 34.6444L58.8353 34.623L58.7589 34.557L58.7265 34.5356L56.2179 32.1695L55.6837 31.6567C55.3567 31.3627 55.3463 30.8609 55.6403 30.5449L55.7277 30.4788L55.7931 30.4244L55.9129 30.3597L56.0437 30.3156H56.0658L56.1966 30.2943H56.2179L56.3384 30.3156H56.3824L56.5236 30.3597L56.644 30.4244L56.7204 30.4788L56.7522 30.5119H56.7638L56.7962 30.5449L59.2821 32.8779L59.3041 32.8999L59.8383 33.4122C60.1549 33.7178 60.1763 34.208 59.8713 34.5356Z" fill="#BF2721"/>
<path d="M62.9234 31.6567L62.3891 32.1695H62.3781L59.8709 34.5356L59.8378 34.557L59.7724 34.6114V34.623L59.7394 34.6444L59.652 34.6878L59.5872 34.7208L59.5218 34.7428L59.4564 34.7526L59.38 34.7642L59.3036 34.7752L59.2272 34.7642L59.1404 34.7526L59.0096 34.7208L58.9546 34.6878L58.8672 34.6444L58.8348 34.623L58.7584 34.557L58.726 34.5356C58.4308 34.208 58.4424 33.7178 58.7584 33.4122L59.3036 32.8999L61.8115 30.5449L61.9203 30.4471L61.9423 30.4354L62.0725 30.3597L62.2253 30.3156L62.3561 30.2943H62.3781L62.4986 30.3156H62.542L62.6948 30.3597L62.8256 30.4354L62.847 30.4471L62.9234 30.5119L62.9564 30.5449L63.0652 30.6861C63.24 31.0027 63.196 31.4061 62.9234 31.6567Z" fill="#BF2721"/>
<path d="M66.0412 34.5246L66.0088 34.5576L65.9764 34.5796L65.889 34.6444L65.8126 34.6884C65.7472 34.7208 65.6818 34.7428 65.6164 34.7532L65.54 34.7648L65.4635 34.7752L65.3761 34.7648L65.2997 34.7532C65.2349 34.7428 65.1799 34.7208 65.1145 34.6884L65.0381 34.6444L64.9513 34.5796L64.8853 34.5362V34.5246L62.3884 32.1695H62.378L61.8438 31.6573C61.5272 31.3627 61.5058 30.8615 61.8108 30.5449L61.9202 30.4471L61.9416 30.4361L62.0724 30.3603L62.2252 30.3156L62.356 30.2943H62.378L62.4978 30.3156H62.5412L62.694 30.3603L62.8248 30.4361L62.8462 30.4471L62.9226 30.5125L62.9556 30.5449L65.4422 32.8889L65.4635 32.911L65.9978 33.4128C66.3138 33.7068 66.3352 34.208 66.0412 34.5246Z" fill="#BF2721"/>
<path d="M69.0848 31.6567L68.5506 32.1695H68.539L66.0421 34.524L66.0103 34.557L65.9773 34.579L65.8899 34.6444L65.8135 34.6878C65.7481 34.7208 65.6833 34.7428 65.6173 34.7526L65.5409 34.7642L65.4645 34.7752L65.3777 34.7642L65.3013 34.7526C65.2359 34.7428 65.1808 34.7208 65.116 34.6878L65.0396 34.6444L64.9522 34.579L64.8868 34.5356V34.524C64.5922 34.208 64.6032 33.7068 64.9198 33.4122L65.4645 32.911L67.9724 30.5449L68.0488 30.4788L68.1142 30.4244L68.234 30.3597L68.3868 30.3156L68.5176 30.2943H68.539L68.6594 30.3156H68.7028L68.8556 30.3597L68.9864 30.4354L69.0084 30.4471L69.0848 30.5119L69.1172 30.5449L69.226 30.6861C69.4008 31.0027 69.3568 31.4061 69.0848 31.6567Z" fill="#BF2721"/>
<path d="M72.2019 34.5356L72.1689 34.557L72.0925 34.6114V34.623L72.0711 34.6444L71.9513 34.6988L71.8639 34.7312L71.7765 34.7526L71.6243 34.7752L71.5479 34.7642L71.4605 34.7526L71.4171 34.7428L71.3407 34.7208L71.1879 34.6444L71.1549 34.623V34.6114L71.1225 34.59L71.0901 34.557L71.0571 34.5356H71.0461L68.5492 32.1695H68.5382L68.004 31.6567C67.6873 31.3627 67.666 30.8609 67.971 30.5449L68.0474 30.4788L68.1134 30.4244L68.2332 30.3597L68.386 30.3156L68.5168 30.2943H68.5382L68.658 30.3156H68.7014L68.8542 30.3597L68.985 30.4354L69.007 30.4471L69.0834 30.5119L69.1158 30.5449L71.6023 32.8779L71.6243 32.8999L72.1689 33.4122C72.4855 33.7178 72.4959 34.208 72.2019 34.5356Z" fill="#BF2721"/>
<path d="M75.2447 31.6567L74.7104 32.1695L72.2025 34.5356L72.1701 34.557L72.0937 34.6114V34.623L72.0723 34.6444L71.9519 34.6988L71.8651 34.7312L71.7771 34.7526L71.6249 34.7752L71.5485 34.7642L71.4617 34.7526L71.4177 34.7428L71.3413 34.7208L71.2759 34.6878L71.1885 34.6444L71.1561 34.623V34.6114L71.1237 34.59L71.0907 34.557L71.0577 34.5356H71.0473L71.0143 34.4922C70.7521 34.1652 70.7747 33.7068 71.0797 33.4122L71.6249 32.8999L74.1328 30.5449L74.1762 30.5119L74.2092 30.4788L74.274 30.4244L74.3944 30.3597L74.5466 30.3156L74.7104 30.2943L74.8199 30.3156H74.8633L75.0161 30.3597L75.1353 30.4244L75.2013 30.4788L75.2447 30.5119L75.2777 30.5449L75.3865 30.6861C75.5613 31.0027 75.5173 31.4061 75.2447 31.6567Z" fill="#BF2721"/>
<path d="M78.3621 34.5356L78.3291 34.557L78.2533 34.6114V34.623L78.2313 34.6444L78.0785 34.7208L78.0137 34.7428L77.9477 34.7526L77.8713 34.7642L77.7845 34.7752L77.7081 34.7642L77.6323 34.7526L77.5442 34.7312L77.4575 34.6988L77.3487 34.6444L77.2172 34.5356L77.2062 34.524L74.7093 32.1695L74.1647 31.6567C73.8481 31.3627 73.8377 30.8609 74.1317 30.5449L74.1751 30.5119L74.2081 30.4788L74.2735 30.4244L74.3939 30.3597L74.5461 30.3156L74.7093 30.2943L74.8187 30.3156H74.8621L75.015 30.3597L75.1348 30.4244L75.2002 30.4788L75.2436 30.5119L75.2766 30.5449L77.7631 32.8889L77.7845 32.911L78.3291 33.4122C78.6457 33.7178 78.6561 34.208 78.3621 34.5356Z" fill="#BF2721"/>
<path d="M81.4049 31.6567L80.8707 32.1695L78.3622 34.5356L78.3298 34.557L78.254 34.6114V34.623L78.232 34.6444L78.1446 34.6878L78.0792 34.7208L78.0138 34.7428L77.9484 34.7526L77.872 34.7642L77.7846 34.7752L77.7082 34.7642L77.6324 34.7526L77.545 34.7312L77.4576 34.6988L77.3488 34.6444L77.2174 34.5356L77.207 34.524C76.9123 34.208 76.9344 33.7068 77.2504 33.4122L77.7846 32.911L80.2925 30.5449L80.4013 30.4471L80.4239 30.4354L80.5541 30.3597L80.7069 30.3156L80.8707 30.2943L80.9795 30.3156H81.0229L81.1757 30.3597L81.3065 30.4354L81.3285 30.4471L81.4049 30.5119L81.4373 30.5449L81.5461 30.6861C81.7319 30.9917 81.6769 31.4061 81.4049 31.6567Z" fill="#BF2721"/>
<path d="M84.5219 34.5246L84.4889 34.5576L84.4675 34.5796L84.3801 34.6444L84.2927 34.6884L84.1729 34.7318L84.1075 34.7532L83.9443 34.7752L83.8678 34.7648L83.7914 34.7532L83.682 34.7208L83.6056 34.6884L83.5182 34.6444L83.4314 34.5796L83.377 34.5362L83.366 34.5246L80.8691 32.1695L80.3239 31.6573C80.0073 31.3627 79.9969 30.8615 80.2909 30.5449L80.4003 30.4471L80.4223 30.4361L80.5531 30.3603L80.7059 30.3156L80.8691 30.2943L80.9779 30.3156H81.0213L81.1741 30.3603L81.3049 30.4361L81.3269 30.4471L81.4033 30.5125L81.4357 30.5449L83.9222 32.8889L83.9443 32.911L84.4889 33.4128C84.8055 33.7068 84.8159 34.208 84.5219 34.5246Z" fill="#BF2721"/>
<path d="M87.5667 31.6567L87.0325 32.1695L84.5356 34.524H84.5246L84.4922 34.557L84.4708 34.579L84.3827 34.6444L84.2953 34.6878L84.1755 34.7312L84.1107 34.7526L83.9469 34.7752L83.8705 34.7642L83.7941 34.7526L83.6847 34.7208L83.6083 34.6878L83.5215 34.6444L83.4341 34.579L83.3797 34.5356L83.3693 34.524C83.0741 34.208 83.0967 33.7068 83.4127 33.4122L83.9469 32.911L86.4548 30.5449L86.4982 30.5119L86.5312 30.4788L86.6076 30.4244L86.7274 30.3597L86.8686 30.3156L87.0325 30.2943L87.1419 30.3156H87.1853L87.3375 30.3597L87.4689 30.4354L87.4903 30.4471L87.5667 30.5119L87.5997 30.5449L87.7085 30.6861C87.8937 30.9917 87.8393 31.4061 87.5667 31.6567Z" fill="#BF2721"/>
<path d="M90.6834 34.5356L90.6504 34.557L90.5856 34.6114V34.623L90.5526 34.6444L90.4432 34.6988L90.3564 34.7312L90.269 34.7526L90.1925 34.7642L90.1161 34.7752L90.0293 34.7642L89.9529 34.7526L89.8221 34.7208L89.6693 34.6444L89.6479 34.623L89.5715 34.557L89.5385 34.5356L87.0306 32.1695L86.486 31.6567C86.1694 31.3627 86.159 30.8609 86.453 30.5449L86.4964 30.5119L86.5294 30.4788L86.6058 30.4244L86.7256 30.3597L86.8674 30.3156L87.0306 30.2943L87.14 30.3156H87.1834L87.3356 30.3597L87.467 30.4354L87.4884 30.4471L87.5648 30.5119L87.5978 30.5449L90.0947 32.8779L90.1161 32.8999L90.6504 33.4122C90.967 33.7178 90.978 34.208 90.6834 34.5356Z" fill="#BF2721"/>
<path d="M93.9785 31.0901C93.9785 31.2973 93.9021 31.5045 93.7279 31.6573L92.4082 32.911L90.6851 34.5362L90.6527 34.5576L90.5873 34.612V34.623L90.5543 34.6444L90.4455 34.6988L90.3581 34.7318L90.2713 34.7532L90.1949 34.7648L90.1185 34.7752L90.0311 34.7648L89.9547 34.7532L89.8239 34.7208L89.7585 34.6884L89.6711 34.6444L89.6497 34.623L89.5733 34.5576L89.5403 34.5362C89.2353 34.2086 89.2567 33.7184 89.5733 33.4128L90.1185 32.9006L92.6478 30.5125L92.6698 30.5015L92.6808 30.4911L92.7572 30.4361L92.822 30.392L92.888 30.3603L92.9534 30.3383L93.0732 30.3059L93.1937 30.2943L93.3025 30.3156H93.3459L93.4987 30.3603L93.5635 30.392L93.6845 30.4685L93.7493 30.5345L93.7713 30.5449L93.7823 30.5669L93.7927 30.5779L93.8801 30.7087L93.9235 30.8071L93.9565 30.9159L93.9669 30.9709L93.9785 31.0901Z" fill="#BF2721"/>
<path d="M38.5221 31.0901V99.5418C38.5221 99.9776 38.162 100.326 37.7372 100.326C37.6712 100.326 37.6064 100.316 37.552 100.305C37.2794 100.239 37.0502 100.021 36.9848 99.749L36.9628 99.6286L36.9414 99.5418V31.0901L36.9524 30.9709L36.9628 30.9159L36.9958 30.8071C37.0288 30.7197 37.0722 30.6433 37.137 30.5779L37.2464 30.4685L37.3558 30.3921L37.4206 30.3603L37.5734 30.3156L37.7372 30.2943L37.8026 30.3059H37.8466L37.9658 30.3383L38.0422 30.3603L38.1076 30.3921L38.1737 30.4361L38.2384 30.4911L38.2605 30.5015L38.2715 30.5125L38.3809 30.6543C38.4677 30.7735 38.5221 30.9263 38.5221 31.0901Z" fill="#BF2721"/>
<path d="M93.9785 31.0901V99.5418C93.9785 99.9776 93.6295 100.326 93.1936 100.326C92.7572 100.326 92.4082 99.9776 92.4082 99.5418V31.0901C92.4082 30.8505 92.5066 30.6433 92.6698 30.5015L92.6808 30.4911L92.7572 30.4361L92.822 30.3921L92.888 30.3603L92.9534 30.3383L93.0732 30.3059L93.1936 30.2943L93.3024 30.3156H93.3458L93.4986 30.3603L93.5634 30.3921L93.6845 30.4685L93.7493 30.5345L93.7823 30.5669L93.7927 30.5779L93.8801 30.7087L93.9235 30.8071L93.9565 30.9159L93.9669 30.9709L93.9785 31.0901Z" fill="#BF2721"/>
<path d="M93.9779 99.5393C93.9779 99.9757 93.6234 100.326 93.1906 100.326H37.7326C37.2998 100.326 36.9453 99.9757 36.9453 99.5393C36.9453 99.1059 37.2998 98.7514 37.7326 98.7514H93.1906C93.6234 98.7514 93.9779 99.1059 93.9779 99.5393Z" fill="#BF2721"/>
<path d="M95.9033 98.7517H93.9785V96.0396H95.9033C96.6514 96.0396 97.2614 96.6503 97.2614 97.3978C97.2614 98.146 96.6514 98.7517 95.9033 98.7517ZM95.9033 94.4651H92.4033V100.326H95.9033C97.5206 100.326 98.836 99.0121 98.836 97.3978C98.836 95.7799 97.5206 94.4651 95.9033 94.4651Z" fill="#BF2721"/>
<path d="M97.2663 97.3974C97.2663 98.1455 96.6563 98.7512 95.9082 98.7512H93.9834V96.0392H95.9082C96.6563 96.0392 97.2663 96.6492 97.2663 97.3974Z" fill="#BF2721"/>
<path d="M33.7789 97.9269C33.7025 97.7637 33.6591 97.5895 33.6591 97.3933C33.6591 97.1091 33.7465 96.8591 33.8987 96.6409C34.1493 96.2814 34.5644 96.0412 35.0222 96.0412H36.9415V98.7447H35.0222C34.9238 98.7447 34.8364 98.7343 34.7496 98.7239C34.3132 98.6359 33.9537 98.3303 33.7789 97.9269ZM35.0222 94.46C34.9354 94.46 34.859 94.46 34.7826 94.471C34.6952 94.471 34.6188 94.493 34.5424 94.5034C34.4116 94.526 34.2808 94.5578 34.1493 94.5914L34.0846 94.6128C34.0192 94.6348 33.9537 94.6672 33.8883 94.6892C33.7141 94.765 33.5387 94.853 33.3865 94.9612C32.6017 95.496 32.0889 96.3896 32.0889 97.3933C32.0889 98.1017 32.3401 98.7557 32.7759 99.2686C32.8847 99.4104 33.0161 99.5418 33.1573 99.65C33.6701 100.075 34.3132 100.326 35.0222 100.326H38.5221V94.46H35.0222Z" fill="#BF2721"/>
<path d="M36.949 96.04V98.7521H35.0242C34.276 98.7521 33.666 98.1457 33.666 97.3982C33.666 96.6501 34.276 96.04 35.0242 96.04H36.949Z" fill="#BF2721"/>
<path d="M84.2165 47.1675H78.6109C77.8511 47.1675 77.2331 46.5489 77.2331 45.7897C77.2331 45.0257 77.8511 44.4114 78.6109 44.4114H84.2165C84.9806 44.4114 85.5942 45.0257 85.5942 45.7897C85.5942 46.5489 84.9806 47.1675 84.2165 47.1675ZM84.2165 56.3122H78.6109C77.8511 56.3122 77.2331 55.6936 77.2331 54.9338C77.2331 54.1741 77.8511 53.5561 78.6109 53.5561H84.2165C84.9806 53.5561 85.5942 54.1741 85.5942 54.9338C85.5942 55.6936 84.9806 56.3122 84.2165 56.3122ZM84.2165 65.4562H78.6109C77.8511 65.4562 77.2331 64.8426 77.2331 64.0785C77.2331 63.3188 77.8511 62.7008 78.6109 62.7008H84.2165C84.9806 62.7008 85.5942 63.3188 85.5942 64.0785C85.5942 64.8426 84.9806 65.4562 84.2165 65.4562ZM84.2165 74.6052H78.6109C77.8511 74.6052 77.2331 73.9867 77.2331 73.2269C77.2331 72.4635 77.8511 71.8492 78.6109 71.8492H84.2165C84.9806 71.8492 85.5942 72.4635 85.5942 73.2269C85.5942 73.9867 84.9806 74.6052 84.2165 74.6052ZM84.2165 83.7499H84.1572C83.3974 83.7499 82.7795 83.1314 82.7795 82.3716C82.7795 81.6124 83.3974 80.9939 84.1572 80.9939H84.2165C84.9806 80.9939 85.5942 81.6124 85.5942 82.3716C85.5942 83.1314 84.9806 83.7499 84.2165 83.7499ZM78.095 82.3716C78.095 81.6124 78.7093 80.9939 79.4727 80.9939H79.5876C80.3468 80.9939 80.9653 81.6124 80.9653 82.3716C80.9653 83.1314 80.3468 83.7499 79.5876 83.7499H79.4727C78.7093 83.7499 78.095 83.1314 78.095 82.3716ZM84.2165 91.4533H74.1116C73.3518 91.4533 72.7338 90.8348 72.7338 90.0756C72.7338 89.3116 73.3518 88.6973 74.1116 88.6973H84.2165C84.9806 88.6973 85.5942 89.3116 85.5942 90.0756C85.5942 90.8348 84.9806 91.4533 84.2165 91.4533ZM74.7845 80.9939H74.8988C75.6586 80.9939 76.2766 81.6124 76.2766 82.3716C76.2766 83.1314 75.6586 83.7499 74.8988 83.7499H74.7845C74.0248 83.7499 73.4068 83.1314 73.4068 82.3716C73.4068 81.6124 74.0248 80.9939 74.7845 80.9939ZM70.4509 47.1675H46.7172C45.9531 47.1675 45.3394 46.5489 45.3394 45.7897C45.3394 45.0257 45.9531 44.4114 46.7172 44.4114H70.4509C71.2143 44.4114 71.828 45.0257 71.828 45.7897C71.828 46.5489 71.2143 47.1675 70.4509 47.1675ZM45.3394 54.9338C45.3394 54.1741 45.9531 53.5561 46.7172 53.5561H63.2071C63.9711 53.5561 64.5854 54.1741 64.5854 54.9338C64.5854 55.6936 63.9711 56.3122 63.2071 56.3122H46.7172C45.9531 56.3122 45.3394 55.6936 45.3394 54.9338ZM70.4509 65.4562H46.7172C45.9531 65.4562 45.3394 64.8426 45.3394 64.0785C45.3394 63.3188 45.9531 62.7008 46.7172 62.7008H70.4509C71.2143 62.7008 71.828 63.3188 71.828 64.0785C71.828 64.8426 71.2143 65.4562 70.4509 65.4562ZM70.2106 83.7499H70.0957C69.3366 83.7499 68.7186 83.1314 68.7186 82.3716C68.7186 81.6124 69.3366 80.9939 70.0957 80.9939H70.2106C70.9741 80.9939 71.5884 81.6124 71.5884 82.3716C71.5884 83.1314 70.9741 83.7499 70.2106 83.7499ZM65.5261 83.7499H65.4118C64.6478 83.7499 64.0335 83.1314 64.0335 82.3716C64.0335 81.6124 64.6478 80.9939 65.4118 80.9939H65.5261C66.2859 80.9939 66.9039 81.6124 66.9039 82.3716C66.9039 83.1314 66.2859 83.7499 65.5261 83.7499ZM46.7172 74.6052C45.9531 74.6052 45.3394 73.9867 45.3394 73.2269C45.3394 72.4635 45.9531 71.8492 46.7172 71.8492H63.2071C63.9711 71.8492 64.5854 72.4635 64.5854 73.2269C64.5854 73.9867 63.9711 74.6052 63.2071 74.6052H46.7172ZM60.8373 83.7499H60.723C59.9596 83.7499 59.3459 83.1314 59.3459 82.3716C59.3459 81.6124 59.9596 80.9939 60.723 80.9939H60.8373C61.5971 80.9939 62.2157 81.6124 62.2157 82.3716C62.2157 83.1314 61.5971 83.7499 60.8373 83.7499ZM56.1492 83.7499H56.0355C55.2751 83.7499 54.6577 83.1314 54.6577 82.3716C54.6577 81.6124 55.2751 80.9939 56.0355 80.9939H56.1492C56.9089 80.9939 57.5269 81.6124 57.5269 82.3716C57.5269 83.1314 56.9089 83.7499 56.1492 83.7499ZM51.461 83.7499H51.3467C50.5863 83.7499 49.969 83.1314 49.969 82.3716C49.969 81.6124 50.5863 80.9939 51.3467 80.9939H51.461C52.2244 80.9939 52.8387 81.6124 52.8387 82.3716C52.8387 83.1314 52.2244 83.7499 51.461 83.7499ZM46.7765 83.7499H46.7172C45.9531 83.7499 45.3394 83.1314 45.3394 82.3716C45.3394 81.6124 45.9531 80.9939 46.7172 80.9939H46.7765C47.5362 80.9939 48.1542 81.6124 48.1542 82.3716C48.1542 83.1314 47.5362 83.7499 46.7765 83.7499ZM90.6883 34.5308L90.6565 34.5625L90.5862 34.6176L90.5544 34.6414L90.4438 34.7007C90.3894 34.7276 90.3301 34.7477 90.2708 34.7594C90.2195 34.7716 90.1687 34.7753 90.1131 34.7753L89.956 34.7594L89.8264 34.7202L89.7629 34.6885L89.6767 34.6414L89.6449 34.6176L89.5746 34.5625L89.5428 34.5308L87.0349 32.1689L84.5319 34.5228L84.4922 34.5625L84.4683 34.5821L84.3822 34.6493L84.2996 34.6927C84.2403 34.7239 84.1737 34.7477 84.1101 34.7594L83.9525 34.7753L83.796 34.7594C83.7324 34.7477 83.6658 34.7239 83.6065 34.6927L83.5234 34.6493L83.4372 34.5821L83.3779 34.5308L83.3742 34.5228L80.8743 32.1689L78.3633 34.5308L78.3315 34.5625L78.2606 34.6176L78.2288 34.6414L78.142 34.6885L78.0797 34.7202L77.9495 34.7594L77.7918 34.7753L77.6347 34.7594C77.576 34.7477 77.5167 34.7276 77.4611 34.7007L77.3517 34.6414L77.2179 34.5308L77.2136 34.5228L74.7099 32.1689L72.2027 34.5308L72.1709 34.5625L72.1 34.6176L72.0682 34.6414L71.9582 34.7007C71.9032 34.7276 71.8445 34.7477 71.7852 34.7594L71.6275 34.7753L71.4698 34.7594L71.3408 34.7202L71.2773 34.6885L71.1905 34.6414L71.1593 34.6176L71.0878 34.5625L71.0572 34.5308L68.5493 32.1689L66.0451 34.5228L66.006 34.5625L65.9827 34.5821L65.8959 34.6493L65.8134 34.6927C65.7541 34.7239 65.6875 34.7477 65.6245 34.7594L65.4668 34.7753L65.3091 34.7594C65.2468 34.7477 65.1796 34.7239 65.1209 34.6927L65.0378 34.6493L64.951 34.5821L64.8923 34.5308L64.888 34.5228L62.3887 32.1689L59.8771 34.5308L59.8459 34.5625L59.775 34.6176L59.7432 34.6414L59.6564 34.6885L59.5935 34.7202L59.4639 34.7594L59.3062 34.7753L59.1485 34.7594L59.0152 34.7202L58.9523 34.6885L58.8649 34.6414L58.8343 34.6176L58.7628 34.5625L58.7316 34.5308L56.2237 32.1689L53.7201 34.5228L53.681 34.5625L53.5826 34.6414L53.4719 34.7007C53.4169 34.7276 53.3583 34.7477 53.299 34.7594L53.1419 34.7753L52.9842 34.7594L52.854 34.7202L52.7916 34.6885L52.7048 34.6414L52.6737 34.6176L52.6022 34.5625L52.571 34.5308L50.0631 32.1689L47.5595 34.5228L47.5203 34.5625L47.4971 34.5821L47.4103 34.6493L47.3272 34.6927C47.2685 34.7239 47.2013 34.7477 47.1383 34.7594L46.9812 34.7753L46.8235 34.7594C46.7606 34.7477 46.6933 34.7239 46.6347 34.6927L46.5521 34.6493L46.4653 34.5821L46.4067 34.5308L46.4024 34.5228L43.8988 32.1689L41.3915 34.5308L41.3597 34.5625L41.2894 34.6176L41.2576 34.6414L41.1708 34.6885L41.1079 34.7202L40.9777 34.7594L40.8206 34.7753C40.765 34.7753 40.7142 34.7716 40.6629 34.7594L40.529 34.7202L40.4661 34.6885L40.3793 34.6414L40.3475 34.6176L40.2772 34.5625L40.2454 34.5308L38.5254 32.9134V98.7515H92.4083V32.9134L90.6883 34.5308Z" fill="#BF2721"/>
<path d="M130.915 64.629V66.3191C130.915 66.7879 130.904 67.2561 130.882 67.7146L93.8757 30.7085L93.7889 30.5777L93.7779 30.5661L93.7675 30.5447L93.7449 30.5343L93.6801 30.4683L93.5597 30.3919L93.4943 30.3601L93.3415 30.3155H93.2981L93.1893 30.2941L93.0689 30.3057H93.0255L92.9057 30.3375L92.8403 30.3601L92.7749 30.3919L92.7095 30.4359L92.633 30.4903L92.6227 30.5013L92.6 30.5123L90.0928 32.8784L87.5959 30.5447L87.5629 30.5123L87.4864 30.4469L87.465 30.4359L87.3336 30.3601L87.1814 30.3155H87.138L87.0286 30.2941L86.8654 30.3155H86.8214L86.6796 30.3601L86.5604 30.4249L86.484 30.4793L86.451 30.5123L86.4076 30.5447L83.9211 32.8888L81.4352 30.5447L81.4028 30.5123L81.3264 30.4469L81.3044 30.4359L81.1736 30.3601L81.0208 30.3155H80.9774L80.8686 30.2941L80.7048 30.3155H80.6614L80.5086 30.3601L80.3778 30.4359L80.3558 30.4469L80.2464 30.5447L77.7611 32.8888L75.2752 30.5447L75.2422 30.5123L75.1988 30.4793L75.1328 30.4249L75.0136 30.3601L74.8608 30.3155H74.8174L74.7079 30.2941L74.5441 30.3155H74.5007L74.3479 30.3601L74.2281 30.4249L74.1627 30.4793L74.1303 30.5123L74.0863 30.5447L71.6004 32.8784L69.1145 30.5447L69.0821 30.5123L69.0057 30.4469L68.9837 30.4359L68.8529 30.3601L68.7001 30.3155H68.6567L68.5363 30.2941H68.5149L68.3841 30.3155H68.3407L68.1879 30.3601L68.0681 30.4249L68.0021 30.4793L67.9257 30.5447L65.4404 32.8888L62.9539 30.5447L62.9215 30.5123L62.8451 30.4469L62.8237 30.4359L62.6929 30.3601L62.5401 30.3155H62.4961L62.3763 30.2941H62.3543L62.2234 30.3155H62.18L62.0272 30.3601L61.8964 30.4359L61.875 30.4469L61.7656 30.5447L59.2797 32.8784L56.7932 30.5447L56.7614 30.5123H56.7498L56.7174 30.4793L56.641 30.4249L56.5212 30.3601L56.38 30.3155H56.3354L56.2156 30.2941H56.1942L56.0634 30.3155H56.02L55.8672 30.3601L55.7468 30.4249L55.6814 30.4793L55.594 30.5447L53.1087 32.8888L50.6008 30.5123L50.5134 30.4469L50.4914 30.4359L50.3606 30.3601L50.2188 30.3155H50.1754L50.0556 30.2941H50.0336L49.9028 30.3155H49.8594L49.7066 30.3601L49.5758 30.4359L49.5427 30.4469L49.434 30.5447L46.9481 32.8888L44.4622 30.5447L44.4291 30.5123L44.3864 30.4793L44.3203 30.4249L44.2005 30.3601L44.0477 30.3155H44.0043L43.8949 30.2941L43.7311 30.3155H43.6877L43.5465 30.3601L43.4157 30.4359L43.3827 30.4469L43.2733 30.5447L40.788 32.8784L38.2691 30.5123L38.2581 30.5013L38.2361 30.4903L38.1713 30.4359L38.1053 30.3919L38.0399 30.3601L37.9635 30.3375L37.8437 30.3057H37.8003L37.7349 30.2941L37.5711 30.3155H37.5277L37.3749 30.3601L37.3095 30.3919L37.2007 30.4683L37.1347 30.5343L37.1133 30.5447L37.1029 30.5661L37.0913 30.5777C37.0265 30.6425 36.9825 30.7189 36.9501 30.8069L36.9171 30.9157L36.9061 30.9707L36.8951 31.0899V94.4604H35.0198C34.933 94.4604 34.8566 94.4604 34.7802 94.4708C34.6928 94.4708 34.6164 94.4928 34.54 94.5038C34.4092 94.5258 34.2784 94.5478 34.1475 94.5918L34.0821 94.6132C34.0167 94.6236 33.9513 94.6456 33.8859 94.6896C33.7117 94.7654 33.5369 94.8528 33.3847 94.9616C32.5773 95.4634 32.0431 96.3571 32.0431 97.3937C32.0431 98.1022 32.2937 98.7562 32.7301 99.269C32.8389 99.4102 32.9703 99.5416 33.1115 99.6504L64.3603 130.91H63.4881C28.5321 129.874 0.455603 101.428 0.00878906 66.3191V64.629C0.455603 28.8552 29.5896 0.00427246 65.4618 0.00427246C101.334 0.00427246 130.468 28.8552 130.915 64.629Z" fill="#F1F3F4"/>
</g>
<defs>
<clipPath id="clip0_13_12817">
<rect width="131" height="131" fill="white"/>
</clipPath>
</defs>
</svg>
