<svg width="34" height="35" viewBox="0 0 34 35" fill="none" xmlns="http://www.w3.org/2000/svg">
<path d="M15.1727 19.7273V19.8273H15.2727H26.7273C27.0383 19.8273 27.3366 19.9508 27.5565 20.1708C27.7764 20.3907 27.9 20.689 27.9 21C27.9 24.6865 26.4355 28.222 23.8288 30.8288C21.222 33.4355 17.6865 34.9 14 34.9C10.3135 34.9 6.77797 33.4355 4.17122 30.8288C1.56446 28.222 0.1 24.6865 0.1 21C0.1 17.3135 1.56446 13.778 4.17122 11.1712C6.77797 8.56446 10.3135 7.1 14 7.1C14.311 7.1 14.6093 7.22356 14.8292 7.44348C15.0492 7.66341 15.1727 7.9617 15.1727 8.27273V19.7273ZM12.8273 9.62182V9.51008L12.7162 9.52243C10.5532 9.76309 8.50216 10.6097 6.7992 11.9649C5.09625 13.32 3.81064 15.1286 3.0904 17.1823C2.37017 19.236 2.24459 21.4514 2.72813 23.5733C3.21168 25.6953 4.28467 27.6375 5.82358 29.1764C7.36249 30.7153 9.30474 31.7883 11.4267 32.2719C13.5486 32.7554 15.764 32.6298 17.8177 31.9096C19.8714 31.1894 21.68 29.9038 23.0351 28.2008C24.3903 26.4978 25.2369 24.4468 25.4776 22.2838L25.4899 22.1727H25.3782H15.2727C14.6242 22.1727 14.0021 21.9151 13.5435 21.4565C13.0849 20.9979 12.8273 20.3758 12.8273 19.7273V9.62182Z" fill="#C02425" stroke="#F4F3F9" stroke-width="0.2"/>
<path d="M21.4 12.5V12.6H21.5H31.425H31.5369L31.5244 12.4888C31.2374 9.93197 30.0902 7.54847 28.2709 5.72914C26.4515 3.90981 24.068 2.7626 21.5112 2.47562L21.4 2.46315V2.575V12.5ZM32.75 14.9H21.5C20.8635 14.9 20.253 14.6471 19.8029 14.1971C19.3529 13.747 19.1 13.1365 19.1 12.5V1.25C19.1 0.945001 19.2212 0.652494 19.4368 0.436827C19.6525 0.22116 19.945 0.1 20.25 0.1C23.8702 0.1 27.3421 1.53812 29.902 4.09799C32.4619 6.65786 33.9 10.1298 33.9 13.75C33.9 14.055 33.7788 14.3475 33.5632 14.5632C33.3475 14.7788 33.055 14.9 32.75 14.9Z" fill="#C02425" stroke="#F4F3F9" stroke-width="0.2"/>
</svg>
