<svg width="10" height="10" viewBox="0 0 10 10" fill="none" xmlns="http://www.w3.org/2000/svg">
<path d="M6.96126 0.955397C6.92263 0.916629 6.87672 0.885884 6.82616 0.864932C6.77561 0.84398 6.7214 0.833234 6.66668 0.833313H3.33334C3.27862 0.833234 3.22442 0.84398 3.17386 0.864932C3.1233 0.885884 3.07739 0.916629 3.03876 0.955397L0.955427 3.03873C0.91666 3.07736 0.885915 3.12327 0.864962 3.17383C0.84401 3.22439 0.833265 3.27859 0.833344 3.33331V6.66665C0.833344 6.77748 0.877094 6.88331 0.955427 6.96123L3.03876 9.04457C3.07739 9.08333 3.1233 9.11408 3.17386 9.13503C3.22442 9.15598 3.27862 9.16673 3.33334 9.16665H6.66668C6.77751 9.16665 6.88334 9.1229 6.96126 9.04457L9.0446 6.96123C9.08336 6.9226 9.11411 6.87669 9.13506 6.82613C9.15601 6.77558 9.16676 6.72137 9.16668 6.66665V3.33331C9.16676 3.27859 9.15601 3.22439 9.13506 3.17383C9.11411 3.12327 9.08336 3.07736 9.0446 3.03873L6.96126 0.955397ZM5.41668 7.08331H4.58334V6.24998H5.41668V7.08331ZM5.41668 5.41665H4.58334V2.91665H5.41668V5.41665Z" fill="white"/>
</svg>
